<svg width="187" height="12" viewBox="0 0 187 12" fill="none" xmlns="http://www.w3.org/2000/svg">
<g clip-path="url(#clip0_3825_6897)">
<path d="M3.58819 8.18824L2.55314 10.5882C3.24317 10.5882 3.51919 10.5882 3.7952 10.5882C4.00221 10.5882 4.20923 10.8 4.20923 11.0824C4.20923 11.3647 4.00221 11.5765 3.7952 11.5765C3.51919 11.5765 3.38118 11.4353 2.07011 11.4353C0.759041 11.4353 0.621033 11.5765 0.414022 11.5765C0.207011 11.5765 0 11.4353 0 11.0824C0 10.8 0.207011 10.5882 0.414022 10.5882C0.690037 10.5882 0.897048 10.5882 1.58708 10.5882L5.93432 0.352941C6.00332 0.141176 6.14133 0 6.34834 0C6.62435 0 6.69336 0.141176 6.76236 0.352941L11.0406 10.5882C11.8686 10.5882 12.0066 10.5882 12.2137 10.5882C12.4207 10.5882 12.6277 10.8 12.6277 11.0824C12.6277 11.3647 12.4207 11.5765 12.2137 11.5765C11.9376 11.5765 11.8686 11.4353 10.0745 11.4353C8.34945 11.4353 8.21144 11.5765 7.93542 11.5765C7.72841 11.5765 7.5214 11.4353 7.5214 11.0824C7.5214 10.8 7.72841 10.5882 7.93542 10.5882C8.21144 10.5882 8.28044 10.5882 9.03948 10.5882L8.07343 8.25882H3.58819V8.18824ZM7.65941 7.27059L5.86531 2.82353L4.00221 7.27059H7.65941Z" fill="#010101"/>
<path d="M18.8381 10.5882C19.9421 10.5882 20.0801 10.5882 20.3561 10.5882C20.5632 10.5882 20.7702 10.8 20.7702 11.0823C20.7702 11.3647 20.5632 11.5764 20.3561 11.5764C20.0801 11.5764 20.0111 11.4353 18.424 11.4353H18.355C16.768 11.4353 16.6989 11.5764 16.4229 11.5764C16.2159 11.5764 16.0089 11.4353 16.0089 11.0823C16.0089 10.8 16.2159 10.5882 16.4229 10.5882C16.6989 10.5882 16.837 10.5882 17.941 10.5882V1.05879C16.837 1.05879 16.6989 1.05879 16.4229 1.05879C16.2159 1.05879 16.0089 0.917616 16.0089 0.564674C16.0089 0.282321 16.2159 0.0705566 16.4229 0.0705566C16.6989 0.0705566 16.837 0.211733 18.355 0.211733H18.6311C18.9071 0.211733 19.1831 0.211733 19.3901 0.211733C19.7351 0.211733 19.8731 0.35291 20.2181 0.917615L25.1174 8.04703V1.05879C24.0133 1.05879 23.8753 1.05879 23.5993 1.05879C23.3923 1.05879 23.1853 0.917616 23.1853 0.564674C23.1853 0.282321 23.3923 0.0705566 23.5993 0.0705566C23.8753 0.0705566 24.0133 0.211733 25.5314 0.211733H25.6004C27.1875 0.211733 27.2565 0.0705566 27.5325 0.0705566C27.7395 0.0705566 27.9466 0.282321 27.9466 0.564674C27.9466 0.847027 27.7395 1.05879 27.5325 1.05879C27.2565 1.05879 27.1185 1.05879 26.0144 1.05879V11.0823C26.0144 11.5764 25.7384 11.7176 25.5314 11.7176C25.2554 11.7176 25.1864 11.5764 24.9104 11.3647L18.8381 2.32938V10.5882Z" fill="#010101"/>
<path d="M40.9881 3.88232C40.7121 3.88232 40.5051 3.67056 40.5051 3.45879C40.5051 1.48232 40.0911 0.988204 38.573 0.988204H37.469V10.5176C38.78 10.5176 38.918 10.5176 39.194 10.5176C39.4011 10.5176 39.6081 10.7294 39.6081 11.0117C39.6081 11.2941 39.4011 11.5059 39.194 11.5059C38.918 11.5059 38.78 11.3647 36.5719 11.3647H36.4339C34.2258 11.3647 34.0878 11.5059 33.8118 11.5059C33.6047 11.5059 33.3977 11.3647 33.3977 11.0117C33.3977 10.7294 33.6047 10.5176 33.8118 10.5176C34.0878 10.5176 34.2258 10.5176 35.5368 10.5176V0.988204H34.4328C32.8457 0.988204 32.4317 1.48232 32.4317 3.45879C32.4317 3.67056 32.2937 3.88232 32.0177 3.88232C31.7416 3.88232 31.6036 3.67056 31.6036 3.45879C31.6036 3.17644 31.7416 2.39997 31.7416 1.27056V0.564674C31.7416 0.282321 31.9487 0.0705566 32.1557 0.0705566C32.3627 0.0705566 33.2597 0.211733 33.6737 0.211733H39.4701C39.8841 0.211733 40.7121 0.0705566 40.9191 0.0705566C41.1261 0.0705566 41.3332 0.282321 41.3332 0.564674V1.27056C41.2642 2.47056 41.4022 3.24703 41.4022 3.52938C41.4022 3.67056 41.2642 3.88232 40.9881 3.88232Z" fill="#010101"/>
<path d="M49.7516 6.07056V10.5882C50.5797 10.5882 50.7177 10.5882 50.9937 10.5882C51.2007 10.5882 51.4077 10.8 51.4077 11.0823C51.4077 11.3647 51.2007 11.5764 50.9937 11.5764C50.7177 11.5764 50.4417 11.4353 48.8546 11.4353H48.7166C46.5775 11.4353 46.3705 11.5764 46.0944 11.5764C45.8874 11.5764 45.6804 11.4353 45.6804 11.0823C45.6804 10.8 45.8874 10.5882 46.0944 10.5882C46.3705 10.5882 46.5085 10.5882 47.8195 10.5882V1.05879C46.5085 1.05879 46.3705 1.05879 46.0944 1.05879C45.8874 1.05879 45.6804 0.917616 45.6804 0.564674C45.6804 0.282321 45.8874 0.0705566 46.0944 0.0705566C46.3705 0.0705566 46.5085 0.211733 48.7166 0.211733H48.8546C50.5797 0.211733 50.7177 0.0705566 50.9937 0.0705566C51.2007 0.0705566 51.4077 0.282321 51.4077 0.564674C51.4077 0.847027 51.2007 1.05879 50.9937 1.05879C50.7177 1.05879 50.4417 1.05879 49.7516 1.05879V5.08232H54.5129V1.05879C53.6848 1.05879 53.5468 1.05879 53.2708 1.05879C53.0638 1.05879 52.8568 0.917616 52.8568 0.564674C52.8568 0.282321 53.0638 0.0705566 53.2708 0.0705566C53.5468 0.0705566 53.6848 0.211733 55.4099 0.211733H55.5479C57.7561 0.211733 57.8941 0.0705566 58.1701 0.0705566C58.3771 0.0705566 58.5841 0.282321 58.5841 0.564674C58.5841 0.847027 58.3771 1.05879 58.1701 1.05879C57.8941 1.05879 57.7561 1.05879 56.445 1.05879V10.5882C57.7561 10.5882 57.8941 10.5882 58.1701 10.5882C58.3771 10.5882 58.5841 10.8 58.5841 11.0823C58.5841 11.3647 58.3771 11.5764 58.1701 11.5764C57.8941 11.5764 57.7561 11.4353 55.5479 11.4353H55.4099C53.6848 11.4353 53.4778 11.5764 53.2708 11.5764C53.0638 11.5764 52.8568 11.4353 52.8568 11.0823C52.8568 10.8 53.0638 10.5882 53.2708 10.5882C53.5468 10.5882 53.7538 10.5882 54.5129 10.5882V6.07056H49.7516Z" fill="#010101"/>
<path d="M72.8678 8.47056C72.8678 9.59997 72.7988 9.74115 72.7988 10.3059C72.7988 10.7294 72.9368 11.0117 73.2819 11.0117C73.6269 11.0117 73.6959 10.8 73.6959 10.447C73.6959 10.2353 73.9029 10.0235 74.1099 10.0235C74.3169 10.0235 74.5239 10.2353 74.5239 10.447C74.5239 11.2941 73.7649 11.7176 73.2129 11.7176C71.9018 11.7176 71.0047 11.0823 71.0047 8.47056C71.0047 6.63526 70.7287 5.92938 68.7276 5.92938H67.6926V10.5882C69.0036 10.5882 69.1416 10.5882 69.4177 10.5882C69.6247 10.5882 69.8317 10.8 69.8317 11.0823C69.8317 11.3647 69.6247 11.5764 69.4177 11.5764C69.1416 11.5764 69.0036 11.4353 66.7955 11.4353H66.6575C64.5184 11.4353 64.3114 11.5764 64.0354 11.5764C63.8284 11.5764 63.6213 11.4353 63.6213 11.0823C63.6213 10.8 63.8284 10.5882 64.0354 10.5882C64.3114 10.5882 64.4494 10.5882 65.7605 10.5882V1.05879C64.4494 1.05879 64.3114 1.05879 64.0354 1.05879C63.8284 1.05879 63.6213 0.917616 63.6213 0.564674C63.6213 0.282321 63.8284 0.0705566 64.0354 0.0705566C64.3114 0.0705566 64.4494 0.211733 66.5195 0.211733C67.0715 0.211733 68.0376 0.141145 68.7276 0.141145C71.6258 0.141145 72.8678 1.34114 72.8678 2.8235C72.8678 4.09409 71.6258 5.15291 70.3147 5.43526C72.0398 5.85879 72.8678 7.19997 72.8678 8.47056ZM68.4516 1.05879C68.2446 1.05879 67.6926 1.05879 67.6926 1.05879V5.2235H68.3136C70.0387 5.2235 70.9357 4.65879 70.9357 2.96467C70.9357 1.6235 70.3147 1.05879 68.4516 1.05879Z" fill="#010101"/>
<path d="M83.4255 11.6471C80.6654 11.6471 78.2502 9.31765 78.2502 5.85882C78.2502 2.4 80.5964 0 83.4255 0C86.2547 0 88.6008 2.32941 88.6008 5.85882C88.5318 9.31765 86.1857 11.6471 83.4255 11.6471ZM83.4255 0.917647C81.4934 0.917647 80.4584 2.11765 80.4584 5.85882C80.4584 9.6 81.4934 10.8 83.4255 10.8C85.3576 10.8 86.3927 9.6 86.3927 5.85882C86.3927 2.11765 85.3576 0.917647 83.4255 0.917647Z" fill="#010101"/>
<path d="M97.5712 10.5882C98.8823 10.5882 99.0203 10.5882 99.2963 10.5882C99.5033 10.5882 99.7103 10.8 99.7103 11.0823C99.7103 11.3647 99.5033 11.5764 99.2963 11.5764C99.0203 11.5764 98.8823 11.4353 96.6742 11.4353H96.5362C94.397 11.4353 94.19 11.5764 93.914 11.5764C93.707 11.5764 93.5 11.4353 93.5 11.0823C93.5 10.8 93.707 10.5882 93.914 10.5882C94.19 10.5882 94.328 10.5882 95.6391 10.5882V1.05879C94.328 1.05879 94.19 1.05879 93.914 1.05879C93.707 1.05879 93.5 0.917616 93.5 0.564674C93.5 0.211733 93.707 0.0705566 93.914 0.0705566C94.19 0.0705566 94.328 0.211733 96.2601 0.211733C97.1572 0.211733 97.5712 0.211733 98.5373 0.211733C101.504 0.211733 103.092 1.6235 103.092 3.52938C103.092 5.50585 101.504 6.91762 98.5373 6.91762C98.1922 6.91762 97.8472 6.91762 97.5022 6.91762L97.5712 10.5882ZM97.5712 6.21173C97.5712 6.21173 98.2613 6.21173 98.6063 6.21173C100.538 6.21173 101.228 5.50585 101.228 3.59997C101.228 1.76467 100.538 1.05879 98.6063 1.05879C98.2613 1.05879 97.5712 1.05879 97.5712 1.05879V6.21173Z" fill="#010101"/>
<path d="M112.269 11.6471C109.509 11.6471 107.094 9.31765 107.094 5.85882C107.094 2.4 109.44 0 112.269 0C115.098 0 117.444 2.32941 117.444 5.85882C117.444 9.31765 115.098 11.6471 112.269 11.6471ZM112.269 0.917647C110.337 0.917647 109.233 2.11765 109.233 5.85882C109.233 9.6 110.268 10.8 112.269 10.8C114.27 10.8 115.236 9.6 115.236 5.85882C115.236 2.11765 114.201 0.917647 112.269 0.917647Z" fill="#010101"/>
<path d="M129.175 10.6588C130.693 10.6588 131.107 10.1647 131.107 8.1882C131.107 7.97644 131.245 7.76467 131.59 7.76467C131.866 7.76467 132.004 7.97644 132.004 8.1882C132.004 8.47056 131.866 9.17644 131.866 10.3059V11.0823C131.866 11.3647 131.659 11.5764 131.452 11.5764C131.245 11.5764 130.348 11.4353 129.934 11.4353L125.38 11.3647C123.241 11.3647 123.034 11.5059 122.758 11.5059C122.551 11.5059 122.344 11.3647 122.344 11.0117C122.344 10.7294 122.551 10.5176 122.758 10.5176C123.034 10.5176 123.172 10.5176 124.483 10.5176V1.05879C123.172 1.05879 123.034 1.05879 122.758 1.05879C122.551 1.05879 122.344 0.917616 122.344 0.564674C122.344 0.211733 122.551 0.0705566 122.758 0.0705566C123.034 0.0705566 123.172 0.211733 125.38 0.211733H125.518C127.657 0.211733 127.864 0.0705566 128.14 0.0705566C128.347 0.0705566 128.554 0.282321 128.554 0.564674C128.554 0.847027 128.347 1.05879 128.14 1.05879C127.864 1.05879 127.726 1.05879 126.415 1.05879V10.5882H129.175V10.6588Z" fill="#010101"/>
<path d="M140.975 11.6471C138.214 11.6471 135.799 9.31765 135.799 5.85882C135.799 2.4 138.145 0 140.975 0C143.804 0 146.15 2.32941 146.15 5.85882C146.15 9.31765 143.804 11.6471 140.975 11.6471ZM140.975 0.917647C139.043 0.917647 137.938 2.11765 137.938 5.85882C137.938 9.6 138.973 10.8 140.975 10.8C142.907 10.8 143.942 9.6 143.942 5.85882C144.011 2.11765 142.976 0.917647 140.975 0.917647Z" fill="#010101"/>
<path d="M151.187 5.85882C151.187 2.4 153.533 0 156.362 0C157.88 0 158.639 0.494118 159.26 1.05882C159.398 0.917647 159.467 0.847059 159.467 0.635294C159.467 0.423529 159.467 0.141176 159.881 0.141176C160.226 0.141176 160.295 0.352941 160.295 0.635294V4.02353C160.295 4.23529 160.295 4.51765 159.881 4.51765C159.467 4.51765 159.467 4.23529 159.467 4.02353C159.467 2.32941 158.156 0.917647 156.5 0.917647C154.43 0.917647 153.326 2.25882 153.326 5.85882C153.326 9.45882 154.43 10.8 156.5 10.8C157.673 10.8 158.777 10.3059 158.777 7.69412C157.88 7.69412 157.742 7.69412 157.466 7.69412C157.259 7.69412 157.052 7.48235 157.052 7.2C157.052 6.91765 157.259 6.70588 157.466 6.70588C157.742 6.70588 157.811 6.84706 159.605 6.84706H159.743C161.607 6.84706 161.676 6.70588 161.883 6.70588C162.09 6.70588 162.297 6.91765 162.297 7.2C162.297 7.48235 162.09 7.69412 161.883 7.69412C161.607 7.69412 161.469 7.69412 160.641 7.69412C160.641 8.54118 160.364 11.6471 156.293 11.6471C153.533 11.6471 151.187 9.31765 151.187 5.85882Z" fill="#010101"/>
<path d="M172.095 10.5176C172.302 10.5176 172.509 10.7294 172.509 11.0117C172.509 11.2941 172.302 11.5059 172.095 11.5059C171.819 11.5059 171.681 11.3647 169.473 11.3647H169.335C167.196 11.3647 166.989 11.5059 166.713 11.5059C166.506 11.5059 166.299 11.3647 166.299 11.0117C166.299 10.7294 166.506 10.5176 166.713 10.5176C166.989 10.5176 167.127 10.5176 168.438 10.5176V1.05879C167.127 1.05879 166.989 1.05879 166.713 1.05879C166.506 1.05879 166.299 0.917616 166.299 0.564674C166.299 0.211733 166.506 0.0705566 166.713 0.0705566C166.989 0.0705566 167.127 0.211733 169.335 0.211733H169.473C171.612 0.211733 171.819 0.0705566 172.095 0.0705566C172.302 0.0705566 172.509 0.282321 172.509 0.564674C172.509 0.847027 172.302 1.05879 172.095 1.05879C171.819 1.05879 171.681 1.05879 170.37 1.05879V10.5882C171.681 10.5882 171.819 10.5176 172.095 10.5176Z" fill="#010101"/>
<path d="M182.584 5.15291C183.205 5.15291 183.757 4.65879 183.757 3.81173C183.757 3.59997 183.826 3.31762 184.102 3.31762C184.378 3.31762 184.378 3.52938 184.378 3.81173C184.378 4.09409 184.309 4.44703 184.309 5.43526V5.71762C184.309 6.70585 184.378 7.05879 184.378 7.34115C184.378 7.55291 184.378 7.83526 184.102 7.83526C183.826 7.83526 183.757 7.6235 183.757 7.34115C183.757 6.56467 183.205 5.99997 182.584 5.99997H181.687V10.6588H184.171C185.758 10.6588 186.103 10.1647 186.103 8.1882C186.103 7.97644 186.241 7.76467 186.586 7.76467C186.862 7.76467 187 7.97644 187 8.1882C187 8.47056 186.862 9.17644 186.862 10.3059V11.0823C186.862 11.3647 186.655 11.5764 186.448 11.5764C186.241 11.5764 185.344 11.4353 184.93 11.4353L180.583 11.3647C178.443 11.3647 178.236 11.5059 177.96 11.5059C177.753 11.5059 177.546 11.3647 177.546 11.0117C177.546 10.7294 177.753 10.5176 177.96 10.5176C178.236 10.5176 178.374 10.5176 179.686 10.5176V1.05879C178.374 1.05879 178.236 1.05879 177.96 1.05879C177.753 1.05879 177.546 0.917616 177.546 0.564674C177.546 0.282321 177.753 0.0705566 177.96 0.0705566C178.236 0.0705566 178.374 0.211733 180.583 0.211733H184.447C184.861 0.211733 185.689 0.0705566 185.965 0.0705566C186.172 0.0705566 186.379 0.282321 186.379 0.564674V1.27056C186.379 2.39997 186.517 3.17644 186.517 3.45879C186.517 3.67056 186.379 3.88232 186.103 3.88232C185.827 3.88232 185.62 3.67056 185.62 3.45879C185.62 1.48232 185.206 0.988204 183.688 0.988204H181.618V5.15291H182.584Z" fill="#010101"/>
</g>
<defs>
<clipPath id="clip0_3825_6897">
<rect width="187" height="12" fill="white"/>
</clipPath>
</defs>
</svg>
