<svg width="125" height="20" viewBox="0 0 125 20" fill="none" xmlns="http://www.w3.org/2000/svg">
<path fill-rule="evenodd" clip-rule="evenodd" d="M9.33996 18.633C8.47062 18.9563 7.54419 19.0979 6.61796 19.049C5.35896 19.0484 4.12689 18.6845 3.06967 18.0008C2.01245 17.3172 1.17503 16.3429 0.657959 15.195V0.23999H3.29596V6.56999C4.24502 5.86421 5.37166 5.43626 6.54996 5.33399C7.48891 5.24738 8.43552 5.36269 9.32622 5.67218C10.2169 5.98167 11.0311 6.47817 11.714 7.12834C12.397 7.77851 12.9329 8.56729 13.2858 9.4417C13.6386 10.3161 13.8003 11.2559 13.76 12.198C13.7765 13.5954 13.3608 14.9638 12.5698 16.1159C11.7787 17.2679 10.651 18.1474 9.34096 18.634L9.33996 18.633ZM3.29596 10.415V14.593C3.6678 15.0991 4.13872 15.5243 4.68008 15.8427C5.22143 16.1611 5.8219 16.366 6.44496 16.445C7.03743 16.5057 7.63605 16.4438 8.20357 16.2631C8.77108 16.0825 9.29534 15.7869 9.74372 15.3949C10.1921 15.0029 10.555 14.5229 10.8098 13.9846C11.0647 13.4462 11.206 12.8613 11.225 12.266C11.2346 11.6451 11.1092 11.0295 10.8574 10.4618C10.6055 9.89419 10.2333 9.3881 9.76641 8.9786C9.29956 8.56911 8.74926 8.26601 8.15364 8.09029C7.55802 7.91458 6.93132 7.87046 6.31696 7.96099C5.10458 8.15356 4.01831 8.81971 3.29696 9.81299V10.414L3.29596 10.415ZM33.065 15.195V5.51799H30.449V6.57099C29.4985 5.86874 28.3738 5.44024 27.197 5.33199C26.2579 5.24523 25.3112 5.36042 24.4204 5.66985C23.5296 5.97927 22.7153 6.47575 22.0322 7.12593C21.3492 7.77612 20.8132 8.56495 20.4602 9.43944C20.1073 10.3139 19.9456 11.2538 19.986 12.196C19.986 15.876 22.636 18.966 27.127 19.048C28.7709 18.9319 30.3319 18.2815 31.572 17.196L33.354 18.966L35.09 17.184L33.065 15.194V15.195ZM27.278 16.479C26.679 16.5469 26.0725 16.4893 25.497 16.3099C24.9216 16.1304 24.3898 15.833 23.9357 15.4366C23.4815 15.0403 23.115 14.5536 22.8593 14.0077C22.6037 13.4618 22.4646 12.8686 22.451 12.266C22.4389 11.6444 22.5627 11.0276 22.8137 10.4588C23.0648 9.88996 23.437 9.38283 23.9044 8.97284C24.3719 8.56285 24.9232 8.25988 25.5199 8.0851C26.1166 7.91033 26.7442 7.86797 27.359 7.96099C28.569 8.15931 29.6531 8.82379 30.379 9.81199V14.592C30.0205 15.0853 29.5682 15.503 29.0478 15.821C28.5275 16.139 27.9495 16.3511 27.347 16.445L27.277 16.479H27.278ZM89.778 15.195V5.40199H87.15V6.55999C86.1948 5.85998 85.0658 5.43557 83.886 5.33299C82.947 5.24638 82.0004 5.36169 81.1097 5.67118C80.219 5.98067 79.4048 6.47717 78.7219 7.12734C78.039 7.77751 77.503 8.56629 77.1502 9.4407C76.7973 10.3151 76.6356 11.2549 76.676 12.197C76.676 15.877 79.338 18.967 83.829 19.049C85.4686 18.9308 87.0248 18.2805 88.261 17.197L90.055 18.967L91.791 17.185L89.778 15.195ZM83.99 16.445C83.3912 16.5122 82.785 16.454 82.2099 16.2743C81.6349 16.0945 81.1035 15.797 80.6496 15.4008C80.1957 15.0045 79.8292 14.5182 79.5735 13.9727C79.3177 13.4271 79.1782 12.8343 79.164 12.232C79.1535 11.6108 79.2783 10.9947 79.5299 10.4266C79.7814 9.85855 80.1536 9.35203 80.6207 8.94229C81.0877 8.53254 81.6384 8.22938 82.2344 8.05388C82.8303 7.87838 83.4574 7.83474 84.072 7.92599C85.2865 8.1216 86.3754 8.78676 87.104 9.77799V14.593C86.7361 15.0952 86.2707 15.518 85.7356 15.8362C85.2006 16.1544 84.6069 16.3615 83.99 16.445ZM68.551 19.049C69.4772 19.098 70.4037 18.9565 71.2731 18.6333C72.1425 18.3101 72.9364 17.812 73.6057 17.1698C74.2749 16.5276 74.8054 15.755 75.1642 14.8996C75.5231 14.0443 75.7027 13.1245 75.692 12.197C75.7323 11.2549 75.5706 10.3151 75.2178 9.4407C74.8649 8.56629 74.329 7.77751 73.646 7.12734C72.9631 6.47717 72.1489 5.98067 71.2582 5.67118C70.3675 5.36169 69.4209 5.24638 68.482 5.33299C67.3048 5.44106 66.1797 5.86957 65.229 6.57199V0.23999H62.59V15.194C63.1052 16.3412 63.9408 17.3152 64.9963 17.9989C66.0519 18.6826 67.2824 19.0469 68.54 19.048H68.551V19.049ZM65.229 14.558V9.81299C65.9547 8.82382 67.0393 8.15857 68.25 7.95999C68.8653 7.86737 69.4933 7.90992 70.0905 8.08469C70.6877 8.25946 71.2396 8.56225 71.7079 8.97198C72.1762 9.38172 72.5496 9.88857 72.802 10.4573C73.0545 11.026 73.1801 11.6428 73.17 12.265C73.1497 12.8652 73.0056 13.4547 72.7465 13.9964C72.4874 14.5382 72.1191 15.0205 71.6646 15.413C71.2101 15.8055 70.6793 16.0997 70.1056 16.2771C69.5319 16.4546 68.9277 16.5114 68.331 16.444C67.7134 16.3547 67.1203 16.1415 66.5873 15.8172C66.0542 15.493 65.5922 15.0643 65.229 14.557V14.558ZM120.252 10.415V15.195H120.241C119.721 16.341 118.883 17.3135 117.826 17.9968C116.769 18.68 115.538 19.0453 114.28 19.049C113.354 19.0985 112.427 18.9573 111.557 18.6342C110.688 18.3112 109.894 17.8131 109.224 17.1708C108.555 16.5285 108.024 15.7557 107.666 14.9002C107.307 14.0446 107.128 13.1246 107.139 12.197C107.098 11.2538 107.259 10.3127 107.613 9.43732C107.966 8.56195 108.504 7.77273 109.189 7.12299C109.873 6.47243 110.689 5.97605 111.581 5.66728C112.473 5.3585 113.421 5.24452 114.361 5.33299C115.538 5.43882 116.664 5.86756 117.613 6.57199V0.23999H120.252V10.414V10.415ZM112.673 16.31C113.248 16.49 113.855 16.547 114.454 16.48L114.512 16.445C115.116 16.3522 115.696 16.1408 116.218 15.8229C116.741 15.5051 117.195 15.0871 117.555 14.593V9.81299C116.829 8.82418 115.745 8.15926 114.535 7.96099C113.769 7.84519 112.987 7.9397 112.271 8.23441C111.555 8.52913 110.933 9.01295 110.47 9.63412C110.008 10.2553 109.724 10.9904 109.647 11.7609C109.571 12.5313 109.705 13.308 110.036 14.008C110.292 14.5536 110.658 15.0401 111.112 15.4364C111.566 15.8327 112.098 16.1302 112.673 16.31ZM18.215 0.23999H15.53V18.863H18.215V0.24099V0.23999ZM37.243 17.047C38.5323 18.336 40.2808 19.0601 42.104 19.06C43.0422 19.0566 43.9701 18.863 44.8315 18.4911C45.6929 18.1192 46.47 17.5766 47.116 16.896L45.264 14.998C44.7949 15.5235 44.2018 15.9233 43.5388 16.161C42.8758 16.3988 42.1638 16.467 41.4677 16.3594C40.7716 16.2518 40.1134 15.9718 39.5531 15.545C38.9928 15.1181 38.5481 14.5579 38.2596 13.9153C37.971 13.2728 37.8478 12.5682 37.901 11.8659C37.9542 11.1635 38.1822 10.4856 38.5643 9.89383C38.9463 9.30207 39.4703 8.81525 40.0885 8.47768C40.7068 8.1401 41.3996 7.96248 42.104 7.96099C42.6764 7.9672 43.2417 8.0881 43.7666 8.31654C44.2915 8.54498 44.7653 8.87632 45.16 9.29099C45.322 9.17599 47.116 7.48599 47.116 7.48599C46.4802 6.79161 45.7053 6.23895 44.8418 5.86403C43.9782 5.48911 43.0453 5.30033 42.104 5.30999C40.7441 5.30993 39.4148 5.71315 38.2841 6.46865C37.1535 7.22414 36.2722 8.29797 35.7519 9.55433C35.2316 10.8107 35.0955 12.1931 35.3609 13.5268C35.6263 14.8605 36.2813 16.0856 37.243 17.047ZM99.361 16.445C99.9354 16.4494 100.505 16.3367 101.034 16.1137C101.563 15.8907 102.042 15.5621 102.44 15.148V5.39099H105.102V15.148L107 17.081L105.264 18.875L103.863 17.498C102.582 18.5162 100.997 19.0781 99.361 19.095C98.449 19.0951 97.5459 18.9156 96.7033 18.5667C95.8607 18.2178 95.0951 17.7063 94.4502 17.0615C93.8053 16.4167 93.2937 15.6511 92.9446 14.8086C92.5956 13.966 92.416 13.063 92.416 12.151V5.38999H95.102V11.941C95.0799 12.5178 95.1732 13.0932 95.3764 13.6335C95.5796 14.1738 95.8885 14.6681 96.2852 15.0875C96.6818 15.5069 97.1582 15.8429 97.6863 16.0758C98.2145 16.3087 98.7838 16.4339 99.361 16.444V16.445ZM48.979 0.23999H51.664V18.862H48.98V0.24099L48.979 0.23999ZM58.123 5.51799H61.479L55.414 12.369L62.093 18.862H58.447L52.069 12.369L58.123 5.51799ZM123.875 0.96899C123.753 0.743453 123.569 0.55849 123.343 0.43699C123.111 0.308284 122.85 0.240753 122.584 0.240753C122.319 0.240753 122.058 0.308284 121.826 0.43699C121.6 0.55849 121.415 0.743453 121.294 0.96899C121.163 1.19785 121.095 1.45732 121.097 1.72099C121.094 1.98899 121.162 2.25299 121.294 2.48499C121.415 2.71099 121.601 2.89599 121.826 3.01799C122.058 3.14679 122.319 3.21437 122.584 3.21437C122.85 3.21437 123.111 3.14679 123.343 3.01799C123.569 2.89622 123.754 2.7109 123.875 2.48499C124.004 2.25199 124.068 1.98799 124.06 1.72099C124.066 1.45838 124.002 1.1989 123.875 0.96899ZM123.736 2.20899C123.677 2.36399 123.586 2.50499 123.47 2.62399H123.424C123.308 2.74144 123.169 2.83307 123.015 2.89287C122.861 2.95268 122.697 2.9793 122.532 2.97099C122.369 2.97743 122.206 2.95111 122.053 2.89357C121.9 2.83604 121.76 2.74846 121.641 2.63599C121.525 2.51464 121.436 2.37078 121.378 2.21336C121.321 2.05594 121.296 1.88833 121.306 1.72099C121.293 1.55533 121.316 1.3888 121.374 1.23302C121.432 1.07724 121.523 0.935948 121.641 0.81899C121.756 0.701023 121.895 0.608971 122.049 0.548965C122.203 0.488959 122.367 0.462378 122.532 0.47099C122.705 0.456625 122.88 0.481533 123.042 0.543861C123.204 0.606189 123.351 0.704332 123.47 0.83099C123.588 0.9462 123.679 1.08516 123.739 1.23861C123.799 1.39207 123.826 1.55651 123.817 1.72099C123.823 1.88799 123.796 2.05299 123.736 2.20799V2.20899ZM122.729 1.82599C122.834 1.80338 122.927 1.7459 122.995 1.66299C123.06 1.58559 123.093 1.48672 123.088 1.38599C123.091 1.32209 123.079 1.25842 123.052 1.20008C123.026 1.14173 122.987 1.09034 122.937 1.04999C122.809 0.961327 122.653 0.920296 122.498 0.93399H122.081V2.43999H122.312V1.84999H122.475L122.88 2.43999H123.157L122.729 1.82699V1.82599ZM122.486 1.66299H122.312V1.15399H122.486C122.729 1.15399 122.856 1.23499 122.856 1.40899C122.856 1.58199 122.729 1.66299 122.486 1.66299Z" fill="#0CD973"/>
</svg>
