<svg xmlns="http://www.w3.org/2000/svg" width="24" height="24" viewBox="0 0 24 24" fill="none">
    <path d="M12 22C17.421 22 22 17.421 22 12C22 6.579 17.421 2 12 2C6.579 2 2 6.579 2 12C2 17.421 6.579 22 12 22ZM12 4C16.337 4 20 7.663 20 12C20 16.337 16.337 20 12 20C7.663 20 4 16.337 4 12C4 7.663 7.663 4 12 4Z" fill="white"/>
    <path d="M12 17C12.901 17 14.581 16.832 15.707 15.708L14.293 14.292C13.85 14.735 12.992 15 12 15C10.374 15 9 13.626 9 12C9 10.374 10.374 9 12 9C12.993 9 13.851 9.265 14.293 9.707L15.707 8.293C14.582 7.168 12.901 7 12 7C9.243 7 7 9.243 7 12C7 14.757 9.243 17 12 17Z" fill="white"/>
</svg>