<svg width="35" height="36" viewBox="0 0 35 36" fill="none" xmlns="http://www.w3.org/2000/svg">
<path d="M28.5603 31.2523C31.6492 28.6126 33.6642 25.2743 34.4319 21.2437C35.4985 15.6381 34.2257 10.589 30.6035 6.21088C28.2123 3.32078 25.1816 1.3919 21.5622 0.542518C15.815 -0.806874 10.6194 0.431605 6.09962 4.30418C2.96351 6.99187 1.06839 10.4541 0.30889 14.5494C0.183518 15.225 0.154442 15.9191 0.0772197 16.6049C0.0590498 16.7629 0.0263463 16.9201 0 17.0772V18.3231C0.0490586 18.7667 0.0984205 19.2106 0.148085 19.6549C0.654115 24.1356 2.5774 27.8806 5.86069 30.8937C8.11914 32.9809 10.8946 34.4017 13.8881 35.0028C14.6713 35.1655 15.4753 35.2228 16.2702 35.33C16.4519 35.3541 16.6245 35.3846 16.8017 35.4123H18.0254C18.4506 35.3624 18.8758 35.3106 19.2973 35.2644C22.7144 34.9172 25.9459 33.5175 28.5603 31.2523V31.2523ZM18.7849 18.9451C18.8031 21.3315 18.794 23.7169 18.794 26.1033V26.5581H15.5434V26.12C15.5434 23.7336 15.537 21.3481 15.5498 18.9617C15.5498 18.6234 15.4735 18.4894 15.1164 18.5051C14.4714 18.5329 13.8245 18.5051 13.1786 18.5153C12.936 18.5153 12.8388 18.4367 12.8425 18.1752C12.8564 17.3224 12.8564 16.4697 12.8425 15.6169C12.8425 15.3498 12.9506 15.2795 13.1868 15.2823C13.8554 15.2906 14.5241 15.2749 15.1927 15.2897C15.4571 15.2953 15.5507 15.2065 15.547 14.9339C15.537 14.1741 15.5425 13.4126 15.5552 12.6519C15.5934 10.4069 17.146 8.83481 19.3518 8.82557C20.1213 8.82557 20.8908 8.87363 21.6603 8.89581C21.8801 8.90228 21.9864 8.98823 21.9828 9.22946C21.9725 9.99042 21.9725 10.7511 21.9828 11.5114C21.9828 11.7563 21.892 11.834 21.6603 11.8303C21.1267 11.8223 20.594 11.8241 20.0622 11.8358C19.2391 11.8543 18.8149 12.2859 18.7976 13.1298C18.7849 13.7407 18.8067 14.3516 18.7867 14.9625C18.7786 15.2398 18.8894 15.2906 19.1256 15.2879C19.9187 15.2786 20.7127 15.2879 21.5058 15.2814C21.7902 15.2814 21.8747 15.36 21.8275 15.6659C21.7003 16.4829 21.6021 17.3055 21.5158 18.128C21.4859 18.4127 21.3896 18.5273 21.0961 18.519C20.4729 18.4987 19.8488 18.5282 19.2264 18.507C18.8985 18.4959 18.7822 18.5782 18.7849 18.9451Z" fill="#134380"/>
</svg>
