<svg width="35" height="36" viewBox="0 0 35 36" fill="none" xmlns="http://www.w3.org/2000/svg">
<path d="M17.4291 14.8586C15.9101 14.8133 14.6237 16.0906 14.6001 17.6932C14.6051 18.4429 14.8996 19.1606 15.4201 19.6913C15.9406 20.2219 16.6454 20.5231 17.3823 20.5298C18.1192 20.5365 18.8291 20.2481 19.3588 19.7269C19.8885 19.2057 20.1956 18.4935 20.2137 17.7441C20.2518 16.2061 19.0117 14.9057 17.4291 14.8586Z" fill="#134380"/>
<path d="M24.4886 13.4853C24.2515 11.8143 22.7961 10.4843 21.1372 10.4732C18.6406 10.4575 16.1405 10.4677 13.6457 10.4732C13.201 10.4749 12.7624 10.5792 12.3629 10.7782C11.0165 11.4428 10.3115 12.5408 10.2888 14.0648C10.2707 15.2784 10.2888 16.4928 10.2888 17.7073V21.261C10.2857 21.4856 10.2984 21.7101 10.327 21.9329C10.5659 23.6169 12.0159 24.9422 13.6884 24.9533C16.1741 24.97 18.6597 24.9598 21.1453 24.9533C21.7201 24.9519 22.2834 24.7895 22.7734 24.4838C23.9081 23.7869 24.5177 22.7582 24.5268 21.407C24.5431 18.943 24.5268 16.479 24.5268 14.0131C24.5262 13.8365 24.5134 13.6601 24.4886 13.4853V13.4853ZM17.3824 22.4357C14.7368 22.3784 12.7545 20.2591 12.769 17.6962C12.7721 17.0766 12.895 16.4638 13.1309 15.8926C13.3668 15.3213 13.7109 14.803 14.1437 14.3671C14.5765 13.9312 15.0894 13.5863 15.6532 13.3521C16.217 13.1178 16.8206 12.9989 17.4296 13.002C18.0386 13.0051 18.641 13.1301 19.2025 13.3701C19.764 13.61 20.2735 13.9602 20.7019 14.4004C21.1304 14.8407 21.4695 15.3625 21.6997 15.9361C21.9299 16.5097 22.0469 17.1238 22.0438 17.7433C22.0139 20.4569 19.8825 22.4209 17.3824 22.4357V22.4357ZM22.032 14.1794C21.8115 14.1767 21.5967 14.1076 21.4147 13.981C21.2327 13.8543 21.0916 13.6756 21.0092 13.4675C20.9268 13.2594 20.9067 13.0311 20.9516 12.8114C20.9964 12.5918 21.1042 12.3905 21.2613 12.233C21.4184 12.0755 21.6177 11.9688 21.8343 11.9264C22.0508 11.884 22.2749 11.9077 22.4783 11.9945C22.6816 12.0814 22.8551 12.2275 22.977 12.4145C23.0989 12.6015 23.1636 12.821 23.1631 13.0454C23.1602 13.3481 23.0396 13.6374 22.8277 13.8499C22.6157 14.0624 22.3296 14.1809 22.032 14.1794V14.1794Z" fill="#134380"/>
<path d="M17.4113 0C7.79579 0 0 7.92999 0 17.7131C0 27.4962 7.79942 35.4299 17.4113 35.4299C27.0231 35.4299 34.8225 27.4989 34.8225 17.7168C34.8225 7.93461 27.0268 0 17.4113 0ZM26.359 21.2982C26.3654 21.6242 26.3417 21.95 26.2882 22.2714C25.9248 24.2521 24.8227 25.6338 23.0112 26.4361C22.5479 26.6403 22.0546 26.7281 21.5576 26.8206H13.2504C13.165 26.803 13.0805 26.7817 12.9951 26.766C10.921 26.3852 9.51284 25.1883 8.75424 23.1911C8.60253 22.7918 8.54621 22.3694 8.46444 21.9526V13.4948C8.47625 13.4375 8.49078 13.3802 8.49895 13.322C8.62161 12.3585 9.00292 11.4481 9.60097 10.6907C10.6221 9.40323 11.9476 8.65737 13.5756 8.63149C16.1303 8.58805 18.6859 8.60746 21.2415 8.62594C22.252 8.63609 23.2338 8.96946 24.0478 9.57884C25.5832 10.699 26.3599 12.2286 26.3599 14.1575C26.3593 16.5378 26.359 18.918 26.359 21.2982V21.2982Z" fill="#134380"/>
</svg>
