<svg width="35" height="36" viewBox="0 0 35 36" fill="none" xmlns="http://www.w3.org/2000/svg">
<path d="M29.17 4.71085C26.7401 2.35597 23.6645 0.807314 20.3504 0.269872C15.5717 -0.528673 11.1609 0.463041 7.22081 3.35222C3.55323 6.04176 1.21022 9.67495 0.358054 14.1871C-0.7067 19.825 0.602447 24.9083 4.29638 29.2883C6.8547 32.3198 10.1108 34.2025 13.95 35.0056C14.8313 35.1905 15.7434 35.2191 16.641 35.3236C16.8227 35.3439 16.9953 35.3762 17.1724 35.403H17.5813C17.711 35.3684 17.8431 35.344 17.9765 35.33C21.903 35.2006 25.3898 33.8577 28.4096 31.3207C31.6338 28.6126 33.6616 25.1514 34.4311 20.959C34.5919 20.081 34.6264 19.1798 34.7227 18.2898C34.7373 18.1539 34.7718 18.0208 34.7963 17.8868V17.4718C34.7629 17.3394 34.7386 17.2048 34.7236 17.0689C34.5374 12.1722 32.6604 8.0529 29.17 4.71085ZM12.8326 26.0858C12.8326 26.3769 12.7236 26.4684 12.4519 26.4666C11.2848 26.4579 10.1174 26.4579 8.9497 26.4666C8.66353 26.4666 8.55996 26.3825 8.56177 26.071C8.5754 24.0645 8.56905 22.057 8.56905 20.0505C8.56905 18.044 8.57631 16.0365 8.56177 14.03C8.56177 13.7074 8.65259 13.6224 8.96421 13.6261C10.1198 13.6436 11.2763 13.6418 12.4328 13.6261C12.719 13.6261 12.8335 13.6935 12.8335 14.0078C12.8226 18.0356 12.8223 22.0616 12.8326 26.0858ZM12.7744 10.87C12.3901 11.5669 11.6216 11.9597 10.6722 11.9588C9.42393 11.9588 8.53359 11.2295 8.35825 10.0788C8.15111 8.72298 9.04506 7.82647 9.95627 7.58894C11.0892 7.29226 12.243 7.66103 12.7463 8.54183C13.1806 9.30618 13.2041 10.0964 12.7744 10.8718V10.87ZM27.7855 26.4231C27.6592 26.437 27.5393 26.461 27.4175 26.4619C26.2728 26.4619 25.1272 26.4545 23.9825 26.4693C23.6555 26.4693 23.5546 26.3575 23.5555 26.0285C23.5598 23.7216 23.5543 21.4143 23.5392 19.1068C23.5346 18.5356 23.4002 17.982 23.0613 17.5125C22.4072 16.6031 20.9718 16.4958 20.0942 17.2935C19.5891 17.7556 19.301 18.3212 19.3001 19.0236C19.3001 21.3429 19.298 23.6618 19.2938 25.9804C19.2938 26.4564 19.2892 26.4619 18.8186 26.4629C17.6849 26.4629 16.5474 26.4582 15.4173 26.4629C15.1365 26.4629 15.0257 26.3862 15.0266 26.071C15.0375 22.045 15.0375 18.019 15.0266 13.993C15.0266 13.7037 15.1111 13.6233 15.39 13.6233C16.5692 13.6369 17.7484 13.6369 18.9276 13.6233C19.2147 13.6233 19.3056 13.7222 19.291 14.0032C19.2747 14.3941 19.291 14.786 19.291 15.2269C19.5845 14.9089 19.8289 14.6012 20.1169 14.3424C20.9073 13.6289 21.8567 13.3451 22.8987 13.3312C24.2742 13.3128 25.497 13.7009 26.4491 14.7527C27.2297 15.5941 27.682 16.6963 27.721 17.8526C27.8018 20.6254 27.7855 23.4092 27.8073 26.1874C27.8046 26.267 27.7973 26.3463 27.7855 26.425V26.4231Z" fill="#134380"/>
</svg>
