<svg width="35" height="36" viewBox="0 0 35 36" fill="none" xmlns="http://www.w3.org/2000/svg">
<path d="M28.6112 31.2156C31.6619 28.5871 33.6542 25.2783 34.4255 21.2893C35.5021 15.7254 34.2674 10.6956 30.707 6.31658C28.1496 3.17416 24.8591 1.1704 20.9253 0.380179C15.7732 -0.655896 11.0409 0.421769 6.84368 3.66123C3.41866 6.30734 1.28461 9.82408 0.38429 14.1052C0.224396 14.8677 0.174434 15.6533 0.0717744 16.4287C0.0545131 16.5526 0.0245293 16.6746 0 16.7984V18.5979C0.0672284 19.1312 0.128095 19.6663 0.201683 20.1996C0.633436 23.4574 1.97329 26.5213 4.06277 29.0289C6.65289 32.1713 9.93891 34.163 13.8799 35.0161C14.6285 35.1788 15.4008 35.2278 16.1621 35.3313C16.2829 35.3479 16.4019 35.3793 16.5255 35.4034H18.2925C18.8294 35.3341 19.3673 35.2731 19.9024 35.1954C23.1202 34.7451 26.143 33.3637 28.6112 31.2156V31.2156ZM16.8543 22.9483C16.5736 22.7366 16.272 22.5536 15.9568 22.342C15.7133 23.3587 15.508 24.3531 15.2372 25.3254C14.8175 26.8357 14.2234 28.2599 13.0659 29.3644C12.936 29.4882 12.7934 29.5954 12.5754 29.7766C12.5272 29.1176 12.4618 28.5409 12.4463 27.9642C12.3982 26.1064 12.7134 24.2958 13.155 22.5028C13.4893 21.1414 13.8354 19.7828 14.1543 18.4177C14.197 18.2096 14.1761 17.9932 14.0944 17.7975C13.4784 16.3954 13.8164 14.2715 14.8484 13.1994C15.1351 12.8831 15.5163 12.6718 15.9329 12.5981C16.3496 12.5244 16.7785 12.5925 17.1532 12.7918C17.8283 13.1273 18.1698 13.814 17.9881 14.6893C17.7828 15.6764 17.4867 16.645 17.2486 17.6256C17.0997 18.2384 16.9343 18.8539 16.8644 19.4741C16.6972 20.963 17.6166 21.403 18.6686 21.4815C19.8806 21.574 20.7781 20.9556 21.4095 19.987C22.7868 17.8761 23.1239 15.5507 22.4997 13.1134C22.0291 11.2798 20.7182 10.2742 18.9757 9.90818C16.7045 9.43034 14.7557 10.1984 13.1295 11.8297C11.9667 12.9951 11.4034 14.4268 11.4407 16.0932C11.4398 16.7072 11.6041 17.3097 11.9158 17.8354C12.023 18.011 12.1256 18.1903 12.221 18.3733C12.5654 19.0369 12.4936 19.6867 12.1302 20.3142C12.0987 20.3526 12.0585 20.3825 12.0131 20.4015C11.9677 20.4205 11.9184 20.428 11.8695 20.4233C10.5149 20.0785 9.59823 19.2393 9.25118 17.8539C8.28091 13.9822 10.0543 10.2039 13.7146 8.58189C16.8734 7.18259 19.9995 7.41458 22.9249 9.3028C24.6419 10.4119 25.5477 12.0959 25.7657 14.1486C25.9774 16.1376 25.7003 18.0572 24.8363 19.8641C23.9724 21.671 22.6878 23.0296 20.7109 23.5389C19.3582 23.8901 18.0408 23.842 16.8543 22.9483V22.9483Z" fill="#134380"/>
</svg>
