<svg width="35" height="36" viewBox="0 0 35 36" fill="none" xmlns="http://www.w3.org/2000/svg">
<path d="M17.3976 0.00390625C7.78941 0.00390625 0 7.92835 0 17.704C0 27.4797 7.78941 35.4033 17.3976 35.4033C27.0058 35.4033 34.7962 27.4788 34.7962 17.704C34.7962 7.92927 27.0068 0.00390625 17.3976 0.00390625ZM24.6347 16.0367V16.228C23.0812 16.2206 21.7093 15.7363 20.4556 14.7936V14.9951C20.4617 16.9305 20.4674 18.8655 20.4729 20.8003C20.4729 21.8548 20.2212 22.8336 19.6361 23.7116C18.6831 25.1377 17.354 25.9224 15.6606 26.061C15.6024 26.061 15.5452 26.0795 15.4871 26.0888H15.1636C14.8002 26.0342 14.4268 26.0037 14.068 25.9206C12.9169 25.6458 11.8958 24.9717 11.1802 24.0142C10.4646 23.0567 10.0992 21.8755 10.1467 20.6736C10.1942 19.4718 10.6517 18.3243 11.4406 17.4283C12.2295 16.5323 13.3005 15.9439 14.4696 15.7641C15.0016 15.6687 15.5459 15.6671 16.0785 15.7594V18.5165C15.9359 18.4897 15.8014 18.4582 15.666 18.4388C14.3405 18.242 13.0795 19.1856 12.906 20.5008C12.7189 21.913 13.6456 23.1552 15.0074 23.3419C15.3575 23.3862 15.7129 23.3531 16.0493 23.2448C16.3857 23.1366 16.6952 22.9558 16.9567 22.7148C17.2182 22.4738 17.4255 22.1783 17.5644 21.8483C17.7034 21.5184 17.7708 21.1619 17.7619 20.803C17.7465 18.8141 17.7619 16.8242 17.7619 14.8343C17.7619 13.0684 17.7619 11.3024 17.7619 9.53653V9.31564H20.4329C20.472 9.59291 20.4965 9.87942 20.5519 10.1548C20.7428 11.071 21.2281 11.8963 21.9311 12.5008C22.6342 13.1053 23.5151 13.4544 24.4348 13.4932C24.5983 13.4988 24.6401 13.5422 24.6383 13.7067C24.6301 14.4849 24.6347 15.2613 24.6347 16.0367Z" fill="#134380"/>
</svg>
