<svg width="35" height="36" viewBox="0 0 35 36" fill="none" xmlns="http://www.w3.org/2000/svg">
<path d="M17.4103 0C7.79486 0 0 7.92999 0 17.7131C0 27.4962 7.79486 35.4299 17.4103 35.4299C27.0258 35.4299 34.8216 27.4989 34.8216 17.7168C34.8216 7.93461 27.0267 0 17.4103 0ZM26.7424 11.9735C26.2994 12.598 25.7665 13.1511 25.1616 13.6141C25.1022 13.6535 25.0546 13.7089 25.0243 13.7742C24.994 13.8395 24.9821 13.912 24.9899 13.9838C25.1289 18.4386 22.5279 22.8334 18.5787 24.5968C15.021 26.1856 11.5061 25.9721 8.11557 24.0007C8.05561 23.9656 7.99656 23.9268 7.93387 23.887C7.92388 23.8796 7.92206 23.8593 7.90843 23.826C10.008 24.0109 11.894 23.4951 13.6101 22.1772C11.8077 22.008 10.6239 21.0856 9.95436 19.3841H11.6505C11.656 19.3564 11.6605 19.3287 11.6659 19.3019C10.7948 19.0891 10.0197 18.5838 9.46578 17.8675C8.91187 17.1512 8.61157 16.2658 8.61342 15.3544C9.16488 15.6224 9.7036 15.8165 10.3486 15.8239C9.35565 15.0106 8.73971 14.0272 8.64068 12.7628C8.578 11.968 8.78694 11.2305 9.17759 10.5086C11.3026 13.0309 13.9508 14.4524 17.1723 14.6594C17.1723 14.2139 17.1451 13.8035 17.1769 13.3978C17.2614 12.3967 17.7162 11.4655 18.4493 10.7921C19.1825 10.1188 20.1394 9.75359 21.127 9.77015C22.1379 9.77454 23.1066 10.1828 23.8243 10.907C23.8604 10.9518 23.9088 10.9846 23.9634 11.001C24.018 11.0175 24.0762 11.0169 24.1305 10.9994C24.8585 10.8239 25.5609 10.5527 26.22 10.1925C26.2709 10.1648 26.3254 10.1445 26.4299 10.1001C26.1521 10.9807 25.5804 11.7346 24.8137 12.2314C24.8264 12.2582 24.8382 12.2841 24.85 12.3109L26.9141 11.7277C26.855 11.8026 26.8015 11.8904 26.7424 11.9735Z" fill="#134380"/>
</svg>
