<svg width="1440" height="185" viewBox="0 0 1440 185" fill="none" xmlns="http://www.w3.org/2000/svg">
<path d="M0 34.3918L48.4195 24.2698C124.756 8.31179 203.768 10.4494 279.13 30.5114L316.327 40.4135C383.493 58.2938 454.358 56.7233 520.666 35.8849C587.959 14.7369 659.923 13.4398 727.934 32.1491L777.877 45.8878C830.591 60.389 885.327 66.1463 939.905 62.9305L1027.47 57.7712C1058.75 55.9278 1089.8 51.1471 1120.19 43.492L1154.68 34.8038C1236.24 14.2596 1321.67 14.6223 1403.05 35.8584L1440 45.5V154.514L0 159V34.3918Z" fill="#134380" fill-opacity="0.5"/>
<path d="M0 73.5L97.9977 48.6774C157.724 33.5487 220.551 36.0047 278.914 55.7495L308.771 65.8503C361.523 83.6967 418.909 82.1541 470.626 61.4993C523.098 40.543 581.378 39.2705 634.715 57.9167L653.144 64.3592C707.048 83.2039 765.813 82.815 819.463 63.2586C866.386 46.1544 917.388 43.6569 965.758 56.0948L993.746 63.2918C1052.44 78.3848 1114.39 74.7342 1170.9 52.8515C1221.3 33.3383 1276.14 28.2766 1329.26 38.2359L1440 59V185H0V73.5Z" fill="#134380"/>
<path d="M0 37L98.0261 57.3925C159.266 70.1324 222.553 69.3155 283.444 54.9993C334.059 43.0991 386.417 40.5065 437.96 47.3482L476.714 52.4923C521.366 58.4193 566.615 58.2853 611.232 52.0938L637.298 48.4766C692.011 40.8841 747.63 42.9215 801.641 54.4966C867.779 68.671 936.187 68.5136 1002.26 54.0352L1004.18 53.6153C1054.4 42.6091 1106.07 39.6996 1157.21 44.9968L1208.13 50.2709C1242.29 53.8083 1276.71 53.8181 1310.87 50.3001L1440 37V185H0V37Z" fill="#134380" fill-opacity="0.8"/>
</svg>
