<svg width="35" height="36" viewBox="0 0 35 36" fill="none" xmlns="http://www.w3.org/2000/svg">
<path d="M34.4648 14.625C33.3211 8.67106 30.0532 4.3604 24.7077 1.69304C22.8122 0.758767 20.7543 0.213554 18.6516 0.0885525C18.5632 0.0757546 18.4758 0.0566062 18.39 0.03125H16.355C15.6845 0.123674 15.0086 0.180977 14.3454 0.308522C8.84599 1.38434 4.74506 4.41955 2.0426 9.41415C0.532537 12.1656 -0.165233 15.3019 0.0330101 18.4468C0.439106 25.0921 3.54159 30.0672 9.25691 33.3058C11.9483 34.8413 15.0204 35.5477 18.0993 35.3391C24.6177 34.9306 29.4963 31.7789 32.6951 25.9923C33.8843 23.8416 34.5121 21.4977 34.6811 19.0327C34.6942 18.9321 34.7136 18.8324 34.7392 18.7342V16.6639C34.6465 15.9855 34.5893 15.2988 34.4648 14.625ZM5.96274 21.5984C5.88896 21.7658 5.8052 21.9285 5.71197 22.0855C5.36493 22.6742 4.75628 22.7944 4.21118 22.3877C3.89594 22.153 3.7987 21.7934 3.97949 21.3359C4.19026 20.8045 4.41829 20.2777 4.6763 19.7647C4.75568 19.6236 4.79867 19.4643 4.80122 19.3017C4.80376 19.1392 4.76578 18.9786 4.69085 18.8349C4.03037 17.3506 3.40077 15.8524 2.76119 14.3588C2.70478 14.234 2.65918 14.1045 2.62492 13.9716C2.50136 13.4577 2.65673 13.0991 3.071 12.9106C3.59702 12.673 4.0758 12.7802 4.34835 13.2368C4.50381 13.5156 4.63746 13.8064 4.74807 14.1065C5.12691 15.0502 5.49579 15.9966 5.90915 17.0428C6.38702 15.8922 6.82397 14.8376 7.26186 13.784C7.31455 13.6573 7.36455 13.5279 7.4236 13.405C7.7552 12.7192 8.46652 12.5593 9.05431 13.0353C9.36048 13.2849 9.41774 13.6999 9.19879 14.2036C8.66036 15.447 8.11859 16.6867 7.57349 17.9227C7.03566 19.1483 6.49725 20.3741 5.95821 21.6003L5.96274 21.5984ZM11.8016 19.5965C9.98463 19.5577 8.71276 18.2795 8.73093 16.4985C8.74503 15.6689 9.08232 14.879 9.6687 14.3024C10.2551 13.7258 11.0425 13.4097 11.858 13.4235C13.5586 13.4512 14.9332 14.8524 14.9205 16.5465C14.9068 18.3867 13.6277 19.6372 11.7971 19.5984L11.8016 19.5965ZM20.6549 17.1242C20.6431 18.432 19.968 19.2795 18.7089 19.578C17.947 19.768 17.1479 19.736 16.4031 19.4856C15.6209 19.2194 15.1557 18.6603 15.0958 17.8155C15.0567 17.2785 15.0886 16.736 15.0886 16.1962H15.0694C15.0694 15.7129 15.0567 15.2295 15.0694 14.747C15.0931 14.0187 15.5237 13.6379 16.1433 13.759C16.454 13.8191 16.6157 14.0187 16.6838 14.3025C16.7249 14.4931 16.7447 14.6878 16.7429 14.8829C16.7484 15.7341 16.7365 16.5853 16.7474 17.4366C16.7547 18.0586 17.0845 18.3858 17.7214 18.4403C18.3582 18.4948 18.8288 18.163 18.9369 17.5946C18.964 17.4362 18.977 17.2757 18.9759 17.1149C18.9759 16.2757 18.9651 15.4356 18.9823 14.5964C18.9969 13.8505 19.3975 13.5076 20.058 13.6305C20.1941 13.6473 20.3212 13.7084 20.4204 13.8047C20.5197 13.9009 20.5856 14.0272 20.6085 14.1648C20.6448 14.3447 20.6622 14.5282 20.6603 14.7119C20.6609 15.5166 20.6576 16.3213 20.6503 17.126L20.6549 17.1242ZM26.2929 19.3387C25.9831 19.59 25.4045 19.5882 25.0611 19.3017C24.3715 18.7259 23.6983 18.1334 23.0124 17.5456C22.9106 17.4587 22.8062 17.3765 22.6299 17.2305C22.6299 17.7369 22.6417 18.1658 22.6245 18.5928C22.6163 18.8063 22.6018 19.0438 22.5046 19.2231C22.282 19.6372 21.8686 19.6095 21.4843 19.5605C21.1518 19.5189 20.922 19.334 20.8811 18.968C20.8743 18.9459 20.8689 18.9234 20.8647 18.9006C20.8711 17.3626 20.8593 15.8238 20.8974 14.2868C20.9093 13.8246 21.2608 13.613 21.7687 13.6342C22.2765 13.6555 22.5563 13.8736 22.5863 14.3274C22.6181 14.8413 22.5936 15.3589 22.5936 15.8746L22.689 15.9162C22.7798 15.8404 22.8652 15.7683 22.9488 15.6888C23.5406 15.1207 24.1316 14.552 24.7222 13.9827C25.0092 13.7054 25.3454 13.5538 25.7406 13.661C26.4429 13.8533 26.5955 14.6481 26.0331 15.2156C25.7215 15.5308 25.3745 15.8099 25.0429 16.1057L24.5359 16.5558C25.081 17.029 25.5943 17.4634 26.0958 17.9098C26.2351 18.0254 26.3517 18.1668 26.4392 18.3266C26.6291 18.7157 26.5609 19.1196 26.2929 19.3387ZM32.1146 17.675C32.0237 18.5937 31.5031 19.1862 30.6364 19.4468C29.6753 19.7361 28.7141 19.7241 27.7811 19.3377C27.0879 19.0494 26.6463 18.4976 26.6073 17.7406C26.55 16.6408 26.5555 15.5354 26.5891 14.4337C26.6064 13.8792 26.9452 13.6139 27.4168 13.6389C27.9228 13.6657 28.2062 13.9457 28.2208 14.5132C28.2435 15.4374 28.2208 16.3534 28.2371 17.273C28.2481 18.1048 28.9094 18.5928 29.6998 18.3654C29.9233 18.3126 30.1217 18.1822 30.261 17.9966C30.4002 17.8111 30.4717 17.582 30.463 17.3488C30.4702 16.4975 30.4629 15.6463 30.4675 14.7951C30.4683 14.6347 30.4838 14.4747 30.5138 14.3172C30.6001 13.8764 30.8582 13.6546 31.2842 13.6379C31.7103 13.6213 32.0555 13.8514 32.0973 14.2988C32.1509 14.8672 32.11 15.4448 32.11 16.0179H32.1237C32.1237 16.5659 32.1663 17.1205 32.1146 17.675Z" fill="#134380"/>
<path d="M12.0119 14.9349C11.1615 14.8138 10.4465 15.5495 10.4429 16.5496C10.4429 17.4073 10.988 18.1273 11.6921 18.1883C12.5397 18.2622 13.2438 17.471 13.1966 16.4969C13.1575 15.6836 12.6615 15.0283 12.0119 14.9349Z" fill="#134380"/>
</svg>
