<svg width="35" height="36" viewBox="0 0 35 36" fill="none" xmlns="http://www.w3.org/2000/svg">
<path d="M34.6627 15.7442C34.3413 12.5518 33.1451 9.51528 31.2104 6.98055C28.4931 3.39265 24.9418 1.11717 20.5565 0.31585C15.5598 -0.598225 10.9656 0.495153 6.90282 3.61447C3.44055 6.27166 1.22837 9.79671 0.378016 14.1268C-0.645856 19.3423 0.408905 24.1372 3.55774 28.3887C6.16148 31.9009 9.62828 34.0996 13.8609 35.0128C14.6432 35.1819 15.4499 35.2328 16.2448 35.34C16.4002 35.3603 16.5546 35.3908 16.71 35.4158H18.0727C18.4761 35.3686 18.8785 35.3178 19.2819 35.2743C22.5706 34.9422 25.6898 33.6301 28.2488 31.5025C31.6665 28.6882 33.7769 25.0679 34.5174 20.6464C34.6291 19.9791 34.6654 19.2988 34.7409 18.6241C34.7544 18.5457 34.7739 18.4685 34.799 18.3931V17.0067C34.7572 16.5908 34.7081 16.1703 34.6627 15.7442ZM25.9593 21.0447C25.9285 21.5688 25.7459 22.1085 25.5251 22.5901C25.1926 23.3156 24.5457 23.6788 23.779 23.7297C22.3445 23.8221 20.9072 23.92 19.47 23.9302C17.2496 23.9459 15.0284 23.8997 12.808 23.8618C12.2194 23.8483 11.632 23.8023 11.0483 23.7241C9.78909 23.5624 9.10681 22.871 8.88786 21.48C8.76029 20.7197 8.69315 19.95 8.68709 19.1787C8.69254 17.5668 8.73434 15.9531 8.82973 14.344C8.86062 13.8199 9.04414 13.2802 9.2649 12.7987C9.58469 12.1008 10.2079 11.721 10.9474 11.6748C12.619 11.5703 14.2952 11.5213 15.9696 11.4585C16.4447 11.4409 16.9217 11.4585 17.3977 11.4585C17.3977 11.4428 17.3977 11.4271 17.3977 11.4104C19.3682 11.4751 21.3387 11.5287 23.3029 11.6138C23.7092 11.6323 24.1101 11.7152 24.4912 11.8596C25.3997 12.209 25.7513 13.0168 25.893 13.9114C26.0212 14.6718 26.0889 15.4414 26.0956 16.2128C26.0956 17.8256 26.0538 19.4412 25.9593 21.0484V21.0447Z" fill="#134380"/>
<path d="M15.666 19.9361L20.243 17.521L15.666 15.0977V19.9361Z" fill="#134380"/>
</svg>
