<svg width="20" height="20" viewBox="0 0 20 20" fill="none" xmlns="http://www.w3.org/2000/svg">
<g opacity="0.16">
<path d="M18 9C18 13.9706 13.9706 18 9 18C4.02944 18 0 13.9706 0 9C0 4.02944 4.02944 0 9 0C13.9706 0 18 4.02944 18 9Z" fill="black"/>
<path d="M13.241 16.065C12.4446 15.3049 12.4123 14.0441 13.1687 13.2442C13.9302 12.4389 15.2012 12.4064 16.0028 13.1716L19.1956 16.2192C19.9919 16.9793 20.0242 18.2401 19.2678 19.04C18.5063 19.8452 17.2353 19.8778 16.4337 19.1126L13.241 16.065Z" fill="black"/>
</g>
<path fill-rule="evenodd" clip-rule="evenodd" d="M9 15C12.3137 15 15 12.3137 15 9C15 5.68629 12.3137 3 9 3C5.68629 3 3 5.68629 3 9C3 12.3137 5.68629 15 9 15ZM9 17C13.4183 17 17 13.4183 17 9C17 4.58172 13.4183 1 9 1C4.58172 1 1 4.58172 1 9C1 13.4183 4.58172 17 9 17Z" fill="white"/>
<path d="M13.722 15.1357C13.3232 14.7536 13.3098 14.1206 13.6919 13.7218C14.074 13.3231 14.7071 13.3096 15.1058 13.6918L18.4634 16.9096C18.8621 17.2917 18.8756 17.9247 18.4935 18.3235C18.1113 18.7222 17.4783 18.7357 17.0796 18.3535L13.722 15.1357Z" fill="white"/>
<path d="M5 9C5 8.44772 5.44772 8 6 8H12C12.5523 8 13 8.44772 13 9C13 9.55228 12.5523 10 12 10H6C5.44772 10 5 9.55228 5 9Z" fill="white"/>
<path d="M8 6C8 5.44772 8.44772 5 9 5C9.55228 5 10 5.44772 10 6V12C10 12.5523 9.55228 13 9 13C8.44772 13 8 12.5523 8 12V6Z" fill="white"/>
</svg>
