<svg width="20" height="20" viewBox="0 0 20 20" fill="none" xmlns="http://www.w3.org/2000/svg">
<rect opacity="0.16" width="20" height="20" rx="2" fill="black"/>
<path fill-rule="evenodd" clip-rule="evenodd" d="M17 3H3L3 17H17V3ZM3 1C1.89543 1 1 1.89543 1 3V17C1 18.1046 1.89543 19 3 19H17C18.1046 19 19 18.1046 19 17V3C19 1.89543 18.1046 1 17 1H3Z" fill="white"/>
<path d="M7 15H10V13H7V10H5V14C5 15.1046 5.89543 15 7 15Z" fill="white"/>
<path d="M14 5H10V7H13V10H15V7C15 5.89543 15.1046 5 14 5Z" fill="white"/>
</svg>
