<svg width="17" height="29" viewBox="0 0 17 29" fill="none" xmlns="http://www.w3.org/2000/svg">
<path d="M14.7791 12.6852L4.51793 1.6347C3.74369 0.800892 2.39375 0.909372 1.76259 1.85612C1.31441 2.52839 1.38128 3.41941 1.92478 4.01725L11 14L1.83695 24.9957C1.34054 25.5914 1.29507 26.4426 1.72519 27.0878C2.36658 28.0499 3.74788 28.1371 4.50516 27.2633L14.8249 15.3559C15.4935 14.5845 15.4737 13.4333 14.7791 12.6852Z" fill="white"/>
<path d="M15.1455 12.3449L4.88433 1.29447C3.89022 0.223894 2.15696 0.363178 1.34656 1.57877C0.771117 2.44194 0.856975 3.58598 1.5548 4.35359L10.3372 14.0143L1.45284 24.6756C0.814671 25.4414 0.756212 26.5357 1.30916 27.3651C2.13371 28.602 3.90947 28.7141 4.883 27.5907L15.2027 15.6834C16.0385 14.7191 16.0138 13.28 15.1455 12.3449Z" stroke="black" stroke-opacity="0.16"/>
</svg>
