<svg width="17" height="29" viewBox="0 0 17 29" fill="none" xmlns="http://www.w3.org/2000/svg">
<path d="M2.22092 12.6852L12.4821 1.6347C13.2563 0.800892 14.6062 0.909372 15.2374 1.85612C15.6856 2.52839 15.6187 3.41941 15.0752 4.01725L6 14L15.1631 24.9957C15.6595 25.5914 15.7049 26.4426 15.2748 27.0878C14.6334 28.0499 13.2521 28.1371 12.4948 27.2633L2.17513 15.3559C1.50653 14.5845 1.52627 13.4333 2.22092 12.6852Z" fill="white"/>
<path d="M1.85453 12.3449L12.1157 1.29447C13.1098 0.223894 14.843 0.363178 15.6534 1.57877C16.2289 2.44194 16.143 3.58598 15.4452 4.35359L6.66275 14.0143L15.5472 24.6756C16.1853 25.4414 16.2438 26.5357 15.6908 27.3651C14.8663 28.602 13.0905 28.7141 12.117 27.5907L1.79729 15.6834C0.961532 14.7191 0.986205 13.28 1.85453 12.3449Z" stroke="black" stroke-opacity="0.16"/>
</svg>
