<svg width="42" height="35" viewBox="0 0 42 35" fill="none" xmlns="http://www.w3.org/2000/svg">
<path opacity="0.5" d="M42 0.250977L40.1228 12.8436C39.4489 17.146 38.3899 20.9238 36.9459 24.1769C35.5019 27.5349 32.8545 30.893 29.0038 34.251L24.2385 28.7417C26.6452 26.4331 28.378 24.2818 29.437 22.288C30.4959 20.3991 31.2661 18.4053 31.7474 16.3065L24.8161 16.3065L27.271 0.250975L42 0.250977ZM18.0292 0.250975L16.152 12.8436C15.4781 17.146 14.4191 20.9238 12.9751 24.1769C11.5311 27.5349 8.88372 30.8929 5.03299 34.251L0.267716 28.7417C2.67442 26.4331 4.40725 24.2818 5.4662 22.288C6.52515 20.3991 7.2953 18.4053 7.77664 16.3065L0.845327 16.3065L3.30017 0.250973L18.0292 0.250975Z" fill="#586B83"/>
</svg>
