<svg width="42" height="35" viewBox="0 0 42 35" fill="none" xmlns="http://www.w3.org/2000/svg">
<path opacity="0.5" d="M0 34.251L1.87723 21.6584C2.55111 17.3559 3.61006 13.5781 5.05408 10.3251C6.49811 6.96703 9.14548 3.609 12.9962 0.250977L17.7615 5.76023C15.3548 8.06887 13.622 10.2201 12.563 12.2139C11.5041 14.1028 10.7339 16.0967 10.2526 18.1954H17.1839L14.729 34.251H0ZM23.9708 34.251L25.848 21.6584C26.5219 17.3559 27.5809 13.5781 29.0249 10.3251C30.4689 6.96703 33.1163 3.609 36.967 0.250977L41.7323 5.76023C39.3256 8.06887 37.5928 10.2201 36.5338 12.2139C35.4748 14.1028 34.7047 16.0967 34.2234 18.1954H41.1547L38.6998 34.251H23.9708Z" fill="#586B83"/>
</svg>
