<svg width="79" height="79" viewBox="0 0 79 79" fill="none" xmlns="http://www.w3.org/2000/svg">
<path d="M3.20898 58.0157L24.4402 36.9079L8.02305 14.4423C7.28242 15.4298 6.66523 16.7876 6.5418 18.2688L2.46836 54.0657C2.34492 55.547 2.5918 56.9048 3.20898 58.0157ZM74.309 10.6157L43.573 37.8954L67.7668 69.1251C69.1246 68.0142 69.9887 66.4095 70.2355 64.4345L75.6668 15.6767C76.0371 13.5782 75.4199 11.8501 74.309 10.6157Z" fill="#C4CED6"/>
<path d="M43.573 37.8956L74.309 10.6159C73.3215 9.50493 71.9637 8.88774 70.359 9.01118L10.4918 12.9612C9.62773 12.9612 8.64023 13.5784 8.02305 14.4424L24.3168 36.9081L3.20898 58.0159C3.70273 59.0034 4.44336 59.6206 5.30742 59.8674L63.5699 70.3596C65.1746 70.6065 66.6559 70.2362 67.8902 69.2487L43.573 37.8956Z" fill="#DAE4EA"/>
<path d="M48.511 28.1435C46.4125 17.1576 35.6735 22.2185 34.1922 27.4029C33.5751 21.8482 25.0579 18.0217 21.4782 27.7732C17.5282 38.3888 30.6125 49.4982 31.6 51.3498C32.8344 50.2388 50.8563 40.3638 48.511 28.1435Z" fill="#F46767"/>
</svg>
