<svg width="212" height="34" viewBox="0 0 212 34" fill="none" xmlns="http://www.w3.org/2000/svg">
<path d="M0.68 26.9402C0.3 26.9402 0.11 26.7702 0.11 26.4302C0.11 24.0702 1.49 20.3902 4.25 15.3902C4.45 15.0302 4.76 14.5002 5.18 13.8002C4.5 13.8802 3.93 14.0302 3.47 14.2502C3.03 14.4502 2.74 14.5502 2.6 14.5502C2.24 14.5502 2.06 14.3802 2.06 14.0402C2.06 13.5202 3.3 13.0702 5.78 12.6902C6.12 12.1102 6.55 11.3902 7.07 10.5302C7.61 9.67024 8.25 8.66024 8.99 7.50024C9.53 6.64024 9.99 5.89024 10.37 5.25024C10.75 4.59024 11.06 3.99024 11.3 3.45024C11.38 3.25024 11.51 3.15024 11.69 3.15024C12.07 3.15024 12.26 3.35024 12.26 3.75024C12.26 3.89024 12.02 4.36024 11.54 5.16024C11.08 5.94024 10.35 7.14024 9.35 8.76024L6.98 12.5702C7.74 12.4902 8.54 12.4302 9.38 12.3902C10.22 12.3502 11.08 12.3302 11.96 12.3302C13.72 12.3302 16.95 12.4802 21.65 12.7802C22.05 11.9202 22.47 11.0802 22.91 10.2602C23.37 9.42024 23.85 8.59024 24.35 7.77024C25.07 6.55024 25.7 5.60024 26.24 4.92024C26.78 4.22024 27.18 3.77024 27.44 3.57024C27.7 3.37024 27.91 3.27024 28.07 3.27024C28.37 3.27024 28.52 3.43024 28.52 3.75024C28.52 3.91024 28.43 4.05024 28.25 4.17024C27.89 4.43024 27.45 4.90024 26.93 5.58024C26.41 6.26024 25.83 7.15024 25.19 8.25024C24.23 9.87024 23.41 11.4102 22.73 12.8702C23.43 12.8702 23.78 13.0402 23.78 13.3802C23.78 13.5202 23.73 13.6402 23.63 13.7402C23.53 13.8402 23.38 13.8802 23.18 13.8602L22.28 13.8002C20.26 18.3002 19.25 21.3802 19.25 23.0402V23.7002C19.25 23.9402 19.08 24.0602 18.74 24.0602C18.42 24.0602 18.26 23.7102 18.26 23.0102C18.26 21.2502 19.24 18.1502 21.2 13.7102C18.76 13.5702 16.75 13.4702 15.17 13.4102C13.61 13.3502 12.48 13.3202 11.78 13.3202C9.82 13.3202 8.03 13.4102 6.41 13.5902L5.12 15.8402C4.14 17.5802 3.37 19.1402 2.81 20.5202C2.25 21.8802 1.87 22.9002 1.67 23.5802C1.47 24.3602 1.34 24.9602 1.28 25.3802C1.22 25.8002 1.17 26.1902 1.13 26.5502C1.11 26.8102 0.96 26.9402 0.68 26.9402ZM33.7754 12.1802C33.4354 12.1802 33.2654 12.0102 33.2654 11.6702C33.2654 11.5702 33.3354 11.3902 33.4754 11.1302C33.6154 10.8502 33.7754 10.5702 33.9554 10.2902C34.1354 10.0102 34.2754 9.82024 34.3754 9.72024C34.7154 9.34024 34.9754 9.10024 35.1554 9.00024C35.3554 8.90024 35.5354 8.85024 35.6954 8.85024C36.1154 8.85024 36.3254 9.04024 36.3254 9.42024C36.3254 9.56024 36.2354 9.73024 36.0554 9.93024C35.8954 10.1102 35.7054 10.2802 35.4854 10.4402C35.1654 10.6402 34.9654 10.8002 34.8854 10.9202L34.2254 11.8502C34.2054 11.9302 34.1554 12.0102 34.0754 12.0902C34.0154 12.1502 33.9154 12.1802 33.7754 12.1802ZM28.6754 24.3302C28.1154 24.3302 27.7054 24.2202 27.4454 24.0002C27.2054 23.7802 27.0854 23.4502 27.0854 23.0102C27.0854 22.5902 27.2154 22.0202 27.4754 21.3002C27.7354 20.5602 28.0654 19.7702 28.4654 18.9302C28.8854 18.0902 29.3254 17.2902 29.7854 16.5302C30.2454 15.7702 30.6854 15.1502 31.1054 14.6702C31.5454 14.1702 31.8954 13.9202 32.1554 13.9202C32.5154 13.9202 32.6954 14.0802 32.6954 14.4002C32.6954 14.6002 32.5254 14.9802 32.1854 15.5402C31.8454 16.1002 31.4754 16.6802 31.0754 17.2802C30.9154 17.5002 30.6954 17.8002 30.4154 18.1802C30.1354 18.5602 29.8654 18.9202 29.6054 19.2602C29.3454 19.5802 29.1754 19.8002 29.0954 19.9202C28.8954 20.2202 28.6854 20.7102 28.4654 21.3902C28.2254 22.0702 28.1054 22.5902 28.1054 22.9502C28.1054 23.1102 28.1354 23.2302 28.1954 23.3102C28.2754 23.3902 28.4454 23.4302 28.7054 23.4302C29.2054 23.4302 29.7654 23.2702 30.3854 22.9502C31.0054 22.6302 31.6354 22.2302 32.2754 21.7502C32.9154 21.2502 33.5154 20.7402 34.0754 20.2202C34.6554 19.7002 35.1454 19.2502 35.5454 18.8702C35.6254 18.7902 35.7454 18.7502 35.9054 18.7502C36.2054 18.7502 36.3554 18.8702 36.3554 19.1102C36.3554 19.3302 36.2154 19.5802 35.9354 19.8602C35.3954 20.4002 34.8954 20.8802 34.4354 21.3002C33.9754 21.7202 33.5354 22.0902 33.1154 22.4102C32.4554 22.8902 31.7254 23.3302 30.9254 23.7302C30.1254 24.1302 29.3754 24.3302 28.6754 24.3302ZM40.9196 24.8102C39.9996 24.8102 39.2896 24.5302 38.7896 23.9702C38.3096 23.3902 38.0696 22.6302 38.0696 21.6902C38.0696 21.0102 38.1896 20.1902 38.4296 19.2302C38.8496 17.6102 39.5596 15.7302 40.5596 13.5902C41.3396 11.9702 42.1796 10.3802 43.0796 8.82024C43.9796 7.24024 44.9696 5.69024 46.0496 4.17024C47.7696 1.73024 48.9696 0.510243 49.6496 0.510243C50.0896 0.510243 50.3096 0.630243 50.3096 0.870243C50.3096 1.21024 49.7496 2.06024 48.6296 3.42024L46.5296 5.97024C44.7096 8.17024 43.2196 10.4202 42.0596 12.7202C40.9196 15.0202 40.0296 17.3202 39.3896 19.6202C39.2096 20.2802 39.1196 20.9002 39.1196 21.4802C39.1196 23.0002 39.7396 23.7602 40.9796 23.7602C41.4196 23.7602 41.8696 23.6302 42.3296 23.3702C42.7896 23.1302 43.0396 23.0102 43.0796 23.0102C43.3196 23.0102 43.4396 23.1802 43.4396 23.5202C43.4396 23.8202 43.3296 24.0502 43.1096 24.2102C42.4296 24.6102 41.6996 24.8102 40.9196 24.8102ZM51.5075 24.8102C50.5875 24.8102 49.8775 24.5302 49.3775 23.9702C48.8975 23.3902 48.6575 22.6302 48.6575 21.6902C48.6575 21.0102 48.7775 20.1902 49.0175 19.2302C49.4375 17.6102 50.1475 15.7302 51.1475 13.5902C51.9275 11.9702 52.7675 10.3802 53.6675 8.82024C54.5675 7.24024 55.5575 5.69024 56.6375 4.17024C58.3575 1.73024 59.5575 0.510243 60.2375 0.510243C60.6775 0.510243 60.8975 0.630243 60.8975 0.870243C60.8975 1.21024 60.3375 2.06024 59.2175 3.42024L57.1175 5.97024C55.2975 8.17024 53.8075 10.4202 52.6475 12.7202C51.5075 15.0202 50.6175 17.3202 49.9775 19.6202C49.7975 20.2802 49.7075 20.9002 49.7075 21.4802C49.7075 23.0002 50.3275 23.7602 51.5675 23.7602C52.0075 23.7602 52.4575 23.6302 52.9175 23.3702C53.3775 23.1302 53.6275 23.0102 53.6675 23.0102C53.9075 23.0102 54.0275 23.1802 54.0275 23.5202C54.0275 23.8202 53.9175 24.0502 53.6975 24.2102C53.0175 24.6102 52.2875 24.8102 51.5075 24.8102ZM60.1154 24.3002C58.9554 24.3002 58.3754 23.7502 58.3754 22.6502C58.3754 21.9302 58.5454 21.1602 58.8854 20.3402C59.2454 19.5002 59.7254 18.6902 60.3254 17.9102C60.9254 17.1102 61.5954 16.3902 62.3354 15.7502C63.0754 15.0902 63.8354 14.5702 64.6154 14.1902C65.3954 13.7902 66.1454 13.5902 66.8654 13.5902C68.1454 13.5902 68.7854 14.2202 68.7854 15.4802C68.7854 16.3002 68.5854 16.7102 68.1854 16.7102C67.8254 16.7102 67.6454 16.5402 67.6454 16.2002C67.6454 16.0602 67.6754 15.9202 67.7354 15.7802C67.8154 15.6202 67.8554 15.4502 67.8554 15.2702C67.8554 14.7102 67.4754 14.4302 66.7154 14.4302C65.4954 14.4302 63.9654 15.3602 62.1254 17.2202C61.6854 17.6802 61.2554 18.2202 60.8354 18.8402C60.4154 19.4602 60.0654 20.0902 59.7854 20.7302C59.5254 21.3502 59.3954 21.9402 59.3954 22.5002C59.3954 23.0402 59.6954 23.3102 60.2954 23.3102C60.8154 23.3102 61.3654 23.1502 61.9454 22.8302C62.5454 22.5102 63.0654 22.1802 63.5054 21.8402C64.3854 21.1802 65.2854 20.2802 66.2054 19.1402C66.3454 18.9802 66.5254 18.7702 66.7454 18.5102C66.9654 18.2502 67.2154 17.9602 67.4954 17.6402C67.5954 17.5402 67.7154 17.4902 67.8554 17.4902C68.1754 17.4902 68.3354 17.6502 68.3354 17.9702L67.1954 19.6802C66.4354 20.8002 66.0554 21.7202 66.0554 22.4402C66.0554 22.9602 66.3054 23.2202 66.8054 23.2202C67.2254 23.2202 67.6854 23.1102 68.1854 22.8902C68.6854 22.6702 69.0954 22.4502 69.4154 22.2302C70.0554 21.8102 70.7254 21.2902 71.4254 20.6702C72.1254 20.0302 72.7954 19.3902 73.4354 18.7502C73.5154 18.6702 73.6354 18.6302 73.7954 18.6302C74.0954 18.6302 74.2454 18.7502 74.2454 18.9902C74.2454 19.2102 74.1054 19.4602 73.8254 19.7402C73.0254 20.5402 72.3054 21.2302 71.6654 21.8102C71.0254 22.3702 70.4154 22.8302 69.8354 23.1902C69.4554 23.4102 68.9854 23.6402 68.4254 23.8802C67.8654 24.1202 67.2254 24.2402 66.5054 24.2402C65.5254 24.2402 65.0354 23.7202 65.0354 22.6802C65.0354 22.2802 65.0854 21.9502 65.1854 21.6902C63.3654 23.4302 61.6754 24.3002 60.1154 24.3002ZM74.3984 24.7502C74.0784 24.7502 73.9184 24.6202 73.9184 24.3602C73.9184 24.2402 73.9484 24.1202 74.0084 24.0002C74.0884 23.8802 74.1484 23.7802 74.1884 23.7002L76.9184 18.1802C78.0784 15.8202 78.6584 14.5102 78.6584 14.2502C78.6584 13.9702 78.7984 13.8302 79.0784 13.8302C79.4584 13.8302 79.6484 14.0202 79.6484 14.4002C79.6484 14.6002 79.5584 14.9202 79.3784 15.3602C79.1984 15.8002 78.9684 16.3102 78.6884 16.8902C78.2084 17.9302 77.8084 18.7302 77.4884 19.2902C78.0884 18.5902 78.6984 17.9302 79.3184 17.3102C79.9384 16.6902 80.5684 16.1002 81.2084 15.5402C83.1084 13.8802 84.5684 13.0502 85.5884 13.0502C86.2884 13.0502 86.6384 13.3802 86.6384 14.0402C86.6384 14.6802 86.4284 15.0002 86.0084 15.0002C85.8084 15.0002 85.6584 14.8302 85.5584 14.4902C85.4984 14.2502 85.3584 14.1302 85.1384 14.1302C84.7984 14.1302 84.1384 14.5002 83.1584 15.2402C82.0784 16.0402 80.9884 16.9902 79.8884 18.0902C78.8084 19.1902 77.6584 20.5902 76.4384 22.2902L74.9384 24.3902C74.8584 24.4902 74.7784 24.5702 74.6984 24.6302C74.6384 24.7102 74.5384 24.7502 74.3984 24.7502ZM87.6671 33.9302C86.4471 33.9302 85.8371 33.2102 85.8371 31.7702C85.8371 30.5502 86.0971 29.3702 86.6171 28.2302C86.6971 28.0302 86.8271 27.9302 87.0071 27.9302C87.3671 27.9302 87.5471 28.0902 87.5471 28.4102C87.5471 28.4902 87.5171 28.5902 87.4571 28.7102C87.4171 28.8502 87.3671 29.0002 87.3071 29.1602C87.1671 29.5402 87.0571 29.9402 86.9771 30.3602C86.8971 30.7802 86.8571 31.2202 86.8571 31.6802C86.8571 32.2002 86.9271 32.5502 87.0671 32.7302C87.2071 32.9102 87.3871 33.0002 87.6071 33.0002C88.1271 33.0002 88.7371 32.7602 89.4371 32.2802C90.1571 31.8002 90.8971 31.0402 91.6571 30.0002C92.1971 29.2602 92.7571 28.3802 93.3371 27.3602C93.9171 26.3402 94.5371 25.1702 95.1971 23.8502C96.0771 22.1102 96.8871 20.3402 97.6271 18.5402C97.1271 19.1802 96.6071 19.8002 96.0671 20.4002C95.5271 21.0002 94.9471 21.5602 94.3271 22.0802C92.6671 23.5002 91.2871 24.2102 90.1871 24.2102C88.8671 24.2102 88.2071 23.4502 88.2071 21.9302C88.2071 21.3902 88.3071 20.7402 88.5071 19.9802C88.7271 19.2202 89.0271 18.3502 89.4071 17.3702C89.4671 17.2102 89.4971 17.0802 89.4971 16.9802C89.4971 16.8602 89.5271 16.7402 89.5871 16.6202C89.9071 15.9202 90.4371 15.1402 91.1771 14.2802C91.3371 14.1002 91.4771 14.0102 91.5971 14.0102C91.8971 14.0102 92.0471 14.2302 92.0471 14.6702C90.1071 17.5302 89.1371 19.9502 89.1371 21.9302C89.1371 22.7702 89.4671 23.1902 90.1271 23.1902C90.8671 23.1902 91.8971 22.6802 93.2171 21.6602C94.1571 20.9402 95.0271 20.1302 95.8271 19.2302C96.6271 18.3102 97.3471 17.3602 97.9871 16.3802C98.4271 15.7202 98.7771 15.1402 99.0371 14.6402C99.3171 14.1202 99.4871 13.7702 99.5471 13.5902C99.6471 13.2902 99.7871 13.1402 99.9671 13.1402C100.347 13.1402 100.537 13.3002 100.537 13.6202C100.537 13.7802 100.457 14.0702 100.297 14.4902C100.157 14.8902 99.9771 15.3702 99.7571 15.9302C99.4371 16.7502 98.9771 17.8502 98.3771 19.2302C97.7771 20.6102 97.0271 22.2502 96.1271 24.1502C95.0071 26.5102 93.9071 28.4402 92.8271 29.9402C92.0271 31.0802 91.1471 32.0302 90.1871 32.7902C89.2471 33.5502 88.4071 33.9302 87.6671 33.9302ZM124.93 25.3502C123.11 25.3502 121.52 25.0302 120.16 24.3902C118.82 23.7702 117.78 22.8602 117.04 21.6602C116.3 20.4402 115.93 18.9802 115.93 17.2802C115.93 15.6802 116.23 14.2102 116.83 12.8702C117.45 11.5302 118.34 10.2902 119.5 9.15024C121.26 7.45024 123.31 6.14024 125.65 5.22024C128.01 4.30024 130.44 3.84024 132.94 3.84024C134.18 3.84024 135.27 4.06024 136.21 4.50024C137.15 4.92024 137.89 5.49024 138.43 6.21024C138.97 6.93024 139.24 7.72024 139.24 8.58024C139.24 9.14024 139.11 9.66024 138.85 10.1402C138.59 10.6002 138.3 10.9702 137.98 11.2502C137.66 11.5302 137.4 11.6702 137.2 11.6702C137.04 11.6702 136.88 11.6002 136.72 11.4602C136.56 11.3002 136.48 11.1702 136.48 11.0702C136.48 10.9502 136.62 10.7802 136.9 10.5602C137.18 10.3402 137.45 10.0502 137.71 9.69024C137.99 9.31024 138.13 8.85024 138.13 8.31024C138.13 7.59024 137.88 6.96024 137.38 6.42024C136.9 5.86024 136.22 5.43024 135.34 5.13024C134.48 4.81024 133.49 4.65024 132.37 4.65024C130.15 4.65024 127.99 5.12024 125.89 6.06024C123.79 6.98024 121.95 8.22024 120.37 9.78024C119.27 10.8802 118.44 12.0402 117.88 13.2602C117.32 14.4802 117.04 15.8902 117.04 17.4902C117.04 19.0302 117.4 20.3202 118.12 21.3602C118.86 22.3802 119.85 23.1502 121.09 23.6702C122.33 24.1702 123.72 24.4202 125.26 24.4202C127.02 24.4202 128.89 24.1402 130.87 23.5802C132.03 23.2602 133.01 22.9002 133.81 22.5002C134.61 22.0802 135.21 21.6902 135.61 21.3302C135.99 20.9902 136.27 20.7402 136.45 20.5802C136.63 20.4202 136.78 20.3402 136.9 20.3402C137.04 20.3402 137.11 20.4302 137.11 20.6102C137.11 20.8102 136.99 21.0602 136.75 21.3602C136.53 21.6602 136.28 21.9202 136 22.1402C135.3 22.6802 134.41 23.1702 133.33 23.6102C132.27 24.0302 131.21 24.3802 130.15 24.6602C129.21 24.9002 128.31 25.0702 127.45 25.1702C126.59 25.2902 125.75 25.3502 124.93 25.3502ZM145.24 24.8102C144.32 24.8102 143.61 24.5302 143.11 23.9702C142.63 23.3902 142.39 22.6302 142.39 21.6902C142.39 21.0102 142.51 20.1902 142.75 19.2302C143.17 17.6102 143.88 15.7302 144.88 13.5902C145.66 11.9702 146.5 10.3802 147.4 8.82024C148.3 7.24024 149.29 5.69024 150.37 4.17024C152.09 1.73024 153.29 0.510243 153.97 0.510243C154.41 0.510243 154.63 0.630243 154.63 0.870243C154.63 1.21024 154.07 2.06024 152.95 3.42024L150.85 5.97024C149.03 8.17024 147.54 10.4202 146.38 12.7202C145.24 15.0202 144.35 17.3202 143.71 19.6202C143.53 20.2802 143.44 20.9002 143.44 21.4802C143.44 23.0002 144.06 23.7602 145.3 23.7602C145.74 23.7602 146.19 23.6302 146.65 23.3702C147.11 23.1302 147.36 23.0102 147.4 23.0102C147.64 23.0102 147.76 23.1802 147.76 23.5202C147.76 23.8202 147.65 24.0502 147.43 24.2102C146.75 24.6102 146.02 24.8102 145.24 24.8102ZM159.008 12.1802C158.668 12.1802 158.498 12.0102 158.498 11.6702C158.498 11.5702 158.568 11.3902 158.708 11.1302C158.848 10.8502 159.008 10.5702 159.188 10.2902C159.368 10.0102 159.508 9.82024 159.608 9.72024C159.948 9.34024 160.208 9.10024 160.388 9.00024C160.588 8.90024 160.768 8.85024 160.928 8.85024C161.348 8.85024 161.558 9.04024 161.558 9.42024C161.558 9.56024 161.468 9.73024 161.288 9.93024C161.128 10.1102 160.938 10.2802 160.718 10.4402C160.398 10.6402 160.198 10.8002 160.118 10.9202L159.458 11.8502C159.438 11.9302 159.388 12.0102 159.308 12.0902C159.248 12.1502 159.148 12.1802 159.008 12.1802ZM153.908 24.3302C153.348 24.3302 152.938 24.2202 152.678 24.0002C152.438 23.7802 152.318 23.4502 152.318 23.0102C152.318 22.5902 152.448 22.0202 152.708 21.3002C152.968 20.5602 153.298 19.7702 153.698 18.9302C154.118 18.0902 154.558 17.2902 155.018 16.5302C155.478 15.7702 155.918 15.1502 156.338 14.6702C156.778 14.1702 157.128 13.9202 157.388 13.9202C157.748 13.9202 157.928 14.0802 157.928 14.4002C157.928 14.6002 157.758 14.9802 157.418 15.5402C157.078 16.1002 156.708 16.6802 156.308 17.2802C156.148 17.5002 155.928 17.8002 155.648 18.1802C155.368 18.5602 155.098 18.9202 154.838 19.2602C154.578 19.5802 154.408 19.8002 154.328 19.9202C154.128 20.2202 153.918 20.7102 153.698 21.3902C153.458 22.0702 153.338 22.5902 153.338 22.9502C153.338 23.1102 153.368 23.2302 153.428 23.3102C153.508 23.3902 153.678 23.4302 153.938 23.4302C154.438 23.4302 154.998 23.2702 155.618 22.9502C156.238 22.6302 156.868 22.2302 157.508 21.7502C158.148 21.2502 158.748 20.7402 159.308 20.2202C159.888 19.7002 160.378 19.2502 160.778 18.8702C160.858 18.7902 160.978 18.7502 161.138 18.7502C161.438 18.7502 161.588 18.8702 161.588 19.1102C161.588 19.3302 161.448 19.5802 161.168 19.8602C160.628 20.4002 160.128 20.8802 159.668 21.3002C159.208 21.7202 158.768 22.0902 158.348 22.4102C157.688 22.8902 156.958 23.3302 156.158 23.7302C155.358 24.1302 154.608 24.3302 153.908 24.3302ZM161.832 24.7502C161.512 24.7502 161.352 24.6202 161.352 24.3602C161.352 24.2602 161.392 24.1402 161.472 24.0002C161.552 23.8402 161.622 23.7102 161.682 23.6102L164.382 18.1802C165.542 15.8202 166.122 14.5102 166.122 14.2502C166.122 13.9702 166.262 13.8302 166.542 13.8302C166.922 13.8302 167.112 14.0302 167.112 14.4302C167.112 14.5702 167.022 14.8702 166.842 15.3302C166.662 15.7902 166.432 16.3102 166.152 16.8902C165.672 17.9302 165.272 18.7302 164.952 19.2902C165.552 18.5902 166.162 17.9302 166.782 17.3102C167.402 16.6902 168.032 16.1002 168.672 15.5402C170.572 13.8802 172.032 13.0502 173.052 13.0502C173.752 13.0502 174.102 13.3802 174.102 14.0402C174.102 14.6402 173.592 15.9902 172.572 18.0902C171.552 20.2102 171.042 21.5502 171.042 22.1102C171.042 22.3702 171.132 22.5002 171.312 22.5002C171.372 22.5002 171.462 22.4802 171.582 22.4402C171.722 22.3802 171.862 22.3502 172.002 22.3502C172.342 22.3502 172.512 22.5102 172.512 22.8302C172.512 23.2302 172.082 23.4302 171.222 23.4302C170.822 23.4302 170.532 23.3402 170.352 23.1602C170.172 22.9602 170.082 22.7002 170.082 22.3802C170.082 21.4202 170.572 19.9602 171.552 18.0002C172.532 16.0602 173.022 14.8902 173.022 14.4902C173.022 14.2502 172.932 14.1302 172.752 14.1302C172.312 14.1302 171.602 14.5002 170.622 15.2402C169.562 16.0402 168.502 16.9602 167.442 18.0002C166.382 19.0402 165.372 20.2302 164.412 21.5702L162.312 24.4802C162.192 24.6602 162.032 24.7502 161.832 24.7502ZM177.836 26.0702C177.456 26.0702 177.266 25.7702 177.266 25.1702C177.266 24.2902 177.756 22.7502 178.736 20.5502C179.736 18.3502 181.216 15.4702 183.176 11.9102C182.416 11.9102 181.696 12.0102 181.016 12.2102C180.356 12.3902 180.006 12.6202 179.966 12.9002C179.946 12.9802 179.896 13.0602 179.816 13.1402C179.756 13.2002 179.656 13.2302 179.516 13.2302C179.196 13.2302 179.036 13.0702 179.036 12.7502C179.036 12.2302 179.446 11.8002 180.266 11.4602C181.086 11.1202 182.236 10.9502 183.716 10.9502L185.786 7.53024C185.926 7.31024 186.076 7.07024 186.236 6.81024C186.396 6.53024 186.576 6.23024 186.776 5.91024C186.976 5.63024 187.206 5.49024 187.466 5.49024C187.626 5.49024 187.746 5.54024 187.826 5.64024C187.906 5.72024 187.946 5.81024 187.946 5.91024C187.946 6.21024 187.506 7.01024 186.626 8.31024C185.526 9.93024 184.936 10.8102 184.856 10.9502C185.156 10.9502 185.606 10.9802 186.206 11.0402C186.806 11.0802 187.516 11.1502 188.336 11.2502C188.636 11.2702 188.786 11.4202 188.786 11.7002C188.786 12.0202 188.606 12.1802 188.246 12.1802C188.106 12.1802 187.826 12.1602 187.406 12.1202C186.986 12.0602 186.536 12.0102 186.056 11.9702C185.576 11.9302 185.166 11.9202 184.826 11.9402L184.376 11.9702C180.316 19.1102 178.296 23.5502 178.316 25.2902L178.346 25.5302V25.5902C178.346 25.9102 178.176 26.0702 177.836 26.0702ZM190.091 23.8502C188.471 23.8502 187.661 22.9402 187.661 21.1202C187.661 20.2802 187.861 19.4002 188.261 18.4802C188.661 17.5602 189.191 16.7102 189.851 15.9302C190.511 15.1302 191.241 14.4802 192.041 13.9802C192.861 13.4802 193.691 13.2302 194.531 13.2302C195.271 13.2302 195.811 13.5102 196.151 14.0702C196.491 14.6302 196.661 15.2502 196.661 15.9302C196.661 16.8302 196.481 17.7502 196.121 18.6902C195.761 19.6102 195.271 20.4602 194.651 21.2402C194.031 22.0202 193.331 22.6502 192.551 23.1302C191.771 23.6102 190.951 23.8502 190.091 23.8502ZM190.061 22.8902C190.181 22.8902 190.251 22.8802 190.271 22.8602C191.051 22.7602 191.771 22.4802 192.431 22.0202C193.091 21.5602 193.661 20.9902 194.141 20.3102C194.641 19.6102 195.021 18.8602 195.281 18.0602C195.541 17.2602 195.671 16.4702 195.671 15.6902C195.671 15.2302 195.541 14.8702 195.281 14.6102C195.021 14.3502 194.691 14.2202 194.291 14.2202C193.711 14.2202 193.091 14.4602 192.431 14.9402C191.791 15.4202 191.181 16.0302 190.601 16.7702C190.041 17.5102 189.581 18.2902 189.221 19.1102C188.861 19.9102 188.681 20.6302 188.681 21.2702C188.681 22.3502 189.141 22.8902 190.061 22.8902ZM199.602 24.7502C199.282 24.7502 199.122 24.6202 199.122 24.3602C199.122 24.2602 199.162 24.1402 199.242 24.0002C199.322 23.8402 199.392 23.7102 199.452 23.6102L202.152 18.1802C203.312 15.8202 203.892 14.5102 203.892 14.2502C203.892 13.9702 204.032 13.8302 204.312 13.8302C204.692 13.8302 204.882 14.0302 204.882 14.4302C204.882 14.5702 204.792 14.8702 204.612 15.3302C204.432 15.7902 204.202 16.3102 203.922 16.8902C203.442 17.9302 203.042 18.7302 202.722 19.2902C203.322 18.5902 203.932 17.9302 204.552 17.3102C205.172 16.6902 205.802 16.1002 206.442 15.5402C208.342 13.8802 209.802 13.0502 210.822 13.0502C211.522 13.0502 211.872 13.3802 211.872 14.0402C211.872 14.6402 211.362 15.9902 210.342 18.0902C209.322 20.2102 208.812 21.5502 208.812 22.1102C208.812 22.3702 208.902 22.5002 209.082 22.5002C209.142 22.5002 209.232 22.4802 209.352 22.4402C209.492 22.3802 209.632 22.3502 209.772 22.3502C210.112 22.3502 210.282 22.5102 210.282 22.8302C210.282 23.2302 209.852 23.4302 208.992 23.4302C208.592 23.4302 208.302 23.3402 208.122 23.1602C207.942 22.9602 207.852 22.7002 207.852 22.3802C207.852 21.4202 208.342 19.9602 209.322 18.0002C210.302 16.0602 210.792 14.8902 210.792 14.4902C210.792 14.2502 210.702 14.1302 210.522 14.1302C210.082 14.1302 209.372 14.5002 208.392 15.2402C207.332 16.0402 206.272 16.9602 205.212 18.0002C204.152 19.0402 203.142 20.2302 202.182 21.5702L200.082 24.4802C199.962 24.6602 199.802 24.7502 199.602 24.7502Z" fill="white"/>
</svg>
