<svg width="363" height="30" viewBox="0 0 363 30" fill="none" xmlns="http://www.w3.org/2000/svg">
<path d="M1.69 22.29C1.55 22.29 1.39 22.22 1.21 22.08C1.03 21.94 0.94 21.79 0.94 21.63C0.94 21.45 1.14 20.99 1.54 20.25C1.94 19.51 2.58 18.4 3.46 16.92C4.34 15.44 5.49 13.52 6.91 11.16L10.84 4.59C11.06 4.19 11.33 3.72 11.65 3.18C11.97 2.64 12.36 2 12.82 1.26C12.94 1.08 13.07 0.989998 13.21 0.989998C13.35 0.989998 13.49 1.06 13.63 1.2C13.77 1.32 13.84 1.45 13.84 1.59C13.84 1.67 13.34 2.56 12.34 4.26C11.34 5.94 9.83 8.45 7.81 11.79C7.05 13.05 6.22 14.44 5.32 15.96C4.44 17.48 3.5 19.13 2.5 20.91C8.3 19.35 12.76 18.57 15.88 18.57C16.82 18.57 17.6 18.73 18.22 19.05C18.86 19.35 19.18 19.65 19.18 19.95C19.18 20.29 19.01 20.46 18.67 20.46C18.39 20.46 18.25 20.31 18.25 20.01V19.92C18.05 19.82 17.71 19.74 17.23 19.68C16.75 19.62 16.2 19.59 15.58 19.59C14.82 19.59 13.96 19.66 13 19.8C12.04 19.92 11.06 20.08 10.06 20.28C9.08 20.46 8.16 20.65 7.3 20.85C6.46 21.03 5.66 21.22 4.9 21.42C4.16 21.64 3.47 21.83 2.83 21.99C2.45 22.07 2.17 22.14 1.99 22.2C1.83 22.26 1.73 22.29 1.69 22.29ZM24.4335 23.07C24.0535 23.07 23.8635 22.77 23.8635 22.17C23.8635 21.29 24.3535 19.75 25.3335 17.55C26.3335 15.35 27.8135 12.47 29.7735 8.91C29.0135 8.91 28.2935 9.01 27.6135 9.21C26.9535 9.39 26.6035 9.62 26.5635 9.9C26.5435 9.98 26.4935 10.06 26.4135 10.14C26.3535 10.2 26.2535 10.23 26.1135 10.23C25.7935 10.23 25.6335 10.07 25.6335 9.75C25.6335 9.23 26.0435 8.8 26.8635 8.46C27.6835 8.12 28.8335 7.95 30.3135 7.95L32.3835 4.53C32.5235 4.31 32.6735 4.07 32.8335 3.81C32.9935 3.53 33.1735 3.23 33.3735 2.91C33.5735 2.63 33.8035 2.49 34.0635 2.49C34.2235 2.49 34.3435 2.54 34.4235 2.64C34.5035 2.72 34.5435 2.81 34.5435 2.91C34.5435 3.21 34.1035 4.01 33.2235 5.31C32.1235 6.93 31.5335 7.81 31.4535 7.95C31.7535 7.95 32.2035 7.98 32.8035 8.04C33.4035 8.08 34.1135 8.15 34.9335 8.25C35.2335 8.27 35.3835 8.42 35.3835 8.7C35.3835 9.02 35.2035 9.18 34.8435 9.18C34.7035 9.18 34.4235 9.16 34.0035 9.12C33.5835 9.06 33.1335 9.01 32.6535 8.97C32.1735 8.93 31.7635 8.92 31.4235 8.94L30.9735 8.97C26.9135 16.11 24.8935 20.55 24.9135 22.29L24.9435 22.53V22.59C24.9435 22.91 24.7735 23.07 24.4335 23.07ZM34.769 21C34.229 21 33.959 20.75 33.959 20.25C33.959 19.71 34.209 19.44 34.709 19.44C35.249 19.44 35.519 19.69 35.519 20.19C35.519 20.73 35.269 21 34.769 21ZM62.4747 22.29C60.8347 22.29 59.3847 21.96 58.1247 21.3C56.8647 20.64 55.8747 19.71 55.1547 18.51C54.4347 17.29 54.0747 15.88 54.0747 14.28C54.0747 12.58 54.4147 11.03 55.0947 9.63C55.7747 8.23 56.7547 6.95 58.0347 5.79C61.6747 2.49 66.0047 0.839998 71.0247 0.839998C72.0847 0.839998 73.0947 1.03 74.0547 1.41C75.0347 1.77 75.8347 2.31 76.4547 3.03C77.0747 3.73 77.3847 4.58 77.3847 5.58C77.3847 6.4 77.1347 7.1 76.6347 7.68C76.5147 7.84 76.3147 8.05 76.0347 8.31C75.7747 8.55 75.5447 8.67 75.3447 8.67C75.1847 8.67 75.0247 8.61 74.8647 8.49C74.7047 8.35 74.6247 8.21 74.6247 8.07C74.6247 7.97 74.6947 7.86 74.8347 7.74C74.9747 7.6 75.1847 7.4 75.4647 7.14C76.0047 6.6 76.2747 5.99 76.2747 5.31C76.2747 4.49 75.9847 3.81 75.4047 3.27C74.8447 2.73 74.1247 2.33 73.2447 2.07C72.3647 1.79 71.4347 1.65 70.4547 1.65C68.2547 1.65 66.1047 2.12 64.0047 3.06C61.9247 3.98 60.0847 5.24 58.4847 6.84C57.4247 7.9 56.6047 9.06 56.0247 10.32C55.4647 11.56 55.1847 12.95 55.1847 14.49C55.1847 15.77 55.4147 16.84 55.8747 17.7C56.3547 18.56 56.9647 19.26 57.7047 19.8C58.4647 20.34 59.2947 20.74 60.1947 21C61.0947 21.24 61.9547 21.36 62.7747 21.36C63.7347 21.36 64.7547 21.23 65.8347 20.97C66.9347 20.71 68.0047 20.36 69.0447 19.92C70.1047 19.46 71.0547 18.96 71.8947 18.42C72.2547 18.18 72.5447 17.97 72.7647 17.79C73.0047 17.61 73.1747 17.47 73.2747 17.37L74.1747 15.84C74.4147 15.44 74.7047 14.94 75.0447 14.34C75.3847 13.74 75.7747 13.04 76.2147 12.24C75.5947 12.24 74.8147 12.33 73.8747 12.51C72.9347 12.69 71.9547 12.92 70.9347 13.2C70.3147 13.36 69.6947 13.55 69.0747 13.77C68.4747 13.97 68.0947 14.07 67.9347 14.07C67.5947 14.07 67.4247 13.89 67.4247 13.53C67.4247 13.43 67.4547 13.35 67.5147 13.29C67.5747 13.21 67.7047 13.12 67.9047 13.02C68.3647 12.76 68.9547 12.52 69.6747 12.3C70.3947 12.06 71.1947 11.86 72.0747 11.7C72.8747 11.54 73.6647 11.43 74.4447 11.37C75.2247 11.31 75.9847 11.29 76.7247 11.31L76.8147 11.13C76.8947 10.93 77.0347 10.83 77.2347 10.83C77.5347 10.83 77.7247 10.99 77.8047 11.31C78.3047 11.33 78.8747 11.4 79.5147 11.52C79.8347 11.58 79.9947 11.76 79.9947 12.06C79.9947 12.36 79.8447 12.51 79.5447 12.51C79.4047 12.51 79.1247 12.47 78.7047 12.39C78.3047 12.31 77.8647 12.27 77.3847 12.27C76.9447 13.13 76.0747 14.66 74.7747 16.86C74.5147 17.3 74.2947 17.68 74.1147 18C73.9347 18.32 73.7947 18.59 73.6947 18.81C73.3347 19.51 73.0647 20.19 72.8847 20.85C72.8247 21.07 72.7047 21.18 72.5247 21.18C72.1247 21.18 71.9247 21 71.9247 20.64C71.9247 20.4 72.0647 19.91 72.3447 19.17C71.4447 19.75 70.4147 20.28 69.2547 20.76C68.1147 21.22 66.9547 21.59 65.7747 21.87C64.5947 22.15 63.4947 22.29 62.4747 22.29ZM85.341 21.54C84.501 21.54 83.841 21.25 83.361 20.67C82.881 20.09 82.641 19.38 82.641 18.54C82.641 17.1 83.121 15.62 84.081 14.1C84.341 13.68 84.641 13.27 84.981 12.87C85.321 12.45 85.691 12.05 86.091 11.67C86.691 11.09 87.321 10.61 87.981 10.23C88.641 9.85 89.281 9.66 89.901 9.66C90.921 9.66 91.431 10.14 91.431 11.1C91.431 12.3 90.731 13.39 89.331 14.37C88.031 15.25 86.751 15.69 85.491 15.69C85.271 15.69 85.071 15.68 84.891 15.66C84.731 15.62 84.581 15.58 84.441 15.54C84.241 15.92 84.061 16.41 83.901 17.01C83.741 17.61 83.661 18.13 83.661 18.57C83.661 19.89 84.241 20.55 85.401 20.55C86.341 20.55 87.231 20.39 88.071 20.07C88.911 19.73 89.911 19.1 91.071 18.18C91.791 17.62 92.331 17.17 92.691 16.83C93.051 16.49 93.441 16.13 93.861 15.75C93.981 15.67 94.091 15.63 94.191 15.63C94.291 15.63 94.391 15.66 94.491 15.72C94.591 15.78 94.641 15.87 94.641 15.99C94.641 16.21 94.441 16.52 94.041 16.92C93.701 17.24 93.341 17.58 92.961 17.94C92.581 18.28 91.981 18.76 91.161 19.38C90.281 20.06 89.321 20.59 88.281 20.97C87.241 21.35 86.261 21.54 85.341 21.54ZM85.311 14.73C85.951 14.73 86.561 14.63 87.141 14.43C87.721 14.23 88.271 13.94 88.791 13.56C89.951 12.7 90.531 11.89 90.531 11.13C90.531 10.79 90.321 10.62 89.901 10.62C89.101 10.62 88.171 11.11 87.111 12.09C86.591 12.57 86.161 13.01 85.821 13.41C85.501 13.79 85.201 14.21 84.921 14.67C85.041 14.71 85.171 14.73 85.311 14.73ZM94.8379 21.75C94.5179 21.75 94.3579 21.62 94.3579 21.36C94.3579 21.26 94.3979 21.14 94.4779 21C94.5579 20.84 94.6279 20.71 94.6879 20.61L97.3879 15.18C98.5479 12.82 99.1279 11.51 99.1279 11.25C99.1279 10.97 99.2679 10.83 99.5479 10.83C99.9279 10.83 100.118 11.03 100.118 11.43C100.118 11.57 100.028 11.87 99.8479 12.33C99.6679 12.79 99.4379 13.31 99.1579 13.89C98.6779 14.93 98.2779 15.73 97.9579 16.29C98.5579 15.59 99.1679 14.93 99.7879 14.31C100.408 13.69 101.038 13.1 101.678 12.54C103.578 10.88 105.038 10.05 106.058 10.05C106.758 10.05 107.108 10.38 107.108 11.04C107.108 11.64 106.598 12.99 105.578 15.09C104.558 17.21 104.048 18.55 104.048 19.11C104.048 19.37 104.138 19.5 104.318 19.5C104.378 19.5 104.468 19.48 104.588 19.44C104.728 19.38 104.868 19.35 105.008 19.35C105.348 19.35 105.518 19.51 105.518 19.83C105.518 20.23 105.088 20.43 104.228 20.43C103.828 20.43 103.538 20.34 103.358 20.16C103.178 19.96 103.088 19.7 103.088 19.38C103.088 18.42 103.578 16.96 104.558 15C105.538 13.06 106.028 11.89 106.028 11.49C106.028 11.25 105.938 11.13 105.758 11.13C105.318 11.13 104.608 11.5 103.628 12.24C102.568 13.04 101.508 13.96 100.448 15C99.3879 16.04 98.3779 17.23 97.4179 18.57L95.3179 21.48C95.1979 21.66 95.0379 21.75 94.8379 21.75ZM111.322 21C110.782 21 110.512 20.75 110.512 20.25C110.512 19.71 110.762 19.44 111.262 19.44C111.802 19.44 112.072 19.69 112.072 20.19C112.072 20.73 111.822 21 111.322 21ZM131.347 21.93C130.487 21.93 129.787 21.67 129.247 21.15C128.727 20.63 128.467 19.94 128.467 19.08C128.467 18.46 128.597 17.83 128.857 17.19C129.117 16.55 129.447 15.95 129.847 15.39C130.267 14.81 130.697 14.33 131.137 13.95C131.477 13.63 131.777 13.47 132.037 13.47C132.297 13.47 132.427 13.6 132.427 13.86C132.427 14.1 132.257 14.37 131.917 14.67C131.237 15.25 130.677 15.96 130.237 16.8C129.797 17.64 129.577 18.42 129.577 19.14C129.577 20.28 130.187 20.85 131.407 20.85C132.127 20.85 132.847 20.61 133.567 20.13C134.307 19.65 135.037 19.02 135.757 18.24C136.477 17.44 137.167 16.55 137.827 15.57C138.507 14.59 139.147 13.61 139.747 12.63C142.407 8.33 144.177 4.77 145.057 1.95C144.797 1.97 144.397 2.05 143.857 2.19C143.337 2.33 142.677 2.53 141.877 2.79C141.117 3.03 140.547 3.22 140.167 3.36C139.787 3.48 139.527 3.54 139.387 3.54C139.007 3.54 138.817 3.37 138.817 3.03C138.817 2.85 138.947 2.68 139.207 2.52C139.627 2.26 140.177 2.02 140.857 1.8C141.557 1.56 142.347 1.36 143.227 1.2C144.767 0.899999 146.247 0.75 147.667 0.75C148.247 0.75 148.837 0.779999 149.437 0.839998C150.037 0.899999 150.517 0.969999 150.877 1.05C151.217 1.11 151.387 1.28 151.387 1.56C151.387 1.86 151.247 2.01 150.967 2.01C150.887 2.01 150.577 1.97 150.037 1.89C149.497 1.79 148.777 1.74 147.877 1.74C147.257 1.74 146.627 1.77 145.987 1.83C146.067 1.91 146.107 2.01 146.107 2.13C146.107 2.19 146.067 2.32 145.987 2.52C145.927 2.7 145.867 2.87 145.807 3.03C145.287 4.49 144.627 6.01 143.827 7.59C143.047 9.15 142.137 10.79 141.097 12.51C140.377 13.69 139.627 14.84 138.847 15.96C138.067 17.08 137.257 18.09 136.417 18.99C135.597 19.89 134.757 20.6 133.897 21.12C133.057 21.66 132.207 21.93 131.347 21.93ZM148.55 20.85C146.93 20.85 146.12 19.94 146.12 18.12C146.12 17.28 146.32 16.4 146.72 15.48C147.12 14.56 147.65 13.71 148.31 12.93C148.97 12.13 149.7 11.48 150.5 10.98C151.32 10.48 152.15 10.23 152.99 10.23C153.73 10.23 154.27 10.51 154.61 11.07C154.95 11.63 155.12 12.25 155.12 12.93C155.12 13.83 154.94 14.75 154.58 15.69C154.22 16.61 153.73 17.46 153.11 18.24C152.49 19.02 151.79 19.65 151.01 20.13C150.23 20.61 149.41 20.85 148.55 20.85ZM148.52 19.89C148.64 19.89 148.71 19.88 148.73 19.86C149.51 19.76 150.23 19.48 150.89 19.02C151.55 18.56 152.12 17.99 152.6 17.31C153.1 16.61 153.48 15.86 153.74 15.06C154 14.26 154.13 13.47 154.13 12.69C154.13 12.23 154 11.87 153.74 11.61C153.48 11.35 153.15 11.22 152.75 11.22C152.17 11.22 151.55 11.46 150.89 11.94C150.25 12.42 149.64 13.03 149.06 13.77C148.5 14.51 148.04 15.29 147.68 16.11C147.32 16.91 147.14 17.63 147.14 18.27C147.14 19.35 147.6 19.89 148.52 19.89ZM159.711 21.99C158.591 21.99 158.031 21.62 158.031 20.88C158.031 20.42 158.191 19.96 158.511 19.5C158.851 19.04 159.251 18.62 159.711 18.24C160.171 17.86 160.601 17.57 161.001 17.37C161.121 17.31 161.281 17.25 161.481 17.19C161.701 17.13 161.881 17.1 162.021 17.1C162.181 17.1 162.261 17.16 162.261 17.28C162.261 17.38 162.151 17.49 161.931 17.61C161.011 18.05 160.291 18.58 159.771 19.2C159.271 19.8 159.021 20.29 159.021 20.67C159.021 21.03 159.331 21.21 159.951 21.21C160.471 21.21 161.031 21.08 161.631 20.82C162.251 20.56 162.831 20.22 163.371 19.8C163.931 19.38 164.391 18.93 164.751 18.45C165.111 17.97 165.291 17.51 165.291 17.07C165.291 16.77 165.191 16.5 164.991 16.26C164.811 16.02 164.511 15.84 164.091 15.72L162.111 15.12C161.611 14.96 161.251 14.75 161.031 14.49C160.811 14.23 160.701 13.94 160.701 13.62C160.701 13.02 160.921 12.48 161.361 12C161.821 11.52 162.391 11.14 163.071 10.86C163.751 10.58 164.411 10.44 165.051 10.44C165.691 10.44 166.251 10.6 166.731 10.92C167.211 11.22 167.451 11.63 167.451 12.15C167.451 12.45 167.361 12.73 167.181 12.99C167.021 13.25 166.831 13.38 166.611 13.38C166.271 13.38 166.101 13.24 166.101 12.96C166.101 12.86 166.151 12.74 166.251 12.6C166.371 12.44 166.431 12.29 166.431 12.15C166.431 11.55 165.971 11.25 165.051 11.25C164.551 11.25 164.051 11.36 163.551 11.58C163.071 11.78 162.671 12.05 162.351 12.39C162.031 12.73 161.871 13.1 161.871 13.5C161.871 13.9 162.271 14.22 163.071 14.46L164.991 15.06C165.571 15.24 165.971 15.49 166.191 15.81C166.411 16.11 166.521 16.45 166.521 16.83C166.521 17.73 165.971 18.66 164.871 19.62C163.091 21.2 161.371 21.99 159.711 21.99ZM174.398 21.54C173.558 21.54 172.898 21.25 172.418 20.67C171.938 20.09 171.698 19.38 171.698 18.54C171.698 17.1 172.178 15.62 173.138 14.1C173.398 13.68 173.698 13.27 174.038 12.87C174.378 12.45 174.748 12.05 175.148 11.67C175.748 11.09 176.378 10.61 177.038 10.23C177.698 9.85 178.338 9.66 178.958 9.66C179.978 9.66 180.488 10.14 180.488 11.1C180.488 12.3 179.788 13.39 178.388 14.37C177.088 15.25 175.808 15.69 174.548 15.69C174.328 15.69 174.128 15.68 173.948 15.66C173.788 15.62 173.638 15.58 173.498 15.54C173.298 15.92 173.118 16.41 172.958 17.01C172.798 17.61 172.718 18.13 172.718 18.57C172.718 19.89 173.298 20.55 174.458 20.55C175.398 20.55 176.288 20.39 177.128 20.07C177.968 19.73 178.968 19.1 180.128 18.18C180.848 17.62 181.388 17.17 181.748 16.83C182.108 16.49 182.498 16.13 182.918 15.75C183.038 15.67 183.148 15.63 183.248 15.63C183.348 15.63 183.448 15.66 183.548 15.72C183.648 15.78 183.698 15.87 183.698 15.99C183.698 16.21 183.498 16.52 183.098 16.92C182.758 17.24 182.398 17.58 182.018 17.94C181.638 18.28 181.038 18.76 180.218 19.38C179.338 20.06 178.378 20.59 177.338 20.97C176.298 21.35 175.318 21.54 174.398 21.54ZM174.368 14.73C175.008 14.73 175.618 14.63 176.198 14.43C176.778 14.23 177.328 13.94 177.848 13.56C179.008 12.7 179.588 11.89 179.588 11.13C179.588 10.79 179.378 10.62 178.958 10.62C178.158 10.62 177.228 11.11 176.168 12.09C175.648 12.57 175.218 13.01 174.878 13.41C174.558 13.79 174.258 14.21 173.978 14.67C174.098 14.71 174.228 14.73 174.368 14.73ZM183.355 29.28C182.415 29.28 181.945 28.61 181.945 27.27C181.945 25.51 182.715 22.71 184.255 18.87C184.515 18.23 184.825 17.56 185.185 16.86C185.545 16.16 185.965 15.42 186.445 14.64C186.945 13.8 187.415 13.07 187.855 12.45C188.315 11.83 188.715 11.33 189.055 10.95C189.175 10.83 189.275 10.75 189.355 10.71C189.455 10.67 189.535 10.65 189.595 10.65C190.115 10.65 190.705 10.8 191.365 11.1C192.025 11.4 192.615 11.78 193.135 12.24C193.615 12.64 194.005 13.12 194.305 13.68C194.605 14.24 194.755 14.82 194.755 15.42C194.755 15.86 194.665 16.31 194.485 16.77C194.325 17.21 194.105 17.65 193.825 18.09C194.345 17.99 194.975 17.76 195.715 17.4C196.475 17.04 197.245 16.49 198.025 15.75C198.105 15.67 198.215 15.63 198.355 15.63C198.655 15.63 198.805 15.75 198.805 15.99C198.805 16.09 198.755 16.22 198.655 16.38C198.575 16.52 198.425 16.7 198.205 16.92C196.725 18.28 194.945 19.06 192.865 19.26C192.565 19.58 192.235 19.89 191.875 20.19C191.535 20.47 191.175 20.73 190.795 20.97C189.635 21.67 188.645 22.02 187.825 22.02C187.485 22.02 187.205 21.91 186.985 21.69C186.765 21.47 186.655 21.22 186.655 20.94C186.655 20.02 187.455 19.32 189.055 18.84C189.635 18.68 190.215 18.54 190.795 18.42C191.375 18.3 191.945 18.17 192.505 18.03C192.905 17.41 193.195 16.87 193.375 16.41C193.575 15.95 193.675 15.56 193.675 15.24C193.675 14.18 192.885 13.17 191.305 12.21C190.685 11.83 190.195 11.65 189.835 11.67C188.195 13.47 186.645 15.99 185.185 19.23C183.665 22.57 182.905 25.2 182.905 27.12C182.905 27.58 182.945 27.89 183.025 28.05C183.105 28.21 183.245 28.29 183.445 28.29C183.505 28.29 183.555 28.28 183.595 28.26C183.635 28.26 183.675 28.26 183.715 28.26C183.975 28.26 184.105 28.42 184.105 28.74C184.105 29.1 183.855 29.28 183.355 29.28ZM188.035 21.06C188.775 21.06 189.845 20.48 191.245 19.32C190.925 19.36 190.615 19.41 190.315 19.47C190.035 19.53 189.625 19.64 189.085 19.8C188.185 20.06 187.735 20.39 187.735 20.79C187.735 20.97 187.835 21.06 188.035 21.06ZM199.801 21.54C199.481 21.54 199.321 21.38 199.321 21.06C199.321 20.64 199.471 19.98 199.771 19.08C200.071 18.16 200.461 17.11 200.941 15.93C201.441 14.73 201.971 13.5 202.531 12.24C202.851 11.54 203.181 10.86 203.521 10.2C203.861 9.52 204.181 8.93 204.481 8.43C207.441 3.43 209.281 0.929999 210.001 0.929999C210.281 0.929999 210.421 1.07 210.421 1.35C210.421 1.53 210.281 1.87 210.001 2.37C209.741 2.85 209.391 3.42 208.951 4.08C208.531 4.72 208.071 5.37 207.571 6.03C207.091 6.69 206.631 7.3 206.191 7.86C205.771 8.4 205.431 8.81 205.171 9.09C204.951 9.35 204.701 9.73 204.421 10.23C204.161 10.73 203.901 11.25 203.641 11.79C203.381 12.31 203.171 12.77 203.011 13.17L201.871 15.99C202.171 15.59 202.561 15.14 203.041 14.64C204.181 13.38 205.361 12.43 206.581 11.79C207.821 11.13 208.861 10.8 209.701 10.8C210.161 10.8 210.531 10.94 210.811 11.22C211.091 11.5 211.231 11.84 211.231 12.24C211.231 13.02 210.721 14.33 209.701 16.17C208.681 17.99 208.171 19.11 208.171 19.53C208.171 19.75 208.291 19.86 208.531 19.86C209.091 19.86 209.701 19.66 210.361 19.26C211.021 18.84 211.701 18.31 212.401 17.67C213.101 17.03 213.781 16.39 214.441 15.75C214.521 15.67 214.641 15.63 214.801 15.63C215.101 15.63 215.251 15.75 215.251 15.99C215.251 16.21 215.111 16.46 214.831 16.74C213.491 18.08 212.341 19.08 211.381 19.74C210.421 20.4 209.411 20.73 208.351 20.73C207.551 20.73 207.151 20.36 207.151 19.62C207.151 19.34 207.201 19.07 207.301 18.81C207.401 18.55 207.561 18.2 207.781 17.76L209.161 15.03C209.501 14.35 209.751 13.78 209.911 13.32C210.071 12.86 210.151 12.51 210.151 12.27C210.151 11.93 209.941 11.76 209.521 11.76C208.781 11.76 207.911 12.06 206.911 12.66C205.931 13.24 204.881 14.12 203.761 15.3C203.121 15.98 202.541 16.7 202.021 17.46C201.521 18.22 201.121 19.04 200.821 19.92L200.461 20.97C200.321 21.35 200.101 21.54 199.801 21.54ZM237.708 22.35C235.888 22.35 234.298 22.03 232.938 21.39C231.598 20.77 230.558 19.86 229.818 18.66C229.078 17.44 228.708 15.98 228.708 14.28C228.708 12.68 229.008 11.21 229.608 9.87C230.228 8.53 231.118 7.29 232.278 6.15C234.038 4.45 236.088 3.14 238.428 2.22C240.788 1.3 243.218 0.839998 245.718 0.839998C246.958 0.839998 248.048 1.06 248.988 1.5C249.928 1.92 250.668 2.49 251.208 3.21C251.748 3.93 252.018 4.72 252.018 5.58C252.018 6.14 251.888 6.66 251.628 7.14C251.368 7.6 251.078 7.97 250.758 8.25C250.438 8.53 250.178 8.67 249.978 8.67C249.818 8.67 249.658 8.6 249.498 8.46C249.338 8.3 249.258 8.17 249.258 8.07C249.258 7.95 249.398 7.78 249.678 7.56C249.958 7.34 250.228 7.05 250.488 6.69C250.768 6.31 250.908 5.85 250.908 5.31C250.908 4.59 250.658 3.96 250.158 3.42C249.678 2.86 248.998 2.43 248.118 2.13C247.258 1.81 246.268 1.65 245.148 1.65C242.928 1.65 240.768 2.12 238.668 3.06C236.568 3.98 234.728 5.22 233.148 6.78C232.048 7.88 231.218 9.04 230.658 10.26C230.098 11.48 229.818 12.89 229.818 14.49C229.818 16.03 230.178 17.32 230.898 18.36C231.638 19.38 232.628 20.15 233.868 20.67C235.108 21.17 236.498 21.42 238.038 21.42C239.798 21.42 241.668 21.14 243.648 20.58C244.808 20.26 245.788 19.9 246.588 19.5C247.388 19.08 247.988 18.69 248.388 18.33C248.768 17.99 249.048 17.74 249.228 17.58C249.408 17.42 249.558 17.34 249.678 17.34C249.818 17.34 249.888 17.43 249.888 17.61C249.888 17.81 249.768 18.06 249.528 18.36C249.308 18.66 249.058 18.92 248.778 19.14C248.078 19.68 247.188 20.17 246.108 20.61C245.048 21.03 243.988 21.38 242.928 21.66C241.988 21.9 241.088 22.07 240.228 22.17C239.368 22.29 238.528 22.35 237.708 22.35ZM257.177 20.85C255.557 20.85 254.747 19.94 254.747 18.12C254.747 17.28 254.947 16.4 255.347 15.48C255.747 14.56 256.277 13.71 256.937 12.93C257.597 12.13 258.327 11.48 259.127 10.98C259.947 10.48 260.777 10.23 261.617 10.23C262.357 10.23 262.897 10.51 263.237 11.07C263.577 11.63 263.747 12.25 263.747 12.93C263.747 13.83 263.567 14.75 263.207 15.69C262.847 16.61 262.357 17.46 261.737 18.24C261.117 19.02 260.417 19.65 259.637 20.13C258.857 20.61 258.037 20.85 257.177 20.85ZM257.147 19.89C257.267 19.89 257.337 19.88 257.357 19.86C258.137 19.76 258.857 19.48 259.517 19.02C260.177 18.56 260.747 17.99 261.227 17.31C261.727 16.61 262.107 15.86 262.367 15.06C262.627 14.26 262.757 13.47 262.757 12.69C262.757 12.23 262.627 11.87 262.367 11.61C262.107 11.35 261.777 11.22 261.377 11.22C260.797 11.22 260.177 11.46 259.517 11.94C258.877 12.42 258.267 13.03 257.687 13.77C257.127 14.51 256.667 15.29 256.307 16.11C255.947 16.91 255.767 17.63 255.767 18.27C255.767 19.35 256.227 19.89 257.147 19.89ZM268.338 21.99C267.218 21.99 266.658 21.62 266.658 20.88C266.658 20.42 266.818 19.96 267.138 19.5C267.478 19.04 267.878 18.62 268.338 18.24C268.798 17.86 269.228 17.57 269.628 17.37C269.748 17.31 269.908 17.25 270.108 17.19C270.328 17.13 270.508 17.1 270.648 17.1C270.808 17.1 270.888 17.16 270.888 17.28C270.888 17.38 270.778 17.49 270.558 17.61C269.638 18.05 268.918 18.58 268.398 19.2C267.898 19.8 267.648 20.29 267.648 20.67C267.648 21.03 267.958 21.21 268.578 21.21C269.098 21.21 269.658 21.08 270.258 20.82C270.878 20.56 271.458 20.22 271.998 19.8C272.558 19.38 273.018 18.93 273.378 18.45C273.738 17.97 273.918 17.51 273.918 17.07C273.918 16.77 273.818 16.5 273.618 16.26C273.438 16.02 273.138 15.84 272.718 15.72L270.738 15.12C270.238 14.96 269.878 14.75 269.658 14.49C269.438 14.23 269.328 13.94 269.328 13.62C269.328 13.02 269.548 12.48 269.988 12C270.448 11.52 271.018 11.14 271.698 10.86C272.378 10.58 273.038 10.44 273.678 10.44C274.318 10.44 274.878 10.6 275.358 10.92C275.838 11.22 276.078 11.63 276.078 12.15C276.078 12.45 275.988 12.73 275.808 12.99C275.648 13.25 275.458 13.38 275.238 13.38C274.898 13.38 274.728 13.24 274.728 12.96C274.728 12.86 274.778 12.74 274.878 12.6C274.998 12.44 275.058 12.29 275.058 12.15C275.058 11.55 274.598 11.25 273.678 11.25C273.178 11.25 272.678 11.36 272.178 11.58C271.698 11.78 271.298 12.05 270.978 12.39C270.658 12.73 270.498 13.1 270.498 13.5C270.498 13.9 270.898 14.22 271.698 14.46L273.618 15.06C274.198 15.24 274.598 15.49 274.818 15.81C275.038 16.11 275.148 16.45 275.148 16.83C275.148 17.73 274.598 18.66 273.498 19.62C271.718 21.2 269.998 21.99 268.338 21.99ZM288.395 22.02C287.415 22.02 286.925 21.31 286.925 19.89C286.925 19.13 287.105 18.21 287.465 17.13C285.045 19.95 283.145 21.36 281.765 21.36C280.625 21.36 280.055 20.67 280.055 19.29C280.055 18.77 280.135 18.15 280.295 17.43C280.475 16.69 280.705 15.93 280.985 15.15C281.285 14.37 281.605 13.64 281.945 12.96C282.285 12.28 282.625 11.73 282.965 11.31C283.085 11.17 283.235 11.1 283.415 11.1C283.515 11.1 283.615 11.14 283.715 11.22C283.815 11.28 283.865 11.38 283.865 11.52C283.865 11.64 283.795 11.81 283.655 12.03C282.755 13.51 282.115 14.8 281.735 15.9C281.255 17.16 281.015 18.25 281.015 19.17C281.015 20.03 281.235 20.46 281.675 20.46C281.955 20.46 282.325 20.32 282.785 20.04C283.245 19.76 283.715 19.42 284.195 19.02C284.695 18.6 285.125 18.21 285.485 17.85C286.485 16.79 287.385 15.66 288.185 14.46C288.545 13.9 288.865 13.36 289.145 12.84C289.445 12.3 289.715 11.74 289.955 11.16C290.055 10.94 290.135 10.78 290.195 10.68C290.275 10.56 290.385 10.5 290.525 10.5C290.945 10.5 291.155 10.66 291.155 10.98C291.155 11.18 291.085 11.32 290.945 11.4C288.905 15.54 287.885 18.39 287.885 19.95C287.885 20.37 287.925 20.67 288.005 20.85C288.085 21.01 288.225 21.09 288.425 21.09C288.705 21.09 289.135 20.91 289.715 20.55C290.315 20.19 291.015 19.64 291.815 18.9L294.965 16.02C295.125 15.86 295.275 15.78 295.415 15.78C295.735 15.78 295.895 15.93 295.895 16.23C295.895 16.49 295.265 17.19 294.005 18.33C293.465 18.83 292.985 19.25 292.565 19.59C292.145 19.93 291.755 20.23 291.395 20.49C290.715 20.97 290.115 21.34 289.595 21.6C289.075 21.88 288.675 22.02 288.395 22.02ZM296.067 22.02C295.727 22.02 295.557 21.86 295.557 21.54C295.557 21.52 295.677 21.27 295.917 20.79C296.157 20.31 296.497 19.6 296.937 18.66L298.467 15.45C299.087 14.15 299.527 13.12 299.787 12.36C300.067 11.6 300.207 11.11 300.207 10.89C300.207 10.57 300.367 10.41 300.687 10.41C301.007 10.41 301.167 10.57 301.167 10.89C301.167 11.15 301.077 11.56 300.897 12.12C300.737 12.66 300.467 13.36 300.087 14.22L298.557 17.7C302.737 12.42 305.887 9.78 308.007 9.78C308.407 9.78 308.717 9.95 308.937 10.29C309.157 10.61 309.267 10.97 309.267 11.37C309.267 12.33 308.577 14 307.197 16.38C308.257 15.3 309.327 14.22 310.407 13.14C311.507 12.04 312.607 10.96 313.707 9.9C313.987 9.64 314.217 9.51 314.397 9.51C314.637 9.51 314.837 9.63 314.997 9.87C315.157 10.09 315.237 10.33 315.237 10.59C315.237 10.79 315.147 11.04 314.967 11.34C314.707 11.78 314.467 12.31 314.247 12.93C314.027 13.53 313.777 14.21 313.497 14.97C313.177 15.83 312.947 16.58 312.807 17.22C312.667 17.86 312.597 18.38 312.597 18.78C312.597 19.28 312.717 19.65 312.957 19.89C313.197 20.11 313.437 20.22 313.677 20.22C314.097 20.22 314.557 20.11 315.057 19.89C315.557 19.67 315.967 19.45 316.287 19.23C316.927 18.81 317.597 18.29 318.297 17.67C318.997 17.03 319.667 16.39 320.307 15.75C320.387 15.67 320.507 15.63 320.667 15.63C320.967 15.63 321.117 15.75 321.117 15.99C321.117 16.21 320.977 16.46 320.697 16.74C319.897 17.54 319.177 18.23 318.537 18.81C317.897 19.37 317.287 19.83 316.707 20.19C316.327 20.41 315.867 20.64 315.327 20.88C314.787 21.12 314.207 21.24 313.587 21.24C313.007 21.24 312.517 21.06 312.117 20.7C311.737 20.34 311.547 19.57 311.547 18.39C311.547 17.93 311.627 17.39 311.787 16.77C311.947 16.13 312.187 15.42 312.507 14.64L314.097 10.86L309.807 15.18C309.307 15.68 308.897 16.1 308.577 16.44C308.257 16.78 307.997 17.06 307.797 17.28C307.417 17.68 307.077 18.07 306.777 18.45C306.497 18.83 306.257 19.16 306.057 19.44C305.917 19.66 305.757 19.77 305.577 19.77C305.237 19.77 305.067 19.63 305.067 19.35C305.067 18.73 305.627 17.3 306.747 15.06C307.867 12.82 308.427 11.48 308.427 11.04C308.427 10.84 308.207 10.74 307.767 10.74C305.987 10.74 302.817 13.65 298.257 19.47C297.877 20.01 297.247 20.82 296.367 21.9C296.307 21.98 296.207 22.02 296.067 22.02ZM323.613 21.3C322.453 21.3 321.873 20.75 321.873 19.65C321.873 18.93 322.043 18.16 322.383 17.34C322.743 16.5 323.223 15.69 323.823 14.91C324.423 14.11 325.093 13.39 325.833 12.75C326.573 12.09 327.333 11.57 328.113 11.19C328.893 10.79 329.643 10.59 330.363 10.59C331.643 10.59 332.283 11.22 332.283 12.48C332.283 13.3 332.083 13.71 331.683 13.71C331.323 13.71 331.143 13.54 331.143 13.2C331.143 13.06 331.173 12.92 331.233 12.78C331.313 12.62 331.353 12.45 331.353 12.27C331.353 11.71 330.973 11.43 330.213 11.43C328.993 11.43 327.463 12.36 325.623 14.22C325.183 14.68 324.753 15.22 324.333 15.84C323.913 16.46 323.563 17.09 323.283 17.73C323.023 18.35 322.893 18.94 322.893 19.5C322.893 20.04 323.193 20.31 323.793 20.31C324.313 20.31 324.863 20.15 325.443 19.83C326.043 19.51 326.563 19.18 327.003 18.84C327.883 18.18 328.783 17.28 329.703 16.14C329.843 15.98 330.023 15.77 330.243 15.51C330.463 15.25 330.713 14.96 330.993 14.64C331.093 14.54 331.213 14.49 331.353 14.49C331.673 14.49 331.833 14.65 331.833 14.97L330.693 16.68C329.933 17.8 329.553 18.72 329.553 19.44C329.553 19.96 329.803 20.22 330.303 20.22C330.723 20.22 331.183 20.11 331.683 19.89C332.183 19.67 332.593 19.45 332.913 19.23C333.553 18.81 334.223 18.29 334.923 17.67C335.623 17.03 336.293 16.39 336.933 15.75C337.013 15.67 337.133 15.63 337.293 15.63C337.593 15.63 337.743 15.75 337.743 15.99C337.743 16.21 337.603 16.46 337.323 16.74C336.523 17.54 335.803 18.23 335.163 18.81C334.523 19.37 333.913 19.83 333.333 20.19C332.953 20.41 332.483 20.64 331.923 20.88C331.363 21.12 330.723 21.24 330.003 21.24C329.023 21.24 328.533 20.72 328.533 19.68C328.533 19.28 328.583 18.95 328.683 18.69C326.863 20.43 325.173 21.3 323.613 21.3ZM337.896 21.75C337.576 21.75 337.416 21.62 337.416 21.36C337.416 21.26 337.456 21.14 337.536 21C337.616 20.84 337.686 20.71 337.746 20.61L340.446 15.18C341.606 12.82 342.186 11.51 342.186 11.25C342.186 10.97 342.326 10.83 342.606 10.83C342.986 10.83 343.176 11.03 343.176 11.43C343.176 11.57 343.086 11.87 342.906 12.33C342.726 12.79 342.496 13.31 342.216 13.89C341.736 14.93 341.336 15.73 341.016 16.29C341.616 15.59 342.226 14.93 342.846 14.31C343.466 13.69 344.096 13.1 344.736 12.54C346.636 10.88 348.096 10.05 349.116 10.05C349.816 10.05 350.166 10.38 350.166 11.04C350.166 11.64 349.656 12.99 348.636 15.09C347.616 17.21 347.106 18.55 347.106 19.11C347.106 19.37 347.196 19.5 347.376 19.5C347.436 19.5 347.526 19.48 347.646 19.44C347.786 19.38 347.926 19.35 348.066 19.35C348.406 19.35 348.576 19.51 348.576 19.83C348.576 20.23 348.146 20.43 347.286 20.43C346.886 20.43 346.596 20.34 346.416 20.16C346.236 19.96 346.146 19.7 346.146 19.38C346.146 18.42 346.636 16.96 347.616 15C348.596 13.06 349.086 11.89 349.086 11.49C349.086 11.25 348.996 11.13 348.816 11.13C348.376 11.13 347.666 11.5 346.686 12.24C345.626 13.04 344.566 13.96 343.506 15C342.446 16.04 341.436 17.23 340.476 18.57L338.376 21.48C338.256 21.66 338.096 21.75 337.896 21.75ZM356.3 20.85C354.68 20.85 353.87 19.94 353.87 18.12C353.87 17.28 354.07 16.4 354.47 15.48C354.87 14.56 355.4 13.71 356.06 12.93C356.72 12.13 357.45 11.48 358.25 10.98C359.07 10.48 359.9 10.23 360.74 10.23C361.48 10.23 362.02 10.51 362.36 11.07C362.7 11.63 362.87 12.25 362.87 12.93C362.87 13.83 362.69 14.75 362.33 15.69C361.97 16.61 361.48 17.46 360.86 18.24C360.24 19.02 359.54 19.65 358.76 20.13C357.98 20.61 357.16 20.85 356.3 20.85ZM356.27 19.89C356.39 19.89 356.46 19.88 356.48 19.86C357.26 19.76 357.98 19.48 358.64 19.02C359.3 18.56 359.87 17.99 360.35 17.31C360.85 16.61 361.23 15.86 361.49 15.06C361.75 14.26 361.88 13.47 361.88 12.69C361.88 12.23 361.75 11.87 361.49 11.61C361.23 11.35 360.9 11.22 360.5 11.22C359.92 11.22 359.3 11.46 358.64 11.94C358 12.42 357.39 13.03 356.81 13.77C356.25 14.51 355.79 15.29 355.43 16.11C355.07 16.91 354.89 17.63 354.89 18.27C354.89 19.35 355.35 19.89 356.27 19.89Z" fill="#134380"/>
</svg>
