<svg width="79" height="79" viewBox="0 0 79 79" fill="none" xmlns="http://www.w3.org/2000/svg">
<path d="M21.293 68.5756H16.6517C11.2822 68.1683 3.33898 70.5815 1.54297 76.5311H36.3894C34.6057 70.5815 26.6563 68.1683 21.293 68.5756Z" fill="url(#paint0_linear_2355_4299)"/>
<path d="M18.8239 72.7232C17.7108 72.7232 16.6434 72.281 15.8563 71.4939C15.0692 70.7069 14.6271 69.6394 14.6271 68.5263V65.7243H23.0208V68.5263C23.0208 69.6394 22.5786 70.7069 21.7916 71.4939C21.0045 72.281 19.937 72.7232 18.8239 72.7232ZM32.9328 52.0351L29.7358 51.6401L12.436 49.5169L9.239 49.1219C6.68385 48.8072 4.32002 50.776 3.98674 53.4978C3.65345 56.2196 5.46799 58.7007 8.02314 59.0154L11.2202 59.4104L28.5199 61.5336L31.717 61.9286C34.2721 62.2433 36.636 60.2745 36.9692 57.5527C37.3025 54.8309 35.488 52.3436 32.9328 52.0351Z" fill="#EDC391"/>
<path d="M22.891 33.0812C15.349 32.1554 7.37493 39.3642 5.94922 50.9673C4.52969 62.5149 11.0287 69.1064 18.3609 70.0075C25.6931 70.9086 33.5931 66.0822 35.0064 54.5346C36.4321 42.9315 30.4331 34.007 22.891 33.0812Z" fill="#F9DDBD"/>
<path d="M10.0049 49.2702C11.6219 47.4865 14.8745 47.8136 16.294 49.6837C16.5409 50.0046 16.7939 50.4181 16.5285 50.8131C16.2385 51.2513 15.7694 51.1156 15.3929 50.9057C14.3931 50.3503 13.3315 50.0293 12.1712 50.1219C11.6713 50.1589 11.2269 50.3132 10.7393 50.4181C10.0789 50.5539 9.52346 49.8256 10.0049 49.2702ZM30.0079 52.7881C29.0945 52.2512 28.144 51.887 27.0639 51.8747C26.5702 51.8685 26.0826 51.9364 25.6074 52.0599C25.2309 52.1586 24.8174 52.3438 24.4779 52.0413C23.5089 51.1835 25.5333 50.2206 26.1196 50.0478C27.3787 49.6775 28.7982 49.8997 29.8845 50.6465C30.3165 50.9427 30.7732 51.3501 30.9892 51.8377C31.2485 52.4487 30.6436 53.1399 30.0079 52.7881Z" fill="#454140"/>
<path d="M14.9791 53.4417C15.1291 52.2203 14.2935 51.1127 13.1128 50.9677C11.932 50.8226 10.8533 51.6952 10.7032 52.9165C10.5532 54.1378 11.3888 55.2455 12.5696 55.3905C13.7503 55.5355 14.8291 54.663 14.9791 53.4417Z" fill="#312D2D"/>
<path d="M29.3971 55.218C29.5471 53.9967 28.7115 52.889 27.5307 52.744C26.35 52.599 25.2712 53.4715 25.1212 54.6929C24.9712 55.9142 25.8068 57.0219 26.9875 57.1669C28.1683 57.3119 29.247 56.4394 29.3971 55.218Z" fill="#312D2D"/>
<path d="M21.2311 58.2748C21.1887 58.25 21.143 58.2313 21.0954 58.2193L18.0279 57.8428C17.9786 57.8428 17.9292 57.8489 17.886 57.8613C17.5959 57.9415 17.4046 58.2069 17.4971 58.534C17.5897 58.855 18.0958 59.7931 19.324 59.9412C20.5522 60.0893 21.2682 59.3055 21.441 59.0154C21.6138 58.7254 21.4965 58.4229 21.2311 58.2748Z" fill="#DBA689"/>
<path d="M22.7744 62.0214C21.2931 62.6756 16.7691 62.1201 15.4854 61.1264C14.7509 60.5586 13.8498 61.182 14.0905 61.9411C14.3251 62.6879 16.5963 64.6321 18.7318 64.8975C20.8672 65.1629 23.5088 63.8174 23.9162 63.1446C24.3358 62.4657 23.6261 61.6449 22.7744 62.0214Z" fill="#444444"/>
<path d="M23.5581 30.4645H23.5457C3.83895 28.15 5.11036 51.1403 5.11036 51.1403C5.11036 51.1403 5.70903 53.5658 5.98676 54.6397C6.02379 54.794 6.23981 54.8064 6.29536 54.6521C6.94957 52.8252 8.68387 46.1904 9.69606 44.2586C9.98567 43.7078 10.4592 43.2758 11.0342 43.0379C11.6093 42.8 12.2496 42.7711 12.8437 42.9564C15.905 43.9007 21.2066 44.7771 21.219 44.7771C24.6135 45.1906 28.3351 45.2893 30.3039 45.1721C30.9257 45.1343 31.5409 45.3164 32.0418 45.6865C32.5428 46.0566 32.8977 46.5911 33.0443 47.1965C33.5565 49.3072 34.2416 56.1272 34.4329 58.0836C34.4515 58.2441 34.6613 58.2873 34.7354 58.1454L36.4388 54.9792C36.445 54.9854 43.2402 32.9888 23.5581 30.4645Z" fill="#312D2D"/>
<path d="M36.4449 54.9853C36.4449 54.9853 43.2401 32.9888 23.558 30.4645H23.5457C23.2371 30.4275 22.9408 30.3966 22.6446 30.3719C22.0521 30.3225 21.4843 30.2979 20.9288 30.2979H20.793C3.96232 30.3534 5.11029 51.1403 5.11029 51.1403L5.99287 54.6274C6.0299 54.7817 6.24592 54.794 6.30146 54.6459C6.96185 52.8005 8.68998 46.1904 9.69599 44.2648C9.9845 43.7129 10.4579 43.2801 11.0333 43.042C11.6087 42.804 12.2496 42.7758 12.8437 42.9625C14.7322 43.5489 17.7503 44.3574 21.1448 44.7771C21.1572 44.7771 21.762 44.9252 21.7744 44.9314C21.7867 44.9314 21.799 44.9375 21.8114 44.9375C25.2059 45.3511 28.3289 45.2955 30.3039 45.1844C30.9256 45.1466 31.5408 45.3287 32.0418 45.6988C32.5427 46.0689 32.8976 46.6034 33.0442 47.2088C33.5565 49.3319 34.2477 56.2012 34.439 58.1207C34.4514 58.2811 34.6612 58.3182 34.7415 58.1824C35.2722 57.2072 36.4449 54.9853 36.4449 54.9853Z" fill="url(#paint1_radial_2355_4299)"/>
<path d="M48.3934 2.30811C41.8883 2.30811 39.4998 8.94904 39.4998 8.94904C39.4998 8.94904 37.1421 2.30811 30.5937 2.30811C25.6748 2.30811 20.0583 6.20873 22.1321 15.0715C24.2058 23.9344 39.5121 34.982 39.5121 34.982C39.5121 34.982 54.769 23.9344 56.8427 15.0715C58.9165 6.20873 53.7074 2.30811 48.3934 2.30811Z" fill="#EF5592"/>
<path d="M29.5883 2.9685C34.6925 2.9685 37.2291 8.45529 38.05 10.6833C38.1672 10.9981 38.6116 11.0104 38.7412 10.7019L39.488 8.95521C38.4326 5.59154 35.538 2.30811 30.5943 2.30811C28.5453 2.30811 26.3851 2.98701 24.7002 4.41271C26.1814 3.43139 27.9281 2.9685 29.5883 2.9685ZM48.394 2.30811C46.8202 2.30811 45.4932 2.76482 44.3761 3.4499C45.16 3.14748 46.0302 2.9685 46.9868 2.9685C51.8009 2.9685 56.1027 6.61607 54.1586 15.053C52.4921 22.2926 42.7406 31.0752 39.7657 34.4265C39.5744 34.6426 39.5127 34.9882 39.5127 34.9882C39.5127 34.9882 54.7696 23.9405 56.8433 15.0777C58.9171 6.20873 53.313 2.30811 48.394 2.30811Z" fill="#DA2E75"/>
<path d="M25.5517 7.01148C26.6626 5.6228 28.6561 4.47483 30.3411 5.79562C31.2545 6.51155 30.8533 7.98046 30.0386 8.59765C28.8475 9.49874 27.8168 10.0419 27.0946 11.4552C26.6626 12.3069 26.3972 13.2327 26.2676 14.1832C26.2182 14.5597 25.7245 14.6461 25.5393 14.319C24.2803 12.0971 23.9285 9.04202 25.5517 7.01148ZM43.3946 9.93077C42.87 9.93077 42.5058 9.42468 42.6971 8.9371C43.0457 8.03982 43.5016 7.18807 44.055 6.40046C44.8696 5.25866 46.4126 4.59827 47.3939 5.28335C48.4 5.99312 48.2703 7.4003 47.5606 8.08538C46.0485 9.56046 44.1475 9.93077 43.3946 9.93077Z" fill="#F386AB"/>
<path d="M62.3359 68.5756H57.6947C52.3252 68.1683 44.382 70.5815 42.5859 76.5311H77.4323C75.6487 70.5815 67.6993 68.1683 62.3359 68.5756Z" fill="url(#paint2_linear_2355_4299)"/>
<path d="M59.8674 72.7232C58.7543 72.7232 57.6868 72.281 56.8997 71.494C56.1127 70.7069 55.6705 69.6394 55.6705 68.5263V65.7243H64.0704V68.5263C64.0678 69.6397 63.6239 70.7066 62.8361 71.4933C62.0483 72.2799 60.9807 72.7222 59.8674 72.7232ZM69.1252 49.1652L65.9281 49.5602L48.6284 51.6833L45.4313 52.0783C42.8762 52.393 41.0617 54.8741 41.3949 57.5959C41.7282 60.3177 44.0921 62.2866 46.6472 61.9718L49.8442 61.5768L67.144 59.4537L70.341 59.0587C72.8962 58.7439 74.7107 56.2628 74.3774 53.541C74.0442 50.8254 71.6803 48.8566 69.1252 49.1652Z" fill="#99674F"/>
<path d="M55.1329 33.1246C47.5909 34.0504 41.5918 42.975 43.0175 54.5843C44.437 66.1318 52.3308 70.9521 59.663 70.0571C66.9952 69.1561 73.488 62.5645 72.0747 51.0169C70.649 39.4076 62.6749 32.1989 55.1329 33.1246Z" fill="#BA8D68"/>
<path d="M46.2022 52.0351C47.344 49.912 50.5719 49.4491 52.405 50.9118C52.7197 51.1649 53.0654 51.5043 52.9049 51.9487C52.7259 52.4425 52.2383 52.4239 51.8248 52.3129C50.7201 52.0166 49.6091 51.9611 48.5044 52.3314C48.0291 52.4918 47.6341 52.7449 47.1897 52.9671C46.5911 53.2633 45.8751 52.6893 46.2022 52.0351ZM66.4645 50.6094C65.4461 50.307 64.4401 50.1836 63.3847 50.4366C62.9071 50.5567 62.4467 50.7371 62.0146 50.9736C61.6751 51.1587 61.311 51.4364 60.9098 51.2328C59.7619 50.6341 61.4961 49.2084 62.0208 48.8998C63.1564 48.2332 64.5883 48.1098 65.8165 48.5727C66.304 48.7579 66.8472 49.0418 67.1743 49.4614C67.5878 49.9799 67.1681 50.7946 66.4645 50.6094Z" fill="#613E31"/>
<path d="M50.1792 57.3492C51.3599 57.2042 52.1955 56.0966 52.0455 54.8752C51.8955 53.6539 50.8167 52.7814 49.636 52.9264C48.4552 53.0714 47.6196 54.1791 47.7697 55.4004C47.9197 56.6217 48.9984 57.4943 50.1792 57.3492Z" fill="#49362E"/>
<path d="M64.5962 55.5773C65.7769 55.4323 66.6125 54.3246 66.4625 53.1033C66.3125 51.8819 65.2337 51.0094 64.053 51.1544C62.8722 51.2994 62.0366 52.4071 62.1866 53.6284C62.3367 54.8498 63.4154 55.7223 64.5962 55.5773Z" fill="#49362E"/>
<path d="M59.2751 58.0527C59.2287 58.0409 59.1811 58.0347 59.1332 58.0342L56.0657 58.4107C56.0225 58.423 55.9732 58.4415 55.93 58.4662C55.6646 58.6143 55.5473 58.9168 55.7201 59.213C55.8868 59.5031 56.6027 60.2869 57.8371 60.1388C59.0653 59.9907 59.5714 59.0525 59.6639 58.7316C59.7565 58.4045 59.5714 58.1329 59.2751 58.0527Z" fill="#99674F"/>
<path d="M61.6813 61.3177C60.4037 62.3114 55.8735 62.8669 54.3923 62.2127C53.5406 61.8362 52.8185 62.657 53.2381 63.3421C53.6455 64.0087 56.3179 65.348 58.4534 65.0887C60.5888 64.8295 62.8231 62.8854 63.0638 62.1386C63.3045 61.3733 62.4157 60.7499 61.6813 61.3177Z" fill="#5D4037"/>
<path d="M54.8122 30.5076H54.7999C35.1178 33.0381 41.913 55.0347 41.913 55.0347C41.913 55.0347 43.0795 57.2442 43.6103 58.2194C43.6843 58.3613 43.9003 58.3181 43.9127 58.1576C44.104 56.2258 44.1842 49.3689 44.6965 47.2519C44.9989 45.999 46.1531 45.1597 47.4368 45.2276C50.64 45.4004 55.991 44.9745 56.0034 44.9683C59.3979 44.5548 63.027 43.7401 64.9156 43.1538C66.1438 42.7712 67.4707 43.3143 68.0632 44.4561C69.0693 46.3817 71.3899 52.8313 72.0503 54.6829C72.1058 54.8372 72.3218 54.8248 72.3589 54.6644L73.2414 51.1834C73.2476 51.1834 74.519 28.1994 54.8122 30.5076Z" fill="#543930"/>
<path d="M73.2474 51.1832C73.2474 51.1832 74.5188 28.193 54.812 30.5075H54.7996C54.491 30.5445 54.1948 30.5877 53.8985 30.6371C53.3282 30.7311 52.762 30.8485 52.2013 30.9889C52.1642 31.0012 52.1272 31.0074 52.0902 31.0197C35.7656 35.1425 41.9128 55.0345 41.9128 55.0345L43.61 58.2007C43.6841 58.3426 43.8939 58.2994 43.9124 58.1389C44.1038 56.1886 44.184 49.3625 44.6963 47.2456C44.8429 46.6402 45.1977 46.1057 45.6987 45.7356C46.1997 45.3655 46.8149 45.1834 47.4366 45.2212C49.4116 45.3323 52.5346 45.3879 55.9291 44.9743L56.5771 44.9682C56.5895 44.9682 56.6018 44.9682 56.6142 44.962C60.0087 44.5485 63.0267 43.7338 64.9153 43.1475C66.1435 42.7648 67.4705 43.3079 68.063 44.4497C69.0752 46.3877 71.4081 52.8805 72.0562 54.7012C72.1117 54.8493 72.3216 54.8432 72.3648 54.6889C72.6425 53.6211 73.2474 51.1832 73.2474 51.1832Z" fill="url(#paint3_radial_2355_4299)"/>
<defs>
<linearGradient id="paint0_linear_2355_4299" x1="18.9705" y1="76.2337" x2="18.9705" y2="68.4244" gradientUnits="userSpaceOnUse">
<stop stop-color="#006C7D"/>
<stop offset="1" stop-color="#007689"/>
</linearGradient>
<radialGradient id="paint1_radial_2355_4299" cx="0" cy="0" r="1" gradientUnits="userSpaceOnUse" gradientTransform="translate(21.2602 49.1321) rotate(7.00207) scale(16.6331 18.7664)">
<stop offset="0.794" stop-color="#454140" stop-opacity="0"/>
<stop offset="1" stop-color="#454140"/>
</radialGradient>
<linearGradient id="paint2_linear_2355_4299" x1="60.0128" y1="76.2337" x2="60.0128" y2="68.4244" gradientUnits="userSpaceOnUse">
<stop stop-color="#009E89"/>
<stop offset="1" stop-color="#00BFA5"/>
</linearGradient>
<radialGradient id="paint3_radial_2355_4299" cx="0" cy="0" r="1" gradientUnits="userSpaceOnUse" gradientTransform="translate(57.0922 49.1757) rotate(-7.00207) scale(16.6331 18.7664)">
<stop offset="0.794" stop-color="#6D4C41" stop-opacity="0"/>
<stop offset="1" stop-color="#6D4C41"/>
</radialGradient>
</defs>
</svg>
