<svg width="80" height="80" viewBox="0 0 80 80" fill="none" xmlns="http://www.w3.org/2000/svg">
<g clip-path="url(#clip0_2341_4420)">
<path d="M80 0H0V80H80V0Z" fill="#A5C0CE"/>
<path d="M73 7H7V73H73V7Z" fill="white"/>
<path d="M76.7439 76.7441H3.25586V3.2561H76.7439V76.7441ZM3.81586 76.1841H76.1839V3.8161H3.81586V76.1841Z" fill="white"/>
<path d="M12.7998 40.1439C14.9918 38.6079 15.6638 37.9359 15.6638 36.6079C15.6638 35.9039 15.4798 35.5679 14.9358 35.5679C14.3918 35.5679 14.1838 35.9919 14.1838 36.5919V37.1919H12.9038V36.9199C12.9038 35.9839 13.3358 35.0559 15.0478 35.0559C16.5198 35.0559 17.1518 35.6799 17.1518 36.7439C17.1518 37.9919 16.4638 38.6719 13.9518 40.1839V40.2399H16.0638C16.3598 40.2399 16.4478 40.1759 16.4478 39.8479V39.5439H17.2078V41.2399H12.7998V40.1439Z" fill="black"/>
<path d="M23.5364 38.104V38.32C23.5364 39.92 23.2004 41.36 20.9924 41.36C18.7844 41.36 18.4404 39.896 18.4404 38.32V38.104C18.4404 36.504 18.7844 35.064 20.9844 35.064C23.1844 35.064 23.5364 36.528 23.5364 38.104ZM20.0004 37.392V38.992C20.0004 40.16 20.1284 40.816 20.9844 40.816C21.8404 40.816 21.9684 40.152 21.9684 38.992V37.392C21.9684 36.224 21.8404 35.568 20.9844 35.568C20.1284 35.568 20.0004 36.24 20.0004 37.392Z" fill="black"/>
<path d="M24.6396 40.1439C26.8396 38.6079 27.5037 37.9359 27.5037 36.6079C27.5037 35.9039 27.3197 35.5679 26.7757 35.5679C26.2317 35.5679 26.0236 35.9919 26.0236 36.5919V37.1919H24.7116V36.9199C24.7116 35.9839 25.1437 35.0559 26.8637 35.0559C28.3277 35.0559 28.9597 35.6799 28.9597 36.7439C28.9597 37.9919 28.2796 38.6719 25.7596 40.1839V40.2399H27.8796C28.1756 40.2399 28.2556 40.1759 28.2556 39.8479V39.5439H29.0556V41.2399H24.6396V40.1439Z" fill="black"/>
<path d="M30.2959 40.1439C32.4879 38.6079 33.1599 37.9359 33.1599 36.6079C33.1599 35.9039 32.9679 35.5679 32.4319 35.5679C31.8959 35.5679 31.6719 35.9919 31.6719 36.5919V37.1919H30.3999V36.9199C30.3999 35.9839 30.8319 35.0559 32.5519 35.0559C34.0159 35.0559 34.6559 35.6799 34.6559 36.7439C34.6559 37.9919 33.9679 38.6719 31.4559 40.1839V40.2399H33.5759C33.8719 40.2399 33.9599 40.1759 33.9599 39.8479V39.5439H34.7599V41.2399H30.2959V40.1439Z" fill="black"/>
<path d="M17.5196 15.904C17.5322 16.1702 17.4913 16.4363 17.3992 16.6864C17.3071 16.9364 17.1658 17.1655 16.9836 17.36C16.8008 17.539 16.579 17.6732 16.3356 17.752C16.0392 17.8505 15.7279 17.8965 15.4156 17.888H13.8156V20.376H13.0156V13.976H15.4156C15.7442 13.9676 16.0717 14.0164 16.3836 14.12C16.6353 14.2109 16.8625 14.3588 17.0476 14.552C17.2042 14.7247 17.3264 14.9256 17.4076 15.144C17.4881 15.3891 17.526 15.6461 17.5196 15.904ZM16.7196 15.904C16.7331 15.7365 16.7084 15.5682 16.6474 15.4116C16.5864 15.255 16.4908 15.1143 16.3676 15C16.0963 14.7899 15.7583 14.6848 15.4156 14.704H13.8316V17.16H15.3916C15.7438 17.187 16.093 17.0782 16.3676 16.856C16.4824 16.7271 16.5699 16.5763 16.6249 16.4127C16.6799 16.2491 16.7012 16.0761 16.6876 15.904H16.7196Z" fill="black"/>
<path d="M20.0963 20.376H19.9603C19.8272 20.3868 19.6935 20.3868 19.5603 20.376C19.4237 20.3893 19.2857 20.3702 19.1578 20.3201C19.0299 20.2701 18.9157 20.1905 18.8243 20.088C18.6645 19.8528 18.5858 19.5719 18.6003 19.288V13.856H19.4003V19.264C19.3937 19.3875 19.4243 19.5101 19.4883 19.616C19.53 19.66 19.5813 19.6937 19.6382 19.7145C19.6951 19.7353 19.7561 19.7427 19.8163 19.736H20.0003H20.0643L20.0963 20.376Z" fill="black"/>
<path d="M25.0799 20.328C25.0041 20.3679 24.9234 20.3975 24.8399 20.416C24.7521 20.4245 24.6637 20.4245 24.5759 20.416C24.4859 20.4221 24.3957 20.4071 24.3124 20.3724C24.2291 20.3377 24.155 20.2842 24.0959 20.216C23.9772 20.0817 23.9143 19.9072 23.9199 19.728C23.78 19.9634 23.5742 20.1525 23.3279 20.272C23.0555 20.4101 22.7532 20.4788 22.4479 20.472C22.213 20.4767 21.9793 20.436 21.7599 20.352C21.5765 20.2808 21.4103 20.1718 21.2719 20.032C21.1471 19.9017 21.0469 19.7499 20.9759 19.584C20.9124 19.418 20.8799 19.2418 20.8799 19.064C20.8804 18.9086 20.9075 18.7544 20.9599 18.608C21.0098 18.4393 21.1004 18.2854 21.2239 18.16C21.3676 18.0112 21.5387 17.8917 21.7279 17.808C21.981 17.7003 22.2528 17.6432 22.5279 17.64L23.9199 17.56V17.224C23.9176 17.1031 23.9042 16.9826 23.8799 16.864C23.8516 16.7351 23.7846 16.6179 23.6879 16.528C23.6024 16.4515 23.5015 16.3942 23.3919 16.36C23.2451 16.3108 23.0905 16.2891 22.9359 16.296C22.7623 16.2905 22.5891 16.3148 22.4239 16.368C22.3049 16.4127 22.1961 16.4807 22.1039 16.568C22.0308 16.6381 21.9731 16.7227 21.9345 16.8164C21.8959 16.9101 21.8773 17.0108 21.8799 17.112H21.1279C21.1332 16.9256 21.1711 16.7415 21.2399 16.568C21.3117 16.4165 21.4091 16.2784 21.5279 16.16C21.698 15.9903 21.9066 15.8641 22.1359 15.792C22.3947 15.7108 22.6646 15.6703 22.9359 15.672C23.3044 15.651 23.6712 15.7372 23.9919 15.92C24.2324 16.0702 24.4242 16.287 24.5439 16.544C24.6349 16.7675 24.6812 17.0067 24.6799 17.248V19.464C24.6706 19.5492 24.6934 19.6348 24.7439 19.704C24.7686 19.7266 24.7977 19.7439 24.8293 19.7549C24.861 19.7659 24.8945 19.7703 24.9279 19.768H25.0559H25.1279L25.0799 20.328ZM23.8719 18.168L22.6479 18.24C22.5262 18.2504 22.4057 18.2718 22.2879 18.304C22.1739 18.3339 22.0658 18.3825 21.9679 18.448C21.871 18.51 21.7913 18.5953 21.7359 18.696C21.6695 18.8071 21.6362 18.9347 21.6399 19.064C21.6384 19.2651 21.7127 19.4593 21.8479 19.608C21.9397 19.6959 22.0494 19.7629 22.1696 19.8043C22.2897 19.8458 22.4174 19.8607 22.5439 19.848C22.7182 19.8468 22.8911 19.8171 23.0559 19.76C23.2172 19.7012 23.3624 19.6053 23.4799 19.48C23.6192 19.3475 23.7236 19.1826 23.7839 19C23.8416 18.819 23.8713 18.6301 23.8719 18.44V18.168Z" fill="black"/>
<path d="M28.6236 20.3121L28.2476 20.3921C28.0707 20.4234 27.8912 20.4368 27.7116 20.4321C27.5013 20.4404 27.2915 20.405 27.0956 20.3281C26.9485 20.2642 26.8174 20.1685 26.7116 20.0481C26.6171 19.9336 26.5488 19.7998 26.5116 19.6561C26.4733 19.5071 26.4545 19.3538 26.4556 19.2001V16.4641H25.5996V15.8081H26.4876V14.6401L27.2876 14.4561V15.8081H28.6396V16.4641H27.1996V19.1121C27.1843 19.2821 27.236 19.4515 27.3436 19.5841C27.4068 19.6393 27.4804 19.6812 27.5601 19.7073C27.6399 19.7334 27.724 19.7432 27.8076 19.7361H28.0716C28.1569 19.7404 28.2423 19.7404 28.3276 19.7361L28.5996 19.6881L28.6236 20.3121Z" fill="black"/>
<path d="M29.6797 14.76V13.856H30.5677V14.76H29.6797ZM29.7277 20.36V15.808H30.5277V20.376L29.7277 20.36Z" fill="black"/>
<path d="M35.1203 20.376V17.472C35.1363 17.1868 35.0544 16.9046 34.8883 16.672C34.788 16.5632 34.6629 16.4802 34.5236 16.4301C34.3843 16.3799 34.235 16.3642 34.0883 16.384C33.8753 16.3811 33.6672 16.4486 33.4963 16.576C33.3231 16.7114 33.1858 16.8872 33.0963 17.088C33.0128 17.2694 32.964 17.4647 32.9523 17.664C32.9523 17.88 32.9523 18.08 32.9523 18.248V20.376H32.1523V15.808H32.8243L32.8883 16.488C32.9468 16.3598 33.0281 16.2432 33.1283 16.144C33.2307 16.0455 33.3465 15.9621 33.4723 15.896C33.5994 15.8303 33.7336 15.7793 33.8723 15.744C34.0023 15.7064 34.137 15.6875 34.2723 15.688C34.4885 15.6718 34.7057 15.7027 34.9087 15.7787C35.1118 15.8547 35.2959 15.9739 35.4483 16.128C35.7312 16.4773 35.8738 16.9194 35.8483 17.368V20.376H35.1203Z" fill="black"/>
<path d="M40.3838 20.3759L40.3198 19.6799C40.2046 19.9363 40.0077 20.1472 39.7598 20.2799C39.5142 20.4126 39.239 20.4814 38.9598 20.4799C38.7435 20.4978 38.5259 20.4676 38.3226 20.3916C38.1192 20.3155 37.9353 20.1954 37.7838 20.0399C37.5094 19.6869 37.3729 19.2461 37.3998 18.7999V15.8079H38.1998V18.6959C38.1853 18.9798 38.2639 19.2608 38.4238 19.4959C38.5172 19.6003 38.6341 19.6809 38.7649 19.7309C38.8957 19.781 39.0366 19.7992 39.1758 19.7839C39.3228 19.7862 39.4682 19.7533 39.5998 19.6879C39.7253 19.6252 39.839 19.5413 39.9358 19.4399C40.0881 19.2837 40.191 19.0861 40.2318 18.8719C40.2896 18.6444 40.3191 18.4106 40.3198 18.1759V15.7759H41.1198V20.3439L40.3838 20.3759Z" fill="black"/>
<path d="M48.2801 20.3759V17.4639C48.2798 17.3164 48.2664 17.1691 48.2401 17.0239C48.2163 16.9016 48.1642 16.7866 48.0881 16.6879C48.0154 16.5906 47.919 16.5135 47.8081 16.4639C47.6634 16.4056 47.508 16.3783 47.3521 16.3839C47.2196 16.3802 47.088 16.4076 46.9681 16.4639C46.8501 16.517 46.7441 16.5932 46.6561 16.6879C46.5036 16.8463 46.3959 17.0423 46.3441 17.2559C46.2953 17.482 46.2711 17.7127 46.2721 17.9439V20.3439H45.4721V17.4639C45.4718 17.3164 45.4584 17.1691 45.4321 17.0239C45.4068 16.9035 45.3579 16.7893 45.2881 16.6879C45.2124 16.5903 45.1133 16.5132 45.0001 16.4639C44.8582 16.4055 44.7054 16.3782 44.5521 16.3839C44.3981 16.3821 44.2464 16.4208 44.1121 16.4959C43.9821 16.5722 43.8681 16.6727 43.7761 16.7919C43.6505 16.9465 43.5677 17.1313 43.5361 17.3279C43.4898 17.53 43.4657 17.7366 43.4641 17.9439V20.3439H42.6641V15.8079H43.3361L43.4081 16.4559C43.5153 16.2081 43.7046 16.0047 43.9441 15.8799C44.1728 15.7564 44.4281 15.6905 44.6881 15.6879C44.9918 15.6759 45.2924 15.7538 45.5521 15.9119C45.7878 16.0619 45.9655 16.2876 46.0561 16.5519C46.1093 16.4132 46.188 16.2857 46.2881 16.1759C46.3876 16.0677 46.5037 15.9758 46.6321 15.9039C46.756 15.8296 46.891 15.7755 47.0321 15.7439C47.1728 15.7057 47.3182 15.6868 47.4641 15.6879C47.677 15.6711 47.8909 15.7035 48.0892 15.7825C48.2876 15.8616 48.4651 15.9853 48.6081 16.1439C48.874 16.4947 49.0072 16.9283 48.9841 17.3679V20.3759H48.2801Z" fill="black"/>
<path d="M14.96 24.952V30.6H14.16V24.952H12.248V24.2H16.864V24.952H14.96Z" fill="black"/>
<path d="M19.5681 26.784H19.3521H19.1441C18.9734 26.7844 18.8046 26.8198 18.6481 26.888C18.5112 26.955 18.3846 27.0412 18.2721 27.144C18.1859 27.2374 18.1132 27.3424 18.0561 27.456C17.998 27.5755 17.955 27.7018 17.9281 27.832C17.9016 27.9641 17.8829 28.0977 17.8721 28.232C17.8721 28.36 17.8721 28.488 17.8721 28.608V30.64H17.1201V26.032H17.7921L17.8561 26.832C17.9635 26.5646 18.1618 26.3436 18.4161 26.208C18.6607 26.0726 18.9366 26.0036 19.2161 26.008H19.5761L19.5681 26.784Z" fill="black"/>
<path d="M24.3035 30.552C24.2287 30.594 24.1477 30.6238 24.0635 30.64C23.9757 30.6486 23.8873 30.6486 23.7995 30.64C23.7095 30.646 23.6193 30.6311 23.536 30.5964C23.4527 30.5617 23.3786 30.5082 23.3195 30.44C23.201 30.3024 23.1383 30.1255 23.1435 29.944C23.0059 30.1812 22.7994 30.3709 22.5515 30.488C22.2798 30.6289 21.9775 30.7003 21.6715 30.696C21.4365 30.7015 21.2028 30.6608 20.9835 30.576C20.8012 30.4991 20.6355 30.3878 20.4955 30.248C20.369 30.1191 20.2685 29.967 20.1995 29.8C20.1368 29.6366 20.1043 29.4631 20.1035 29.288C20.1041 29.13 20.1311 28.9732 20.1835 28.824C20.2354 28.6562 20.3258 28.5028 20.4475 28.376C20.5919 28.2301 20.763 28.1133 20.9515 28.032C21.2053 27.9252 21.4764 27.8656 21.7515 27.856L23.1435 27.776V27.44C23.1412 27.3191 23.1278 27.1986 23.1035 27.08C23.0697 26.9556 23.0034 26.8424 22.9115 26.752C22.8268 26.6726 22.7258 26.6125 22.6155 26.576C22.4679 26.5307 22.3139 26.509 22.1595 26.512C21.9852 26.5046 21.8112 26.5318 21.6475 26.592C21.5272 26.6299 21.4176 26.6957 21.3275 26.784C21.2546 26.8559 21.197 26.942 21.1585 27.0369C21.12 27.1318 21.1013 27.2336 21.1035 27.336H20.3515C20.3569 27.1496 20.3948 26.9655 20.4635 26.792C20.5331 26.6369 20.6308 26.4958 20.7515 26.376C20.9209 26.2071 21.13 26.0834 21.3595 26.016C21.617 25.9283 21.8875 25.8851 22.1595 25.888C22.5246 25.8813 22.8845 25.9754 23.1995 26.16C23.4422 26.3112 23.6343 26.5312 23.7515 26.792C23.8434 27.0153 23.8896 27.2546 23.8875 27.496V29.704C23.8785 29.7917 23.9012 29.8797 23.9515 29.952C24.0036 29.9941 24.0686 30.0167 24.1355 30.016H24.2635H24.3355L24.3035 30.552ZM23.0955 28.4L21.8635 28.472C21.7443 28.4762 21.6261 28.495 21.5115 28.528C21.3976 28.5579 21.2894 28.6065 21.1915 28.672C21.0944 28.7363 21.0125 28.8209 20.9515 28.92C20.8932 29.0339 20.863 29.1601 20.8635 29.288C20.86 29.4918 20.9344 29.6892 21.0715 29.84C21.163 29.9284 21.2727 29.9956 21.3929 30.0371C21.5132 30.0785 21.641 30.0932 21.7675 30.08C21.9427 30.08 22.1163 30.0474 22.2795 29.984C22.4414 29.9263 22.5869 29.8302 22.7035 29.704C22.8407 29.573 22.9449 29.4112 23.0075 29.232C23.0646 29.0508 23.0943 28.862 23.0955 28.672V28.4Z" fill="black"/>
<path d="M28.4475 30.5999V27.7039C28.4654 27.4184 28.3834 27.1356 28.2155 26.9039C28.1152 26.7951 27.9901 26.7121 27.8508 26.6619C27.7115 26.6118 27.5622 26.596 27.4155 26.6159C27.2033 26.6113 26.9964 26.6822 26.8315 26.8159C26.6562 26.9479 26.5161 27.121 26.4235 27.3199C26.339 27.5037 26.2902 27.7019 26.2795 27.9039C26.2795 28.1199 26.2795 28.3119 26.2795 28.4879V30.6079H25.5195V26.0319H26.1835L26.2475 26.7199C26.3057 26.5891 26.387 26.4699 26.4875 26.3679C26.592 26.2719 26.7075 26.1887 26.8315 26.1199C26.9601 26.0574 27.0939 26.0066 27.2315 25.9679C27.3623 25.9342 27.4965 25.9154 27.6315 25.9119C27.8501 25.9029 28.0679 25.942 28.2697 26.0263C28.4715 26.1106 28.6524 26.2381 28.7995 26.3999C29.0825 26.746 29.2253 27.1856 29.1995 27.6319V30.6399L28.4475 30.5999Z" fill="black"/>
<path d="M34.1919 29.272C34.1968 29.4536 34.1613 29.6339 34.0879 29.8C34.0265 29.9473 33.9399 30.0826 33.8319 30.2C33.6489 30.3847 33.4238 30.522 33.1759 30.6C32.9164 30.6784 32.6469 30.7189 32.3759 30.72C32.1053 30.7196 31.8361 30.682 31.5759 30.608C31.3214 30.53 31.0904 30.3898 30.9039 30.2C30.7677 30.0618 30.6591 29.8989 30.5839 29.72C30.5053 29.5438 30.4644 29.353 30.4639 29.16H31.2639C31.2668 29.3032 31.3053 29.4434 31.3759 29.568C31.4409 29.6849 31.5278 29.7881 31.6319 29.872C31.7479 29.9505 31.8785 30.0049 32.0159 30.032C32.1604 30.0634 32.3079 30.0795 32.4559 30.08C32.6071 30.0826 32.7579 30.0638 32.9039 30.024C33.0495 29.992 33.1844 29.9231 33.2959 29.824C33.3656 29.769 33.4206 29.6976 33.4559 29.616C33.4978 29.5258 33.5196 29.4275 33.5199 29.328C33.5233 29.2476 33.5094 29.1674 33.479 29.0928C33.4486 29.0183 33.4025 28.9512 33.3439 28.896C33.1949 28.7652 33.0059 28.689 32.8079 28.68H32.6079H32.3359L31.9999 28.576H31.7279C31.4263 28.5338 31.1461 28.3964 30.9279 28.184C30.7283 27.9659 30.6195 27.6797 30.6239 27.384C30.6237 27.2115 30.6648 27.0414 30.7439 26.888C30.7783 26.7112 30.8521 26.5444 30.9599 26.4C31.12 26.2354 31.3137 26.1071 31.5279 26.024C31.7833 25.9278 32.0549 25.8816 32.3279 25.888C32.6008 25.8902 32.8713 25.9389 33.1279 26.032C33.3686 26.1215 33.5812 26.2733 33.7439 26.472C33.8387 26.5902 33.9192 26.7191 33.9839 26.856C34.0414 27.0121 34.0686 27.1778 34.0639 27.344H33.2639C33.263 27.23 33.2356 27.1177 33.1839 27.016C33.1377 26.9276 33.0784 26.8467 33.0079 26.776C32.7965 26.6032 32.5286 26.5149 32.2559 26.528H31.9999C31.9024 26.5373 31.8075 26.5645 31.7199 26.608C31.585 26.6583 31.4681 26.7474 31.3839 26.864C31.3076 26.9657 31.2656 27.089 31.2639 27.216C31.2568 27.2942 31.2675 27.373 31.2952 27.4464C31.323 27.5198 31.3669 27.586 31.4239 27.64C31.5588 27.7358 31.7156 27.7963 31.8799 27.816L32.3359 27.872L32.9759 27.968C33.2783 28.0231 33.5571 28.1681 33.7759 28.384C33.9067 28.492 34.0119 28.6276 34.0838 28.7812C34.1558 28.9348 34.1927 29.1024 34.1919 29.272Z" fill="black"/>
<path d="M39.5525 28.3199C39.5565 28.6952 39.497 29.0685 39.3765 29.4239C39.2657 29.7264 39.0879 29.9999 38.8565 30.2239C38.7019 30.3705 38.5197 30.4847 38.3205 30.5599C38.0915 30.6506 37.8466 30.6941 37.6005 30.6879C37.471 30.6868 37.3422 30.6707 37.2165 30.6399C37.0899 30.6093 36.9667 30.5664 36.8485 30.5119C36.7279 30.461 36.6148 30.3937 36.5125 30.3119C36.4201 30.2352 36.3417 30.1432 36.2805 30.0399V32.5199H35.4805V26.0399H36.1525L36.2085 26.6399C36.3437 26.4076 36.5478 26.2231 36.7925 26.1119C37.0402 25.9856 37.3144 25.9198 37.5925 25.9199C37.8496 25.9157 38.1051 25.9619 38.3445 26.0559C38.5493 26.1397 38.7345 26.265 38.8885 26.4239C39.109 26.6507 39.2758 26.9241 39.3765 27.2239C39.4958 27.5769 39.5553 27.9474 39.5525 28.3199ZM38.7525 28.3199C38.754 28.108 38.7353 27.8963 38.6965 27.6879C38.6588 27.491 38.5885 27.3017 38.4885 27.1279C38.3946 26.9608 38.2597 26.8204 38.0965 26.7199C37.904 26.6117 37.6852 26.5591 37.4645 26.5679C37.3164 26.5628 37.1689 26.5901 37.0325 26.6479C36.9183 26.7039 36.8131 26.7768 36.7205 26.8639C36.527 27.0332 36.3878 27.2558 36.3205 27.5039C36.1874 28.029 36.1874 28.5789 36.3205 29.1039C36.3879 29.3497 36.5272 29.5698 36.7205 29.7359C36.811 29.8257 36.9166 29.8988 37.0325 29.9519C37.1683 30.0125 37.3158 30.0426 37.4645 30.0399C37.6859 30.0464 37.9048 29.991 38.0965 29.8799C38.261 29.7846 38.3965 29.6464 38.4885 29.4799C38.5885 29.3033 38.6588 29.1114 38.6965 28.9119C38.7379 28.7198 38.762 28.5244 38.7685 28.3279L38.7525 28.3199Z" fill="black"/>
<path d="M44.7041 30.552C44.6299 30.5953 44.5487 30.6251 44.4641 30.64C44.3763 30.6486 44.2879 30.6486 44.2001 30.64C44.1103 30.6443 44.0206 30.6285 43.9376 30.5939C43.8546 30.5594 43.7803 30.5068 43.7201 30.44C43.6016 30.3024 43.5389 30.1255 43.5441 29.944C43.4021 30.1776 43.1968 30.3662 42.9521 30.488C42.6797 30.627 42.3779 30.6984 42.0721 30.696C41.8346 30.7008 41.5983 30.66 41.3761 30.576C41.1946 30.4978 41.0291 30.3866 40.8881 30.248C40.7614 30.1208 40.6632 29.9681 40.6001 29.8C40.5312 29.6381 40.4959 29.464 40.4961 29.288C40.5006 29.1304 40.5276 28.9741 40.5761 28.824C40.6195 28.6683 40.6959 28.5237 40.8001 28.4C40.9445 28.2541 41.1156 28.1373 41.3041 28.056C41.5579 27.9494 41.829 27.8897 42.1041 27.88L43.4881 27.8V27.464C43.503 27.3445 43.503 27.2236 43.4881 27.104C43.4608 26.977 43.3935 26.862 43.2961 26.776C43.2114 26.6966 43.1104 26.6365 43.0001 26.6C42.8527 26.5534 42.6986 26.5318 42.5441 26.536C42.3698 26.5286 42.1958 26.5558 42.0321 26.616C41.9118 26.6539 41.8021 26.7197 41.7121 26.808C41.5692 26.9563 41.4889 27.1541 41.4881 27.36H40.7441C40.7409 27.1727 40.7791 26.9869 40.8561 26.816C40.9199 26.6596 41.0152 26.518 41.1361 26.4C41.3067 26.2327 41.5153 26.1092 41.7441 26.04C42.0016 25.9523 42.2721 25.9091 42.5441 25.912C42.9123 25.895 43.278 25.9809 43.6001 26.16C43.8468 26.3064 44.0403 26.5279 44.1521 26.792C44.244 27.0153 44.2902 27.2546 44.2881 27.496V29.704C44.2827 29.7481 44.2863 29.7928 44.2987 29.8354C44.311 29.878 44.3319 29.9177 44.3601 29.952C44.4106 29.9968 44.4767 30.0198 44.5441 30.016H44.6641H44.7361L44.7041 30.552ZM43.4961 28.4L42.2721 28.472C42.1528 28.475 42.0344 28.4938 41.9201 28.528C41.8037 28.5579 41.6929 28.6065 41.5921 28.672C41.4953 28.734 41.4155 28.8193 41.3601 28.92C41.2965 29.0319 41.266 29.1595 41.2721 29.288C41.2686 29.4918 41.343 29.6892 41.4801 29.84C41.5704 29.9277 41.6787 29.9947 41.7976 30.0361C41.9164 30.0776 42.0429 30.0926 42.1681 30.08C42.3432 30.08 42.5168 30.0474 42.6801 29.984C42.8453 29.9284 42.9938 29.8321 43.1121 29.704C43.2444 29.5705 43.3455 29.4093 43.4081 29.232C43.4652 29.0508 43.4949 28.862 43.4961 28.672V28.4Z" fill="black"/>
<path d="M48.3917 26.7841H48.1757H47.9997C47.829 26.7845 47.6602 26.8199 47.5037 26.8881C47.3684 26.9536 47.2442 27.04 47.1357 27.1441C47.0446 27.2352 46.9689 27.3406 46.9117 27.4561C46.8536 27.5756 46.8106 27.7019 46.7837 27.8321C46.7572 27.9642 46.7385 28.0978 46.7277 28.2321C46.7277 28.3601 46.7277 28.4881 46.7277 28.6081V30.6401H45.9277V26.0321H46.6077L46.6637 26.8321C46.7734 26.5661 46.9711 26.3458 47.2237 26.2081C47.4693 26.075 47.7445 26.0062 48.0237 26.0081H48.3837L48.3917 26.7841Z" fill="black"/>
<path d="M52.9837 28.0719V28.3199C52.9837 28.3999 52.9837 28.4879 52.9837 28.5679H49.7837C49.7848 28.7841 49.8254 28.9983 49.9037 29.1999C49.9728 29.3914 50.0819 29.5659 50.2237 29.7119C50.4587 29.9135 50.7581 30.0244 51.0677 30.0244C51.3774 30.0244 51.6768 29.9135 51.9117 29.7119C51.979 29.6525 52.0358 29.5822 52.0797 29.5039C52.1291 29.4139 52.1642 29.3167 52.1837 29.2159H52.9357C52.9094 29.4567 52.8288 29.6884 52.6999 29.8935C52.5711 30.0986 52.3973 30.2717 52.1917 30.3999C52.024 30.5096 51.8406 30.5932 51.6477 30.6479C51.446 30.7122 51.2355 30.7446 51.0237 30.7439C50.7256 30.7483 50.4303 30.6854 50.1597 30.5599C49.9102 30.4401 49.6892 30.2683 49.5117 30.0559C49.3144 29.8217 49.1673 29.5494 49.0797 29.2559C48.9899 28.9575 48.944 28.6475 48.9437 28.3359C48.9398 28.067 48.9666 27.7986 49.0237 27.5359C49.0773 27.2961 49.1692 27.0665 49.2957 26.8559C49.4716 26.5577 49.7235 26.3117 50.0258 26.143C50.328 25.9743 50.6697 25.889 51.0157 25.8959C51.2908 25.8913 51.5636 25.9459 51.8157 26.0559C52.0435 26.1568 52.2478 26.3039 52.4157 26.4879C52.5876 26.6988 52.7179 26.9404 52.7997 27.1999C52.915 27.4765 52.9774 27.7723 52.9837 28.0719ZM52.1837 27.9119C52.1845 27.7413 52.1603 27.5715 52.1117 27.4079C52.0686 27.2551 51.9982 27.1115 51.9037 26.9839C51.8081 26.8537 51.6817 26.7492 51.5357 26.6799C51.369 26.5991 51.1849 26.5606 50.9997 26.5679C50.8124 26.5647 50.6266 26.6029 50.4557 26.6799C50.3068 26.7586 50.1738 26.8644 50.0637 26.9919C49.9573 27.1152 49.8782 27.2597 49.8317 27.4159C49.7824 27.577 49.7529 27.7436 49.7437 27.9119H52.1837Z" fill="black"/>
<path d="M57.2002 30.6V27.704C57.2166 27.4199 57.1378 27.1384 56.9762 26.904C56.8743 26.7973 56.749 26.7157 56.6102 26.6657C56.4713 26.6158 56.3228 26.5987 56.1762 26.616C55.964 26.6114 55.7571 26.6823 55.5922 26.816C55.4191 26.9502 55.2794 27.1227 55.1842 27.32C55.0997 27.5038 55.0509 27.702 55.0402 27.904C55.0402 28.12 55.0402 28.312 55.0402 28.488V30.608H54.2402V26.032H54.9042L54.9682 26.72C55.0293 26.5889 55.1133 26.4697 55.2162 26.368C55.3178 26.2721 55.4307 26.1889 55.5522 26.12C55.6808 26.0575 55.8146 26.0067 55.9522 25.968C56.083 25.9343 56.2172 25.9155 56.3522 25.912C56.5837 25.8932 56.8163 25.9274 57.0326 26.0119C57.2488 26.0965 57.443 26.2292 57.6002 26.4C57.8803 26.7472 58.0202 27.1868 57.9922 27.632V30.64L57.2002 30.6Z" fill="black"/>
<path d="M63.104 29.0641C63.0927 29.2884 63.0384 29.5084 62.944 29.7121C62.8529 29.9034 62.7282 30.0768 62.576 30.2241C62.4095 30.3769 62.2172 30.4988 62.008 30.5841C61.7684 30.6774 61.5131 30.7235 61.256 30.7201C60.8984 30.7325 60.5443 30.6467 60.232 30.4721C59.9761 30.3167 59.7554 30.1097 59.584 29.8641C59.4579 29.661 59.3635 29.4397 59.304 29.2081C59.176 28.6203 59.176 28.0119 59.304 27.4241C59.3619 27.1945 59.4564 26.9756 59.584 26.7761C59.7528 26.5262 59.9739 26.3161 60.232 26.1601C60.5418 25.9866 60.8931 25.9008 61.248 25.9121C61.4989 25.9116 61.748 25.9549 61.984 26.0401C62.1927 26.1218 62.3831 26.2441 62.544 26.4001C62.6987 26.5471 62.826 26.7205 62.92 26.9121C63.0208 27.1196 63.078 27.3456 63.088 27.5761H62.288C62.2758 27.4344 62.2379 27.2962 62.176 27.1681C62.1248 27.0535 62.0513 26.9502 61.96 26.8641C61.8676 26.775 61.759 26.7044 61.64 26.6561C61.5069 26.607 61.3659 26.5827 61.224 26.5841C61.0672 26.5776 60.9111 26.6077 60.768 26.6721C60.6478 26.7273 60.535 26.7972 60.432 26.8801C60.2467 27.0442 60.118 27.2626 60.064 27.5041C59.9397 28.0302 59.9397 28.578 60.064 29.1041C60.118 29.3457 60.2467 29.564 60.432 29.7281C60.535 29.8111 60.6478 29.8809 60.768 29.9361C60.9111 30.0005 61.0672 30.0307 61.224 30.0241C61.3745 30.0262 61.5239 29.9991 61.664 29.9441C61.7902 29.8933 61.9046 29.817 62 29.7201C62.0809 29.6348 62.1483 29.5377 62.2 29.4321C62.2581 29.3088 62.2933 29.176 62.304 29.0401L63.104 29.0641Z" fill="black"/>
<path d="M65.7363 31.5359C65.6447 31.8051 65.4913 32.0489 65.2883 32.2479C65.067 32.4382 64.7794 32.5331 64.4883 32.5119C64.3313 32.5265 64.1733 32.5265 64.0163 32.5119L63.7923 32.4559V31.7839L63.9603 31.8239C64.0132 31.8329 64.0673 31.8329 64.1203 31.8239H64.3363C64.4815 31.8248 64.6246 31.789 64.7523 31.7199C64.8804 31.6335 64.9761 31.5068 65.0243 31.3599L65.3123 30.5599L63.4883 25.9919H64.3523L65.7043 29.5999L66.9923 25.9999H67.7923L65.7363 31.5359Z" fill="black"/>
<path d="M12.6484 62.3999C12.6484 60.3119 13.5524 58.7599 15.7844 58.7599C17.8004 58.7599 18.6724 59.8639 18.6724 61.4479V61.5999H17.0324V61.3759C17.0324 60.4959 16.6804 60.0319 15.8004 60.0319C14.9204 60.0319 14.3604 60.6319 14.3604 62.2319V62.6799C14.3604 64.3759 14.7924 64.9199 15.8084 64.9199C16.6084 64.9199 17.0964 64.5599 17.0964 63.5999V63.3039H18.6964V63.5279C18.6964 65.1279 17.8964 66.1759 15.8564 66.1759C13.4164 66.1759 12.6564 64.5759 12.6564 62.5759L12.6484 62.3999ZM22.2484 60.5759C23.9364 60.5759 24.5044 61.4959 24.5044 62.4079V66.0399H23.1044V65.2959H23.0644C22.9251 65.5614 22.714 65.7825 22.4552 65.9338C22.1963 66.0852 21.9002 66.1607 21.6004 66.1519C21.376 66.1767 21.1489 66.1538 20.934 66.0846C20.7191 66.0154 20.5212 65.9015 20.3535 65.7503C20.1857 65.5992 20.0519 65.4143 19.9607 65.2077C19.8695 65.0012 19.8231 64.7777 19.8244 64.5519C19.8244 63.5679 20.3524 62.7839 22.0164 62.7839H23.0884V62.4559C23.0884 61.9439 22.9524 61.5919 22.2884 61.5919C21.6244 61.5919 21.4244 61.8399 21.4244 62.2879H20.0004V62.1439C20.0004 61.4479 20.5924 60.5759 22.2644 60.5759H22.2484ZM23.0484 63.8799V63.7839H22.1124C21.5124 63.7839 21.3124 64.0719 21.3124 64.4479V64.5199C21.3124 64.9519 21.5524 65.1519 21.9764 65.1519C22.6244 65.1519 23.0644 64.7039 23.0644 63.8799H23.0484ZM25.8404 60.6799H27.2964V61.6959C27.415 61.3466 27.6474 61.0471 27.9563 60.8455C28.2653 60.6439 28.6329 60.5518 29.0004 60.5839C30.2484 60.5839 30.7364 61.2239 30.7364 62.3519V66.0479H29.3364V62.6959C29.3364 62.0399 29.1204 61.7599 28.4484 61.7599C28.3016 61.7475 28.1537 61.7662 28.0145 61.8148C27.8754 61.8634 27.748 61.9408 27.6408 62.0419C27.5336 62.1431 27.4489 62.2658 27.3924 62.4019C27.3358 62.538 27.3085 62.6845 27.3124 62.8319V66.0319H25.8564L25.8404 60.6799ZM35.4884 65.2799C35.3502 65.5509 35.1375 65.7769 34.8754 65.9313C34.6132 66.0858 34.3125 66.1623 34.0084 66.1519C32.3364 66.1519 31.8164 64.7039 31.8164 63.4559V63.3519C31.8164 61.7119 32.6164 60.5759 34.0084 60.5759C34.2905 60.551 34.5743 60.5981 34.8331 60.7128C35.092 60.8276 35.3175 61.0062 35.4884 61.2319V58.7039H36.9604V66.0399H35.5044L35.4884 65.2799ZM35.4884 64.1359V62.5359C35.4403 62.2967 35.3064 62.0833 35.1119 61.9359C34.9174 61.7886 34.6758 61.7174 34.4324 61.7359C33.5524 61.7359 33.2564 62.2799 33.2564 63.3359V63.4719C33.2564 64.4959 33.4804 65.0719 34.3604 65.0719C34.4986 65.0885 34.6386 65.077 34.7722 65.0381C34.9058 64.9992 35.0301 64.9337 35.1377 64.8455C35.2453 64.7573 35.334 64.6483 35.3984 64.525C35.4628 64.4016 35.5016 64.2666 35.5124 64.1279L35.4884 64.1359ZM38.2644 59.3359C38.2644 59.1777 38.3114 59.023 38.3993 58.8914C38.4872 58.7599 38.6121 58.6573 38.7583 58.5968C38.9045 58.5362 39.0653 58.5204 39.2205 58.5513C39.3757 58.5821 39.5182 58.6583 39.6301 58.7702C39.742 58.8821 39.8182 59.0246 39.8491 59.1798C39.8799 59.335 39.8641 59.4959 39.8035 59.642C39.743 59.7882 39.6405 59.9132 39.5089 60.0011C39.3773 60.089 39.2227 60.1359 39.0644 60.1359C38.9573 60.1329 38.8518 60.1083 38.7542 60.0637C38.6567 60.0191 38.5692 59.9554 38.4968 59.8763C38.4244 59.7972 38.3687 59.7043 38.3329 59.6032C38.2971 59.5022 38.282 59.3949 38.2884 59.2879L38.2644 59.3359ZM38.3204 60.7199H39.7764V66.0879H38.3444L38.3204 60.7199ZM44.5604 65.3199C44.4216 65.5922 44.2077 65.819 43.944 65.9735C43.6803 66.1281 43.3778 66.2038 43.0724 66.1919C41.4084 66.1919 40.8804 64.7439 40.8804 63.4959V63.3919C40.8804 61.7519 41.6804 60.6159 43.0724 60.6159C43.3556 60.5911 43.6405 60.6382 43.9006 60.7529C44.1608 60.8676 44.3877 61.0461 44.5604 61.2719V58.7039H46.0164V66.0399H44.5844L44.5604 65.3199ZM44.5604 64.1759V62.5759C44.5106 62.336 44.3751 62.1225 44.1793 61.9753C43.9835 61.828 43.7407 61.7572 43.4964 61.7759C42.6244 61.7759 42.3204 62.3199 42.3204 63.3759V63.5119C42.3204 64.5359 42.5444 65.1119 43.4324 65.1119C43.5739 65.1273 43.7171 65.1138 43.8532 65.072C43.9893 65.0303 44.1154 64.9613 44.224 64.8693C44.3325 64.7772 44.4212 64.664 44.4845 64.5365C44.5479 64.409 44.5846 64.27 44.5924 64.1279L44.5604 64.1759ZM47.0724 65.3439C47.0724 65.1317 47.1567 64.9282 47.3068 64.7782C47.4568 64.6282 47.6603 64.5439 47.8724 64.5439C48.091 64.5439 48.3006 64.6307 48.4551 64.7852C48.6096 64.9398 48.6964 65.1493 48.6964 65.3679C48.6964 65.5864 48.6096 65.796 48.4551 65.9505C48.3006 66.1051 48.091 66.1919 47.8724 66.1919C47.7615 66.1883 47.6525 66.1616 47.5525 66.1136C47.4524 66.0655 47.3634 65.9972 47.2912 65.9129C47.219 65.8287 47.1651 65.7303 47.1329 65.6241C47.1008 65.5178 47.0911 65.4061 47.1044 65.2959L47.0724 65.3439Z" fill="black"/>
</g>
<defs>
<clipPath id="clip0_2341_4420">
<rect width="80" height="80" fill="white"/>
</clipPath>
</defs>
</svg>
