<svg width="408" height="27" viewBox="0 0 408 27" fill="none" xmlns="http://www.w3.org/2000/svg">
<path d="M1.16 25.05C0.96 25.05 0.72 24.95 0.44 24.75C0.18 24.57 0.0500002 24.39 0.0500002 24.21C0.0500002 20.77 0.29 17.66 0.77 14.88C1.03 13.38 1.32 11.97 1.64 10.65C1.96 9.31 2.34 8.07 2.78 6.93L3.32 5.49C3.4 5.27 3.54 5.16 3.74 5.16C4.12 5.16 4.31 5.32 4.31 5.64C4.31 5.78 4.2 6.12 3.98 6.66C3.76 7.18 3.47 8 3.11 9.12C1.73 13.34 1.04 18.17 1.04 23.61C1.44 23.29 1.97 22.77 2.63 22.05C3.29 21.33 4.05 20.4 4.91 19.26C5.67 18.28 6.49 17.24 7.37 16.14C8.27 15.02 9.2 13.9 10.16 12.78C11.12 11.64 12.07 10.55 13.01 9.51C13.97 8.45 14.88 7.49 15.74 6.63C18.86 3.53 21.13 1.98 22.55 1.98C22.71 1.98 22.86 2.01 23 2.07C23.16 2.11 23.24 2.25 23.24 2.49C23.24 2.81 23.09 2.97 22.79 2.97C22.71 2.97 22.64 2.96 22.58 2.94C22.52 2.92 22.45 2.91 22.37 2.91C21.31 2.91 19.26 4.43 16.22 7.47C15.18 8.51 14.24 9.5 13.4 10.44C12.56 11.36 11.73 12.31 10.91 13.29C10.11 14.27 9.25 15.36 8.33 16.56C7.41 17.74 6.34 19.11 5.12 20.67C4.14 21.91 3.3 22.95 2.6 23.79C1.9 24.63 1.42 25.05 1.16 25.05ZM22.8066 12.18C22.4666 12.18 22.2966 12.01 22.2966 11.67C22.2966 11.57 22.3666 11.39 22.5066 11.13C22.6466 10.85 22.8066 10.57 22.9866 10.29C23.1666 10.01 23.3066 9.82 23.4066 9.72C23.7466 9.34 24.0066 9.1 24.1866 9C24.3866 8.9 24.5666 8.85 24.7266 8.85C25.1466 8.85 25.3566 9.04 25.3566 9.42C25.3566 9.56 25.2666 9.73 25.0866 9.93C24.9266 10.11 24.7366 10.28 24.5166 10.44C24.1966 10.64 23.9966 10.8 23.9166 10.92L23.2566 11.85C23.2366 11.93 23.1866 12.01 23.1066 12.09C23.0466 12.15 22.9466 12.18 22.8066 12.18ZM17.7066 24.33C17.1466 24.33 16.7366 24.22 16.4766 24C16.2366 23.78 16.1166 23.45 16.1166 23.01C16.1166 22.59 16.2466 22.02 16.5066 21.3C16.7666 20.56 17.0966 19.77 17.4966 18.93C17.9166 18.09 18.3566 17.29 18.8166 16.53C19.2766 15.77 19.7166 15.15 20.1366 14.67C20.5766 14.17 20.9266 13.92 21.1866 13.92C21.5466 13.92 21.7266 14.08 21.7266 14.4C21.7266 14.6 21.5566 14.98 21.2166 15.54C20.8766 16.1 20.5066 16.68 20.1066 17.28C19.9466 17.5 19.7266 17.8 19.4466 18.18C19.1666 18.56 18.8966 18.92 18.6366 19.26C18.3766 19.58 18.2066 19.8 18.1266 19.92C17.9266 20.22 17.7166 20.71 17.4966 21.39C17.2566 22.07 17.1366 22.59 17.1366 22.95C17.1366 23.11 17.1666 23.23 17.2266 23.31C17.3066 23.39 17.4766 23.43 17.7366 23.43C18.2366 23.43 18.7966 23.27 19.4166 22.95C20.0366 22.63 20.6666 22.23 21.3066 21.75C21.9466 21.25 22.5466 20.74 23.1066 20.22C23.6866 19.7 24.1766 19.25 24.5766 18.87C24.6566 18.79 24.7766 18.75 24.9366 18.75C25.2366 18.75 25.3866 18.87 25.3866 19.11C25.3866 19.33 25.2466 19.58 24.9666 19.86C24.4266 20.4 23.9266 20.88 23.4666 21.3C23.0066 21.72 22.5666 22.09 22.1466 22.41C21.4866 22.89 20.7566 23.33 19.9566 23.73C19.1566 24.13 18.4066 24.33 17.7066 24.33ZM30.3709 24.42C29.3109 24.42 28.4809 24.11 27.8809 23.49C27.2809 22.87 26.9809 22.04 26.9809 21C26.9809 19.2 27.8309 17.24 29.5309 15.12C30.4109 14.04 31.3009 13.22 32.2009 12.66C33.1209 12.08 33.9809 11.79 34.7809 11.79C35.4809 11.79 36.0209 12.03 36.4009 12.51C36.7809 12.99 36.9709 13.59 36.9709 14.31C36.9709 14.75 36.9109 15.2 36.7909 15.66C36.7109 15.98 36.5509 16.14 36.3109 16.14C35.9309 16.14 35.7409 15.93 35.7409 15.51C35.7409 15.33 35.7709 15.1 35.8309 14.82C35.9109 14.52 35.9509 14.23 35.9509 13.95C35.9509 13.15 35.5609 12.75 34.7809 12.75C34.3609 12.75 33.8509 12.9 33.2509 13.2C32.6709 13.5 32.0909 13.9 31.5109 14.4C30.9309 14.88 30.4209 15.43 29.9809 16.05C28.6409 17.87 27.9709 19.5 27.9709 20.94C27.9709 22.6 28.7209 23.43 30.2209 23.43C31.1609 23.43 32.0609 23.29 32.9209 23.01C33.7809 22.71 34.7909 22.1 35.9509 21.18C36.6709 20.62 37.2109 20.17 37.5709 19.83C37.9309 19.49 38.3209 19.13 38.7409 18.75C38.8609 18.67 38.9709 18.63 39.0709 18.63C39.1709 18.63 39.2709 18.66 39.3709 18.72C39.4709 18.78 39.5209 18.87 39.5209 18.99C39.5209 19.21 39.3209 19.52 38.9209 19.92C38.5809 20.24 38.2209 20.58 37.8409 20.94C37.4609 21.28 36.8609 21.76 36.0409 22.38C35.1609 23.06 34.2209 23.57 33.2209 23.91C32.2409 24.25 31.2909 24.42 30.3709 24.42ZM43.8137 24.54C42.9737 24.54 42.3137 24.25 41.8337 23.67C41.3537 23.09 41.1137 22.38 41.1137 21.54C41.1137 20.1 41.5937 18.62 42.5537 17.1C42.8137 16.68 43.1137 16.27 43.4537 15.87C43.7937 15.45 44.1637 15.05 44.5637 14.67C45.1637 14.09 45.7937 13.61 46.4537 13.23C47.1137 12.85 47.7537 12.66 48.3737 12.66C49.3937 12.66 49.9037 13.14 49.9037 14.1C49.9037 15.3 49.2037 16.39 47.8037 17.37C46.5037 18.25 45.2237 18.69 43.9637 18.69C43.7437 18.69 43.5437 18.68 43.3637 18.66C43.2037 18.62 43.0537 18.58 42.9137 18.54C42.7137 18.92 42.5337 19.41 42.3737 20.01C42.2137 20.61 42.1337 21.13 42.1337 21.57C42.1337 22.89 42.7137 23.55 43.8737 23.55C44.8137 23.55 45.7037 23.39 46.5437 23.07C47.3837 22.73 48.3837 22.1 49.5437 21.18C50.2637 20.62 50.8037 20.17 51.1637 19.83C51.5237 19.49 51.9137 19.13 52.3337 18.75C52.4537 18.67 52.5637 18.63 52.6637 18.63C52.7637 18.63 52.8637 18.66 52.9637 18.72C53.0637 18.78 53.1137 18.87 53.1137 18.99C53.1137 19.21 52.9137 19.52 52.5137 19.92C52.1737 20.24 51.8137 20.58 51.4337 20.94C51.0537 21.28 50.4537 21.76 49.6337 22.38C48.7537 23.06 47.7937 23.59 46.7537 23.97C45.7137 24.35 44.7337 24.54 43.8137 24.54ZM43.7837 17.73C44.4237 17.73 45.0337 17.63 45.6137 17.43C46.1937 17.23 46.7437 16.94 47.2637 16.56C48.4237 15.7 49.0037 14.89 49.0037 14.13C49.0037 13.79 48.7937 13.62 48.3737 13.62C47.5737 13.62 46.6437 14.11 45.5837 15.09C45.0637 15.57 44.6337 16.01 44.2937 16.41C43.9737 16.79 43.6737 17.21 43.3937 17.67C43.5137 17.71 43.6437 17.73 43.7837 17.73ZM62.9459 25.77C62.6059 25.77 62.4359 25.61 62.4359 25.29C62.4359 25.17 62.4459 25.09 62.4659 25.05C63.2059 23.43 65.2159 21.01 68.4959 17.79C68.3959 17.81 68.3059 17.83 68.2259 17.85C68.1459 17.85 68.0859 17.85 68.0459 17.85C67.7059 17.85 67.5359 17.66 67.5359 17.28C67.5359 17.06 67.7059 16.92 68.0459 16.86C68.2459 16.82 68.4559 16.79 68.6759 16.77C68.9159 16.73 69.2159 16.67 69.5759 16.59C71.9959 14.07 74.3259 11.91 76.5659 10.11C78.8259 8.29 80.9859 6.8 83.0459 5.64C83.2259 5.54 83.3859 5.46 83.5259 5.4C83.6659 5.32 83.7859 5.28 83.8859 5.28C84.1259 5.28 84.2459 5.44 84.2459 5.76C84.2459 6.36 83.6459 8.42 82.4459 11.94L81.1259 15.81C81.6459 15.81 81.9059 15.97 81.9059 16.29C81.9059 16.65 81.5659 16.83 80.8859 16.83C80.5059 17.87 80.1459 19.02 79.8059 20.28C79.4859 21.52 79.2159 22.8 78.9959 24.12C78.9159 24.54 78.7359 24.75 78.4559 24.75C78.1159 24.75 77.9459 24.57 77.9459 24.21C77.9459 24.15 77.9659 24.02 78.0059 23.82C78.0459 23.62 78.1059 23.36 78.1859 23.04C78.4259 21.88 78.6359 20.92 78.8159 20.16C79.0159 19.4 79.1859 18.76 79.3259 18.24C79.4859 17.7 79.6259 17.21 79.7459 16.77C76.0659 16.85 72.8259 17.12 70.0259 17.58C69.2259 18.4 68.5559 19.1 68.0159 19.68C67.4759 20.24 67.0759 20.66 66.8159 20.94C65.6159 22.26 64.6559 23.46 63.9359 24.54C63.8759 24.64 63.8059 24.77 63.7259 24.93C63.6259 25.09 63.5059 25.28 63.3659 25.5C63.2859 25.68 63.1459 25.77 62.9459 25.77ZM71.2559 16.35C72.4159 16.19 73.7259 16.07 75.1859 15.99C76.6459 15.89 78.2859 15.82 80.1059 15.78C80.4059 14.86 80.7059 13.97 81.0059 13.11C81.3059 12.23 81.5959 11.39 81.8759 10.59C82.2159 9.71 82.6659 8.39 83.2259 6.63C80.9059 7.97 78.7459 9.45 76.7459 11.07C74.7659 12.69 72.9359 14.45 71.2559 16.35ZM97.3552 26.67C97.1952 26.67 96.9952 26.59 96.7552 26.43C96.5352 26.29 96.3652 26.15 96.2452 26.01C96.0052 25.71 95.8452 25.35 95.7652 24.93C95.6852 24.51 95.6452 24.05 95.6452 23.55C95.6452 23.13 95.6552 22.68 95.6752 22.2C95.7152 21.7 95.7752 21.17 95.8552 20.61C95.3352 21.21 94.7452 21.8 94.0852 22.38C93.4452 22.94 92.7852 23.4 92.1052 23.76C91.4452 24.12 90.8152 24.3 90.2152 24.3C88.7152 24.3 87.9652 23.5 87.9652 21.9C87.9652 20.24 88.5452 18.64 89.7052 17.1C90.2852 16.34 90.9452 15.61 91.6852 14.91C92.4252 14.21 93.2052 13.64 94.0252 13.2C94.8452 12.76 95.6552 12.54 96.4552 12.54C97.0552 12.54 97.5852 12.77 98.0452 13.23C98.0852 13.15 98.1352 13.02 98.1952 12.84C98.2752 12.66 98.3852 12.43 98.5252 12.15C99.0052 11.11 99.5352 10.03 100.115 8.91C100.695 7.77 101.215 6.83 101.675 6.09C102.195 5.27 102.685 4.86 103.145 4.86C103.465 4.86 103.625 5.11 103.625 5.61C103.625 6.47 102.815 8.48 101.195 11.64C101.095 11.82 100.915 12.15 100.655 12.63C100.415 13.09 100.125 13.63 99.7852 14.25C99.4652 14.85 99.1352 15.45 98.7952 16.05C98.4552 16.65 98.1452 17.19 97.8652 17.67C97.6052 18.13 97.4152 18.45 97.2952 18.63C97.0752 19.53 96.9052 20.39 96.7852 21.21C96.6652 22.01 96.6052 22.84 96.6052 23.7C96.6052 24.02 96.6152 24.31 96.6352 24.57C96.6752 24.85 96.7552 25.07 96.8752 25.23C96.9752 25.35 97.0852 25.44 97.2052 25.5C97.3252 25.58 97.4652 25.65 97.6252 25.71C97.8652 25.77 97.9852 25.91 97.9852 26.13C97.9852 26.49 97.7752 26.67 97.3552 26.67ZM98.7652 14.13C99.5252 12.83 100.195 11.62 100.775 10.5C101.355 9.36 101.825 8.29 102.185 7.29C101.385 8.33 100.715 9.43 100.175 10.59C99.6352 11.75 99.1652 12.93 98.7652 14.13ZM90.0052 23.4C90.5852 23.4 91.1952 23.21 91.8352 22.83C92.4952 22.43 93.1152 21.96 93.6952 21.42C94.2152 20.94 94.6952 20.45 95.1352 19.95C95.5752 19.43 95.9852 18.9 96.3652 18.36C96.5252 17.66 96.7052 16.97 96.9052 16.29C97.1252 15.61 97.3652 14.93 97.6252 14.25C97.3052 13.75 96.8552 13.5 96.2752 13.5C95.6752 13.5 95.0052 13.73 94.2652 14.19C93.5452 14.63 92.8452 15.18 92.1652 15.84C91.5052 16.5 90.9352 17.13 90.4552 17.73C89.4552 19.07 88.9552 20.49 88.9552 21.99C88.9552 22.93 89.3052 23.4 90.0052 23.4ZM102.184 25.02C101.844 25.02 101.674 24.86 101.674 24.54C101.674 24.52 101.794 24.27 102.034 23.79C102.274 23.31 102.614 22.6 103.054 21.66L104.584 18.45C105.204 17.15 105.644 16.12 105.904 15.36C106.184 14.6 106.324 14.11 106.324 13.89C106.324 13.57 106.484 13.41 106.804 13.41C107.124 13.41 107.284 13.57 107.284 13.89C107.284 14.15 107.194 14.56 107.014 15.12C106.854 15.66 106.584 16.36 106.204 17.22L104.674 20.7C108.854 15.42 112.004 12.78 114.124 12.78C114.524 12.78 114.834 12.95 115.054 13.29C115.274 13.61 115.384 13.97 115.384 14.37C115.384 15.33 114.694 17 113.314 19.38C114.374 18.3 115.444 17.22 116.524 16.14C117.624 15.04 118.724 13.96 119.824 12.9C120.104 12.64 120.334 12.51 120.514 12.51C120.754 12.51 120.954 12.63 121.114 12.87C121.274 13.09 121.354 13.33 121.354 13.59C121.354 13.79 121.264 14.04 121.084 14.34C120.824 14.78 120.584 15.31 120.364 15.93C120.144 16.53 119.894 17.21 119.614 17.97C119.294 18.83 119.064 19.58 118.924 20.22C118.784 20.86 118.714 21.38 118.714 21.78C118.714 22.28 118.834 22.65 119.074 22.89C119.314 23.11 119.554 23.22 119.794 23.22C120.214 23.22 120.674 23.11 121.174 22.89C121.674 22.67 122.084 22.45 122.404 22.23C123.044 21.81 123.714 21.29 124.414 20.67C125.114 20.03 125.784 19.39 126.424 18.75C126.504 18.67 126.624 18.63 126.784 18.63C127.084 18.63 127.234 18.75 127.234 18.99C127.234 19.21 127.094 19.46 126.814 19.74C126.014 20.54 125.294 21.23 124.654 21.81C124.014 22.37 123.404 22.83 122.824 23.19C122.444 23.41 121.984 23.64 121.444 23.88C120.904 24.12 120.324 24.24 119.704 24.24C119.124 24.24 118.634 24.06 118.234 23.7C117.854 23.34 117.664 22.57 117.664 21.39C117.664 20.93 117.744 20.39 117.904 19.77C118.064 19.13 118.304 18.42 118.624 17.64L120.214 13.86L115.924 18.18C115.424 18.68 115.014 19.1 114.694 19.44C114.374 19.78 114.114 20.06 113.914 20.28C113.534 20.68 113.194 21.07 112.894 21.45C112.614 21.83 112.374 22.16 112.174 22.44C112.034 22.66 111.874 22.77 111.694 22.77C111.354 22.77 111.184 22.63 111.184 22.35C111.184 21.73 111.744 20.3 112.864 18.06C113.984 15.82 114.544 14.48 114.544 14.04C114.544 13.84 114.324 13.74 113.884 13.74C112.104 13.74 108.934 16.65 104.374 22.47C103.994 23.01 103.364 23.82 102.484 24.9C102.424 24.98 102.324 25.02 102.184 25.02ZM134.891 12.18C134.551 12.18 134.381 12.01 134.381 11.67C134.381 11.57 134.451 11.39 134.591 11.13C134.731 10.85 134.891 10.57 135.071 10.29C135.251 10.01 135.391 9.82 135.491 9.72C135.831 9.34 136.091 9.1 136.271 9C136.471 8.9 136.651 8.85 136.811 8.85C137.231 8.85 137.441 9.04 137.441 9.42C137.441 9.56 137.351 9.73 137.171 9.93C137.011 10.11 136.821 10.28 136.601 10.44C136.281 10.64 136.081 10.8 136.001 10.92L135.341 11.85C135.321 11.93 135.271 12.01 135.191 12.09C135.131 12.15 135.031 12.18 134.891 12.18ZM129.791 24.33C129.231 24.33 128.821 24.22 128.561 24C128.321 23.78 128.201 23.45 128.201 23.01C128.201 22.59 128.331 22.02 128.591 21.3C128.851 20.56 129.181 19.77 129.581 18.93C130.001 18.09 130.441 17.29 130.901 16.53C131.361 15.77 131.801 15.15 132.221 14.67C132.661 14.17 133.011 13.92 133.271 13.92C133.631 13.92 133.811 14.08 133.811 14.4C133.811 14.6 133.641 14.98 133.301 15.54C132.961 16.1 132.591 16.68 132.191 17.28C132.031 17.5 131.811 17.8 131.531 18.18C131.251 18.56 130.981 18.92 130.721 19.26C130.461 19.58 130.291 19.8 130.211 19.92C130.011 20.22 129.801 20.71 129.581 21.39C129.341 22.07 129.221 22.59 129.221 22.95C129.221 23.11 129.251 23.23 129.311 23.31C129.391 23.39 129.561 23.43 129.821 23.43C130.321 23.43 130.881 23.27 131.501 22.95C132.121 22.63 132.751 22.23 133.391 21.75C134.031 21.25 134.631 20.74 135.191 20.22C135.771 19.7 136.261 19.25 136.661 18.87C136.741 18.79 136.861 18.75 137.021 18.75C137.321 18.75 137.471 18.87 137.471 19.11C137.471 19.33 137.331 19.58 137.051 19.86C136.511 20.4 136.011 20.88 135.551 21.3C135.091 21.72 134.651 22.09 134.231 22.41C133.571 22.89 132.841 23.33 132.041 23.73C131.241 24.13 130.491 24.33 129.791 24.33ZM137.715 24.75C137.395 24.75 137.235 24.62 137.235 24.36C137.235 24.24 137.265 24.12 137.325 24C137.405 23.88 137.465 23.78 137.505 23.7L140.235 18.18C141.395 15.82 141.975 14.51 141.975 14.25C141.975 13.97 142.115 13.83 142.395 13.83C142.775 13.83 142.965 14.02 142.965 14.4C142.965 14.6 142.875 14.92 142.695 15.36C142.515 15.8 142.285 16.31 142.005 16.89C141.525 17.93 141.125 18.73 140.805 19.29C141.405 18.59 142.015 17.93 142.635 17.31C143.255 16.69 143.885 16.1 144.525 15.54C146.425 13.88 147.885 13.05 148.905 13.05C149.605 13.05 149.955 13.38 149.955 14.04C149.955 14.68 149.745 15 149.325 15C149.125 15 148.975 14.83 148.875 14.49C148.815 14.25 148.675 14.13 148.455 14.13C148.115 14.13 147.455 14.5 146.475 15.24C145.395 16.04 144.305 16.99 143.205 18.09C142.125 19.19 140.975 20.59 139.755 22.29L138.255 24.39C138.175 24.49 138.095 24.57 138.015 24.63C137.955 24.71 137.855 24.75 137.715 24.75ZM152.694 24.3C151.534 24.3 150.954 23.75 150.954 22.65C150.954 21.93 151.124 21.16 151.464 20.34C151.824 19.5 152.304 18.69 152.904 17.91C153.504 17.11 154.174 16.39 154.914 15.75C155.654 15.09 156.414 14.57 157.194 14.19C157.974 13.79 158.724 13.59 159.444 13.59C160.724 13.59 161.364 14.22 161.364 15.48C161.364 16.3 161.164 16.71 160.764 16.71C160.404 16.71 160.224 16.54 160.224 16.2C160.224 16.06 160.254 15.92 160.314 15.78C160.394 15.62 160.434 15.45 160.434 15.27C160.434 14.71 160.054 14.43 159.294 14.43C158.074 14.43 156.544 15.36 154.704 17.22C154.264 17.68 153.834 18.22 153.414 18.84C152.994 19.46 152.644 20.09 152.364 20.73C152.104 21.35 151.974 21.94 151.974 22.5C151.974 23.04 152.274 23.31 152.874 23.31C153.394 23.31 153.944 23.15 154.524 22.83C155.124 22.51 155.644 22.18 156.084 21.84C156.964 21.18 157.864 20.28 158.784 19.14C158.924 18.98 159.104 18.77 159.324 18.51C159.544 18.25 159.794 17.96 160.074 17.64C160.174 17.54 160.294 17.49 160.434 17.49C160.754 17.49 160.914 17.65 160.914 17.97L159.774 19.68C159.014 20.8 158.634 21.72 158.634 22.44C158.634 22.96 158.884 23.22 159.384 23.22C159.804 23.22 160.264 23.11 160.764 22.89C161.264 22.67 161.674 22.45 161.994 22.23C162.634 21.81 163.304 21.29 164.004 20.67C164.704 20.03 165.374 19.39 166.014 18.75C166.094 18.67 166.214 18.63 166.374 18.63C166.674 18.63 166.824 18.75 166.824 18.99C166.824 19.21 166.684 19.46 166.404 19.74C165.604 20.54 164.884 21.23 164.244 21.81C163.604 22.37 162.994 22.83 162.414 23.19C162.034 23.41 161.564 23.64 161.004 23.88C160.444 24.12 159.804 24.24 159.084 24.24C158.104 24.24 157.614 23.72 157.614 22.68C157.614 22.28 157.664 21.95 157.764 21.69C155.944 23.43 154.254 24.3 152.694 24.3ZM171.297 24.81C170.377 24.81 169.667 24.53 169.167 23.97C168.687 23.39 168.447 22.63 168.447 21.69C168.447 21.01 168.567 20.19 168.807 19.23C169.227 17.61 169.937 15.73 170.937 13.59C171.717 11.97 172.557 10.38 173.457 8.82C174.357 7.24 175.347 5.69 176.427 4.17C178.147 1.73 179.347 0.509998 180.027 0.509998C180.467 0.509998 180.687 0.629999 180.687 0.869999C180.687 1.21 180.127 2.06 179.007 3.42L176.907 5.97C175.087 8.17 173.597 10.42 172.437 12.72C171.297 15.02 170.407 17.32 169.767 19.62C169.587 20.28 169.497 20.9 169.497 21.48C169.497 23 170.117 23.76 171.357 23.76C171.797 23.76 172.247 23.63 172.707 23.37C173.167 23.13 173.417 23.01 173.457 23.01C173.697 23.01 173.817 23.18 173.817 23.52C173.817 23.82 173.707 24.05 173.487 24.21C172.807 24.61 172.077 24.81 171.297 24.81ZM191.58 24.93C190.72 24.93 190.02 24.67 189.48 24.15C188.96 23.63 188.7 22.94 188.7 22.08C188.7 21.46 188.83 20.83 189.09 20.19C189.35 19.55 189.68 18.95 190.08 18.39C190.5 17.81 190.93 17.33 191.37 16.95C191.71 16.63 192.01 16.47 192.27 16.47C192.53 16.47 192.66 16.6 192.66 16.86C192.66 17.1 192.49 17.37 192.15 17.67C191.47 18.25 190.91 18.96 190.47 19.8C190.03 20.64 189.81 21.42 189.81 22.14C189.81 23.28 190.42 23.85 191.64 23.85C192.36 23.85 193.08 23.61 193.8 23.13C194.54 22.65 195.27 22.02 195.99 21.24C196.71 20.44 197.4 19.55 198.06 18.57C198.74 17.59 199.38 16.61 199.98 15.63C202.64 11.33 204.41 7.77 205.29 4.95C205.03 4.97 204.63 5.05 204.09 5.19C203.57 5.33 202.91 5.53 202.11 5.79C201.35 6.03 200.78 6.22 200.4 6.36C200.02 6.48 199.76 6.54 199.62 6.54C199.24 6.54 199.05 6.37 199.05 6.03C199.05 5.85 199.18 5.68 199.44 5.52C199.86 5.26 200.41 5.02 201.09 4.8C201.79 4.56 202.58 4.36 203.46 4.2C205 3.9 206.48 3.75 207.9 3.75C208.48 3.75 209.07 3.78 209.67 3.84C210.27 3.9 210.75 3.97 211.11 4.05C211.45 4.11 211.62 4.28 211.62 4.56C211.62 4.86 211.48 5.01 211.2 5.01C211.12 5.01 210.81 4.97 210.27 4.89C209.73 4.79 209.01 4.74 208.11 4.74C207.49 4.74 206.86 4.77 206.22 4.83C206.3 4.91 206.34 5.01 206.34 5.13C206.34 5.19 206.3 5.32 206.22 5.52C206.16 5.7 206.1 5.87 206.04 6.03C205.52 7.49 204.86 9.01 204.06 10.59C203.28 12.15 202.37 13.79 201.33 15.51C200.61 16.69 199.86 17.84 199.08 18.96C198.3 20.08 197.49 21.09 196.65 21.99C195.83 22.89 194.99 23.6 194.13 24.12C193.29 24.66 192.44 24.93 191.58 24.93ZM208.783 23.85C207.163 23.85 206.353 22.94 206.353 21.12C206.353 20.28 206.553 19.4 206.953 18.48C207.353 17.56 207.883 16.71 208.543 15.93C209.203 15.13 209.933 14.48 210.733 13.98C211.553 13.48 212.383 13.23 213.223 13.23C213.963 13.23 214.503 13.51 214.843 14.07C215.183 14.63 215.353 15.25 215.353 15.93C215.353 16.83 215.173 17.75 214.813 18.69C214.453 19.61 213.963 20.46 213.343 21.24C212.723 22.02 212.023 22.65 211.243 23.13C210.463 23.61 209.643 23.85 208.783 23.85ZM208.753 22.89C208.873 22.89 208.943 22.88 208.963 22.86C209.743 22.76 210.463 22.48 211.123 22.02C211.783 21.56 212.353 20.99 212.833 20.31C213.333 19.61 213.713 18.86 213.973 18.06C214.233 17.26 214.363 16.47 214.363 15.69C214.363 15.23 214.233 14.87 213.973 14.61C213.713 14.35 213.383 14.22 212.983 14.22C212.403 14.22 211.783 14.46 211.123 14.94C210.483 15.42 209.873 16.03 209.293 16.77C208.733 17.51 208.273 18.29 207.913 19.11C207.553 19.91 207.373 20.63 207.373 21.27C207.373 22.35 207.833 22.89 208.753 22.89ZM218.983 24.54C218.663 24.54 218.503 24.38 218.503 24.06C218.503 23.64 218.653 22.98 218.953 22.08C219.253 21.16 219.643 20.11 220.123 18.93C220.623 17.73 221.153 16.5 221.713 15.24C222.033 14.54 222.363 13.86 222.703 13.2C223.043 12.52 223.363 11.93 223.663 11.43C226.623 6.43 228.463 3.93 229.183 3.93C229.463 3.93 229.603 4.07 229.603 4.35C229.603 4.53 229.463 4.87 229.183 5.37C228.923 5.85 228.573 6.42 228.133 7.08C227.713 7.72 227.253 8.37 226.753 9.03C226.273 9.69 225.813 10.3 225.373 10.86C224.953 11.4 224.613 11.81 224.353 12.09C224.133 12.35 223.883 12.73 223.603 13.23C223.343 13.73 223.083 14.25 222.823 14.79C222.563 15.31 222.353 15.77 222.193 16.17L221.053 18.99C221.353 18.59 221.743 18.14 222.223 17.64C223.363 16.38 224.543 15.43 225.763 14.79C227.003 14.13 228.043 13.8 228.883 13.8C229.343 13.8 229.713 13.94 229.993 14.22C230.273 14.5 230.413 14.84 230.413 15.24C230.413 16.02 229.903 17.33 228.883 19.17C227.863 20.99 227.353 22.11 227.353 22.53C227.353 22.75 227.473 22.86 227.713 22.86C228.273 22.86 228.883 22.66 229.543 22.26C230.203 21.84 230.883 21.31 231.583 20.67C232.283 20.03 232.963 19.39 233.623 18.75C233.703 18.67 233.823 18.63 233.983 18.63C234.283 18.63 234.433 18.75 234.433 18.99C234.433 19.21 234.293 19.46 234.013 19.74C232.673 21.08 231.523 22.08 230.563 22.74C229.603 23.4 228.593 23.73 227.533 23.73C226.733 23.73 226.333 23.36 226.333 22.62C226.333 22.34 226.383 22.07 226.483 21.81C226.583 21.55 226.743 21.2 226.963 20.76L228.343 18.03C228.683 17.35 228.933 16.78 229.093 16.32C229.253 15.86 229.333 15.51 229.333 15.27C229.333 14.93 229.123 14.76 228.703 14.76C227.963 14.76 227.093 15.06 226.093 15.66C225.113 16.24 224.063 17.12 222.943 18.3C222.303 18.98 221.723 19.7 221.203 20.46C220.703 21.22 220.303 22.04 220.003 22.92L219.643 23.97C219.503 24.35 219.283 24.54 218.983 24.54ZM234.594 24.75C234.274 24.75 234.114 24.62 234.114 24.36C234.114 24.26 234.154 24.14 234.234 24C234.314 23.84 234.384 23.71 234.444 23.61L237.144 18.18C238.304 15.82 238.884 14.51 238.884 14.25C238.884 13.97 239.024 13.83 239.304 13.83C239.684 13.83 239.874 14.03 239.874 14.43C239.874 14.57 239.784 14.87 239.604 15.33C239.424 15.79 239.194 16.31 238.914 16.89C238.434 17.93 238.034 18.73 237.714 19.29C238.314 18.59 238.924 17.93 239.544 17.31C240.164 16.69 240.794 16.1 241.434 15.54C243.334 13.88 244.794 13.05 245.814 13.05C246.514 13.05 246.864 13.38 246.864 14.04C246.864 14.64 246.354 15.99 245.334 18.09C244.314 20.21 243.804 21.55 243.804 22.11C243.804 22.37 243.894 22.5 244.074 22.5C244.134 22.5 244.224 22.48 244.344 22.44C244.484 22.38 244.624 22.35 244.764 22.35C245.104 22.35 245.274 22.51 245.274 22.83C245.274 23.23 244.844 23.43 243.984 23.43C243.584 23.43 243.294 23.34 243.114 23.16C242.934 22.96 242.844 22.7 242.844 22.38C242.844 21.42 243.334 19.96 244.314 18C245.294 16.06 245.784 14.89 245.784 14.49C245.784 14.25 245.694 14.13 245.514 14.13C245.074 14.13 244.364 14.5 243.384 15.24C242.324 16.04 241.264 16.96 240.204 18C239.144 19.04 238.134 20.23 237.174 21.57L235.074 24.48C234.954 24.66 234.794 24.75 234.594 24.75ZM262.003 24.42C261.623 24.42 261.433 24.23 261.433 23.85C261.433 23.75 261.463 23.64 261.523 23.52C261.603 23.38 261.683 23.22 261.763 23.04C262.063 22.44 262.353 21.85 262.633 21.27C262.913 20.69 263.213 20.05 263.533 19.35C263.873 18.63 264.253 17.8 264.673 16.86C265.113 15.92 265.633 14.79 266.233 13.47C266.913 12.01 267.543 10.7 268.123 9.54C268.703 8.38 269.253 7.34 269.773 6.42C269.333 6.56 268.903 6.71 268.483 6.87C268.083 7.01 267.773 7.13 267.553 7.23C267.313 7.35 267.153 7.43 267.073 7.47C267.013 7.49 266.943 7.5 266.863 7.5C266.583 7.5 266.443 7.35 266.443 7.05C266.443 6.89 266.553 6.73 266.773 6.57C267.433 6.17 268.673 5.72 270.493 5.22C270.713 4.86 270.923 4.54 271.123 4.26C271.223 4.14 271.343 4.06 271.483 4.02C271.643 3.98 271.773 3.96 271.873 3.96C272.053 3.96 272.143 4.04 272.143 4.2C272.143 4.36 272.073 4.57 271.933 4.83C274.433 4.23 276.473 3.93 278.053 3.93C281.773 3.93 283.633 5.03 283.633 7.23C283.633 8.37 283.323 9.37 282.703 10.23C282.083 11.09 281.243 11.84 280.183 12.48C279.143 13.12 277.983 13.68 276.703 14.16C273.583 15.28 270.873 15.84 268.573 15.84C268.273 15.84 268.123 15.65 268.123 15.27C268.123 15.03 268.283 14.91 268.603 14.91C270.863 14.91 273.473 14.37 276.433 13.29C277.613 12.85 278.663 12.33 279.583 11.73C280.503 11.11 281.233 10.43 281.773 9.69C282.313 8.93 282.583 8.15 282.583 7.35C282.583 5.71 281.083 4.89 278.083 4.89C277.183 4.89 276.163 4.99 275.023 5.19C273.883 5.37 272.613 5.65 271.213 6.03C270.613 7.07 269.983 8.21 269.323 9.45C268.683 10.67 268.033 12.01 267.373 13.47L263.893 21.09C263.733 21.43 263.533 21.86 263.293 22.38C263.053 22.88 262.783 23.42 262.483 24C262.343 24.28 262.183 24.42 262.003 24.42ZM284.734 24C284.194 24 283.924 23.75 283.924 23.25C283.924 22.71 284.174 22.44 284.674 22.44C285.214 22.44 285.484 22.69 285.484 23.19C285.484 23.73 285.234 24 284.734 24ZM313.04 25.35C311.22 25.35 309.63 25.03 308.27 24.39C306.93 23.77 305.89 22.86 305.15 21.66C304.41 20.44 304.04 18.98 304.04 17.28C304.04 15.68 304.34 14.21 304.94 12.87C305.56 11.53 306.45 10.29 307.61 9.15C309.37 7.45 311.42 6.14 313.76 5.22C316.12 4.3 318.55 3.84 321.05 3.84C322.29 3.84 323.38 4.06 324.32 4.5C325.26 4.92 326 5.49 326.54 6.21C327.08 6.93 327.35 7.72 327.35 8.58C327.35 9.14 327.22 9.66 326.96 10.14C326.7 10.6 326.41 10.97 326.09 11.25C325.77 11.53 325.51 11.67 325.31 11.67C325.15 11.67 324.99 11.6 324.83 11.46C324.67 11.3 324.59 11.17 324.59 11.07C324.59 10.95 324.73 10.78 325.01 10.56C325.29 10.34 325.56 10.05 325.82 9.69C326.1 9.31 326.24 8.85 326.24 8.31C326.24 7.59 325.99 6.96 325.49 6.42C325.01 5.86 324.33 5.43 323.45 5.13C322.59 4.81 321.6 4.65 320.48 4.65C318.26 4.65 316.1 5.12 314 6.06C311.9 6.98 310.06 8.22 308.48 9.78C307.38 10.88 306.55 12.04 305.99 13.26C305.43 14.48 305.15 15.89 305.15 17.49C305.15 19.03 305.51 20.32 306.23 21.36C306.97 22.38 307.96 23.15 309.2 23.67C310.44 24.17 311.83 24.42 313.37 24.42C315.13 24.42 317 24.14 318.98 23.58C320.14 23.26 321.12 22.9 321.92 22.5C322.72 22.08 323.32 21.69 323.72 21.33C324.1 20.99 324.38 20.74 324.56 20.58C324.74 20.42 324.89 20.34 325.01 20.34C325.15 20.34 325.22 20.43 325.22 20.61C325.22 20.81 325.1 21.06 324.86 21.36C324.64 21.66 324.39 21.92 324.11 22.14C323.41 22.68 322.52 23.17 321.44 23.61C320.38 24.03 319.32 24.38 318.26 24.66C317.32 24.9 316.42 25.07 315.56 25.17C314.7 25.29 313.86 25.35 313.04 25.35ZM338.449 25.02C337.469 25.02 336.979 24.31 336.979 22.89C336.979 22.13 337.159 21.21 337.519 20.13C335.099 22.95 333.199 24.36 331.819 24.36C330.679 24.36 330.109 23.67 330.109 22.29C330.109 21.77 330.189 21.15 330.349 20.43C330.529 19.69 330.759 18.93 331.039 18.15C331.339 17.37 331.659 16.64 331.999 15.96C332.339 15.28 332.679 14.73 333.019 14.31C333.139 14.17 333.289 14.1 333.469 14.1C333.569 14.1 333.669 14.14 333.769 14.22C333.869 14.28 333.919 14.38 333.919 14.52C333.919 14.64 333.849 14.81 333.709 15.03C332.809 16.51 332.169 17.8 331.789 18.9C331.309 20.16 331.069 21.25 331.069 22.17C331.069 23.03 331.289 23.46 331.729 23.46C332.009 23.46 332.379 23.32 332.839 23.04C333.299 22.76 333.769 22.42 334.249 22.02C334.749 21.6 335.179 21.21 335.539 20.85C336.539 19.79 337.439 18.66 338.239 17.46C338.599 16.9 338.919 16.36 339.199 15.84C339.499 15.3 339.769 14.74 340.009 14.16C340.109 13.94 340.189 13.78 340.249 13.68C340.329 13.56 340.439 13.5 340.579 13.5C340.999 13.5 341.209 13.66 341.209 13.98C341.209 14.18 341.139 14.32 340.999 14.4C338.959 18.54 337.939 21.39 337.939 22.95C337.939 23.37 337.979 23.67 338.059 23.85C338.139 24.01 338.279 24.09 338.479 24.09C338.759 24.09 339.189 23.91 339.769 23.55C340.369 23.19 341.069 22.64 341.869 21.9L345.019 19.02C345.179 18.86 345.329 18.78 345.469 18.78C345.789 18.78 345.949 18.93 345.949 19.23C345.949 19.49 345.319 20.19 344.059 21.33C343.519 21.83 343.039 22.25 342.619 22.59C342.199 22.93 341.809 23.23 341.449 23.49C340.769 23.97 340.169 24.34 339.649 24.6C339.129 24.88 338.729 25.02 338.449 25.02ZM346.092 24.75C345.772 24.75 345.612 24.62 345.612 24.36C345.612 24.24 345.642 24.12 345.702 24C345.782 23.88 345.842 23.78 345.882 23.7L348.612 18.18C349.772 15.82 350.352 14.51 350.352 14.25C350.352 13.97 350.492 13.83 350.772 13.83C351.152 13.83 351.342 14.02 351.342 14.4C351.342 14.6 351.252 14.92 351.072 15.36C350.892 15.8 350.662 16.31 350.382 16.89C349.902 17.93 349.502 18.73 349.182 19.29C349.782 18.59 350.392 17.93 351.012 17.31C351.632 16.69 352.262 16.1 352.902 15.54C354.802 13.88 356.262 13.05 357.282 13.05C357.982 13.05 358.332 13.38 358.332 14.04C358.332 14.68 358.122 15 357.702 15C357.502 15 357.352 14.83 357.252 14.49C357.192 14.25 357.052 14.13 356.832 14.13C356.492 14.13 355.832 14.5 354.852 15.24C353.772 16.04 352.682 16.99 351.582 18.09C350.502 19.19 349.352 20.59 348.132 22.29L346.632 24.39C346.552 24.49 346.472 24.57 346.392 24.63C346.332 24.71 346.232 24.75 346.092 24.75ZM358.73 24.75C358.41 24.75 358.25 24.62 358.25 24.36C358.25 24.24 358.28 24.12 358.34 24C358.42 23.88 358.48 23.78 358.52 23.7L361.25 18.18C362.41 15.82 362.99 14.51 362.99 14.25C362.99 13.97 363.13 13.83 363.41 13.83C363.79 13.83 363.98 14.02 363.98 14.4C363.98 14.6 363.89 14.92 363.71 15.36C363.53 15.8 363.3 16.31 363.02 16.89C362.54 17.93 362.14 18.73 361.82 19.29C362.42 18.59 363.03 17.93 363.65 17.31C364.27 16.69 364.9 16.1 365.54 15.54C367.44 13.88 368.9 13.05 369.92 13.05C370.62 13.05 370.97 13.38 370.97 14.04C370.97 14.68 370.76 15 370.34 15C370.14 15 369.99 14.83 369.89 14.49C369.83 14.25 369.69 14.13 369.47 14.13C369.13 14.13 368.47 14.5 367.49 15.24C366.41 16.04 365.32 16.99 364.22 18.09C363.14 19.19 361.99 20.59 360.77 22.29L359.27 24.39C359.19 24.49 359.11 24.57 359.03 24.63C358.97 24.71 358.87 24.75 358.73 24.75ZM378.869 12.18C378.529 12.18 378.359 12.01 378.359 11.67C378.359 11.57 378.429 11.39 378.569 11.13C378.709 10.85 378.869 10.57 379.049 10.29C379.229 10.01 379.369 9.82 379.469 9.72C379.809 9.34 380.069 9.1 380.249 9C380.449 8.9 380.629 8.85 380.789 8.85C381.209 8.85 381.419 9.04 381.419 9.42C381.419 9.56 381.329 9.73 381.149 9.93C380.989 10.11 380.799 10.28 380.579 10.44C380.259 10.64 380.059 10.8 379.979 10.92L379.319 11.85C379.299 11.93 379.249 12.01 379.169 12.09C379.109 12.15 379.009 12.18 378.869 12.18ZM373.769 24.33C373.209 24.33 372.799 24.22 372.539 24C372.299 23.78 372.179 23.45 372.179 23.01C372.179 22.59 372.309 22.02 372.569 21.3C372.829 20.56 373.159 19.77 373.559 18.93C373.979 18.09 374.419 17.29 374.879 16.53C375.339 15.77 375.779 15.15 376.199 14.67C376.639 14.17 376.989 13.92 377.249 13.92C377.609 13.92 377.789 14.08 377.789 14.4C377.789 14.6 377.619 14.98 377.279 15.54C376.939 16.1 376.569 16.68 376.169 17.28C376.009 17.5 375.789 17.8 375.509 18.18C375.229 18.56 374.959 18.92 374.699 19.26C374.439 19.58 374.269 19.8 374.189 19.92C373.989 20.22 373.779 20.71 373.559 21.39C373.319 22.07 373.199 22.59 373.199 22.95C373.199 23.11 373.229 23.23 373.289 23.31C373.369 23.39 373.539 23.43 373.799 23.43C374.299 23.43 374.859 23.27 375.479 22.95C376.099 22.63 376.729 22.23 377.369 21.75C378.009 21.25 378.609 20.74 379.169 20.22C379.749 19.7 380.239 19.25 380.639 18.87C380.719 18.79 380.839 18.75 380.999 18.75C381.299 18.75 381.449 18.87 381.449 19.11C381.449 19.33 381.309 19.58 381.029 19.86C380.489 20.4 379.989 20.88 379.529 21.3C379.069 21.72 378.629 22.09 378.209 22.41C377.549 22.89 376.819 23.33 376.019 23.73C375.219 24.13 374.469 24.33 373.769 24.33ZM385.743 24.54C384.903 24.54 384.243 24.25 383.763 23.67C383.283 23.09 383.043 22.38 383.043 21.54C383.043 20.1 383.523 18.62 384.483 17.1C384.743 16.68 385.043 16.27 385.383 15.87C385.723 15.45 386.093 15.05 386.493 14.67C387.093 14.09 387.723 13.61 388.383 13.23C389.043 12.85 389.683 12.66 390.303 12.66C391.323 12.66 391.833 13.14 391.833 14.1C391.833 15.3 391.133 16.39 389.733 17.37C388.433 18.25 387.153 18.69 385.893 18.69C385.673 18.69 385.473 18.68 385.293 18.66C385.133 18.62 384.983 18.58 384.843 18.54C384.643 18.92 384.463 19.41 384.303 20.01C384.143 20.61 384.063 21.13 384.063 21.57C384.063 22.89 384.643 23.55 385.803 23.55C386.743 23.55 387.633 23.39 388.473 23.07C389.313 22.73 390.313 22.1 391.473 21.18C392.193 20.62 392.733 20.17 393.093 19.83C393.453 19.49 393.843 19.13 394.263 18.75C394.383 18.67 394.493 18.63 394.593 18.63C394.693 18.63 394.793 18.66 394.893 18.72C394.993 18.78 395.043 18.87 395.043 18.99C395.043 19.21 394.843 19.52 394.443 19.92C394.103 20.24 393.743 20.58 393.363 20.94C392.983 21.28 392.383 21.76 391.563 22.38C390.683 23.06 389.723 23.59 388.683 23.97C387.643 24.35 386.663 24.54 385.743 24.54ZM385.713 17.73C386.353 17.73 386.963 17.63 387.543 17.43C388.123 17.23 388.673 16.94 389.193 16.56C390.353 15.7 390.933 14.89 390.933 14.13C390.933 13.79 390.723 13.62 390.303 13.62C389.503 13.62 388.573 14.11 387.513 15.09C386.993 15.57 386.563 16.01 386.223 16.41C385.903 16.79 385.603 17.21 385.323 17.67C385.443 17.71 385.573 17.73 385.713 17.73ZM395.24 24.75C394.92 24.75 394.76 24.62 394.76 24.36C394.76 24.24 394.79 24.12 394.85 24C394.93 23.88 394.99 23.78 395.03 23.7L397.76 18.18C398.92 15.82 399.5 14.51 399.5 14.25C399.5 13.97 399.64 13.83 399.92 13.83C400.3 13.83 400.49 14.02 400.49 14.4C400.49 14.6 400.4 14.92 400.22 15.36C400.04 15.8 399.81 16.31 399.53 16.89C399.05 17.93 398.65 18.73 398.33 19.29C398.93 18.59 399.54 17.93 400.16 17.31C400.78 16.69 401.41 16.1 402.05 15.54C403.95 13.88 405.41 13.05 406.43 13.05C407.13 13.05 407.48 13.38 407.48 14.04C407.48 14.68 407.27 15 406.85 15C406.65 15 406.5 14.83 406.4 14.49C406.34 14.25 406.2 14.13 405.98 14.13C405.64 14.13 404.98 14.5 404 15.24C402.92 16.04 401.83 16.99 400.73 18.09C399.65 19.19 398.5 20.59 397.28 22.29L395.78 24.39C395.7 24.49 395.62 24.57 395.54 24.63C395.48 24.71 395.38 24.75 395.24 24.75Z" fill="#134380"/>
</svg>
