<svg width="46" height="34" viewBox="0 0 46 34" fill="none" xmlns="http://www.w3.org/2000/svg">
<path opacity="0.5" d="M0 34L2.0692 21.4074C2.81199 17.1049 3.97924 13.3272 5.57094 10.0741C7.16263 6.71605 10.0807 3.35802 14.3253 0L19.5779 5.50925C16.925 7.8179 15.015 9.96913 13.8478 11.963C12.6805 13.8518 11.8316 15.8457 11.301 17.9444H18.9412L16.2353 34H0ZM26.4221 34L28.4913 21.4074C29.2341 17.1049 30.4014 13.3272 31.9931 10.0741C33.5848 6.71605 36.5029 3.35802 40.7474 0L46 5.50925C43.3472 7.8179 41.4371 9.96913 40.2699 11.963C39.1027 13.8518 38.2537 15.8457 37.7232 17.9444H45.3633L42.6574 34H26.4221Z" fill="#586B83"/>
</svg>
