<svg xmlns="http://www.w3.org/2000/svg" viewBox="-4 -4 30 52" style="transform:scaleX(-1);">
        <path d="M1.15 42.05a2.62 2.62 0 0 1 0-3.45L16.17 22 1.15 5.4a2.62 2.62 0 0 1 0-3.45 2.06 2.06 0 0 1 3.12 0l16.58 18.32c.87.96.87 2.5 0 3.45L4.27 42.05c-.43.48-1 .72-1.56.72a2.1 2.1 0 0 1-1.56-.72Z" fill="none" style="stroke:#000;opacity:0.4;" stroke="#000" stroke-width="4"></path>
        <path d="M1.15 42.05a2.62 2.62 0 0 1 0-3.45L16.17 22 1.15 5.4a2.62 2.62 0 0 1 0-3.45 2.06 2.06 0 0 1 3.12 0l16.58 18.32c.87.96.87 2.5 0 3.45L4.27 42.05c-.43.48-1 .72-1.56.72a2.1 2.1 0 0 1-1.56-.72Z" fill="#fff"></path>
    </svg>