<svg id="图层_1" data-name="图层 1" xmlns="http://www.w3.org/2000/svg" xmlns:xlink="http://www.w3.org/1999/xlink" viewBox="0 0 42 42"><defs><style>.cls-1{fill:url(#未命名的渐变);}.cls-2{fill:#fff;}</style><linearGradient id="未命名的渐变" x1="-271.1" y1="315.3" x2="-270.66" y2="314.46" gradientTransform="matrix(42, 0, 0, -42, 11398, 13246)" gradientUnits="userSpaceOnUse"><stop offset="0" stop-color="#6ec967"/><stop offset="1" stop-color="#469c3f"/></linearGradient></defs><title>画板 1</title><g id="组_2356" data-name="组 2356"><circle id="椭圆_15" data-name="椭圆 15" class="cls-1" cx="21" cy="21" r="21"/><path id="路径_898" data-name="路径 898" class="cls-2" d="M25.65,17.86a7.66,7.66,0,0,1,.85.05c-.76-3.55-4.56-6.19-8.89-6.19-4.84,0-8.81,3.3-8.81,7.49,0,2.42,1.32,4.41,3.53,5.95l-.88,2.65,3.08-1.54a15.07,15.07,0,0,0,3.09.44c.28,0,.55,0,.82,0a6.56,6.56,0,0,1-.27-1.85,7.22,7.22,0,0,1,7.45-7Zm-4.74-2.39a1.1,1.1,0,1,1,0,2.2h0a1.12,1.12,0,1,1,0-2.2Zm-6.17,2.2a1.12,1.12,0,1,1,0-2.2,1.1,1.1,0,0,1,0,2.2Zm18.94,7.05c0-3.52-3.53-6.39-7.48-6.39-4.19,0-7.49,2.87-7.49,6.39s3.3,6.39,7.49,6.39a11.06,11.06,0,0,0,2.64-.44L31.27,32l-.66-2.2c1.77-1.33,3.09-3.09,3.09-5.07Zm-9.91-1.1a.88.88,0,1,1,0-1.76.9.9,0,1,1,0,1.76Zm4.85,0a.88.88,0,0,1,0-1.76h0a.9.9,0,1,1,0,1.76Z"/></g></svg>