<svg width="99" height="99" viewBox="0 0 99 99" fill="none" xmlns="http://www.w3.org/2000/svg">
<g clip-path="url(#clip0_2593_4690)">
<path d="M30.7214 89.3344C31.213 85.247 31.6953 81.2105 32.1846 77.1762C32.8401 71.7618 33.5717 66.3566 34.1371 60.933C34.5733 56.7349 34.9934 52.5183 35.0834 48.304C35.1988 42.8804 33.9825 37.6391 32.18 32.5293C31.9931 32.0008 32.1015 31.2876 32.2816 30.7268C32.9347 28.6889 33.8117 26.7133 34.3564 24.65C35.2888 21.1281 34.3402 17.8832 32.4731 14.8644C31.7069 13.625 30.8853 12.4203 29.9736 11.024C31.8269 10.3639 33.6248 9.63233 35.4757 9.08073C42.5195 6.98513 49.6949 6.35738 57.011 7.16053C66.4643 8.20141 75.0729 11.3725 82.5529 17.2993C91.1014 24.073 96.3728 32.8016 97.9168 43.6974C98.5976 48.4979 98.316 53.2984 98.0668 58.0919C97.776 63.6979 97.1021 69.2669 95.5534 74.6859C94.3187 79.0064 92.627 83.1122 89.4974 86.4518C85.7724 90.4283 81.1289 92.03 75.7606 91.5061C72.5942 91.1992 70.4639 89.2236 68.8022 86.6964C66.5174 83.2207 65.3634 79.2718 64.1495 75.3437C62.7462 70.804 61.3545 66.2574 59.7736 61.78C59.2082 60.1829 58.2504 58.662 57.2118 57.3072C53.9599 53.0583 48.3032 53.0445 44.9244 57.1803C42.6396 59.9775 41.4833 63.3217 40.417 66.6936C38.8476 71.6649 37.4005 76.6754 35.7619 81.6236C34.9149 84.1831 33.6317 86.5625 31.7554 88.5612C31.5453 88.7851 31.3215 88.9974 31.0884 89.1959C31.0122 89.2628 30.8876 89.2744 30.7214 89.3321V89.3344ZM86.8387 41.1148C86.8618 35.7096 82.5852 31.3592 77.1777 31.2876C71.8441 31.2184 67.4106 35.6011 67.3782 40.9763C67.3459 46.4069 71.6271 50.8058 76.9815 50.8404C82.4582 50.8773 86.8156 46.5777 86.8387 41.1125V41.1148ZM60.7568 24.8231C60.7891 19.3903 56.5217 15.0606 51.112 15.0329C45.6676 15.0052 41.3333 19.2541 41.2963 24.65C41.2594 30.1521 45.5268 34.4841 50.9989 34.5003C56.4271 34.5141 60.7268 30.2514 60.7568 24.8231ZM82.1375 60.6814C77.7801 60.5753 73.9974 64.1249 73.8704 68.4338C73.7343 73.0358 77.2677 76.8508 81.7428 76.9362C86.3379 77.0239 89.9959 73.5297 90.116 68.9392C90.2337 64.4641 86.6841 60.7899 82.1351 60.6791L82.1375 60.6814Z" fill="#134380"/>
<path d="M23.3317 34.5259C25.0996 34.5259 26.8721 34.4843 28.6377 34.5605C29.0046 34.5766 29.5678 34.9597 29.6785 35.2921C31.6772 41.3596 32.3765 47.5934 31.7049 53.9379C30.9848 60.7347 30.1194 67.5177 29.3023 74.3053C28.5453 80.5967 27.7768 86.8859 26.999 93.175C26.759 95.1206 25.2219 96.5215 23.3594 96.5492C21.4808 96.5792 19.8698 95.1229 19.6298 93.1427C18.5336 84.0679 17.4211 74.9954 16.3687 65.916C15.7663 60.7301 15.1132 55.5419 14.767 50.3352C14.4347 45.3108 15.3371 40.3903 16.8234 35.5783C17.0657 34.7959 17.4004 34.4658 18.2589 34.5028C19.9483 34.5743 21.6423 34.5236 23.334 34.5236L23.3317 34.5259Z" fill="#134380"/>
<path d="M0.536133 13.4062H10.1994V86.6415H0.536133V13.4062Z" fill="#134380"/>
<path d="M23.3201 8.43652C26.0065 11.2753 28.3722 14.1256 30.2208 17.3982C31.684 19.99 31.7764 22.6788 30.8647 25.4021C30.2831 27.1377 29.4384 28.7832 28.7137 30.4703C28.4622 31.0589 28.0698 31.3081 27.3844 31.2989C24.6564 31.2573 21.9284 31.2989 19.2028 31.2619C18.8473 31.2573 18.335 31.0727 18.1665 30.8027C16.6594 28.3655 15.607 25.7483 15.24 22.8842C15.0139 21.114 15.3762 19.4569 16.1886 17.876C17.9957 14.3541 20.5321 11.3976 23.3201 8.43652Z" fill="#134380"/>
<path d="M10.2472 90.0986V98.0956H0.540039V90.0986H10.2472Z" fill="#134380"/>
<path d="M10.2822 10.0709H0.505859C2.13987 6.78899 3.70696 3.64328 5.38251 0.27832C7.05576 3.6202 8.62054 6.74976 10.2822 10.0709Z" fill="#134380"/>
<path d="M13.7899 71.8036C14.4846 77.5365 15.177 83.2694 15.8763 89.0346C14.0253 88.2799 13.543 87.6014 13.543 85.8104C13.543 81.5477 13.543 77.2873 13.543 73.0245C13.543 72.6114 13.543 72.1983 13.543 71.7852C13.6261 71.7921 13.7068 71.7967 13.7899 71.8036Z" fill="#134380"/>
<path d="M13.5918 34.4587V29.5312C14.9489 31.0937 14.9627 31.7192 13.5918 34.4587Z" fill="#134380"/>
</g>
<defs>
<clipPath id="clip0_2593_4690">
<rect width="97.8378" height="97.817" fill="white" transform="translate(0.505859 0.27832)"/>
</clipPath>
</defs>
</svg>
