<?xml version="1.0" encoding="UTF-8" standalone="no"?>
<svg
   width="228.1907"
   height="235.70769"
   viewBox="0 0 228.1907 235.70769"
   fill="none"
   version="1.1"
   id="svg13"
   sodipodi:docname="beneficiaries.svg"
   inkscape:version="1.3 (0e150ed6c4, 2023-07-21)"
   xmlns:inkscape="http://www.inkscape.org/namespaces/inkscape"
   xmlns:sodipodi="http://sodipodi.sourceforge.net/DTD/sodipodi-0.dtd"
   xmlns="http://www.w3.org/2000/svg"
   xmlns:svg="http://www.w3.org/2000/svg">
  <sodipodi:namedview
     id="namedview13"
     pagecolor="#ffffff"
     bordercolor="#000000"
     borderopacity="0.25"
     inkscape:showpageshadow="2"
     inkscape:pageopacity="0.0"
     inkscape:pagecheckerboard="0"
     inkscape:deskcolor="#d1d1d1"
     inkscape:zoom="1.9015228"
     inkscape:cx="154.87587"
     inkscape:cy="117.01148"
     inkscape:window-width="2560"
     inkscape:window-height="1387"
     inkscape:window-x="2552"
     inkscape:window-y="-8"
     inkscape:window-maximized="1"
     inkscape:current-layer="svg13" />
  <path
     d="m 25.4785,147.85968 c -1.36,0 -2.76,-0.173 -4.2,-0.52 -1.44,-0.346 -2.76,-0.866 -3.96,-1.56 -0.6134,-0.346 -1.04,-0.773 -1.28,-1.28 -0.2134,-0.506 -0.28,-1.026 -0.2,-1.56 0.1066,-0.533 0.32,-0.986 0.64,-1.36 0.3466,-0.4 0.7733,-0.653 1.28,-0.76 0.5333,-0.106 1.12,0.014 1.76,0.36 0.9333,0.48 1.88,0.854 2.84,1.12 0.9866,0.267 1.9866,0.4 3,0.4 1.0133,0 1.88,-0.173 2.6,-0.52 0.72,-0.346 1.2666,-0.826 1.64,-1.44 0.3733,-0.613 0.56,-1.333 0.56,-2.16 0,-1.28 -0.4134,-2.306 -1.24,-3.08 -0.8,-0.773 -1.8934,-1.16 -3.28,-1.16 -0.6934,0 -1.4,0.12 -2.12,0.36 -0.6934,0.214 -1.4134,0.6 -2.16,1.16 -0.2667,0.214 -0.6134,0.414 -1.04,0.6 -0.4267,0.187 -0.88,0.28 -1.36,0.28 -0.8267,0 -1.44,-0.186 -1.84,-0.56 -0.4,-0.4 -0.6,-0.973 -0.6,-1.72 v -12.56 c 0,-0.88 0.2266,-1.546 0.68,-2 0.48,-0.453 1.1466,-0.68 2,-0.68 h 12.84 c 0.88,0 1.5466,0.227 2,0.68 0.4533,0.427 0.68,1.054 0.68,1.88 0,0.8 -0.2267,1.427 -0.68,1.88 -0.4534,0.427 -1.12,0.64 -2,0.64 h -9.56 v 7.64 h -1.52 c 0.6666,-0.826 1.5466,-1.466 2.64,-1.92 1.0933,-0.453 2.2933,-0.68 3.6,-0.68 1.7866,0 3.3466,0.387 4.68,1.16 1.3333,0.747 2.3733,1.8 3.12,3.16 0.7466,1.36 1.12,2.934 1.12,4.72 0,1.867 -0.4267,3.52 -1.28,4.96 -0.8534,1.414 -2.08,2.52 -3.68,3.32 -1.6,0.8 -3.4934,1.2 -5.68,1.2 z m 17.9843,4.12 c -0.4,0.48 -0.8266,0.747 -1.28,0.8 -0.4533,0.08 -0.84,0 -1.16,-0.24 -0.32,-0.24 -0.5066,-0.586 -0.56,-1.04 -0.0266,-0.426 0.1734,-0.893 0.6,-1.4 0.5867,-0.746 0.9867,-1.48 1.2,-2.2 0.2134,-0.72 0.32,-1.36 0.32,-1.92 l 0.2,1.64 c -1.0666,0 -1.9333,-0.306 -2.6,-0.92 -0.6666,-0.613 -1,-1.453 -1,-2.52 0,-0.986 0.3067,-1.786 0.92,-2.4 0.6134,-0.64 1.4534,-0.96 2.52,-0.96 1.0934,0 1.9467,0.374 2.56,1.12 0.6134,0.72 0.92,1.747 0.92,3.08 0,0.694 -0.0666,1.4 -0.2,2.12 -0.1333,0.72 -0.3866,1.48 -0.76,2.28 -0.3733,0.8 -0.9333,1.654 -1.68,2.56 z m 10.6307,-4.56 c -0.8534,0 -1.5067,-0.226 -1.96,-0.68 -0.4534,-0.453 -0.68,-1.08 -0.68,-1.88 0,-0.826 0.2266,-1.453 0.68,-1.88 0.4533,-0.426 1.1066,-0.64 1.96,-0.64 h 4.0402 v -18.04 h 2.92 l -5.8402,3.56 c -0.6134,0.374 -1.1867,0.52 -1.72,0.44 -0.5067,-0.08 -0.9467,-0.306 -1.32,-0.68 -0.3734,-0.373 -0.6267,-0.813 -0.76,-1.32 -0.1067,-0.533 -0.0534,-1.053 0.16,-1.56 0.2133,-0.533 0.6133,-0.986 1.2,-1.36 l 5.5602,-3.36 c 0.56,-0.346 1.12,-0.626 1.68,-0.84 0.586,-0.213 1.16,-0.32 1.72,-0.32 0.8,0 1.426,0.214 1.88,0.64 0.48,0.4 0.72,1.027 0.72,1.88 v 20.96 h 3.64 c 0.826,0 1.466,0.214 1.92,0.64 0.453,0.427 0.68,1.054 0.68,1.88 0,0.827 -0.227,1.467 -0.68,1.92 -0.454,0.427 -1.094,0.64 -1.92,0.64 z m 23.9842,0 c -0.853,0 -1.507,-0.226 -1.96,-0.68 -0.453,-0.453 -0.68,-1.08 -0.68,-1.88 0,-0.826 0.227,-1.453 0.68,-1.88 0.453,-0.426 1.107,-0.64 1.96,-0.64 h 4.04 v -18.04 h 2.92 l -5.84,3.56 c -0.613,0.374 -1.187,0.52 -1.72,0.44 -0.507,-0.08 -0.947,-0.306 -1.32,-0.68 -0.373,-0.373 -0.627,-0.813 -0.76,-1.32 -0.107,-0.533 -0.053,-1.053 0.16,-1.56 0.213,-0.533 0.613,-0.986 1.2,-1.36 l 5.56,-3.36 c 0.56,-0.346 1.12,-0.626 1.68,-0.84 0.587,-0.213 1.16,-0.32 1.72,-0.32 0.8,0 1.427,0.214 1.88,0.64 0.48,0.4 0.72,1.027 0.72,1.88 v 20.96 h 3.64 c 0.827,0 1.467,0.214 1.92,0.64 0.453,0.427 0.68,1.054 0.68,1.88 0,0.827 -0.227,1.467 -0.68,1.92 -0.453,0.427 -1.093,0.64 -1.92,0.64 z m 29.705,0.44 c -3.414,0 -6.027,-1.266 -7.84,-3.8 -1.787,-2.56 -2.68,-6.173 -2.68,-10.84 0,-3.12 0.4,-5.746 1.2,-7.88 0.826,-2.16 2.013,-3.786 3.56,-4.88 1.573,-1.12 3.493,-1.68 5.76,-1.68 3.44,0 6.053,1.24 7.84,3.72 1.786,2.454 2.68,6.027 2.68,10.72 0,3.12 -0.414,5.774 -1.24,7.96 -0.8,2.16 -1.974,3.814 -3.52,4.96 -1.547,1.147 -3.467,1.72 -5.76,1.72 z m 0,-5.04 c 1.546,0 2.693,-0.76 3.44,-2.28 0.746,-1.546 1.12,-3.986 1.12,-7.32 0,-3.333 -0.374,-5.733 -1.12,-7.2 -0.747,-1.466 -1.894,-2.2 -3.44,-2.2 -1.547,0 -2.694,0.734 -3.44,2.2 -0.747,1.467 -1.12,3.867 -1.12,7.2 0,3.334 0.373,5.774 1.12,7.32 0.746,1.52 1.893,2.28 3.44,2.28 z m 18.024,9.16 c -0.4,0.48 -0.827,0.747 -1.28,0.8 -0.453,0.08 -0.84,0 -1.16,-0.24 -0.32,-0.24 -0.507,-0.586 -0.56,-1.04 -0.027,-0.426 0.173,-0.893 0.6,-1.4 0.587,-0.746 0.987,-1.48 1.2,-2.2 0.213,-0.72 0.32,-1.36 0.32,-1.92 l 0.2,1.64 c -1.067,0 -1.933,-0.306 -2.6,-0.92 -0.667,-0.613 -1,-1.453 -1,-2.52 0,-0.986 0.307,-1.786 0.92,-2.4 0.613,-0.64 1.453,-0.96 2.52,-0.96 1.093,0 1.947,0.374 2.56,1.12 0.613,0.72 0.92,1.747 0.92,3.08 0,0.694 -0.067,1.4 -0.2,2.12 -0.133,0.72 -0.387,1.48 -0.76,2.28 -0.373,0.8 -0.933,1.654 -1.68,2.56 z m 16.351,-4.12 c -3.414,0 -6.027,-1.266 -7.84,-3.8 -1.787,-2.56 -2.68,-6.173 -2.68,-10.84 0,-3.12 0.4,-5.746 1.2,-7.88 0.826,-2.16 2.013,-3.786 3.56,-4.88 1.573,-1.12 3.493,-1.68 5.76,-1.68 3.44,0 6.053,1.24 7.84,3.72 1.786,2.454 2.68,6.027 2.68,10.72 0,3.12 -0.414,5.774 -1.24,7.96 -0.8,2.16 -1.974,3.814 -3.52,4.96 -1.547,1.147 -3.467,1.72 -5.76,1.72 z m 0,-5.04 c 1.546,0 2.693,-0.76 3.44,-2.28 0.746,-1.546 1.12,-3.986 1.12,-7.32 0,-3.333 -0.374,-5.733 -1.12,-7.2 -0.747,-1.466 -1.894,-2.2 -3.44,-2.2 -1.547,0 -2.694,0.734 -3.44,2.2 -0.747,1.467 -1.12,3.867 -1.12,7.2 0,3.334 0.373,5.774 1.12,7.32 0.746,1.52 1.893,2.28 3.44,2.28 z m 23.984,5.04 c -3.413,0 -6.027,-1.266 -7.84,-3.8 -1.787,-2.56 -2.68,-6.173 -2.68,-10.84 0,-3.12 0.4,-5.746 1.2,-7.88 0.827,-2.16 2.013,-3.786 3.56,-4.88 1.573,-1.12 3.493,-1.68 5.76,-1.68 3.44,0 6.053,1.24 7.84,3.72 1.787,2.454 2.68,6.027 2.68,10.72 0,3.12 -0.413,5.774 -1.24,7.96 -0.8,2.16 -1.973,3.814 -3.52,4.96 -1.547,1.147 -3.467,1.72 -5.76,1.72 z m 0,-5.04 c 1.547,0 2.693,-0.76 3.44,-2.28 0.747,-1.546 1.12,-3.986 1.12,-7.32 0,-3.333 -0.373,-5.733 -1.12,-7.2 -0.747,-1.466 -1.893,-2.2 -3.44,-2.2 -1.547,0 -2.693,0.734 -3.44,2.2 -0.747,1.467 -1.12,3.867 -1.12,7.2 0,3.334 0.373,5.774 1.12,7.32 0.747,1.52 1.893,2.28 3.44,2.28 z m 23.984,5.04 c -3.413,0 -6.026,-1.266 -7.84,-3.8 -1.786,-2.56 -2.68,-6.173 -2.68,-10.84 0,-3.12 0.4,-5.746 1.2,-7.88 0.827,-2.16 2.014,-3.786 3.56,-4.88 1.574,-1.12 3.494,-1.68 5.76,-1.68 3.44,0 6.054,1.24 7.84,3.72 1.787,2.454 2.68,6.027 2.68,10.72 0,3.12 -0.413,5.774 -1.24,7.96 -0.8,2.16 -1.973,3.814 -3.52,4.96 -1.546,1.147 -3.466,1.72 -5.76,1.72 z m 0,-5.04 c 1.547,0 2.694,-0.76 3.44,-2.28 0.747,-1.546 1.12,-3.986 1.12,-7.32 0,-3.333 -0.373,-5.733 -1.12,-7.2 -0.746,-1.466 -1.893,-2.2 -3.44,-2.2 -1.546,0 -2.693,0.734 -3.44,2.2 -0.746,1.467 -1.12,3.867 -1.12,7.2 0,3.334 0.374,5.774 1.12,7.32 0.747,1.52 1.894,2.28 3.44,2.28 z m -116.911,48.824 c -0.533,0 -0.949,-0.149 -1.248,-0.448 -0.277,-0.298 -0.416,-0.714 -0.416,-1.248 v -18.304 h -6.784 c -0.448,0 -0.8,-0.117 -1.056,-0.352 -0.256,-0.256 -0.384,-0.608 -0.384,-1.056 0,-0.448 0.128,-0.789 0.384,-1.024 0.256,-0.234 0.608,-0.352 1.056,-0.352 h 16.864 c 0.469,0 0.832,0.118 1.088,0.352 0.256,0.235 0.384,0.576 0.384,1.024 0,0.448 -0.128,0.8 -0.384,1.056 -0.256,0.235 -0.619,0.352 -1.088,0.352 h -6.784 v 18.304 c 0,0.534 -0.139,0.95 -0.416,1.248 -0.256,0.299 -0.661,0.448 -1.216,0.448 z m 20.78,0.064 c -2.133,0 -4,-0.469 -5.6,-1.408 -1.578,-0.96 -2.805,-2.304 -3.68,-4.032 -0.853,-1.749 -1.28,-3.797 -1.28,-6.144 0,-1.77 0.246,-3.36 0.736,-4.768 0.491,-1.429 1.195,-2.645 2.112,-3.648 0.918,-1.024 2.027,-1.802 3.328,-2.336 1.302,-0.533 2.763,-0.8 4.384,-0.8 2.155,0 4.022,0.47 5.6,1.408 1.579,0.939 2.795,2.272 3.648,4 0.875,1.728 1.312,3.766 1.312,6.112 0,1.771 -0.245,3.371 -0.736,4.8 -0.49,1.43 -1.205,2.656 -2.144,3.68 -0.917,1.024 -2.026,1.803 -3.328,2.336 -1.301,0.534 -2.752,0.8 -4.352,0.8 z m 0,-2.88 c 1.494,0 2.763,-0.341 3.808,-1.024 1.067,-0.682 1.878,-1.674 2.432,-2.976 0.576,-1.301 0.864,-2.869 0.864,-4.704 0,-2.752 -0.618,-4.885 -1.856,-6.4 -1.237,-1.514 -2.986,-2.272 -5.248,-2.272 -1.493,0 -2.773,0.342 -3.84,1.024 -1.045,0.662 -1.856,1.643 -2.432,2.944 -0.554,1.302 -0.832,2.87 -0.832,4.704 0,2.731 0.619,4.864 1.856,6.4 1.259,1.536 3.008,2.304 5.248,2.304 z m 20.783,2.816 c -0.534,0 -0.95,-0.149 -1.248,-0.448 -0.278,-0.298 -0.416,-0.714 -0.416,-1.248 v -18.304 h -6.784 c -0.448,0 -0.8,-0.117 -1.056,-0.352 -0.256,-0.256 -0.384,-0.608 -0.384,-1.056 0,-0.448 0.128,-0.789 0.384,-1.024 0.256,-0.234 0.608,-0.352 1.056,-0.352 h 16.864 c 0.469,0 0.832,0.118 1.088,0.352 0.256,0.235 0.384,0.576 0.384,1.024 0,0.448 -0.128,0.8 -0.384,1.056 -0.256,0.235 -0.619,0.352 -1.088,0.352 h -6.784 v 18.304 c 0,0.534 -0.139,0.95 -0.416,1.248 -0.256,0.299 -0.662,0.448 -1.216,0.448 z m 9.797,0 c -0.426,0 -0.768,-0.096 -1.024,-0.288 -0.256,-0.192 -0.405,-0.448 -0.448,-0.768 -0.042,-0.32 0.022,-0.682 0.192,-1.088 l 8.672,-19.456 c 0.214,-0.512 0.48,-0.874 0.8,-1.088 0.342,-0.213 0.715,-0.32 1.12,-0.32 0.384,0 0.736,0.107 1.056,0.32 0.342,0.214 0.619,0.576 0.832,1.088 l 8.672,19.456 c 0.192,0.406 0.267,0.779 0.224,1.12 -0.042,0.32 -0.181,0.576 -0.416,0.768 -0.234,0.171 -0.565,0.256 -0.992,0.256 -0.469,0 -0.842,-0.117 -1.12,-0.352 -0.277,-0.234 -0.522,-0.597 -0.736,-1.088 l -2.24,-5.184 1.504,0.896 h -13.632 l 1.472,-0.896 -2.208,5.184 c -0.213,0.512 -0.448,0.886 -0.704,1.12 -0.256,0.214 -0.597,0.32 -1.024,0.32 z m 9.248,-19.104 -4.832,11.456 -0.8,-0.768 h 11.296 l -0.736,0.768 -4.864,-11.456 z m 16.139,18.88 c -0.533,0 -0.949,-0.149 -1.248,-0.448 -0.299,-0.298 -0.448,-0.714 -0.448,-1.248 v -19.296 c 0,-0.554 0.139,-0.97 0.416,-1.248 0.299,-0.298 0.715,-0.448 1.248,-0.448 0.533,0 0.939,0.15 1.216,0.448 0.299,0.278 0.448,0.694 0.448,1.248 v 18.144 h 9.92 c 0.469,0 0.832,0.128 1.088,0.384 0.256,0.235 0.384,0.576 0.384,1.024 0,0.448 -0.128,0.8 -0.384,1.056 -0.256,0.256 -0.619,0.384 -1.088,0.384 z m -148.1697,44 c -0.576,0 -1.024,-0.149 -1.344,-0.448 -0.2987,-0.32 -0.448,-0.768 -0.448,-1.344 v -18.976 c 0,-0.576 0.1493,-1.013 0.448,-1.312 0.32,-0.32 0.768,-0.48 1.344,-0.48 h 7.616 c 1.5573,0 2.88,0.235 3.968,0.704 1.1093,0.47 1.952,1.142 2.528,2.016 0.5973,0.875 0.896,1.931 0.896,3.168 0,1.366 -0.4054,2.518 -1.216,3.456 -0.8107,0.939 -1.9094,1.568 -3.296,1.888 v -0.48 c 1.5786,0.214 2.816,0.811 3.712,1.792 0.896,0.96 1.344,2.219 1.344,3.776 0,2.006 -0.6614,3.552 -1.984,4.64 -1.3227,1.067 -3.1787,1.6 -5.568,1.6 z m 1.408,-2.56 h 6.208 c 1.6,0 2.784,-0.309 3.552,-0.928 0.768,-0.64 1.152,-1.6 1.152,-2.88 0,-1.28 -0.384,-2.229 -1.152,-2.848 -0.768,-0.618 -1.952,-0.928 -3.552,-0.928 H 3.2 Z m 0,-10.144 h 5.696 c 1.536,0 2.6986,-0.309 3.488,-0.928 0.7893,-0.618 1.184,-1.525 1.184,-2.72 0,-1.194 -0.3947,-2.101 -1.184,-2.72 -0.7894,-0.618 -1.952,-0.928 -3.488,-0.928 H 3.2 Z m 20.4045,12.704 c -0.576,0 -1.024,-0.149 -1.344,-0.448 -0.2987,-0.32 -0.448,-0.768 -0.448,-1.344 v -18.976 c 0,-0.576 0.1493,-1.013 0.448,-1.312 0.32,-0.32 0.768,-0.48 1.344,-0.48 h 11.68 c 0.448,0 0.7893,0.118 1.024,0.352 0.2346,0.214 0.352,0.534 0.352,0.96 0,0.448 -0.1174,0.79 -0.352,1.024 -0.2347,0.235 -0.576,0.352 -1.024,0.352 h -10.272 v 7.072 h 9.568 c 0.4693,0 0.8106,0.118 1.024,0.352 0.2346,0.235 0.352,0.566 0.352,0.992 0,0.448 -0.1174,0.79 -0.352,1.024 -0.2134,0.214 -0.5547,0.32 -1.024,0.32 h -9.568 v 7.424 h 10.272 c 0.448,0 0.7893,0.118 1.024,0.352 0.2346,0.235 0.352,0.566 0.352,0.992 0,0.448 -0.1174,0.79 -0.352,1.024 -0.2347,0.214 -0.576,0.32 -1.024,0.32 z m 18.6197,0.224 c -0.4907,0 -0.8747,-0.138 -1.152,-0.416 -0.2773,-0.277 -0.416,-0.672 -0.416,-1.184 v -19.744 c 0,-0.533 0.128,-0.938 0.384,-1.216 0.2773,-0.298 0.64,-0.448 1.088,-0.448 0.384,0 0.672,0.075 0.864,0.224 0.2133,0.128 0.4587,0.374 0.736,0.736 l 13.1845,17.376 h -0.8 v -16.768 c 0,-0.49 0.128,-0.874 0.384,-1.152 0.277,-0.277 0.661,-0.416 1.152,-0.416 0.512,0 0.896,0.139 1.152,0.416 0.256,0.278 0.384,0.662 0.384,1.152 v 19.872 c 0,0.491 -0.128,0.875 -0.384,1.152 -0.235,0.278 -0.555,0.416 -0.96,0.416 -0.384,0 -0.704,-0.074 -0.96,-0.224 -0.235,-0.149 -0.491,-0.405 -0.768,-0.768 l -13.1205,-17.344 h 0.736 v 16.736 c 0,0.512 -0.128,0.907 -0.384,1.184 -0.256,0.278 -0.6293,0.416 -1.12,0.416 z m 24.0055,-0.224 c -0.576,0 -1.024,-0.149 -1.344,-0.448 -0.299,-0.32 -0.448,-0.768 -0.448,-1.344 v -18.976 c 0,-0.576 0.149,-1.013 0.448,-1.312 0.32,-0.32 0.768,-0.48 1.344,-0.48 h 11.68 c 0.448,0 0.789,0.118 1.024,0.352 0.234,0.214 0.352,0.534 0.352,0.96 0,0.448 -0.118,0.79 -0.352,1.024 -0.235,0.235 -0.576,0.352 -1.024,0.352 h -10.272 v 7.072 h 9.568 c 0.469,0 0.81,0.118 1.024,0.352 0.234,0.235 0.352,0.566 0.352,0.992 0,0.448 -0.118,0.79 -0.352,1.024 -0.214,0.214 -0.555,0.32 -1.024,0.32 h -9.568 v 7.424 h 10.272 c 0.448,0 0.789,0.118 1.024,0.352 0.234,0.235 0.352,0.566 0.352,0.992 0,0.448 -0.118,0.79 -0.352,1.024 -0.235,0.214 -0.576,0.32 -1.024,0.32 z m 18.812,0.224 c -0.555,0 -0.992,-0.149 -1.312,-0.448 -0.299,-0.298 -0.448,-0.736 -0.448,-1.312 v -19.232 c 0,-0.576 0.149,-1.013 0.448,-1.312 0.32,-0.32 0.768,-0.48 1.344,-0.48 h 11.392 c 0.469,0 0.81,0.118 1.024,0.352 0.234,0.214 0.352,0.534 0.352,0.96 0,0.448 -0.118,0.79 -0.352,1.024 -0.214,0.235 -0.555,0.352 -1.024,0.352 h -9.856 v 7.2 h 9.216 c 0.426,0 0.757,0.118 0.992,0.352 0.256,0.214 0.384,0.534 0.384,0.96 0,0.448 -0.128,0.79 -0.384,1.024 -0.235,0.235 -0.566,0.352 -0.992,0.352 h -9.216 v 8.448 c 0,1.174 -0.523,1.76 -1.568,1.76 z m 17.622,0 c -0.533,0 -0.949,-0.149 -1.248,-0.448 -0.277,-0.298 -0.416,-0.714 -0.416,-1.248 v -19.616 c 0,-0.554 0.139,-0.97 0.416,-1.248 0.299,-0.298 0.715,-0.448 1.248,-0.448 0.534,0 0.939,0.15 1.216,0.448 0.299,0.278 0.448,0.694 0.448,1.248 v 19.616 c 0,0.534 -0.138,0.95 -0.416,1.248 -0.277,0.299 -0.693,0.448 -1.248,0.448 z m 17.011,0.064 c -2.283,0 -4.235,-0.469 -5.856,-1.408 -1.622,-0.938 -2.87,-2.272 -3.744,-4 -0.854,-1.749 -1.28,-3.808 -1.28,-6.176 0,-1.77 0.245,-3.36 0.736,-4.768 0.49,-1.429 1.194,-2.645 2.112,-3.648 0.938,-1.024 2.08,-1.802 3.424,-2.336 1.365,-0.533 2.901,-0.8 4.608,-0.8 1.258,0 2.464,0.171 3.616,0.512 1.173,0.342 2.186,0.832 3.04,1.472 0.362,0.235 0.597,0.523 0.704,0.864 0.128,0.32 0.149,0.63 0.064,0.928 -0.064,0.299 -0.203,0.555 -0.416,0.768 -0.214,0.192 -0.491,0.299 -0.832,0.32 -0.32,0.022 -0.672,-0.096 -1.056,-0.352 -0.704,-0.533 -1.483,-0.928 -2.336,-1.184 -0.854,-0.256 -1.75,-0.384 -2.688,-0.384 -1.622,0 -2.987,0.342 -4.096,1.024 -1.11,0.662 -1.952,1.632 -2.528,2.912 -0.576,1.28 -0.864,2.838 -0.864,4.672 0,1.835 0.288,3.403 0.864,4.704 0.576,1.28 1.418,2.262 2.528,2.944 1.109,0.662 2.474,0.992 4.096,0.992 0.938,0 1.834,-0.128 2.688,-0.384 0.874,-0.277 1.696,-0.682 2.464,-1.216 0.384,-0.234 0.725,-0.341 1.024,-0.32 0.32,0.022 0.586,0.128 0.8,0.32 0.213,0.192 0.352,0.438 0.416,0.736 0.085,0.278 0.074,0.576 -0.032,0.896 -0.086,0.299 -0.288,0.555 -0.608,0.768 -0.875,0.704 -1.91,1.238 -3.104,1.6 -1.195,0.363 -2.443,0.544 -3.744,0.544 z m 13.177,-0.064 c -0.534,0 -0.95,-0.149 -1.248,-0.448 -0.278,-0.298 -0.416,-0.714 -0.416,-1.248 v -19.616 c 0,-0.554 0.138,-0.97 0.416,-1.248 0.298,-0.298 0.714,-0.448 1.248,-0.448 0.533,0 0.938,0.15 1.216,0.448 0.298,0.278 0.448,0.694 0.448,1.248 v 19.616 c 0,0.534 -0.139,0.95 -0.416,1.248 -0.278,0.299 -0.694,0.448 -1.248,0.448 z m 6.77,0 c -0.426,0 -0.768,-0.096 -1.024,-0.288 -0.256,-0.192 -0.405,-0.448 -0.448,-0.768 -0.042,-0.32 0.022,-0.682 0.192,-1.088 l 8.672,-19.456 c 0.214,-0.512 0.48,-0.874 0.8,-1.088 0.342,-0.213 0.715,-0.32 1.12,-0.32 0.384,0 0.736,0.107 1.056,0.32 0.342,0.214 0.619,0.576 0.832,1.088 l 8.672,19.456 c 0.192,0.406 0.267,0.779 0.224,1.12 -0.042,0.32 -0.181,0.576 -0.416,0.768 -0.234,0.171 -0.565,0.256 -0.992,0.256 -0.469,0 -0.842,-0.117 -1.12,-0.352 -0.277,-0.234 -0.522,-0.597 -0.736,-1.088 l -2.24,-5.184 1.504,0.896 h -13.632 l 1.472,-0.896 -2.208,5.184 c -0.213,0.512 -0.448,0.886 -0.704,1.12 -0.256,0.214 -0.597,0.32 -1.024,0.32 z m 9.248,-19.104 -4.832,11.456 -0.8,-0.768 h 11.296 l -0.736,0.768 -4.864,-11.456 z m 16.107,19.104 c -0.534,0 -0.95,-0.149 -1.248,-0.448 -0.278,-0.298 -0.416,-0.714 -0.416,-1.248 v -19.392 c 0,-0.554 0.149,-0.97 0.448,-1.248 0.298,-0.298 0.714,-0.448 1.248,-0.448 h 7.648 c 2.432,0 4.309,0.576 5.632,1.728 1.322,1.152 1.984,2.784 1.984,4.896 0,1.366 -0.299,2.539 -0.896,3.52 -0.598,0.982 -1.472,1.728 -2.624,2.24 -1.131,0.512 -2.496,0.768 -4.096,0.768 l 0.288,-0.448 h 0.832 c 0.853,0 1.589,0.214 2.208,0.64 0.64,0.427 1.216,1.11 1.728,2.048 l 2.752,5.12 c 0.213,0.384 0.309,0.758 0.288,1.12 0,0.342 -0.128,0.619 -0.384,0.832 -0.235,0.214 -0.576,0.32 -1.024,0.32 -0.47,0 -0.854,-0.096 -1.152,-0.288 -0.278,-0.213 -0.534,-0.522 -0.768,-0.928 l -3.36,-6.208 c -0.448,-0.832 -0.96,-1.386 -1.536,-1.664 -0.576,-0.298 -1.334,-0.448 -2.272,-0.448 h -3.616 v 7.84 c 0,0.534 -0.139,0.95 -0.416,1.248 -0.278,0.299 -0.694,0.448 -1.248,0.448 z m 1.664,-12.032 h 5.472 c 1.621,0 2.848,-0.341 3.68,-1.024 0.832,-0.682 1.248,-1.696 1.248,-3.04 0,-1.322 -0.416,-2.325 -1.248,-3.008 -0.832,-0.682 -2.059,-1.024 -3.68,-1.024 h -5.472 z m 19.992,12.032 c -0.533,0 -0.949,-0.149 -1.248,-0.448 -0.277,-0.298 -0.416,-0.714 -0.416,-1.248 v -19.616 c 0,-0.554 0.139,-0.97 0.416,-1.248 0.299,-0.298 0.715,-0.448 1.248,-0.448 0.533,0 0.939,0.15 1.216,0.448 0.299,0.278 0.448,0.694 0.448,1.248 v 19.616 c 0,0.534 -0.139,0.95 -0.416,1.248 -0.277,0.299 -0.693,0.448 -1.248,0.448 z m 8.691,-0.224 c -0.576,0 -1.024,-0.149 -1.344,-0.448 -0.299,-0.32 -0.448,-0.768 -0.448,-1.344 v -18.976 c 0,-0.576 0.149,-1.013 0.448,-1.312 0.32,-0.32 0.768,-0.48 1.344,-0.48 h 11.68 c 0.448,0 0.789,0.118 1.024,0.352 0.234,0.214 0.352,0.534 0.352,0.96 0,0.448 -0.118,0.79 -0.352,1.024 -0.235,0.235 -0.576,0.352 -1.024,0.352 h -10.272 v 7.072 h 9.568 c 0.469,0 0.81,0.118 1.024,0.352 0.234,0.235 0.352,0.566 0.352,0.992 0,0.448 -0.118,0.79 -0.352,1.024 -0.214,0.214 -0.555,0.32 -1.024,0.32 h -9.568 v 7.424 h 10.272 c 0.448,0 0.789,0.118 1.024,0.352 0.234,0.235 0.352,0.566 0.352,0.992 0,0.448 -0.118,0.79 -0.352,1.024 -0.235,0.214 -0.576,0.32 -1.024,0.32 z m 24.259,0.288 c -0.982,0 -1.942,-0.074 -2.88,-0.224 -0.939,-0.149 -1.824,-0.373 -2.656,-0.672 -0.832,-0.32 -1.579,-0.704 -2.24,-1.152 -0.32,-0.234 -0.544,-0.501 -0.672,-0.8 -0.107,-0.298 -0.139,-0.586 -0.096,-0.864 0.064,-0.298 0.192,-0.554 0.384,-0.768 0.192,-0.213 0.426,-0.341 0.704,-0.384 0.277,-0.064 0.586,0.022 0.928,0.256 0.96,0.619 1.973,1.078 3.04,1.376 1.066,0.278 2.229,0.416 3.488,0.416 1.813,0 3.146,-0.32 4,-0.96 0.874,-0.661 1.312,-1.514 1.312,-2.56 0,-0.853 -0.31,-1.525 -0.928,-2.016 -0.619,-0.512 -1.654,-0.917 -3.104,-1.216 l -3.424,-0.704 c -2.027,-0.426 -3.542,-1.13 -4.544,-2.112 -0.982,-0.981 -1.472,-2.304 -1.472,-3.968 0,-1.002 0.202,-1.92 0.608,-2.752 0.426,-0.832 1.013,-1.546 1.76,-2.144 0.746,-0.618 1.642,-1.088 2.688,-1.408 1.045,-0.32 2.186,-0.48 3.424,-0.48 1.322,0 2.56,0.171 3.712,0.512 1.173,0.342 2.218,0.864 3.136,1.568 0.277,0.192 0.458,0.438 0.544,0.736 0.106,0.278 0.128,0.555 0.064,0.832 -0.043,0.278 -0.16,0.512 -0.352,0.704 -0.192,0.192 -0.438,0.31 -0.736,0.352 -0.299,0.022 -0.63,-0.085 -0.992,-0.32 -0.832,-0.554 -1.686,-0.949 -2.56,-1.184 -0.854,-0.256 -1.803,-0.384 -2.848,-0.384 -1.046,0 -1.963,0.16 -2.752,0.48 -0.768,0.32 -1.366,0.768 -1.792,1.344 -0.406,0.576 -0.608,1.259 -0.608,2.048 0,0.896 0.288,1.611 0.864,2.144 0.576,0.534 1.536,0.939 2.88,1.216 l 3.392,0.704 c 2.133,0.448 3.722,1.142 4.768,2.08 1.045,0.939 1.568,2.187 1.568,3.744 0,1.003 -0.203,1.91 -0.608,2.72 -0.406,0.79 -0.982,1.472 -1.728,2.048 -0.747,0.576 -1.654,1.024 -2.72,1.344 -1.046,0.299 -2.23,0.448 -3.552,0.448 z"
     fill="#134380"
     id="path1" />
  <g
     clip-path="url(#clip0_2860_5912)"
     id="g11"
     transform="translate(-44.3493,-0.27832)">
    <path
       d="m 108.79,63.0497 c 0.574,-2.098 1.182,-4.1883 1.715,-6.2993 1.474,-5.857 2.906,-11.7269 4.375,-17.5864 1.384,-5.5129 6.186,-9.5254 11.863,-9.6573 5.694,-0.132 11.397,-0.1371 17.091,-0.0026 5.863,0.1371 10.433,3.9529 11.925,9.665 0.817,3.1303 1.616,6.2632 2.485,9.6263 0.23,-0.5744 0.398,-0.9521 0.538,-1.3401 1.164,-3.2131 2.31,-6.4313 3.486,-9.6366 1.898,-5.174 6.6,-8.4853 12.103,-8.5164 3.678,-0.0207 7.358,-0.0259 11.035,0.0026 5.32,0.044 10.07,3.3683 11.886,8.356 3.052,8.3819 6.07,16.7767 9.088,25.1689 0.716,1.992 -0.169,4.2634 -2.018,5.3086 -1.968,1.1124 -4.531,0.7398 -5.904,-0.9495 -0.535,-0.6597 -1.001,-1.4228 -1.306,-2.2119 -2.273,-5.9061 -4.497,-11.8329 -6.737,-17.752 -0.087,-0.2354 -0.103,-0.5743 -0.271,-0.6907 -0.372,-0.2561 -0.83,-0.5562 -1.231,-0.5251 -0.207,0.0155 -0.46,0.6881 -0.51,1.0891 -0.038,0.3234 0.181,0.6829 0.308,1.0193 2.69,7.0599 5.382,14.1172 8.071,21.1746 0.864,2.2662 0.091,3.4226 -2.312,3.4226 -9.772,0.0051 -19.545,0.0051 -29.321,0 -2.379,0 -3.157,-1.115 -2.325,-3.3062 2.729,-7.1971 5.457,-14.3941 8.185,-21.5911 0.101,-0.2691 0.329,-0.5743 0.269,-0.802 -0.098,-0.3725 -0.31,-0.8382 -0.613,-0.9934 -0.235,-0.119 -0.783,0.0776 -1.008,0.3104 -0.282,0.2924 -0.393,0.758 -0.546,1.1616 -2.234,5.8854 -4.458,11.7734 -6.693,17.6589 -0.962,2.5352 -3.013,3.8365 -5.531,3.5286 -2.002,-0.2457 -3.339,-1.4383 -3.887,-3.5183 -1.462,-5.5646 -2.91,-11.1319 -4.363,-16.6991 -0.088,-0.3363 -0.184,-0.67 -0.471,-0.9856 v 7.5126 h -25.501 v -7.7041 c -0.07,-0.0077 -0.14,-0.0129 -0.207,-0.0207 -0.787,3.0139 -1.575,6.0252 -2.356,9.039 -0.748,2.8897 -1.492,5.782 -2.23,8.6742 -0.605,2.3723 -2.107,3.6839 -4.362,3.79 -2.046,0.0957 -3.665,-1.0943 -4.529,-3.3166 -0.036,-0.0931 -0.126,-0.1629 -0.191,-0.2431 0,-0.7218 0,-1.4436 0,-2.1654 z"
       fill="#134380"
       id="path2" />
    <path
       d="m 142.12,98.1156 c -2.923,-1.0606 -3.929,-3.2104 -3.877,-6.2269 0.106,-6.0536 0.044,-12.1123 0.016,-18.1685 -0.006,-0.8175 0.175,-1.1331 1.07,-1.115 2.879,0.0569 5.757,0.0207 8.816,0.0207 v 1.3246 c 0,5.9837 -0.077,11.97 0.031,17.9537 0.055,3.0217 -0.964,5.1637 -3.894,6.2114 h -2.165 z"
       fill="#134380"
       id="path3" />
    <path
       d="m 126.538,98.1158 c -2.886,-1.0012 -3.975,-3.0449 -3.918,-6.0613 0.114,-6.0484 0.034,-12.102 0.034,-18.153 0,-0.3855 0,-0.7684 0,-1.2081 h 9.817 c 0,0.4863 0,0.908 0,1.3297 0,5.9423 -0.091,11.8898 0.039,17.8296 0.064,3.019 -0.916,5.161 -3.807,6.2631 z"
       fill="#134380"
       id="path4" />
    <path
       d="m 183.676,98.1157 c -2.268,-0.9365 -3.031,-2.6724 -2.995,-5.0628 0.085,-5.769 0.044,-11.5406 0.01,-17.3096 -0.005,-0.8718 0.199,-1.2004 1.13,-1.1745 2.224,0.0647 4.451,0.0207 6.802,0.0207 v 1.2909 c 0,5.7328 -0.062,11.4682 0.028,17.201 0.039,2.4033 -0.742,4.121 -3.028,5.0317 h -1.947 z"
       fill="#134380"
       id="path5" />
    <path
       d="m 173.937,98.1158 c -2.297,-0.9003 -3.07,-2.6232 -3.031,-5.0239 0.088,-5.7328 0.028,-11.4656 0.028,-17.201 0,-0.3855 0,-0.7709 0,-1.2935 2.522,0 4.927,-0.0052 7.332,0.0026 0.77,0.0026 0.569,0.6079 0.569,1.0322 0.013,3.9296 0.007,7.8619 0.007,11.7915 0,1.8756 -0.075,3.7538 0.019,5.6242 0.121,2.3852 -0.717,4.1237 -2.977,5.0679 z"
       fill="#134380"
       id="path6" />
    <path
       d="m 194.479,13.9299 c 0.013,7.5437 -6.212,13.7888 -13.735,13.781 -7.482,-0.0078 -13.699,-6.2166 -13.712,-13.6956 -0.013,-7.53074 6.129,-13.721428 13.626,-13.73695 7.617,-0.015522 13.808,6.10015 13.821,13.65155 z"
       fill="#134380"
       id="path7" />
    <path
       d="m 136.381,0.27832 c 7.523,0 13.699,6.1493 13.717,13.65418 0.018,7.5256 -6.235,13.7887 -13.75,13.7784 -7.541,-0.013 -13.707,-6.2295 -13.694,-13.8094 0.016,-7.50751 6.179,-13.62318 13.727,-13.62318 z"
       fill="#134380"
       id="path8" />
    <path
       d="M 122.703,70.6863 V 57.0605 h 25.367 v 13.6258 z"
       fill="#134380"
       id="path9" />
    <path
       d="m 166.186,7.89996 c -0.313,1.44613 -0.734,2.88964 -0.92,4.36424 -0.538,4.2168 0.644,7.9861 3.255,11.3026 0.549,0.6959 0.427,1.2418 -0.181,1.6195 -0.517,0.3234 -1.187,0.5355 -1.797,0.5536 -2.234,0.0647 -4.469,0.0336 -6.706,0.0233 -1.893,-0.0104 -2.679,-0.7865 -2.534,-2.6491 0.476,-6.0898 2.79,-11.2017 7.991,-14.73554 0.238,-0.16299 0.484,-0.31044 0.734,-0.4579 0.055,-0.03105 0.132,-0.01811 0.161,-0.0207 z"
       fill="#134380"
       id="path10" />
    <path
       d="m 195.254,7.77539 c 4.406,2.63361 7.101,6.39251 8.288,11.22501 0.36,1.4591 0.538,2.975 0.665,4.4755 0.119,1.4099 -0.6,2.2248 -1.994,2.261 -2.558,0.0647 -5.118,0.0647 -7.673,-0.0155 -0.535,-0.0181 -1.141,-0.4087 -1.547,-0.802 -0.204,-0.1966 -0.201,-0.9106 -0.002,-1.1745 3.566,-4.804 4.352,-9.9858 2.25,-15.59698 -0.021,-0.05692 0.002,-0.13194 0.015,-0.36994 z"
       fill="#134380"
       id="path11" />
  </g>
  <defs
     id="defs13">
    <clipPath
       id="clip0_2860_5912">
      <rect
         width="97.837799"
         height="97.837799"
         fill="#ffffff"
         transform="translate(108.79,0.27832)"
         id="rect11"
         x="0"
         y="0" />
    </clipPath>
    <clipPath
       id="clip1_2860_5912">
      <rect
         width="97.837799"
         height="97.817001"
         fill="#ffffff"
         transform="translate(449.506,0.27832)"
         id="rect12"
         x="0"
         y="0" />
    </clipPath>
    <clipPath
       id="clip2_2860_5912">
      <rect
         width="85.254204"
         height="97.837799"
         fill="#ffffff"
         transform="translate(784.215,0.27832)"
         id="rect13"
         x="0"
         y="0" />
    </clipPath>
  </defs>
</svg>
