<svg width="80" height="80" viewBox="0 0 80 80" fill="none" xmlns="http://www.w3.org/2000/svg">
<g clip-path="url(#clip0_2586_4608)">
<path d="M14.7609 13.5816C14.479 13.3959 14.1508 13.2548 13.9245 13.0171C10.5324 9.43926 11.3837 3.28613 15.5899 0.90583C19.5569 -1.33893 24.5569 0.993096 25.6233 5.6293C26.2947 8.54804 25.6363 11.1456 23.4905 13.3012C23.3848 13.407 23.2086 13.4405 23.064 13.5092C23.1085 13.5816 23.153 13.6521 23.1994 13.7245C24.1007 13.9863 25.015 14.2073 25.9015 14.5136C30.436 16.0844 32.8451 19.3448 32.9175 24.111C32.9712 27.6369 32.9601 31.172 32.1274 34.6292C31.5525 37.0151 30.6678 39.2023 27.873 39.8132C27.706 39.8503 27.5299 40.281 27.5206 40.5354C27.3741 44.3064 27.3518 48.0848 27.0996 51.8465C26.8622 55.4151 26.4338 58.9744 25.9924 62.5263C25.883 63.4101 25.3952 64.2456 25.0632 65.1535H55.4397C53.5184 60.12 54.0747 54.8284 53.5536 49.572C53.0547 49.572 52.6003 49.5757 52.1441 49.572C50.2988 49.5572 49.1953 48.5564 49.0562 46.709C49.0024 46.0034 49.0395 45.2867 49.0729 44.5775C49.1063 43.9016 49.1879 43.2295 49.2565 42.4831C48.9727 42.433 48.7428 42.3754 48.5091 42.3568C46.5599 42.1972 45.3099 41.1166 45.1819 39.1633C45.0836 37.6687 45.1782 36.1387 45.3748 34.6515C45.8718 30.9102 46.6211 27.221 48.1196 23.7285C49.7962 19.8238 52.2943 16.6693 56.2057 14.7959C56.3169 14.742 56.4245 14.6826 56.5284 14.6176C56.5784 14.5861 56.6137 14.5304 56.8529 14.276C56.2743 14.276 55.8774 14.2816 55.4805 14.276C53.9412 14.2537 53.229 13.6057 53.2884 12.0628C53.3718 9.935 53.4516 7.79236 53.7594 5.69057C54.2862 2.14054 57.2034 -0.107933 60.8755 0.00346998C64.4753 0.113016 67.4093 2.71798 67.7524 6.1696C67.936 8.01331 68.0788 9.86259 68.1567 11.7137C68.2402 13.6688 67.6281 14.2444 65.6511 14.2611C65.3618 14.263 65.0725 14.2927 64.5477 14.3224C64.8852 14.5656 65.0113 14.6863 65.1615 14.7587C69.6163 16.8624 72.1775 20.5851 73.8392 25.0375C75.3396 29.0591 75.9961 33.2701 76.3985 37.522C76.4616 38.1885 76.3689 38.8867 76.2372 39.5495C75.9015 41.241 74.7424 42.2176 73.0139 42.3531C72.7747 42.3717 72.5354 42.4088 72.2034 42.4497C72.2739 43.5006 72.3833 44.5069 72.3963 45.5151C72.4056 46.1872 72.3759 46.8854 72.1997 47.5278C71.8251 48.8906 70.8885 49.5423 69.4642 49.572C68.8819 49.5832 68.2977 49.5739 67.6671 49.5739C67.0792 54.7894 67.706 60.094 65.7012 65.2111C66.0555 65.2111 66.3744 65.2111 66.6953 65.2111C70.6511 65.2111 74.607 65.2111 78.5629 65.2111C78.8095 65.2111 79.1118 65.1275 79.2917 65.2389C79.5847 65.419 79.926 65.6994 79.9965 65.9965C80.0354 66.1654 79.6033 66.4959 79.3288 66.6686C79.1712 66.767 78.9078 66.6964 78.6908 66.6964C72.1089 66.7206 65.5287 66.7596 58.9468 66.7614C53.446 66.7614 47.9453 66.7206 42.4445 66.6983C42.1144 66.6983 41.7843 66.6983 41.2724 66.6983C41.5284 67.1736 41.6879 67.493 41.8659 67.8012C43.8726 71.2825 45.8811 74.7601 47.8878 78.2396C48.6204 79.5096 48.3551 79.9998 46.9215 80.0016C42.2554 80.0072 37.5873 80.0072 32.9212 80.0016C31.5896 80.0016 31.2928 79.4929 31.9475 78.3529C33.9653 74.8437 35.9905 71.3364 38.0083 67.829C38.1864 67.5208 38.344 67.2015 38.5684 66.78C38.1586 66.7447 37.8934 66.702 37.63 66.7039C31.4505 66.7354 25.2691 66.7986 19.0896 66.7986C13.064 66.7986 7.03838 66.7317 1.01279 66.7039C0.450846 66.702 -0.0276402 66.5702 0.000178747 65.924C0.0261431 65.2761 0.539867 65.2092 1.08141 65.2092C4.69788 65.2185 8.31435 65.2129 11.9308 65.2129C12.2554 65.2129 12.5799 65.2129 12.9991 65.2129C11.2854 61.7762 11.2261 58.176 11.048 54.613C10.8143 49.9174 10.6771 45.218 10.4657 40.5206C10.4546 40.2718 10.1819 39.867 9.96865 39.8206C8.10107 39.4103 6.99202 38.1458 6.4412 36.4655C5.91635 34.865 5.51947 33.1866 5.34513 31.5118C5.10589 29.2095 5.06509 26.8812 5.05767 24.564C5.04098 19.1703 7.92674 15.533 13.1919 14.1943C13.637 14.081 14.0896 13.9938 14.5384 13.8935C14.6126 13.7914 14.6868 13.6874 14.7609 13.5853V13.5816ZM27.5261 38.0957C27.617 38.1663 27.7097 38.2368 27.8006 38.3055C28.3181 37.9249 28.9764 37.6427 29.3214 37.1432C29.837 36.3968 30.2672 35.5353 30.5009 34.6589C31.4134 31.2519 31.4245 27.7483 31.4227 24.2539C31.4189 20.3214 29.518 17.5419 25.8292 16.1383C24.7442 15.7242 23.5629 15.572 22.4464 15.2322C22.0291 15.1059 21.4282 14.8609 21.3336 14.5415C21.1519 13.9418 21.0388 13.2474 21.7546 12.7126C23.8911 11.1177 24.6515 8.94352 24.2046 6.33856C23.7242 3.54978 21.2149 1.40714 18.6519 1.5761C15.8255 1.75992 13.5313 4.1922 13.4071 7.11095C13.3032 9.55252 14.1211 11.5411 16.2224 12.8853C16.9011 13.3198 16.8437 13.9715 16.673 14.5248C16.5747 14.8441 16.0666 15.1208 15.6864 15.2489C15.1077 15.4439 14.4735 15.468 13.8744 15.6091C8.95789 16.7733 6.50797 19.8368 6.57288 24.8871C6.60441 27.2952 6.70085 29.7145 6.97718 32.1041C7.1441 33.5542 7.62444 34.9876 8.12332 36.3727C8.47384 37.3437 9.20456 38.0716 10.4026 38.2201C10.4193 37.8785 10.4397 37.6055 10.4453 37.3344C10.5343 33.3759 10.6085 29.4174 10.7198 25.4589C10.7365 24.8574 10.6085 23.9791 11.5914 24.0293C12.5076 24.0757 12.3036 24.8852 12.2888 25.4701C12.2498 26.9852 12.1033 28.5002 12.1237 30.0116C12.2313 37.9267 12.2962 45.8437 12.5503 53.7552C12.643 56.6721 13.0844 59.5964 13.5962 62.478C13.9616 64.5278 15.0391 65.1405 17.1033 65.1275C17.8896 65.1219 18.2383 64.9548 18.2346 64.0506C18.2086 55.9758 18.2346 47.901 18.2439 39.8262C18.2439 39.5161 18.1567 39.1652 18.2754 38.9089C18.4182 38.5989 18.7335 38.3705 18.9746 38.1068C19.2287 38.3575 19.5495 38.571 19.7164 38.8699C19.8351 39.0853 19.748 39.414 19.748 39.6925C19.748 46.4992 19.748 53.3059 19.7498 60.1126C19.7498 61.5051 19.7925 62.8976 19.7702 64.2883C19.7609 64.901 20.0039 65.0755 20.5899 65.0885C23.0343 65.1461 24.0618 64.4294 24.5421 62.025C24.887 60.3019 25.1652 58.5511 25.2784 56.802C25.8403 48.0644 26.1982 39.3193 25.8867 30.5593C25.8199 28.6748 25.7253 26.7883 25.7253 24.9038C25.7253 24.5974 26.1556 24.2929 26.3856 23.9866C26.6675 24.2465 27.0439 24.4582 27.2034 24.7775C27.3555 25.0839 27.2999 25.5035 27.3073 25.8748C27.3833 29.3692 27.4557 32.8635 27.5243 36.3578C27.5354 36.9371 27.5243 37.5164 27.5243 38.0957H27.5261ZM60.7272 47.9437C63.6018 47.9437 66.4746 47.9251 69.3492 47.9548C70.1801 47.9641 70.6345 47.6132 70.7717 46.8259C70.8403 46.4323 70.9423 46.0183 70.8848 45.6358C70.2617 41.4842 69.7665 37.3047 68.9171 33.1996C68.2754 30.0951 67.1849 27.0836 66.2687 24.0386C66.1018 23.4815 66.1074 22.9598 66.7138 22.8688C67.0235 22.8224 67.4742 23.2012 67.732 23.5001C67.9583 23.7619 68.0083 24.1778 68.1289 24.5287C69.85 29.5697 71.1074 34.7258 71.8585 40.0007C71.9531 40.6598 72.1868 40.916 72.8804 40.8028C74.2231 40.5855 74.8648 39.8707 74.8184 38.2275C74.709 34.3433 73.9486 30.5575 72.8062 26.8552C71.2669 21.8718 68.6445 17.7666 63.5517 15.7075C63.2717 15.5943 63.0862 15.0558 63.0083 14.6826C62.936 14.3391 63.0918 13.9548 63.1066 13.5871C63.1307 12.9707 63.4553 12.6885 64.0414 12.6774C64.6274 12.6662 65.2172 12.6402 65.8014 12.6792C66.4486 12.7238 66.7101 12.4676 66.6582 11.8251C66.5043 9.94614 66.469 8.05044 66.1945 6.19188C65.7977 3.51451 63.6185 1.65408 60.9609 1.5204C58.255 1.383 56.0369 2.77925 55.4824 5.38607C55.0224 7.54542 54.9928 9.79761 54.8351 12.0145C54.8203 12.2169 55.2153 12.5233 55.4824 12.6477C55.7105 12.7553 56.0276 12.6718 56.3058 12.6718C58.3181 12.6718 58.3514 12.6718 58.3607 14.703C58.3607 15.0669 58.0491 15.6351 57.7376 15.7651C53.4516 17.5624 50.896 20.9081 49.2472 25.0913C47.7598 28.8623 47.1404 32.8338 46.6619 36.8239C46.5543 37.7206 46.6767 38.6806 46.8789 39.5699C47.081 40.4556 48.1103 40.9977 49.0117 40.8214C49.798 40.6672 49.4827 39.9357 49.6311 39.4548C49.722 39.1615 49.748 38.8495 49.798 38.545C50.6493 33.4762 51.9234 28.5151 53.6296 23.6672C53.8188 23.1325 54.0599 22.6349 54.735 22.8484C55.4156 23.0638 55.334 23.593 55.1411 24.1407C53.1511 29.7814 51.7175 35.5613 50.9738 41.499C50.7606 43.2072 50.6734 44.9395 50.653 46.6626C50.6419 47.5631 51.2316 47.9771 52.2016 47.9622C55.0447 47.9177 57.8878 47.9455 60.7309 47.9455L60.7272 47.9437ZM46.137 78.3324C44.0655 74.7286 42.0606 71.2454 39.9501 67.5765C37.8322 71.2621 35.831 74.749 33.7724 78.3324H46.137ZM55.3581 49.6537C55.3581 51.2598 55.2635 52.7451 55.3785 54.2156C55.5992 57.01 55.8867 59.8025 56.2669 62.5801C56.3652 63.2931 56.7472 64.1657 57.2906 64.5668C57.847 64.9771 58.7613 64.9363 59.5254 64.9753C59.594 64.979 59.7869 64.1286 59.7888 63.6756C59.8073 59.3216 59.798 54.9676 59.7925 50.6136C59.7925 50.2906 59.7572 49.9675 59.7387 49.6537H55.3581ZM61.4171 49.6593C61.4171 50.0622 61.4171 50.3685 61.4171 50.6749C61.4115 54.6018 61.406 58.5288 61.4023 62.4557C61.4023 63.1056 61.3856 63.7573 61.4393 64.4015C61.4579 64.6225 61.623 64.9567 61.7991 65.0198C62.8043 65.38 63.8948 64.953 64.403 63.9875C64.6719 63.4769 64.9316 62.9069 64.9872 62.3443C65.334 58.7497 65.6307 55.1514 65.9238 51.5531C65.9738 50.946 65.9312 50.3333 65.9312 49.6593H61.4171Z" fill="#134380" stroke="#134380"/>
</g>
<defs>
<clipPath id="clip0_2586_4608">
<rect width="80" height="80" fill="white"/>
</clipPath>
</defs>
</svg>
