<svg width="86" height="80" viewBox="0 0 86 80" fill="none" xmlns="http://www.w3.org/2000/svg">
<g clip-path="url(#clip0_2585_4578)">
<path d="M35.7484 76.4358C32.5583 76.7513 29.4471 77.073 26.3338 77.3622C25.118 77.4755 24.4849 77.0345 24.408 76.1222C24.3271 75.1775 24.9704 74.6192 26.172 74.5019C29.6574 74.1661 33.1389 73.7979 36.6223 73.456C38.0566 73.3164 38.5967 73.8181 38.6331 75.2625C38.6675 76.6138 39.1186 77.0811 40.4618 77.0932C42.0801 77.1094 43.6985 77.1094 45.3168 77.0932C46.656 77.0811 47.1111 76.6077 47.1435 75.2564C47.1779 73.812 47.7139 73.3104 49.1563 73.456C55.6518 74.1175 62.1474 74.7952 68.643 75.4648C73.2633 75.9422 77.8836 76.4176 82.506 76.8909C82.601 76.901 82.6981 76.8626 82.8499 76.8383V73.9658C70.0388 71.3138 57.2479 68.6678 44.3155 65.9895C44.3155 67.7676 44.3094 69.4689 44.3175 71.1721C44.3215 71.9247 44.0646 72.4891 43.2999 72.7177C42.2885 73.0211 41.4854 72.3717 41.4712 71.2025C41.451 69.4931 41.4652 67.7818 41.4652 65.9975C28.559 68.6678 15.7661 71.3138 2.92875 73.9698V76.899C4.47223 76.7513 5.96716 76.6178 7.46209 76.4621C11.5787 76.0292 15.6953 75.5801 19.814 75.1512C20.7202 75.0561 21.3898 75.5517 21.5233 76.3528C21.6629 77.2065 21.1794 77.8761 20.172 77.9954C17.1963 78.3474 14.2166 78.6448 11.2368 78.9603C8.25709 79.2739 5.27532 79.5612 2.29962 79.905C0.646906 80.0952 0.0137354 79.6057 0.00968953 77.9772C0.00564371 76.3933 0.00362081 74.8093 0.00968953 73.2234C0.0157583 72.0197 0.377859 71.5585 1.51069 71.3117C2.36436 71.1256 3.47089 71.2146 4.00089 70.7028C4.45604 70.2639 4.22341 69.1391 4.34681 68.3259C4.73925 65.7285 6.20586 64.0596 8.74664 63.3718C17.4371 61.0192 26.1335 58.6868 34.8219 56.322C37.9979 55.4582 40.6601 56.2208 43.037 58.9335C43.1644 58.6787 43.2271 58.4238 43.3829 58.2619C45.3229 56.2593 47.6816 55.4845 50.3761 56.1986C59.2081 58.5391 68.0239 60.9403 76.8438 63.3253C77.9585 63.6267 78.4783 64.3448 78.2477 65.1641C77.9969 66.0522 77.212 66.3738 76.0246 66.0562C67.3281 63.7238 58.6356 61.3792 49.9391 59.0569C47.0322 58.2801 44.5582 60.0239 44.3721 63.0461C46.1462 63.4224 47.9385 63.8088 49.7348 64.179C60.3308 66.3698 70.9268 68.5565 81.5248 70.7453C82.4453 70.9355 83.3677 71.1216 84.2902 71.3077C85.2875 71.51 85.8013 72.0744 85.7831 73.1364C85.7547 74.8215 85.7871 76.5066 85.7709 78.1916C85.7588 79.5126 85.0953 80.0729 83.7682 79.9354C75.3307 79.0595 66.8931 78.1896 58.4556 77.3117C55.6781 77.0224 52.9047 76.719 50.0747 76.4176C49.9594 76.7008 49.8643 76.9435 49.7611 77.1822C49.0086 78.93 47.6755 79.8949 45.7821 79.9536C43.8623 80.0143 41.9385 80.0204 40.0188 79.9536C37.7916 79.8767 36.4382 78.6144 35.7505 76.4358H35.7484ZM7.30632 70.1223C18.669 67.7696 30.0297 65.419 41.3721 63.0704C41.3843 60.1837 38.7787 58.27 35.9022 59.0367C27.147 61.3712 18.3959 63.7299 9.64885 66.0967C7.67854 66.6287 6.92197 67.9173 7.30632 70.1223Z" fill="#134380"/>
<path d="M16.5694 14.2311C18.9302 15.2446 21.0482 16.1508 23.1662 17.0611C29.4372 19.7516 35.7102 22.436 41.9731 25.1447C42.6023 25.4178 43.1222 25.44 43.7715 25.1589C51.8267 21.6795 59.8961 18.2344 67.9615 14.7773C68.2952 14.6337 68.6209 14.4718 69.0943 14.2513C68.7362 14.0632 68.4955 13.9176 68.2406 13.8083C60.0863 10.3046 51.9259 6.81309 43.7796 3.29121C43.1343 3.01205 42.6104 3.03025 41.9812 3.30537C38.5625 4.80232 35.1377 6.28309 31.6887 7.70722C31.1829 7.91558 30.4769 7.94592 29.9793 7.75375C29.6455 7.62428 29.2571 6.88592 29.3542 6.55416C29.51 6.02416 29.953 5.40312 30.4385 5.17656C32.7831 4.08217 35.1822 3.1051 37.5612 2.08758C38.9833 1.47868 40.4155 0.89406 41.8214 0.252798C42.5497 -0.0789595 43.199 -0.0789595 43.9414 0.24066C53.6352 4.41595 63.3351 8.57505 73.043 12.7139C73.9452 13.0983 74.3316 13.6667 74.3215 14.6397C74.2911 17.6397 74.2911 20.6417 74.3377 23.6417C74.3437 24.0139 74.6209 24.5257 74.9324 24.726C76.7571 25.8952 77.5804 27.7967 77.014 29.7509C76.4941 31.5452 74.722 32.856 72.8448 32.8358C70.9007 32.8156 69.242 31.4946 68.7383 29.5648C68.2305 27.6187 69.0579 25.792 70.9311 24.7199C71.0767 24.6369 71.2224 24.552 71.3943 24.4508V16.4563C69.3896 17.3059 67.4476 18.1191 65.5117 18.9485C58.3749 22.0072 51.236 25.0618 44.1093 28.1447C43.2354 28.523 42.4768 28.4987 41.609 28.1204C37.2051 26.1926 32.781 24.3092 28.363 22.4138C28.0272 22.2701 27.6833 22.1467 27.2383 21.9728C27.2079 22.3268 27.1614 22.608 27.1614 22.8912C27.1574 27.9141 27.1715 32.939 27.1412 37.9619C27.1371 38.6557 27.3354 38.9409 28.0151 39.1372C37.9091 41.9834 47.7951 41.9733 57.6952 39.1675C58.4275 38.9591 58.6359 38.6598 58.6278 37.9315C58.5934 34.0536 58.6116 30.1777 58.6116 26.2998C58.6116 25.9963 58.6075 25.6929 58.6257 25.3895C58.6723 24.5398 59.1861 24.0827 59.9791 24.0361C60.7397 23.9937 61.2495 24.4407 61.4335 25.1831C61.5043 25.4724 61.4861 25.786 61.4861 26.0874C61.4882 30.5034 61.4902 34.9214 61.4861 39.3374C61.4861 40.6948 61.213 41.0953 59.971 41.4817C52.4842 43.806 44.8578 44.682 37.0372 43.8202C33.2767 43.4055 29.6031 42.6429 25.9962 41.5303C24.5195 41.0751 24.2828 40.7595 24.2828 39.2403C24.2828 33.4083 24.2666 27.5742 24.299 21.7422C24.303 20.9633 24.1129 20.5669 23.3442 20.2493C19.8 18.7907 16.2964 17.2392 12.7684 15.7422C12.0745 15.4489 11.494 15.1111 11.4798 14.2574C11.4636 13.3491 12.0806 12.9992 12.8048 12.6917C16.7636 11.0046 20.7144 9.29925 24.6672 7.60203C24.7602 7.56157 24.8573 7.53325 24.9524 7.49886C25.9335 7.12867 26.7022 7.3431 27.042 8.08753C27.4082 8.89062 27.0704 9.70383 26.1075 10.1266C23.5525 11.2453 20.9814 12.3296 18.4164 13.428C17.8924 13.6525 17.3705 13.8832 16.5674 14.2331L16.5694 14.2311ZM71.4672 28.5553C71.4955 29.3038 72.1792 29.9532 72.9216 29.9309C73.6701 29.9107 74.281 29.2472 74.2669 28.4764C74.2507 27.6652 73.6681 27.117 72.8468 27.1373C72.074 27.1575 71.4409 27.8089 71.4672 28.5553Z" fill="#134380"/>
<path d="M4.22383 29.6641C4.8388 30.1212 5.36475 30.4065 5.75517 30.8191C10.1955 35.5244 14.6155 40.2479 19.0396 44.9674C21.4813 47.5729 23.9209 50.1824 26.3605 52.792C26.4981 52.9397 26.6478 53.0772 26.7752 53.235C27.3153 53.9026 27.3457 54.6025 26.7793 55.2498C26.2371 55.8709 25.3673 55.8729 24.7179 55.2154C23.4637 53.945 22.2581 52.6261 21.0362 51.3234C15.2062 45.1029 9.3782 38.8825 3.54818 32.662C3.0465 32.1259 2.55493 31.5454 3.00806 30.7969C3.25688 30.3862 3.72822 30.1111 4.22181 29.6641H4.22383Z" fill="#134380"/>
<path d="M60.1049 55.9496C59.5546 55.5106 58.9113 55.2496 58.8183 54.8592C58.6929 54.3292 58.8001 53.5342 59.1399 53.1397C60.7239 51.3029 62.4211 49.5632 64.0799 47.7932C69.3354 42.1857 74.5929 36.5782 79.8525 30.9747C80.9145 29.8419 81.8087 29.6355 82.5025 30.3415C83.2045 31.0536 83.0467 31.7798 81.9563 32.941C75.3192 40.0252 68.686 47.1155 62.0408 54.1937C61.4825 54.7864 60.8331 55.2941 60.1049 55.9516V55.9496Z" fill="#134380"/>
<path d="M8.51853 46.8911C9.04247 47.2168 9.48953 47.3948 9.80712 47.7084C12.0586 49.9235 14.2919 52.1588 16.5151 54.4022C17.3141 55.2093 17.3789 55.9618 16.768 56.6173C16.1328 57.299 15.3135 57.2504 14.4821 56.4251C12.2164 54.1756 9.93659 51.9383 7.74173 49.622C7.38773 49.2478 7.25624 48.4548 7.36345 47.9248C7.44234 47.5344 8.08158 47.2593 8.51853 46.8911Z" fill="#134380"/>
<path d="M69.9741 57.3234C69.519 56.9451 68.9586 56.6923 68.7927 56.2796C68.6269 55.8689 68.6916 55.1832 68.9445 54.8211C69.436 54.113 70.1258 53.5426 70.7428 52.9236C72.4987 51.1616 74.2586 49.4017 76.0206 47.6438C76.6214 47.045 77.3112 46.9034 78.0132 47.4152C78.6463 47.8764 78.7111 48.5359 78.3955 49.2156C78.2863 49.4502 78.0779 49.6485 77.8898 49.8366C75.705 52.0274 73.5243 54.2223 71.3194 56.3929C70.9775 56.7307 70.5223 56.9512 69.9741 57.3254V57.3234Z" fill="#134380"/>
<path d="M50.0694 52.8361C48.8719 52.7896 48.1355 51.4808 48.8456 50.6393C49.8388 49.4639 50.9636 48.3898 52.1126 47.3621C52.6304 46.8989 53.4234 46.9515 53.8179 47.5381C54.1051 47.967 54.3256 48.8652 54.089 49.1463C53.035 50.3965 51.8152 51.5091 50.6318 52.648C50.4821 52.7916 50.1969 52.7957 50.0674 52.8361H50.0694Z" fill="#134380"/>
<path d="M37.1752 51.2866C37.1287 52.4963 35.8057 53.2286 34.9622 52.5145C33.8091 51.5395 32.7572 50.433 31.7417 49.3102C31.2663 48.7843 31.3573 48.1005 31.8469 47.5624C32.3405 47.0203 33.0546 46.8463 33.5744 47.3015C34.7619 48.3413 35.8441 49.5004 36.9426 50.6413C37.1105 50.8153 37.1246 51.1349 37.1752 51.2886V51.2866Z" fill="#134380"/>
<path d="M44.3073 49.9415C44.3073 50.4452 44.3377 50.9509 44.2992 51.4506C44.2385 52.2516 43.575 52.8848 42.8387 52.8059C42.0578 52.721 41.5096 52.288 41.4752 51.4546C41.4348 50.4492 41.4307 49.4398 41.4752 48.4364C41.5096 47.6131 42.157 47.0305 42.9317 47.0952C43.7308 47.162 44.2385 47.601 44.2992 48.4324C44.3356 48.932 44.3053 49.4378 44.3053 49.9415H44.3073Z" fill="#134380"/>
<path d="M7.30673 70.1221C6.92237 67.9171 7.67894 66.6285 9.64926 66.0965C18.3963 63.7317 27.1474 61.373 35.9026 59.0365C38.7792 58.2699 41.3847 60.1835 41.3725 63.0702C30.0301 65.4188 18.6694 67.7694 7.30673 70.1221Z" fill="white"/>
<path d="M71.4677 28.5553C71.4394 27.8089 72.0746 27.1575 72.8473 27.1373C73.6707 27.117 74.2512 27.6652 74.2674 28.4764C74.2836 29.2472 73.6707 29.9107 72.9222 29.9309C72.1798 29.9511 71.496 29.3038 71.4677 28.5553Z" fill="white"/>
</g>
<defs>
<clipPath id="clip0_2585_4578">
<rect width="85.7795" height="80" fill="white"/>
</clipPath>
</defs>
</svg>
