<svg width="82" height="80" viewBox="0 0 82 80" fill="none" xmlns="http://www.w3.org/2000/svg">
<g clip-path="url(#clip0_2584_4567)">
<path d="M50.2403 33.0737C50.5073 33.0046 50.8453 33.0162 51.0297 32.8532C51.6769 32.2836 52.2531 31.6336 52.8908 31.0526C55.3108 28.8512 59.008 28.926 61.3147 31.2098C63.5869 33.4591 63.802 37.1926 61.5798 39.5301C58.3416 42.9375 54.967 46.2146 51.6289 49.5281C50.9106 50.2415 50.2441 50.2242 49.5277 49.5128C46.2127 46.2242 42.8458 42.9797 39.6556 39.5722C38.8105 38.671 38.1268 38.4716 37.0647 38.7439C35.4897 39.1485 33.9263 39.3306 32.4244 38.4121C32.2016 38.276 31.7982 38.3814 31.4929 38.4447C29.1862 38.926 27.2482 38.4351 25.8462 36.4045C25.7156 36.2146 25.4025 36.0631 25.1643 36.0478C20.2244 35.7256 16.1853 33.6413 13.143 29.7678C12.0041 28.3182 10.7211 27.2463 8.99633 26.5502C6.39386 25.5013 3.87205 24.2491 1.29838 23.1216C0.395681 22.7285 -0.00381386 22.1437 2.7427e-05 21.137C0.0269165 14.6806 0.0115513 8.22612 0.0153926 1.76975C0.0173132 0.134082 0.916176 -0.414336 2.39891 0.320084C7.63267 2.91261 12.8568 5.52622 18.1002 8.09765C18.6188 8.35268 19.2507 8.50033 19.8269 8.49266C26.3244 8.40446 32.8219 8.27598 39.3214 8.15709C41.8202 8.11107 43.8407 9.08518 45.454 10.9778C46.9272 12.7055 48.4157 14.4198 49.9253 16.1168C51.7768 18.1974 52.474 20.579 51.8229 23.298C51.4945 24.6652 51.3619 25.9366 51.7787 27.3786C52.3549 29.3709 51.6366 31.2194 50.1116 32.7036C50.1539 32.8263 50.198 32.949 50.2403 33.0718V33.0737ZM2.84258 3.61059C2.79073 3.78701 2.74655 3.87138 2.74655 3.95575C2.74079 9.35556 2.72734 14.7554 2.7696 20.1571C2.77152 20.4697 3.16717 20.9164 3.48984 21.0698C5.53533 22.0459 7.57313 23.0526 9.68584 23.8599C12.0252 24.7534 13.9958 26.0248 15.3441 28.1724C15.5611 28.5195 15.8684 28.8186 16.1642 29.1082C19.4946 32.3814 23.3993 34.0881 28.0779 32.9011C29.964 32.4236 31.6734 31.2827 33.4999 30.5348C34.1779 30.2568 34.9808 30.0631 35.6933 30.1379C39.0621 30.4888 42.4194 30.9375 45.7805 31.3671C47.392 31.5722 48.8536 30.602 49.1647 29.0775C49.4759 27.5588 48.5098 26.0938 46.906 25.6969C46.0091 25.4744 45.0987 25.2999 44.1941 25.1063C40.8234 24.3853 37.4507 23.6758 34.0838 22.9433C33.0889 22.7266 32.5838 22.0459 32.7662 21.2731C32.9602 20.4466 33.6094 20.0957 34.6293 20.2798C35.4321 20.4236 36.233 20.5847 37.1837 20.765C36.8976 20.0056 36.6671 19.4188 36.4558 18.8244C36.1427 17.9366 36.4193 17.1619 37.13 16.8915C37.8905 16.602 38.6146 16.9375 38.9795 17.7985C39.3406 18.648 39.6556 19.5185 39.9917 20.3776C40.4911 21.6509 40.9271 21.9001 42.3887 21.741C42.4732 21.4112 42.5539 21.0718 42.646 20.7381C42.89 19.8484 43.5756 19.3766 44.3247 19.5761C45.0853 19.7774 45.4675 20.5003 45.2985 21.3997C45.2312 21.7582 45.1909 22.1226 45.1371 22.4792C46.4758 22.811 47.705 23.1178 48.9419 23.4246C49.6775 21.3421 49.3165 19.4783 47.7665 17.8023C46.3126 16.23 44.9124 14.6058 43.5507 12.9529C42.3676 11.5147 40.929 10.8378 39.0448 10.8858C32.5166 11.0488 25.9883 11.1657 19.46 11.252C18.759 11.2616 17.9926 11.0871 17.3607 10.7803C12.9951 8.65565 8.6583 6.47349 4.30996 4.31241C3.83556 4.07656 3.34963 3.85796 2.8349 3.61251L2.84258 3.61059ZM50.4516 46.7592C50.7358 46.5272 50.8645 46.439 50.974 46.3316C53.7378 43.578 56.5112 40.834 59.2558 38.0612C60.7366 36.5655 60.7673 34.4447 59.3922 33.1044C58.0151 31.7621 55.9504 31.8599 54.4311 33.3517C53.5188 34.2472 52.6334 35.1734 51.7077 36.0555C50.8952 36.8321 50.2749 36.8129 49.4624 36.0382C48.9304 35.5301 48.4368 34.9836 47.8875 34.4946C47.6724 34.3028 47.3612 34.1437 47.0789 34.113C45.4291 33.9423 43.7658 33.8714 42.1256 33.6413C41.4552 33.5473 41.1806 33.7621 40.9885 34.3067C40.4892 35.7199 40.8138 36.949 41.8528 37.9941C43.8829 40.0344 45.9342 42.0535 47.9586 44.0996C48.8094 44.9586 49.6142 45.8618 50.4535 46.7592H50.4516ZM38.363 33.229C37.8406 33.1485 37.372 33.0411 36.8995 33.0104C35.943 32.951 34.998 32.6269 34.0473 33.2597C33.2656 33.7793 33.0774 34.4179 33.2848 35.2098C33.4826 35.9749 34.1049 36.4025 34.8598 36.3393C35.9199 36.251 36.9648 35.9999 37.9366 35.833C38.0903 34.8915 38.2228 34.0842 38.3611 33.229H38.363Z" fill="#134380"/>
<path d="M35.2113 56.8359C35.6492 55.9999 35.9507 55.2156 36.427 54.556C37.5372 53.02 39.1351 52.37 40.9982 52.3623C44.9681 52.3489 48.94 52.3796 52.91 52.3316C53.4228 52.3259 54.0374 52.0958 54.4292 51.7621C59.6841 47.3096 67.7854 47.2559 73.0806 51.7104C73.6299 52.1725 74.1658 52.393 74.886 52.3719C76.4859 52.3259 78.0878 52.347 79.6896 52.3604C80.9918 52.37 81.4815 52.8647 81.4815 54.1686C81.4854 60.2415 81.4873 66.3144 81.4815 72.3872C81.4815 73.6336 80.9803 74.2453 79.7395 74.1207C74.0755 73.5474 68.8206 75.3748 63.487 76.7612C59.8435 77.7084 56.2097 78.694 52.5566 79.5991C48.9938 80.4831 45.6096 79.8964 42.5251 77.9577C34.6773 73.0258 26.8661 68.0363 19.049 63.0584C16.9536 61.7238 15.928 59.4956 16.4024 57.2406C16.8941 54.9011 18.3057 53.3153 20.6777 52.8685C21.6649 52.6825 22.802 52.788 23.77 53.0852C27.6113 54.2684 31.4122 55.578 35.2151 56.8379L35.2113 56.8359ZM78.7024 55.0987C77.1774 55.0987 75.7119 55.0546 74.2484 55.114C73.2573 55.1543 72.5044 54.859 71.7515 54.1936C67.021 50.0133 60.3986 50.0708 55.7218 54.3163C55.1053 54.8762 54.483 55.1159 53.6629 55.1102C49.5969 55.0833 45.5328 55.0948 41.4668 55.1025C41.0212 55.1025 40.566 55.1217 40.132 55.2137C38.5244 55.555 37.6351 57.2444 38.2382 58.7688C38.7779 60.1322 39.8899 60.533 41.2363 60.533C45.3984 60.533 49.5585 60.5272 53.7205 60.5426C54.1546 60.5426 54.7423 60.5196 54.9881 60.7708C55.3319 61.1236 55.622 61.7449 55.572 62.2147C55.4856 63.043 54.7538 63.2655 53.9856 63.2655C49.6007 63.2655 45.214 63.2942 40.8291 63.2501C38.6895 63.229 37.0378 62.2664 35.943 60.3872C35.7836 60.115 35.4955 59.8331 35.2055 59.7353C31.0358 58.3278 26.8584 56.9414 22.6714 55.5857C22.2104 55.4361 21.6496 55.417 21.1752 55.5205C19.9978 55.7794 19.2891 56.5905 19.0855 57.7583C18.8589 59.0603 19.4082 60.0613 20.5106 60.7612C28.3046 65.7103 36.0909 70.673 43.9022 75.5934C46.3875 77.16 49.111 77.6643 51.9939 76.9203C57.3064 75.5512 62.6035 74.1226 67.9256 72.7899C70.1728 72.2281 72.4545 71.7621 74.7458 71.4208C76.0211 71.231 77.3464 71.3863 78.7004 71.3863V55.0948L78.7024 55.0987Z" fill="#134380"/>
</g>
<defs>
<clipPath id="clip0_2584_4567">
<rect width="81.4815" height="80" fill="white"/>
</clipPath>
</defs>
</svg>
