<svg width="94" height="75" viewBox="0 0 94 75" fill="none" xmlns="http://www.w3.org/2000/svg">
<g clip-path="url(#clip0_2587_4612)">
<path d="M93.1661 62.1185H64.4675C66.3748 66.3039 66.2054 70.6062 66.1001 75.0001H27.2972C27.1576 70.6474 27.0019 66.3314 28.9069 62.1185H0.302187C-1.56846 49.5597 5.42644 40.2179 16.284 38.9563C25.5686 37.8779 33.6625 43.8539 35.9292 53.2094C35.9544 53.317 35.9911 53.4223 36.0437 53.5941C43.1073 49.3948 50.1755 49.3582 57.3375 53.6032C58.6495 47.6982 61.9123 43.2815 67.3296 40.6094C71.3456 38.6289 75.5975 38.1801 79.8952 39.4531C88.312 41.9466 94.5696 49.0239 93.1661 62.1162V62.1185ZM63.412 72.3624C63.9615 65.3057 61.6925 59.5426 55.6844 55.7441C49.6969 51.9593 43.437 52.0028 37.4977 55.8769C31.6247 59.7052 29.4152 65.4133 29.9738 72.3647H63.4143L63.412 72.3624ZM90.7963 59.5243C90.6429 57.4911 90.6978 55.5975 90.3269 53.791C88.7883 46.2969 82.2078 41.2162 74.5374 41.4566C67.1464 41.6901 60.9071 47.3387 59.8355 54.8167C59.7829 55.19 59.9867 55.6868 60.2317 56.0028C60.93 56.9049 61.7909 57.688 62.4343 58.6222C62.906 59.3045 63.3983 59.5426 64.2111 59.5403C72.6004 59.5128 80.9874 59.5243 89.3767 59.5243H90.7963ZM2.8002 59.5243H4.21521C12.3366 59.5243 20.458 59.5014 28.5794 59.5495C29.7472 59.5563 30.5714 59.3457 31.2148 58.2741C31.7163 57.4384 32.5245 56.795 33.1382 56.0211C33.3694 55.728 33.6007 55.293 33.564 54.9495C32.6573 46.0199 23.3545 39.6294 14.553 41.8642C6.70865 43.8562 2.00569 50.8373 2.79791 59.5243H2.8002Z" fill="#134380"/>
<path d="M46.6057 47.8951C40.2541 47.8516 34.9879 42.5189 35.0177 36.1629C35.0475 29.7587 40.4236 24.4742 46.83 24.5451C53.1816 24.6161 58.4226 29.9739 58.363 36.33C58.3012 42.6861 52.964 47.9386 46.6057 47.8928V47.8951ZM55.7116 36.3689C55.8353 31.405 51.9222 27.3477 46.8644 27.1943C41.9141 27.0454 37.8386 30.9539 37.6691 36.014C37.502 41.0101 41.4791 45.1383 46.5667 45.2505C51.5193 45.3604 55.5857 41.4085 55.7093 36.3666L55.7116 36.3689Z" fill="#134380"/>
<path d="M18.2099 15.5283C23.9455 15.5215 28.6141 20.1855 28.5958 25.9096C28.5775 31.5628 23.9043 36.22 18.2442 36.2245C12.5201 36.2291 7.82173 31.5193 7.86752 25.8272C7.91331 20.0985 12.4949 15.5375 18.2099 15.5283ZM10.5006 25.9096C10.5075 30.1661 13.9626 33.6258 18.2099 33.6349C22.4847 33.6441 26.0176 30.0905 25.9741 25.8249C25.9306 21.541 22.5007 18.1317 18.2374 18.1294C13.8985 18.1271 10.4938 21.5524 10.5029 25.9119L10.5006 25.9096Z" fill="#134380"/>
<path d="M85.5091 26.0127C85.3557 31.9063 80.6551 36.3574 74.7226 36.22C69.1656 36.0918 64.6298 31.1919 64.7923 25.4929C64.9526 19.9131 69.7357 15.4047 75.3568 15.5329C81.0947 15.6635 85.6534 20.3687 85.5068 26.0104L85.5091 26.0127ZM82.8829 25.8341C82.876 21.5021 79.437 18.1088 75.0706 18.1248C70.8416 18.1409 67.3888 21.6417 67.4094 25.8959C67.43 30.1455 70.8782 33.6006 75.1301 33.6327C79.4049 33.6647 82.8898 30.1593 82.8806 25.8341H82.8829Z" fill="#134380"/>
<path d="M26.0059 9.0465C26.0059 4.02528 29.9853 0.0183789 34.9859 6.16063e-05C40.0186 -0.0182556 44.1377 4.05046 44.1399 9.03734C44.1399 13.999 39.9705 18.141 34.9973 18.1204C30.0448 18.0998 26.0081 14.0242 26.0081 9.0465H26.0059ZM41.4633 9.09458C41.4839 5.48379 38.6425 2.58279 35.0683 2.56906C31.5491 2.55303 28.6321 5.41968 28.6 8.92285C28.568 12.5886 31.4598 15.5308 35.0683 15.4987C38.6425 15.469 41.4404 12.6642 41.461 9.09458H41.4633Z" fill="#134380"/>
<path d="M67.375 9.06025C67.3658 14.086 63.2742 18.1525 58.2553 18.1204C53.3463 18.0907 49.2272 13.9326 49.2432 9.02591C49.2592 4.02987 53.3738 -0.0205286 58.4087 7.82829e-05C63.407 0.0206852 67.3842 4.04132 67.375 9.06025ZM51.9175 9.05567C51.9244 12.6733 54.8002 15.5377 58.3858 15.4988C61.9325 15.4598 64.7717 12.6069 64.7808 9.07628C64.79 5.47923 61.9187 2.57594 58.3492 2.56907C54.775 2.5622 51.9107 5.45175 51.9175 9.05567Z" fill="#134380"/>
</g>
<defs>
<clipPath id="clip0_2587_4612">
<rect width="93.3653" height="75" fill="white"/>
</clipPath>
</defs>
</svg>
