<svg width="80" height="86" viewBox="0 0 80 86" fill="none" xmlns="http://www.w3.org/2000/svg">
<g clip-path="url(#clip0_2585_4574)">
<path d="M40.0954 6.79046C43.7086 2.86113 47.9992 0.400981 53.419 0.25486C57.3111 0.151247 60.8499 1.17409 64.0247 3.40311C67.6034 5.91373 69.9652 9.30906 71.0173 13.5545C72.0667 17.7814 71.546 21.8781 69.5561 26.0147C71.1422 26.0147 72.5343 26.0227 73.9238 26.012C74.859 26.0041 75.64 26.2193 75.7011 27.3298C75.7649 28.5041 74.9759 28.868 73.9929 28.8893C72.1783 28.9265 70.3611 28.8574 68.5492 28.9345C68.0444 28.9557 67.4307 29.2028 67.0747 29.5561C59.2267 37.3617 51.4185 45.2044 43.5784 53.0179C41.4822 55.1087 38.6634 55.1486 36.5991 53.0949C28.8467 45.3824 21.1103 37.6539 13.411 29.8856C12.6857 29.1523 11.9976 28.8441 10.996 28.884C9.35948 28.9477 7.72027 28.9212 6.08371 28.8893C5.16182 28.8707 4.39402 28.5439 4.38871 27.4493C4.38339 26.461 4.96257 26.028 5.919 26.0306C7.37755 26.0359 8.8361 26.0306 10.3505 26.0306C6.68414 16.4929 8.20911 8.20119 17.1358 2.78143C25.5045 -2.30093 33.3287 -0.0984879 40.0954 6.79046ZM47.9036 24.0354C48.7484 22.9275 49.3914 22.0429 50.0768 21.1927C51.1422 19.8696 52.1544 19.9493 52.9408 21.4371C53.5837 22.6486 54.2054 23.8707 54.7633 25.122C55.0795 25.834 55.5205 26.0572 56.2883 26.0439C59.2107 25.9988 62.1358 25.9855 65.0556 26.0519C65.9615 26.0731 66.4211 25.7092 66.8037 24.9786C68.326 22.08 69.0354 19.0434 68.5146 15.7623C67.6193 10.1273 64.5269 6.12627 59.2479 4.10449C53.9238 2.06411 48.8919 2.95412 44.4604 6.62574C43.3048 7.58217 42.2872 8.70863 41.2059 9.75273C40.4302 10.5019 39.6544 10.5099 38.8839 9.74476C38.1932 9.05932 37.4998 8.37388 36.8117 7.68313C33.9769 4.82978 30.5869 3.18791 26.5327 3.12946C20.8951 3.0471 16.4689 5.40098 13.5545 10.2017C10.6082 15.0556 10.6374 20.1008 13.3871 25.0715C13.6395 25.5285 14.3781 25.9748 14.8988 25.9855C18.8388 26.0625 22.7814 26.0094 26.7213 26.0439C27.4387 26.0492 27.8239 25.8393 28.14 25.1778C29.1443 23.063 30.1645 20.9536 31.3069 18.9132C31.6416 18.3154 32.351 17.6778 32.9859 17.5529C33.9397 17.3643 34.2293 18.3048 34.487 19.0859C35.6268 22.5211 36.7771 25.9536 37.9275 29.3861C38.0524 29.758 38.2038 30.122 38.342 30.4913C39.9918 25.215 41.3706 20.0158 42.7522 14.8165C42.978 13.961 43.3127 13.1481 44.3675 13.1879C45.4089 13.2278 45.6985 14.0434 45.8871 14.9148C46.5247 17.8478 47.181 20.7756 47.9009 24.0381L47.9036 24.0354ZM44.317 21.206C44.2346 21.2166 44.1523 21.2246 44.0699 21.2352C42.7654 26.0917 41.4557 30.9483 40.1671 35.8101C39.9466 36.639 39.6278 37.3856 38.674 37.4148C37.7282 37.444 37.351 36.74 37.08 35.9164C35.8579 32.1837 34.6039 28.4589 33.3552 24.7341C33.156 24.139 32.9222 23.5545 32.6167 22.7363C31.9312 24.0779 31.2272 25.1247 30.8446 26.2777C30.1193 28.4562 28.7059 29.0806 26.5008 28.9424C23.6342 28.7644 20.7463 28.8946 17.8664 28.9026C17.5024 28.9026 17.1411 28.9663 16.6788 29.0115C16.8595 29.2612 16.9232 29.3781 17.0136 29.4658C24.1523 36.6071 31.2909 43.7485 38.4403 50.8765C39.5534 51.9844 40.5842 51.9392 41.7638 50.7623C48.7883 43.7591 55.8074 36.748 62.8239 29.7341C63.0205 29.5375 63.1719 29.2958 63.4828 28.8973C60.6055 28.8973 57.9567 28.8521 55.3079 28.9159C53.9955 28.9477 53.1108 28.5413 52.6113 27.274C52.2607 26.3866 51.7665 25.5577 51.2298 24.4924C50.3451 25.6587 49.6544 26.7347 48.7936 27.6486C48.3074 28.1667 47.4652 28.8096 46.9259 28.698C46.3946 28.5891 45.8473 27.6566 45.656 26.9844C45.114 25.0848 44.7474 23.1348 44.3143 21.2033L44.317 21.206Z" fill="#134380"/>
<path d="M11.5143 47.5106C15.8687 46.9925 18.5679 49.3782 18.6131 53.5493C18.629 55.0982 18.6636 56.6498 18.5971 58.196C18.56 59.0594 18.8283 59.5695 19.6094 59.9813C21.3309 60.8846 23.0074 61.8703 24.6838 62.8586C29.1816 65.5074 31.4053 69.5005 31.5143 74.6731C31.578 77.7709 31.5275 80.8713 31.5249 83.9691C31.5249 85.0026 31.2486 85.882 30.0132 85.8634C28.8575 85.8448 28.5759 85.0265 28.6157 84.0276C28.6264 83.7619 28.6157 83.4962 28.6157 83.2305C28.6157 80.3984 28.6397 77.5637 28.6104 74.7316C28.5679 70.5924 26.7879 67.4335 23.1933 65.3373C21.2459 64.2029 19.3224 63.018 17.3166 61.9978C16.1051 61.3814 15.7039 60.5578 15.7544 59.2534C15.8315 57.221 15.7996 55.1806 15.7438 53.1455C15.7119 51.9606 15.1779 51.0281 14.0408 50.518C13.0047 50.0531 11.9154 50.1248 11.2114 50.9192C10.6216 51.586 10.1859 52.5743 10.0929 53.4617C9.91755 55.1248 10.0185 56.8225 10.0504 58.5015C10.069 59.5031 9.65985 60.2045 8.6556 60.2311C7.64338 60.2576 7.17313 59.5297 7.1625 58.5653C7.14125 56.7056 7.11734 54.8458 7.18376 52.9888C7.20767 52.298 7.28471 51.4718 7.66994 50.9564C8.80703 49.4314 8.66622 47.7337 8.64763 46.0228C8.63169 44.5616 8.70342 43.0977 8.60778 41.6418C8.50151 39.9866 7.29003 38.8549 5.79162 38.8389C4.35166 38.823 2.95953 39.9043 2.97016 41.4611C3.01001 47.3299 2.30065 53.2412 3.61043 59.0568C4.98131 65.1434 8.33413 69.9441 13.4032 73.5467C15.2045 74.8272 17.0536 76.0387 18.9186 77.2289C19.7528 77.7603 20.1407 78.4192 20.1115 79.4128C20.0663 80.9617 20.1062 82.5106 20.0956 84.0594C20.0902 85.0477 19.7741 85.8634 18.6264 85.8634C17.476 85.8634 17.1944 85.077 17.1811 84.0621C17.1598 82.5318 17.5344 80.7491 16.8782 79.543C16.2433 78.3713 14.5376 77.7629 13.2704 76.9553C6.56474 72.6832 2.2183 66.7454 0.62159 58.916C0.244331 57.0669 0.0955535 55.1487 0.0530456 53.2571C-0.0346271 49.5403 -0.00274616 45.8209 0.0371051 42.1014C0.0742995 38.7884 1.83307 36.6312 4.86176 36.0573C7.85857 35.4888 10.9696 37.6354 11.3469 40.6801C11.5515 42.3405 11.4691 44.0355 11.5089 45.7146C11.5222 46.2805 11.5089 46.8464 11.5089 47.5052L11.5143 47.5106Z" fill="#134380"/>
<path d="M68.5968 47.5079C68.5968 45.51 68.5171 43.6104 68.6128 41.7215C68.8439 37.1651 73.2993 34.5615 77.1223 36.7188C78.7615 37.6434 79.9278 39.0567 79.9305 40.951C79.9411 46.5196 80.2121 52.1386 79.5931 57.6487C78.6792 65.7916 74.2158 72.0004 67.4385 76.5488C66.227 77.3617 65.0315 78.2066 63.7775 78.9505C63.0708 79.3702 62.8396 79.8724 62.8848 80.6694C62.9512 81.8623 62.9061 83.0605 62.9008 84.256C62.8981 85.1726 62.5208 85.8261 61.5352 85.866C60.4698 85.9085 60.0235 85.2257 60.0049 84.2666C59.9704 82.5397 59.9093 80.8049 60.0421 79.0886C60.0873 78.4882 60.5442 77.7549 61.0384 77.3857C62.5952 76.222 64.2637 75.2098 65.8763 74.1205C73.007 69.3038 76.8088 62.5849 77.1489 53.9983C77.3056 50.0185 77.2286 46.0281 77.1781 42.0429C77.1462 39.4499 74.811 37.9675 72.8768 39.3516C72.1887 39.8431 71.5857 40.8952 71.5192 41.7374C71.3333 44.07 71.4475 46.4266 71.4528 48.7751C71.4528 48.9877 71.4528 49.2613 71.5724 49.4074C73.1478 51.3336 72.9512 53.6237 72.9406 55.8766C72.9353 56.7188 72.9406 57.5583 72.938 58.4005C72.9326 59.4048 72.558 60.2337 71.4661 60.2337C70.3768 60.2337 70.0182 59.442 70.0421 58.4032C70.0793 56.7666 70.0713 55.1248 70.0447 53.4882C70.0155 51.5727 68.8838 50.3001 67.2313 50.2656C65.5867 50.2284 64.3779 51.477 64.3274 53.3899C64.2716 55.5153 64.2849 57.6407 64.3221 59.7661C64.3381 60.7199 63.9767 61.323 63.1345 61.7826C61.0012 62.9489 58.8944 64.1604 56.8009 65.3984C53.3152 67.46 51.5511 70.5552 51.4927 74.5881C51.4475 77.6885 51.4714 80.7889 51.49 83.8894C51.4953 84.9096 51.3439 85.8341 50.0926 85.8633C48.8598 85.8926 48.5623 85.0105 48.5809 83.9744C48.6446 80.1274 48.5065 76.2592 48.8519 72.4361C49.2105 68.4749 51.3997 65.4197 54.7552 63.2889C56.583 62.1279 58.4799 61.0732 60.3901 60.053C61.2509 59.5934 61.5618 59.0249 61.5113 58.0578C61.4316 56.5567 61.4767 55.0477 61.4927 53.5413C61.5378 49.3702 64.2238 47.0004 68.6048 47.5079H68.5968Z" fill="#134380"/>
</g>
<defs>
<clipPath id="clip0_2585_4574">
<rect width="80" height="85.8688" fill="white"/>
</clipPath>
</defs>
</svg>
