<svg width="80" height="80" viewBox="0 0 80 80" fill="none" xmlns="http://www.w3.org/2000/svg">
<g clip-path="url(#clip0_2586_4610)">
<path d="M1.79697e-05 39.9687C-0.00403113 18.3141 17.1763 0.153926 39.0799 6.0784e-05C61.8661 -0.159878 79.0485 18.1967 79.1517 39.9484C79.255 61.933 61.1454 80.3037 39.1649 79.996C17.069 79.6883 -0.0202275 61.5423 1.79697e-05 39.9687ZM39.007 50.0934C39.2034 49.9659 39.2681 49.9375 39.3127 49.891C41.7482 47.4615 44.1878 45.0321 46.6173 42.5965C47.9271 41.2826 49.2937 40.0173 50.5064 38.6183C52.531 36.28 52.2799 32.8848 50.0347 30.7793C47.8441 28.7243 44.4773 28.7405 42.2483 30.8319C41.5842 31.4555 40.9667 32.1256 40.3067 32.7552C39.4443 33.5752 38.7134 33.5671 37.8429 32.7309C37.2578 32.1701 36.703 31.581 36.122 31.0161C33.7492 28.7122 30.3136 28.6494 28.0441 30.8643C25.7361 33.1176 25.7077 36.612 27.9955 39.0252C28.7607 39.833 29.5685 40.6003 30.3541 41.3899C33.2309 44.281 36.1058 47.174 39.009 50.0914L39.007 50.0934ZM19.13 41.4142C19.2413 46.6375 19.8811 51.624 21.1788 56.5295C21.3509 57.1814 21.7295 57.1652 22.2154 57.1652C27.0682 57.1611 31.9211 57.1632 36.7719 57.1591C37.033 57.1591 37.2942 57.1247 37.6566 57.0984C37.6566 55.7075 37.6748 54.3693 37.6384 53.0311C37.6323 52.8063 37.4218 52.5492 37.2436 52.3711C33.7472 48.8605 30.2447 45.356 26.7342 41.8637C26.5337 41.6653 26.2402 41.4385 25.9871 41.4345C23.7378 41.4021 21.4865 41.4142 19.132 41.4142H19.13ZM40.5153 57.0862C40.7805 57.1227 40.9101 57.1571 41.0396 57.1571C46.0605 57.1611 51.0814 57.149 56.1002 57.1794C56.7278 57.1834 56.9404 56.9121 57.0255 56.3938C57.6591 52.4824 58.3252 48.5771 58.8982 44.6555C59.05 43.6169 58.9204 42.5378 58.9204 41.4142C56.6853 41.4142 54.4664 41.398 52.2475 41.4345C51.9641 41.4385 51.6341 41.6774 51.4134 41.896C47.9231 45.3641 44.4449 48.8443 40.9789 52.3346C40.7623 52.5533 40.5436 52.8873 40.5335 53.1748C40.4849 54.4503 40.5132 55.7298 40.5132 57.0862H40.5153ZM2.01444 38.4847H15.917C16.6539 33.2047 17.3767 28.0259 18.1035 22.8066C14.3865 22.8066 10.4771 22.7944 6.56967 22.8349C6.31661 22.837 5.95826 23.2014 5.83274 23.4808C5.15857 24.983 4.45807 26.4811 3.92764 28.036C2.77972 31.3927 2.1015 34.8466 2.01444 38.4847ZM15.919 41.4749H2.05088C2.03874 41.7037 2.01647 41.8677 2.02457 42.0317C2.26549 47.1842 3.61991 52.0411 5.94004 56.6307C6.08176 56.9101 6.62029 57.1328 6.97661 57.1368C10.5155 57.1733 14.0565 57.1611 17.5954 57.1571C17.8444 57.1571 18.0954 57.1105 18.0894 57.1105C17.3646 51.8872 16.6479 46.7347 15.917 41.4749H15.919ZM59.8659 57.1571C63.7692 57.1571 67.6422 57.1713 71.5151 57.1267C71.7965 57.1227 72.1812 56.7441 72.3331 56.4465C74.0175 53.1606 75.1188 49.6744 75.7141 46.0363C75.959 44.532 76.0602 43.0055 76.2263 41.4851H62.0443C61.8074 44.1453 61.6738 46.7408 61.3175 49.3059C60.9571 51.8953 60.3741 54.4543 59.8639 57.1591L59.8659 57.1571ZM76.0987 38.511C76.123 38.3045 76.1473 38.2033 76.1433 38.1061C75.9125 32.8868 74.5641 27.9611 72.2318 23.3006C72.1083 23.0536 71.671 22.839 71.3714 22.8268C70.0939 22.7742 68.8103 22.8046 67.5308 22.8046C64.9758 22.8046 62.4209 22.8046 60.0764 22.8046C60.8073 28.0643 61.5301 33.2674 62.2589 38.513H76.0987V38.511ZM22.4016 19.8508H37.6202V2.98424C30.9169 3.57339 24.8129 11.7566 22.4016 19.8508ZM40.5902 2.92351V19.8831H55.8067C54.76 15.6093 51.0834 9.47697 47.83 6.56769C45.7609 4.71726 43.4529 3.33854 40.5902 2.92553V2.92351ZM37.6262 60.1251H22.2134C22.9624 61.8601 23.584 63.498 24.3614 65.0589C26.3495 69.0574 28.8154 72.6894 32.662 75.1654C34.1643 76.1332 35.7798 76.8235 37.6242 77.024V60.1251H37.6262ZM55.7783 60.1129H40.5537V76.9754C47.1639 76.4024 53.276 68.3974 55.7783 60.1129ZM58.9467 38.4968C58.9953 38.3794 59.0419 38.3187 59.0399 38.2579C58.9144 33.2553 58.2847 28.3215 57.0072 23.4747C56.8453 22.8592 56.5193 22.7965 55.999 22.7965C51.1057 22.8086 46.2123 22.8025 41.319 22.8086C41.0659 22.8086 40.8108 22.8653 40.5861 22.8916V28.3559C43.9975 25.9629 47.504 25.5357 50.9295 27.8659C54.764 30.4736 55.4524 34.2271 54.0919 38.4968H58.9488H58.9467ZM37.6323 22.8633C37.3711 22.837 37.2092 22.8086 37.0472 22.8086C32.0587 22.8066 27.0702 22.8248 22.0818 22.7843C21.2962 22.7782 21.1849 23.2378 21.0978 23.7602C20.4783 27.4367 19.8305 31.1113 19.3 34.802C19.1259 36.0066 19.2737 37.2578 19.2737 38.4887H24.0921C22.7782 34.632 23.2499 31.1558 26.3819 28.4976C29.9674 25.4547 33.81 25.7442 37.6323 28.3356V22.8633ZM7.92207 19.9317C11.4306 19.9317 14.8339 19.9034 18.2351 19.952C19.0429 19.9641 19.3911 19.7313 19.6584 18.9539C21.2031 14.4675 23.3329 10.2888 26.4183 6.64463C27.0055 5.95021 27.6493 5.30235 28.3498 4.54112C21.8044 5.57769 10.9427 13.769 7.92207 19.9317ZM7.8998 60.034C11.874 66.8567 23.0758 75.2242 28.3052 75.3213C24.5234 71.6549 22.0392 67.2252 20.1544 62.4189C19.8507 61.6435 19.7333 60.5523 19.1624 60.1878C18.5307 59.787 17.4739 60.038 16.6013 60.036C13.7487 60.0279 10.8961 60.0319 7.8998 60.0319V60.034ZM70.3409 60.034C66.6927 60.034 63.2894 60.0603 59.8861 60.0137C59.1148 60.0036 58.7767 60.2405 58.5297 60.9653C57.1388 65.0326 55.254 68.8549 52.6038 72.2622C51.7657 73.3413 50.8182 74.3354 49.7432 75.5744C58.5216 72.7623 65.2613 67.6949 70.3389 60.034H70.3409ZM49.7614 4.3994C50.8486 5.6607 51.8183 6.69322 52.6808 7.80672C55.3066 11.1958 57.1712 14.9979 58.5418 19.043C58.7807 19.7455 59.1067 19.9904 59.8315 19.9479C60.8741 19.8872 61.9228 19.9317 62.9695 19.9317C65.3524 19.9317 67.7353 19.9317 70.3409 19.9317C65.2492 12.2891 58.5297 7.19328 49.7634 4.3994H49.7614Z" fill="#134380"/>
</g>
<defs>
<clipPath id="clip0_2586_4610">
<rect width="79.1517" height="80" fill="white"/>
</clipPath>
</defs>
</svg>
