<svg width="985" height="236" viewBox="0 0 985 236" fill="none" xmlns="http://www.w3.org/2000/svg">
<path d="M69.8278 148.138C68.4678 148.138 67.0678 147.965 65.6278 147.618C64.1878 147.272 62.8678 146.752 61.6678 146.058C61.0544 145.712 60.6278 145.285 60.3878 144.778C60.1744 144.272 60.1078 143.752 60.1878 143.218C60.2944 142.685 60.5078 142.232 60.8278 141.858C61.1744 141.458 61.6011 141.205 62.1078 141.098C62.6411 140.992 63.2278 141.112 63.8678 141.458C64.8011 141.938 65.7478 142.312 66.7078 142.578C67.6944 142.845 68.6944 142.978 69.7078 142.978C70.7211 142.978 71.5878 142.805 72.3078 142.458C73.0278 142.112 73.5744 141.632 73.9478 141.018C74.3211 140.405 74.5078 139.685 74.5078 138.858C74.5078 137.578 74.0944 136.552 73.2678 135.778C72.4678 135.005 71.3744 134.618 69.9878 134.618C69.2944 134.618 68.5878 134.738 67.8678 134.978C67.1744 135.192 66.4544 135.578 65.7078 136.138C65.4411 136.352 65.0944 136.552 64.6678 136.738C64.2411 136.925 63.7878 137.018 63.3078 137.018C62.4811 137.018 61.8678 136.832 61.4678 136.458C61.0678 136.058 60.8678 135.485 60.8678 134.738V122.178C60.8678 121.298 61.0944 120.632 61.5478 120.178C62.0278 119.725 62.6944 119.498 63.5478 119.498H76.3878C77.2678 119.498 77.9344 119.725 78.3878 120.178C78.8411 120.605 79.0678 121.232 79.0678 122.058C79.0678 122.858 78.8411 123.485 78.3878 123.938C77.9344 124.365 77.2678 124.578 76.3878 124.578H66.8278V132.218H65.3078C65.9744 131.392 66.8544 130.752 67.9478 130.298C69.0411 129.845 70.2411 129.618 71.5478 129.618C73.3344 129.618 74.8944 130.005 76.2278 130.778C77.5611 131.525 78.6011 132.578 79.3478 133.938C80.0944 135.298 80.4678 136.872 80.4678 138.658C80.4678 140.525 80.0411 142.178 79.1878 143.618C78.3344 145.032 77.1078 146.138 75.5078 146.938C73.9078 147.738 72.0144 148.138 69.8278 148.138ZM87.8121 152.258C87.4121 152.738 86.9855 153.005 86.5321 153.058C86.0788 153.138 85.6921 153.058 85.3721 152.818C85.0521 152.578 84.8655 152.232 84.8121 151.778C84.7855 151.352 84.9855 150.885 85.4121 150.378C85.9988 149.632 86.3988 148.898 86.6121 148.178C86.8255 147.458 86.9321 146.818 86.9321 146.258L87.1321 147.898C86.0655 147.898 85.1988 147.592 84.5321 146.978C83.8655 146.365 83.5321 145.525 83.5321 144.458C83.5321 143.472 83.8388 142.672 84.4521 142.058C85.0655 141.418 85.9055 141.098 86.9721 141.098C88.0655 141.098 88.9188 141.472 89.5321 142.218C90.1455 142.938 90.4521 143.965 90.4521 145.298C90.4521 145.992 90.3855 146.698 90.2521 147.418C90.1188 148.138 89.8655 148.898 89.4921 149.698C89.1188 150.498 88.5588 151.352 87.8121 152.258ZM98.4428 147.698C97.5894 147.698 96.9361 147.472 96.4828 147.018C96.0294 146.565 95.8028 145.938 95.8028 145.138C95.8028 144.312 96.0294 143.685 96.4828 143.258C96.9361 142.832 97.5894 142.618 98.4428 142.618H102.483V124.578H105.403L99.5628 128.138C98.9494 128.512 98.3761 128.658 97.8428 128.578C97.3361 128.498 96.8961 128.272 96.5228 127.898C96.1494 127.525 95.8961 127.085 95.7628 126.578C95.6561 126.045 95.7094 125.525 95.9228 125.018C96.1361 124.485 96.5361 124.032 97.1228 123.658L102.683 120.298C103.243 119.952 103.803 119.672 104.363 119.458C104.949 119.245 105.523 119.138 106.083 119.138C106.883 119.138 107.509 119.352 107.963 119.778C108.443 120.178 108.683 120.805 108.683 121.658V142.618H112.323C113.149 142.618 113.789 142.832 114.243 143.258C114.696 143.685 114.923 144.312 114.923 145.138C114.923 145.965 114.696 146.605 114.243 147.058C113.789 147.485 113.149 147.698 112.323 147.698H98.4428ZM122.427 147.698C121.574 147.698 120.92 147.472 120.467 147.018C120.014 146.565 119.787 145.938 119.787 145.138C119.787 144.312 120.014 143.685 120.467 143.258C120.92 142.832 121.574 142.618 122.427 142.618H126.467V124.578H129.387L123.547 128.138C122.934 128.512 122.36 128.658 121.827 128.578C121.32 128.498 120.88 128.272 120.507 127.898C120.134 127.525 119.88 127.085 119.747 126.578C119.64 126.045 119.694 125.525 119.907 125.018C120.12 124.485 120.52 124.032 121.107 123.658L126.667 120.298C127.227 119.952 127.787 119.672 128.347 119.458C128.934 119.245 129.507 119.138 130.067 119.138C130.867 119.138 131.494 119.352 131.947 119.778C132.427 120.178 132.667 120.805 132.667 121.658V142.618H136.307C137.134 142.618 137.774 142.832 138.227 143.258C138.68 143.685 138.907 144.312 138.907 145.138C138.907 145.965 138.68 146.605 138.227 147.058C137.774 147.485 137.134 147.698 136.307 147.698H122.427ZM152.132 148.138C148.718 148.138 146.105 146.872 144.292 144.338C142.505 141.778 141.612 138.165 141.612 133.498C141.612 130.378 142.012 127.752 142.812 125.618C143.638 123.458 144.825 121.832 146.372 120.738C147.945 119.618 149.865 119.058 152.132 119.058C155.572 119.058 158.185 120.298 159.972 122.778C161.758 125.232 162.652 128.805 162.652 133.498C162.652 136.618 162.238 139.272 161.412 141.458C160.612 143.618 159.438 145.272 157.892 146.418C156.345 147.565 154.425 148.138 152.132 148.138ZM152.132 143.098C153.678 143.098 154.825 142.338 155.572 140.818C156.318 139.272 156.692 136.832 156.692 133.498C156.692 130.165 156.318 127.765 155.572 126.298C154.825 124.832 153.678 124.098 152.132 124.098C150.585 124.098 149.438 124.832 148.692 126.298C147.945 127.765 147.572 130.165 147.572 133.498C147.572 136.832 147.945 139.272 148.692 140.818C149.438 142.338 150.585 143.098 152.132 143.098ZM170.156 152.258C169.756 152.738 169.329 153.005 168.876 153.058C168.423 153.138 168.036 153.058 167.716 152.818C167.396 152.578 167.209 152.232 167.156 151.778C167.129 151.352 167.329 150.885 167.756 150.378C168.343 149.632 168.743 148.898 168.956 148.178C169.169 147.458 169.276 146.818 169.276 146.258L169.476 147.898C168.409 147.898 167.543 147.592 166.876 146.978C166.209 146.365 165.876 145.525 165.876 144.458C165.876 143.472 166.183 142.672 166.796 142.058C167.409 141.418 168.249 141.098 169.316 141.098C170.409 141.098 171.263 141.472 171.876 142.218C172.489 142.938 172.796 143.965 172.796 145.298C172.796 145.992 172.729 146.698 172.596 147.418C172.463 148.138 172.209 148.898 171.836 149.698C171.463 150.498 170.903 151.352 170.156 152.258ZM186.507 148.138C183.093 148.138 180.48 146.872 178.667 144.338C176.88 141.778 175.987 138.165 175.987 133.498C175.987 130.378 176.387 127.752 177.187 125.618C178.013 123.458 179.2 121.832 180.747 120.738C182.32 119.618 184.24 119.058 186.507 119.058C189.947 119.058 192.56 120.298 194.347 122.778C196.133 125.232 197.027 128.805 197.027 133.498C197.027 136.618 196.613 139.272 195.787 141.458C194.987 143.618 193.813 145.272 192.267 146.418C190.72 147.565 188.8 148.138 186.507 148.138ZM186.507 143.098C188.053 143.098 189.2 142.338 189.947 140.818C190.693 139.272 191.067 136.832 191.067 133.498C191.067 130.165 190.693 127.765 189.947 126.298C189.2 124.832 188.053 124.098 186.507 124.098C184.96 124.098 183.813 124.832 183.067 126.298C182.32 127.765 181.947 130.165 181.947 133.498C181.947 136.832 182.32 139.272 183.067 140.818C183.813 142.338 184.96 143.098 186.507 143.098ZM210.491 148.138C207.078 148.138 204.464 146.872 202.651 144.338C200.864 141.778 199.971 138.165 199.971 133.498C199.971 130.378 200.371 127.752 201.171 125.618C201.998 123.458 203.184 121.832 204.731 120.738C206.304 119.618 208.224 119.058 210.491 119.058C213.931 119.058 216.544 120.298 218.331 122.778C220.118 125.232 221.011 128.805 221.011 133.498C221.011 136.618 220.598 139.272 219.771 141.458C218.971 143.618 217.798 145.272 216.251 146.418C214.704 147.565 212.784 148.138 210.491 148.138ZM210.491 143.098C212.038 143.098 213.184 142.338 213.931 140.818C214.678 139.272 215.051 136.832 215.051 133.498C215.051 130.165 214.678 127.765 213.931 126.298C213.184 124.832 212.038 124.098 210.491 124.098C208.944 124.098 207.798 124.832 207.051 126.298C206.304 127.765 205.931 130.165 205.931 133.498C205.931 136.832 206.304 139.272 207.051 140.818C207.798 142.338 208.944 143.098 210.491 143.098ZM234.475 148.138C231.062 148.138 228.449 146.872 226.635 144.338C224.849 141.778 223.955 138.165 223.955 133.498C223.955 130.378 224.355 127.752 225.155 125.618C225.982 123.458 227.169 121.832 228.715 120.738C230.289 119.618 232.209 119.058 234.475 119.058C237.915 119.058 240.529 120.298 242.315 122.778C244.102 125.232 244.995 128.805 244.995 133.498C244.995 136.618 244.582 139.272 243.755 141.458C242.955 143.618 241.782 145.272 240.235 146.418C238.689 147.565 236.769 148.138 234.475 148.138ZM234.475 143.098C236.022 143.098 237.169 142.338 237.915 140.818C238.662 139.272 239.035 136.832 239.035 133.498C239.035 130.165 238.662 127.765 237.915 126.298C237.169 124.832 236.022 124.098 234.475 124.098C232.929 124.098 231.782 124.832 231.035 126.298C230.289 127.765 229.915 130.165 229.915 133.498C229.915 136.832 230.289 139.272 231.035 140.818C231.782 142.338 232.929 143.098 234.475 143.098ZM117.564 191.922C117.031 191.922 116.615 191.773 116.316 191.474C116.039 191.176 115.9 190.76 115.9 190.226V171.922H109.116C108.668 171.922 108.316 171.805 108.06 171.57C107.804 171.314 107.676 170.962 107.676 170.514C107.676 170.066 107.804 169.725 108.06 169.49C108.316 169.256 108.668 169.138 109.116 169.138H125.98C126.449 169.138 126.812 169.256 127.068 169.49C127.324 169.725 127.452 170.066 127.452 170.514C127.452 170.962 127.324 171.314 127.068 171.57C126.812 171.805 126.449 171.922 125.98 171.922H119.196V190.226C119.196 190.76 119.057 191.176 118.78 191.474C118.524 191.773 118.119 191.922 117.564 191.922ZM138.344 191.986C136.211 191.986 134.344 191.517 132.744 190.578C131.166 189.618 129.939 188.274 129.064 186.546C128.211 184.797 127.784 182.749 127.784 180.402C127.784 178.632 128.03 177.042 128.52 175.634C129.011 174.205 129.715 172.989 130.632 171.986C131.55 170.962 132.659 170.184 133.96 169.65C135.262 169.117 136.723 168.85 138.344 168.85C140.499 168.85 142.366 169.32 143.944 170.258C145.523 171.197 146.739 172.53 147.592 174.258C148.467 175.986 148.904 178.024 148.904 180.37C148.904 182.141 148.659 183.741 148.168 185.17C147.678 186.6 146.963 187.826 146.024 188.85C145.107 189.874 143.998 190.653 142.696 191.186C141.395 191.72 139.944 191.986 138.344 191.986ZM138.344 189.106C139.838 189.106 141.107 188.765 142.152 188.082C143.219 187.4 144.03 186.408 144.584 185.106C145.16 183.805 145.448 182.237 145.448 180.402C145.448 177.65 144.83 175.517 143.592 174.002C142.355 172.488 140.606 171.73 138.344 171.73C136.851 171.73 135.571 172.072 134.504 172.754C133.459 173.416 132.648 174.397 132.072 175.698C131.518 177 131.24 178.568 131.24 180.402C131.24 183.133 131.859 185.266 133.096 186.802C134.355 188.338 136.104 189.106 138.344 189.106ZM159.127 191.922C158.593 191.922 158.177 191.773 157.879 191.474C157.601 191.176 157.463 190.76 157.463 190.226V171.922H150.679C150.231 171.922 149.879 171.805 149.623 171.57C149.367 171.314 149.239 170.962 149.239 170.514C149.239 170.066 149.367 169.725 149.623 169.49C149.879 169.256 150.231 169.138 150.679 169.138H167.543C168.012 169.138 168.375 169.256 168.631 169.49C168.887 169.725 169.015 170.066 169.015 170.514C169.015 170.962 168.887 171.314 168.631 171.57C168.375 171.805 168.012 171.922 167.543 171.922H160.759V190.226C160.759 190.76 160.62 191.176 160.343 191.474C160.087 191.773 159.681 191.922 159.127 191.922ZM168.924 191.922C168.498 191.922 168.156 191.826 167.9 191.634C167.644 191.442 167.495 191.186 167.452 190.866C167.41 190.546 167.474 190.184 167.644 189.778L176.316 170.322C176.53 169.81 176.796 169.448 177.116 169.234C177.458 169.021 177.831 168.914 178.236 168.914C178.62 168.914 178.972 169.021 179.292 169.234C179.634 169.448 179.911 169.81 180.124 170.322L188.796 189.778C188.988 190.184 189.063 190.557 189.02 190.898C188.978 191.218 188.839 191.474 188.604 191.666C188.37 191.837 188.039 191.922 187.612 191.922C187.143 191.922 186.77 191.805 186.492 191.57C186.215 191.336 185.97 190.973 185.756 190.482L183.516 185.298L185.02 186.194H171.388L172.86 185.298L170.652 190.482C170.439 190.994 170.204 191.368 169.948 191.602C169.692 191.816 169.351 191.922 168.924 191.922ZM178.172 172.818L173.34 184.274L172.54 183.506H183.836L183.1 184.274L178.236 172.818H178.172ZM194.311 191.698C193.778 191.698 193.362 191.549 193.063 191.25C192.764 190.952 192.615 190.536 192.615 190.002V170.706C192.615 170.152 192.754 169.736 193.031 169.458C193.33 169.16 193.746 169.01 194.279 169.01C194.812 169.01 195.218 169.16 195.495 169.458C195.794 169.736 195.943 170.152 195.943 170.706V188.85H205.863C206.332 188.85 206.695 188.978 206.951 189.234C207.207 189.469 207.335 189.81 207.335 190.258C207.335 190.706 207.207 191.058 206.951 191.314C206.695 191.57 206.332 191.698 205.863 191.698H194.311ZM46.1413 235.698C45.5653 235.698 45.1173 235.549 44.7973 235.25C44.4986 234.93 44.3493 234.482 44.3493 233.906V214.93C44.3493 214.354 44.4986 213.917 44.7973 213.618C45.1173 213.298 45.5653 213.138 46.1413 213.138H53.7573C55.3146 213.138 56.6373 213.373 57.7253 213.842C58.8346 214.312 59.6773 214.984 60.2533 215.858C60.8506 216.733 61.1493 217.789 61.1493 219.026C61.1493 220.392 60.7439 221.544 59.9333 222.482C59.1226 223.421 58.0239 224.05 56.6373 224.37V223.89C58.2159 224.104 59.4533 224.701 60.3493 225.682C61.2453 226.642 61.6933 227.901 61.6933 229.458C61.6933 231.464 61.0319 233.01 59.7093 234.098C58.3866 235.165 56.5306 235.698 54.1413 235.698H46.1413ZM47.5493 233.138H53.7573C55.3573 233.138 56.5413 232.829 57.3093 232.21C58.0773 231.57 58.4613 230.61 58.4613 229.33C58.4613 228.05 58.0773 227.101 57.3093 226.482C56.5413 225.864 55.3573 225.554 53.7573 225.554H47.5493V233.138ZM47.5493 222.994H53.2453C54.7813 222.994 55.9439 222.685 56.7333 222.066C57.5226 221.448 57.9173 220.541 57.9173 219.346C57.9173 218.152 57.5226 217.245 56.7333 216.626C55.9439 216.008 54.7813 215.698 53.2453 215.698H47.5493V222.994ZM67.9538 235.698C67.3778 235.698 66.9298 235.549 66.6098 235.25C66.3111 234.93 66.1618 234.482 66.1618 233.906V214.93C66.1618 214.354 66.3111 213.917 66.6098 213.618C66.9298 213.298 67.3778 213.138 67.9538 213.138H79.6338C80.0818 213.138 80.4231 213.256 80.6578 213.49C80.8924 213.704 81.0098 214.024 81.0098 214.45C81.0098 214.898 80.8924 215.24 80.6578 215.474C80.4231 215.709 80.0818 215.826 79.6338 215.826H69.3618V222.898H78.9298C79.3991 222.898 79.7404 223.016 79.9538 223.25C80.1884 223.485 80.3058 223.816 80.3058 224.242C80.3058 224.69 80.1884 225.032 79.9538 225.266C79.7404 225.48 79.3991 225.586 78.9298 225.586H69.3618V233.01H79.6338C80.0818 233.01 80.4231 233.128 80.6578 233.362C80.8924 233.597 81.0098 233.928 81.0098 234.354C81.0098 234.802 80.8924 235.144 80.6578 235.378C80.4231 235.592 80.0818 235.698 79.6338 235.698H67.9538ZM86.5735 235.922C86.0828 235.922 85.6988 235.784 85.4215 235.506C85.1442 235.229 85.0055 234.834 85.0055 234.322V214.578C85.0055 214.045 85.1335 213.64 85.3895 213.362C85.6668 213.064 86.0295 212.914 86.4775 212.914C86.8615 212.914 87.1495 212.989 87.3415 213.138C87.5548 213.266 87.8002 213.512 88.0775 213.874L101.262 231.25H100.462V214.482C100.462 213.992 100.59 213.608 100.846 213.33C101.123 213.053 101.507 212.914 101.998 212.914C102.51 212.914 102.894 213.053 103.15 213.33C103.406 213.608 103.534 213.992 103.534 214.482V234.354C103.534 234.845 103.406 235.229 103.15 235.506C102.915 235.784 102.595 235.922 102.19 235.922C101.806 235.922 101.486 235.848 101.23 235.698C100.995 235.549 100.739 235.293 100.462 234.93L87.3415 217.586H88.0775V234.322C88.0775 234.834 87.9495 235.229 87.6935 235.506C87.4375 235.784 87.0642 235.922 86.5735 235.922ZM110.579 235.698C110.003 235.698 109.555 235.549 109.235 235.25C108.936 234.93 108.787 234.482 108.787 233.906V214.93C108.787 214.354 108.936 213.917 109.235 213.618C109.555 213.298 110.003 213.138 110.579 213.138H122.259C122.707 213.138 123.048 213.256 123.283 213.49C123.517 213.704 123.635 214.024 123.635 214.45C123.635 214.898 123.517 215.24 123.283 215.474C123.048 215.709 122.707 215.826 122.259 215.826H111.987V222.898H121.555C122.024 222.898 122.365 223.016 122.579 223.25C122.813 223.485 122.931 223.816 122.931 224.242C122.931 224.69 122.813 225.032 122.579 225.266C122.365 225.48 122.024 225.586 121.555 225.586H111.987V233.01H122.259C122.707 233.01 123.048 233.128 123.283 233.362C123.517 233.597 123.635 233.928 123.635 234.354C123.635 234.802 123.517 235.144 123.283 235.378C123.048 235.592 122.707 235.698 122.259 235.698H110.579ZM129.391 235.922C128.836 235.922 128.399 235.773 128.079 235.474C127.78 235.176 127.631 234.738 127.631 234.162V214.93C127.631 214.354 127.78 213.917 128.079 213.618C128.399 213.298 128.847 213.138 129.423 213.138H140.815C141.284 213.138 141.625 213.256 141.839 213.49C142.073 213.704 142.191 214.024 142.191 214.45C142.191 214.898 142.073 215.24 141.839 215.474C141.625 215.709 141.284 215.826 140.815 215.826H130.959V223.026H140.175C140.601 223.026 140.932 223.144 141.167 223.378C141.423 223.592 141.551 223.912 141.551 224.338C141.551 224.786 141.423 225.128 141.167 225.362C140.932 225.597 140.601 225.714 140.175 225.714H130.959V234.162C130.959 235.336 130.436 235.922 129.391 235.922ZM147.013 235.922C146.48 235.922 146.064 235.773 145.765 235.474C145.488 235.176 145.349 234.76 145.349 234.226V214.61C145.349 214.056 145.488 213.64 145.765 213.362C146.064 213.064 146.48 212.914 147.013 212.914C147.547 212.914 147.952 213.064 148.229 213.362C148.528 213.64 148.677 214.056 148.677 214.61V234.226C148.677 234.76 148.539 235.176 148.261 235.474C147.984 235.773 147.568 235.922 147.013 235.922ZM164.024 235.986C161.741 235.986 159.789 235.517 158.168 234.578C156.546 233.64 155.298 232.306 154.424 230.578C153.57 228.829 153.144 226.77 153.144 224.402C153.144 222.632 153.389 221.042 153.88 219.634C154.37 218.205 155.074 216.989 155.992 215.986C156.93 214.962 158.072 214.184 159.416 213.65C160.781 213.117 162.317 212.85 164.024 212.85C165.282 212.85 166.488 213.021 167.64 213.362C168.813 213.704 169.826 214.194 170.68 214.834C171.042 215.069 171.277 215.357 171.384 215.698C171.512 216.018 171.533 216.328 171.448 216.626C171.384 216.925 171.245 217.181 171.032 217.394C170.818 217.586 170.541 217.693 170.2 217.714C169.88 217.736 169.528 217.618 169.144 217.362C168.44 216.829 167.661 216.434 166.808 216.178C165.954 215.922 165.058 215.794 164.12 215.794C162.498 215.794 161.133 216.136 160.024 216.818C158.914 217.48 158.072 218.45 157.496 219.73C156.92 221.01 156.632 222.568 156.632 224.402C156.632 226.237 156.92 227.805 157.496 229.106C158.072 230.386 158.914 231.368 160.024 232.05C161.133 232.712 162.498 233.042 164.12 233.042C165.058 233.042 165.954 232.914 166.808 232.658C167.682 232.381 168.504 231.976 169.272 231.442C169.656 231.208 169.997 231.101 170.296 231.122C170.616 231.144 170.882 231.25 171.096 231.442C171.309 231.634 171.448 231.88 171.512 232.178C171.597 232.456 171.586 232.754 171.48 233.074C171.394 233.373 171.192 233.629 170.872 233.842C169.997 234.546 168.962 235.08 167.768 235.442C166.573 235.805 165.325 235.986 164.024 235.986ZM177.201 235.922C176.667 235.922 176.251 235.773 175.953 235.474C175.675 235.176 175.537 234.76 175.537 234.226V214.61C175.537 214.056 175.675 213.64 175.953 213.362C176.251 213.064 176.667 212.914 177.201 212.914C177.734 212.914 178.139 213.064 178.417 213.362C178.715 213.64 178.865 214.056 178.865 214.61V234.226C178.865 234.76 178.726 235.176 178.449 235.474C178.171 235.773 177.755 235.922 177.201 235.922ZM183.971 235.922C183.545 235.922 183.203 235.826 182.947 235.634C182.691 235.442 182.542 235.186 182.499 234.866C182.457 234.546 182.521 234.184 182.691 233.778L191.363 214.322C191.577 213.81 191.843 213.448 192.163 213.234C192.505 213.021 192.878 212.914 193.283 212.914C193.667 212.914 194.019 213.021 194.339 213.234C194.681 213.448 194.958 213.81 195.171 214.322L203.843 233.778C204.035 234.184 204.11 234.557 204.067 234.898C204.025 235.218 203.886 235.474 203.651 235.666C203.417 235.837 203.086 235.922 202.659 235.922C202.19 235.922 201.817 235.805 201.539 235.57C201.262 235.336 201.017 234.973 200.803 234.482L198.563 229.298L200.067 230.194H186.435L187.907 229.298L185.699 234.482C185.486 234.994 185.251 235.368 184.995 235.602C184.739 235.816 184.398 235.922 183.971 235.922ZM193.219 216.818L188.387 228.274L187.587 227.506H198.883L198.147 228.274L193.283 216.818H193.219ZM209.326 235.922C208.792 235.922 208.376 235.773 208.078 235.474C207.8 235.176 207.662 234.76 207.662 234.226V214.834C207.662 214.28 207.811 213.864 208.11 213.586C208.408 213.288 208.824 213.138 209.358 213.138H217.006C219.438 213.138 221.315 213.714 222.638 214.866C223.96 216.018 224.622 217.65 224.622 219.762C224.622 221.128 224.323 222.301 223.726 223.282C223.128 224.264 222.254 225.01 221.102 225.522C219.971 226.034 218.606 226.29 217.006 226.29L217.294 225.842H218.126C218.979 225.842 219.715 226.056 220.334 226.482C220.974 226.909 221.55 227.592 222.062 228.53L224.814 233.65C225.027 234.034 225.123 234.408 225.102 234.77C225.102 235.112 224.974 235.389 224.718 235.602C224.483 235.816 224.142 235.922 223.694 235.922C223.224 235.922 222.84 235.826 222.542 235.634C222.264 235.421 222.008 235.112 221.774 234.706L218.414 228.498C217.966 227.666 217.454 227.112 216.878 226.834C216.302 226.536 215.544 226.386 214.606 226.386H210.99V234.226C210.99 234.76 210.851 235.176 210.574 235.474C210.296 235.773 209.88 235.922 209.326 235.922ZM210.99 223.89H216.462C218.083 223.89 219.31 223.549 220.142 222.866C220.974 222.184 221.39 221.17 221.39 219.826C221.39 218.504 220.974 217.501 220.142 216.818C219.31 216.136 218.083 215.794 216.462 215.794H210.99V223.89ZM230.982 235.922C230.449 235.922 230.033 235.773 229.734 235.474C229.457 235.176 229.318 234.76 229.318 234.226V214.61C229.318 214.056 229.457 213.64 229.734 213.362C230.033 213.064 230.449 212.914 230.982 212.914C231.515 212.914 231.921 213.064 232.198 213.362C232.497 213.64 232.646 214.056 232.646 214.61V234.226C232.646 234.76 232.507 235.176 232.23 235.474C231.953 235.773 231.537 235.922 230.982 235.922ZM239.673 235.698C239.097 235.698 238.649 235.549 238.329 235.25C238.03 234.93 237.881 234.482 237.881 233.906V214.93C237.881 214.354 238.03 213.917 238.329 213.618C238.649 213.298 239.097 213.138 239.673 213.138H251.353C251.801 213.138 252.142 213.256 252.377 213.49C252.611 213.704 252.729 214.024 252.729 214.45C252.729 214.898 252.611 215.24 252.377 215.474C252.142 215.709 251.801 215.826 251.353 215.826H241.081V222.898H250.649C251.118 222.898 251.459 223.016 251.673 223.25C251.907 223.485 252.025 223.816 252.025 224.242C252.025 224.69 251.907 225.032 251.673 225.266C251.459 225.48 251.118 225.586 250.649 225.586H241.081V233.01H251.353C251.801 233.01 252.142 233.128 252.377 233.362C252.611 233.597 252.729 233.928 252.729 234.354C252.729 234.802 252.611 235.144 252.377 235.378C252.142 235.592 251.801 235.698 251.353 235.698H239.673ZM263.932 235.986C262.95 235.986 261.99 235.912 261.052 235.762C260.113 235.613 259.228 235.389 258.396 235.09C257.564 234.77 256.817 234.386 256.156 233.938C255.836 233.704 255.612 233.437 255.484 233.138C255.377 232.84 255.345 232.552 255.388 232.274C255.452 231.976 255.58 231.72 255.772 231.506C255.964 231.293 256.198 231.165 256.476 231.122C256.753 231.058 257.062 231.144 257.404 231.378C258.364 231.997 259.377 232.456 260.444 232.754C261.51 233.032 262.673 233.17 263.932 233.17C265.745 233.17 267.078 232.85 267.932 232.21C268.806 231.549 269.244 230.696 269.244 229.65C269.244 228.797 268.934 228.125 268.316 227.634C267.697 227.122 266.662 226.717 265.212 226.418L261.788 225.714C259.761 225.288 258.246 224.584 257.244 223.602C256.262 222.621 255.772 221.298 255.772 219.634C255.772 218.632 255.974 217.714 256.38 216.882C256.806 216.05 257.393 215.336 258.14 214.738C258.886 214.12 259.782 213.65 260.828 213.33C261.873 213.01 263.014 212.85 264.252 212.85C265.574 212.85 266.812 213.021 267.964 213.362C269.137 213.704 270.182 214.226 271.1 214.93C271.377 215.122 271.558 215.368 271.644 215.666C271.75 215.944 271.772 216.221 271.708 216.498C271.665 216.776 271.548 217.01 271.356 217.202C271.164 217.394 270.918 217.512 270.62 217.554C270.321 217.576 269.99 217.469 269.628 217.234C268.796 216.68 267.942 216.285 267.068 216.05C266.214 215.794 265.265 215.666 264.22 215.666C263.174 215.666 262.257 215.826 261.468 216.146C260.7 216.466 260.102 216.914 259.676 217.49C259.27 218.066 259.068 218.749 259.068 219.538C259.068 220.434 259.356 221.149 259.932 221.682C260.508 222.216 261.468 222.621 262.812 222.898L266.204 223.602C268.337 224.05 269.926 224.744 270.972 225.682C272.017 226.621 272.54 227.869 272.54 229.426C272.54 230.429 272.337 231.336 271.932 232.146C271.526 232.936 270.95 233.618 270.204 234.194C269.457 234.77 268.55 235.218 267.484 235.538C266.438 235.837 265.254 235.986 263.932 235.986Z" fill="#134380"/>
<path d="M404.024 147.698C403.037 147.698 402.304 147.472 401.824 147.018C401.37 146.538 401.144 145.845 401.144 144.938C401.144 144.352 401.29 143.805 401.584 143.298C401.877 142.792 402.277 142.272 402.784 141.738L410.304 133.818C411.424 132.618 412.224 131.552 412.704 130.618C413.21 129.685 413.464 128.752 413.464 127.818C413.464 126.645 413.077 125.752 412.304 125.138C411.557 124.525 410.464 124.218 409.024 124.218C408.25 124.218 407.45 124.338 406.624 124.578C405.824 124.792 404.984 125.152 404.104 125.658C403.517 125.978 402.97 126.098 402.464 126.018C401.984 125.912 401.57 125.685 401.224 125.338C400.877 124.965 400.65 124.525 400.544 124.018C400.437 123.512 400.49 123.005 400.704 122.498C400.917 121.992 401.317 121.565 401.904 121.218C403.077 120.498 404.357 119.965 405.744 119.618C407.13 119.245 408.504 119.058 409.864 119.058C411.97 119.058 413.744 119.378 415.184 120.018C416.624 120.632 417.717 121.538 418.464 122.738C419.21 123.938 419.584 125.405 419.584 127.138C419.584 128.258 419.41 129.352 419.064 130.418C418.717 131.485 418.17 132.565 417.424 133.658C416.704 134.725 415.744 135.872 414.544 137.098L407.544 144.218V142.618H418.384C419.237 142.618 419.877 142.832 420.304 143.258C420.757 143.685 420.984 144.312 420.984 145.138C420.984 145.965 420.757 146.605 420.304 147.058C419.877 147.485 419.237 147.698 418.384 147.698H404.024ZM428.528 152.258C428.128 152.738 427.701 153.005 427.248 153.058C426.795 153.138 426.408 153.058 426.088 152.818C425.768 152.578 425.581 152.232 425.528 151.778C425.501 151.352 425.701 150.885 426.128 150.378C426.715 149.632 427.115 148.898 427.328 148.178C427.541 147.458 427.648 146.818 427.648 146.258L427.848 147.898C426.781 147.898 425.915 147.592 425.248 146.978C424.581 146.365 424.248 145.525 424.248 144.458C424.248 143.472 424.555 142.672 425.168 142.058C425.781 141.418 426.621 141.098 427.688 141.098C428.781 141.098 429.635 141.472 430.248 142.218C430.861 142.938 431.168 143.965 431.168 145.298C431.168 145.992 431.101 146.698 430.968 147.418C430.835 148.138 430.581 148.898 430.208 149.698C429.835 150.498 429.275 151.352 428.528 152.258ZM449.279 148.058C448.319 148.058 447.559 147.792 446.999 147.258C446.465 146.725 446.199 145.952 446.199 144.938V142.658H437.239C436.252 142.658 435.465 142.445 434.879 142.018C434.292 141.565 433.999 140.885 433.999 139.978C433.999 139.445 434.119 138.898 434.359 138.338C434.599 137.778 435.025 137.085 435.639 136.258L445.999 121.178C446.452 120.512 446.959 120.005 447.519 119.658C448.079 119.312 448.719 119.138 449.439 119.138C450.292 119.138 450.972 119.405 451.479 119.938C452.012 120.445 452.279 121.218 452.279 122.258V137.778H453.759C454.639 137.778 455.305 137.992 455.759 138.418C456.212 138.818 456.439 139.418 456.439 140.218C456.439 140.992 456.212 141.592 455.759 142.018C455.332 142.445 454.665 142.658 453.759 142.658H452.279V144.938C452.279 145.952 452.012 146.725 451.479 147.258C450.972 147.792 450.239 148.058 449.279 148.058ZM446.199 137.778V126.778H447.359L438.839 139.298V137.778H446.199ZM468.903 148.138C467.543 148.138 466.143 147.965 464.703 147.618C463.263 147.272 461.943 146.752 460.743 146.058C460.13 145.712 459.703 145.285 459.463 144.778C459.25 144.272 459.183 143.752 459.263 143.218C459.37 142.685 459.583 142.232 459.903 141.858C460.25 141.458 460.676 141.205 461.183 141.098C461.716 140.992 462.303 141.112 462.943 141.458C463.876 141.938 464.823 142.312 465.783 142.578C466.77 142.845 467.77 142.978 468.783 142.978C469.796 142.978 470.663 142.805 471.383 142.458C472.103 142.112 472.65 141.632 473.023 141.018C473.396 140.405 473.583 139.685 473.583 138.858C473.583 137.578 473.17 136.552 472.343 135.778C471.543 135.005 470.45 134.618 469.063 134.618C468.37 134.618 467.663 134.738 466.943 134.978C466.25 135.192 465.53 135.578 464.783 136.138C464.516 136.352 464.17 136.552 463.743 136.738C463.316 136.925 462.863 137.018 462.383 137.018C461.556 137.018 460.943 136.832 460.543 136.458C460.143 136.058 459.943 135.485 459.943 134.738V122.178C459.943 121.298 460.17 120.632 460.623 120.178C461.103 119.725 461.77 119.498 462.623 119.498H475.463C476.343 119.498 477.01 119.725 477.463 120.178C477.916 120.605 478.143 121.232 478.143 122.058C478.143 122.858 477.916 123.485 477.463 123.938C477.01 124.365 476.343 124.578 475.463 124.578H465.903V132.218H464.383C465.05 131.392 465.93 130.752 467.023 130.298C468.116 129.845 469.316 129.618 470.623 129.618C472.41 129.618 473.97 130.005 475.303 130.778C476.636 131.525 477.676 132.578 478.423 133.938C479.17 135.298 479.543 136.872 479.543 138.658C479.543 140.525 479.116 142.178 478.263 143.618C477.41 145.032 476.183 146.138 474.583 146.938C472.983 147.738 471.09 148.138 468.903 148.138ZM492.847 148.138C489.434 148.138 486.821 146.872 485.007 144.338C483.221 141.778 482.327 138.165 482.327 133.498C482.327 130.378 482.727 127.752 483.527 125.618C484.354 123.458 485.541 121.832 487.087 120.738C488.661 119.618 490.581 119.058 492.847 119.058C496.287 119.058 498.901 120.298 500.687 122.778C502.474 125.232 503.367 128.805 503.367 133.498C503.367 136.618 502.954 139.272 502.127 141.458C501.327 143.618 500.154 145.272 498.607 146.418C497.061 147.565 495.141 148.138 492.847 148.138ZM492.847 143.098C494.394 143.098 495.541 142.338 496.287 140.818C497.034 139.272 497.407 136.832 497.407 133.498C497.407 130.165 497.034 127.765 496.287 126.298C495.541 124.832 494.394 124.098 492.847 124.098C491.301 124.098 490.154 124.832 489.407 126.298C488.661 127.765 488.287 130.165 488.287 133.498C488.287 136.832 488.661 139.272 489.407 140.818C490.154 142.338 491.301 143.098 492.847 143.098ZM510.872 152.258C510.472 152.738 510.045 153.005 509.592 153.058C509.138 153.138 508.752 153.058 508.432 152.818C508.112 152.578 507.925 152.232 507.872 151.778C507.845 151.352 508.045 150.885 508.472 150.378C509.058 149.632 509.458 148.898 509.672 148.178C509.885 147.458 509.992 146.818 509.992 146.258L510.192 147.898C509.125 147.898 508.258 147.592 507.592 146.978C506.925 146.365 506.592 145.525 506.592 144.458C506.592 143.472 506.898 142.672 507.512 142.058C508.125 141.418 508.965 141.098 510.032 141.098C511.125 141.098 511.978 141.472 512.592 142.218C513.205 142.938 513.512 143.965 513.512 145.298C513.512 145.992 513.445 146.698 513.312 147.418C513.178 148.138 512.925 148.898 512.552 149.698C512.178 150.498 511.618 151.352 510.872 152.258ZM527.222 148.138C523.809 148.138 521.196 146.872 519.382 144.338C517.596 141.778 516.702 138.165 516.702 133.498C516.702 130.378 517.102 127.752 517.902 125.618C518.729 123.458 519.916 121.832 521.462 120.738C523.036 119.618 524.956 119.058 527.222 119.058C530.662 119.058 533.276 120.298 535.062 122.778C536.849 125.232 537.742 128.805 537.742 133.498C537.742 136.618 537.329 139.272 536.502 141.458C535.702 143.618 534.529 145.272 532.982 146.418C531.436 147.565 529.516 148.138 527.222 148.138ZM527.222 143.098C528.769 143.098 529.916 142.338 530.662 140.818C531.409 139.272 531.782 136.832 531.782 133.498C531.782 130.165 531.409 127.765 530.662 126.298C529.916 124.832 528.769 124.098 527.222 124.098C525.676 124.098 524.529 124.832 523.782 126.298C523.036 127.765 522.662 130.165 522.662 133.498C522.662 136.832 523.036 139.272 523.782 140.818C524.529 142.338 525.676 143.098 527.222 143.098ZM551.207 148.138C547.793 148.138 545.18 146.872 543.367 144.338C541.58 141.778 540.687 138.165 540.687 133.498C540.687 130.378 541.087 127.752 541.887 125.618C542.713 123.458 543.9 121.832 545.447 120.738C547.02 119.618 548.94 119.058 551.207 119.058C554.647 119.058 557.26 120.298 559.047 122.778C560.833 125.232 561.727 128.805 561.727 133.498C561.727 136.618 561.313 139.272 560.487 141.458C559.687 143.618 558.513 145.272 556.967 146.418C555.42 147.565 553.5 148.138 551.207 148.138ZM551.207 143.098C552.753 143.098 553.9 142.338 554.647 140.818C555.393 139.272 555.767 136.832 555.767 133.498C555.767 130.165 555.393 127.765 554.647 126.298C553.9 124.832 552.753 124.098 551.207 124.098C549.66 124.098 548.513 124.832 547.767 126.298C547.02 127.765 546.647 130.165 546.647 133.498C546.647 136.832 547.02 139.272 547.767 140.818C548.513 142.338 549.66 143.098 551.207 143.098ZM575.191 148.138C571.778 148.138 569.164 146.872 567.351 144.338C565.564 141.778 564.671 138.165 564.671 133.498C564.671 130.378 565.071 127.752 565.871 125.618C566.698 123.458 567.884 121.832 569.431 120.738C571.004 119.618 572.924 119.058 575.191 119.058C578.631 119.058 581.244 120.298 583.031 122.778C584.818 125.232 585.711 128.805 585.711 133.498C585.711 136.618 585.298 139.272 584.471 141.458C583.671 143.618 582.498 145.272 580.951 146.418C579.404 147.565 577.484 148.138 575.191 148.138ZM575.191 143.098C576.738 143.098 577.884 142.338 578.631 140.818C579.378 139.272 579.751 136.832 579.751 133.498C579.751 130.165 579.378 127.765 578.631 126.298C577.884 124.832 576.738 124.098 575.191 124.098C573.644 124.098 572.498 124.832 571.751 126.298C571.004 127.765 570.631 130.165 570.631 133.498C570.631 136.832 571.004 139.272 571.751 140.818C572.498 142.338 573.644 143.098 575.191 143.098ZM451.201 191.698C450.625 191.698 450.177 191.549 449.857 191.25C449.558 190.93 449.409 190.482 449.409 189.906V170.93C449.409 170.354 449.558 169.917 449.857 169.618C450.177 169.298 450.625 169.138 451.201 169.138H462.881C463.329 169.138 463.67 169.256 463.905 169.49C464.14 169.704 464.257 170.024 464.257 170.45C464.257 170.898 464.14 171.24 463.905 171.474C463.67 171.709 463.329 171.826 462.881 171.826H452.609V178.898H462.177C462.646 178.898 462.988 179.016 463.201 179.25C463.436 179.485 463.553 179.816 463.553 180.242C463.553 180.69 463.436 181.032 463.201 181.266C462.988 181.48 462.646 181.586 462.177 181.586H452.609V189.01H462.881C463.329 189.01 463.67 189.128 463.905 189.362C464.14 189.597 464.257 189.928 464.257 190.354C464.257 190.802 464.14 191.144 463.905 191.378C463.67 191.592 463.329 191.698 462.881 191.698H451.201ZM476.672 191.922C476.203 191.922 475.808 191.816 475.488 191.602C475.19 191.368 474.944 191.026 474.752 190.578L466.144 171.09C465.974 170.642 465.931 170.258 466.016 169.938C466.102 169.618 466.272 169.373 466.528 169.202C466.806 169.01 467.136 168.914 467.52 168.914C468.011 168.914 468.384 169.021 468.64 169.234C468.896 169.448 469.11 169.768 469.28 170.194L477.344 188.882H476.16L484.16 170.162C484.352 169.757 484.576 169.448 484.832 169.234C485.11 169.021 485.483 168.914 485.952 168.914C486.336 168.914 486.646 169.01 486.88 169.202C487.136 169.373 487.296 169.618 487.36 169.938C487.424 170.258 487.36 170.642 487.168 171.09L478.592 190.578C478.4 191.026 478.155 191.368 477.856 191.602C477.558 191.816 477.163 191.922 476.672 191.922ZM492.295 191.698C491.719 191.698 491.271 191.549 490.951 191.25C490.652 190.93 490.503 190.482 490.503 189.906V170.93C490.503 170.354 490.652 169.917 490.951 169.618C491.271 169.298 491.719 169.138 492.295 169.138H503.975C504.423 169.138 504.764 169.256 504.999 169.49C505.233 169.704 505.351 170.024 505.351 170.45C505.351 170.898 505.233 171.24 504.999 171.474C504.764 171.709 504.423 171.826 503.975 171.826H493.703V178.898H503.271C503.74 178.898 504.081 179.016 504.295 179.25C504.529 179.485 504.647 179.816 504.647 180.242C504.647 180.69 504.529 181.032 504.295 181.266C504.081 181.48 503.74 181.586 503.271 181.586H493.703V189.01H503.975C504.423 189.01 504.764 189.128 504.999 189.362C505.233 189.597 505.351 189.928 505.351 190.354C505.351 190.802 505.233 191.144 504.999 191.378C504.764 191.592 504.423 191.698 503.975 191.698H492.295ZM510.914 191.922C510.424 191.922 510.04 191.784 509.762 191.506C509.485 191.229 509.346 190.834 509.346 190.322V170.578C509.346 170.045 509.474 169.64 509.73 169.362C510.008 169.064 510.37 168.914 510.818 168.914C511.202 168.914 511.49 168.989 511.682 169.138C511.896 169.266 512.141 169.512 512.418 169.874L525.602 187.25H524.802V170.482C524.802 169.992 524.93 169.608 525.186 169.33C525.464 169.053 525.848 168.914 526.338 168.914C526.85 168.914 527.234 169.053 527.49 169.33C527.746 169.608 527.874 169.992 527.874 170.482V190.354C527.874 190.845 527.746 191.229 527.49 191.506C527.256 191.784 526.936 191.922 526.53 191.922C526.146 191.922 525.826 191.848 525.57 191.698C525.336 191.549 525.08 191.293 524.802 190.93L511.682 173.586H512.418V190.322C512.418 190.834 512.29 191.229 512.034 191.506C511.778 191.784 511.405 191.922 510.914 191.922ZM540.296 191.922C539.762 191.922 539.346 191.773 539.048 191.474C538.77 191.176 538.632 190.76 538.632 190.226V171.922H531.848C531.4 171.922 531.048 171.805 530.792 171.57C530.536 171.314 530.408 170.962 530.408 170.514C530.408 170.066 530.536 169.725 530.792 169.49C531.048 169.256 531.4 169.138 531.848 169.138H548.712C549.181 169.138 549.544 169.256 549.8 169.49C550.056 169.725 550.184 170.066 550.184 170.514C550.184 170.962 550.056 171.314 549.8 171.57C549.544 171.805 549.181 171.922 548.712 171.922H541.928V190.226C541.928 190.76 541.789 191.176 541.512 191.474C541.256 191.773 540.85 191.922 540.296 191.922ZM390.026 235.922C389.493 235.922 389.077 235.773 388.778 235.474C388.501 235.176 388.362 234.76 388.362 234.226V214.834C388.362 214.28 388.511 213.864 388.81 213.586C389.109 213.288 389.525 213.138 390.058 213.138H397.706C400.138 213.138 402.015 213.746 403.338 214.962C404.661 216.157 405.322 217.842 405.322 220.018C405.322 222.216 404.661 223.922 403.338 225.138C402.015 226.333 400.138 226.93 397.706 226.93H391.69V234.226C391.69 234.76 391.551 235.176 391.274 235.474C390.997 235.773 390.581 235.922 390.026 235.922ZM391.69 224.274H397.226C398.826 224.274 400.031 223.922 400.842 223.218C401.674 222.493 402.09 221.426 402.09 220.018C402.09 218.632 401.674 217.586 400.842 216.882C400.031 216.157 398.826 215.794 397.226 215.794H391.69V224.274ZM406.453 235.922C406.026 235.922 405.685 235.826 405.429 235.634C405.173 235.442 405.023 235.186 404.981 234.866C404.938 234.546 405.002 234.184 405.173 233.778L413.845 214.322C414.058 213.81 414.325 213.448 414.645 213.234C414.986 213.021 415.359 212.914 415.765 212.914C416.149 212.914 416.501 213.021 416.821 213.234C417.162 213.448 417.439 213.81 417.653 214.322L426.325 233.778C426.517 234.184 426.591 234.557 426.549 234.898C426.506 235.218 426.367 235.474 426.133 235.666C425.898 235.837 425.567 235.922 425.141 235.922C424.671 235.922 424.298 235.805 424.021 235.57C423.743 235.336 423.498 234.973 423.285 234.482L421.045 229.298L422.549 230.194H408.917L410.389 229.298L408.181 234.482C407.967 234.994 407.733 235.368 407.477 235.602C407.221 235.816 406.879 235.922 406.453 235.922ZM415.701 216.818L410.869 228.274L410.069 227.506H421.365L420.629 228.274L415.765 216.818H415.701ZM431.807 235.922C431.274 235.922 430.858 235.773 430.559 235.474C430.282 235.176 430.143 234.76 430.143 234.226V214.834C430.143 214.28 430.293 213.864 430.591 213.586C430.89 213.288 431.306 213.138 431.839 213.138H439.487C441.919 213.138 443.797 213.714 445.119 214.866C446.442 216.018 447.103 217.65 447.103 219.762C447.103 221.128 446.805 222.301 446.207 223.282C445.61 224.264 444.735 225.01 443.583 225.522C442.453 226.034 441.087 226.29 439.487 226.29L439.775 225.842H440.607C441.461 225.842 442.197 226.056 442.815 226.482C443.455 226.909 444.031 227.592 444.543 228.53L447.295 233.65C447.509 234.034 447.605 234.408 447.583 234.77C447.583 235.112 447.455 235.389 447.199 235.602C446.965 235.816 446.623 235.922 446.175 235.922C445.706 235.922 445.322 235.826 445.023 235.634C444.746 235.421 444.49 235.112 444.255 234.706L440.895 228.498C440.447 227.666 439.935 227.112 439.359 226.834C438.783 226.536 438.026 226.386 437.087 226.386H433.471V234.226C433.471 234.76 433.333 235.176 433.055 235.474C432.778 235.773 432.362 235.922 431.807 235.922ZM433.471 223.89H438.943C440.565 223.89 441.791 223.549 442.623 222.866C443.455 222.184 443.871 221.17 443.871 219.826C443.871 218.504 443.455 217.501 442.623 216.818C441.791 216.136 440.565 215.794 438.943 215.794H433.471V223.89ZM458.342 235.922C457.809 235.922 457.393 235.773 457.094 235.474C456.817 235.176 456.678 234.76 456.678 234.226V215.922H449.894C449.446 215.922 449.094 215.805 448.838 215.57C448.582 215.314 448.454 214.962 448.454 214.514C448.454 214.066 448.582 213.725 448.838 213.49C449.094 213.256 449.446 213.138 449.894 213.138H466.758C467.228 213.138 467.59 213.256 467.846 213.49C468.102 213.725 468.23 214.066 468.23 214.514C468.23 214.962 468.102 215.314 467.846 215.57C467.59 215.805 467.228 215.922 466.758 215.922H459.974V234.226C459.974 234.76 459.836 235.176 459.558 235.474C459.302 235.773 458.897 235.922 458.342 235.922ZM472.401 235.922C471.868 235.922 471.452 235.773 471.153 235.474C470.876 235.176 470.737 234.76 470.737 234.226V214.61C470.737 214.056 470.876 213.64 471.153 213.362C471.452 213.064 471.868 212.914 472.401 212.914C472.934 212.914 473.34 213.064 473.617 213.362C473.916 213.64 474.065 214.056 474.065 214.61V234.226C474.065 234.76 473.926 235.176 473.649 235.474C473.372 235.773 472.956 235.922 472.401 235.922ZM489.411 235.986C487.129 235.986 485.177 235.517 483.555 234.578C481.934 233.64 480.686 232.306 479.811 230.578C478.958 228.829 478.531 226.77 478.531 224.402C478.531 222.632 478.777 221.042 479.267 219.634C479.758 218.205 480.462 216.989 481.379 215.986C482.318 214.962 483.459 214.184 484.803 213.65C486.169 213.117 487.705 212.85 489.411 212.85C490.67 212.85 491.875 213.021 493.027 213.362C494.201 213.704 495.214 214.194 496.067 214.834C496.43 215.069 496.665 215.357 496.771 215.698C496.899 216.018 496.921 216.328 496.835 216.626C496.771 216.925 496.633 217.181 496.419 217.394C496.206 217.586 495.929 217.693 495.587 217.714C495.267 217.736 494.915 217.618 494.531 217.362C493.827 216.829 493.049 216.434 492.195 216.178C491.342 215.922 490.446 215.794 489.507 215.794C487.886 215.794 486.521 216.136 485.411 216.818C484.302 217.48 483.459 218.45 482.883 219.73C482.307 221.01 482.019 222.568 482.019 224.402C482.019 226.237 482.307 227.805 482.883 229.106C483.459 230.386 484.302 231.368 485.411 232.05C486.521 232.712 487.886 233.042 489.507 233.042C490.446 233.042 491.342 232.914 492.195 232.658C493.07 232.381 493.891 231.976 494.659 231.442C495.043 231.208 495.385 231.101 495.683 231.122C496.003 231.144 496.27 231.25 496.483 231.442C496.697 231.634 496.835 231.88 496.899 232.178C496.985 232.456 496.974 232.754 496.867 233.074C496.782 233.373 496.579 233.629 496.259 233.842C495.385 234.546 494.35 235.08 493.155 235.442C491.961 235.805 490.713 235.986 489.411 235.986ZM502.588 235.922C502.055 235.922 501.639 235.773 501.34 235.474C501.063 235.176 500.924 234.76 500.924 234.226V214.61C500.924 214.056 501.063 213.64 501.34 213.362C501.639 213.064 502.055 212.914 502.588 212.914C503.122 212.914 503.527 213.064 503.804 213.362C504.103 213.64 504.252 214.056 504.252 214.61V234.226C504.252 234.76 504.114 235.176 503.836 235.474C503.559 235.773 503.143 235.922 502.588 235.922ZM511.151 235.922C510.618 235.922 510.202 235.773 509.903 235.474C509.626 235.176 509.487 234.76 509.487 234.226V214.834C509.487 214.28 509.636 213.864 509.935 213.586C510.234 213.288 510.65 213.138 511.183 213.138H518.831C521.263 213.138 523.14 213.746 524.463 214.962C525.786 216.157 526.447 217.842 526.447 220.018C526.447 222.216 525.786 223.922 524.463 225.138C523.14 226.333 521.263 226.93 518.831 226.93H512.815V234.226C512.815 234.76 512.676 235.176 512.399 235.474C512.122 235.773 511.706 235.922 511.151 235.922ZM512.815 224.274H518.351C519.951 224.274 521.156 223.922 521.967 223.218C522.799 222.493 523.215 221.426 523.215 220.018C523.215 218.632 522.799 217.586 521.967 216.882C521.156 216.157 519.951 215.794 518.351 215.794H512.815V224.274ZM527.578 235.922C527.151 235.922 526.81 235.826 526.554 235.634C526.298 235.442 526.148 235.186 526.106 234.866C526.063 234.546 526.127 234.184 526.298 233.778L534.97 214.322C535.183 213.81 535.45 213.448 535.77 213.234C536.111 213.021 536.484 212.914 536.89 212.914C537.274 212.914 537.626 213.021 537.946 213.234C538.287 213.448 538.564 213.81 538.778 214.322L547.45 233.778C547.642 234.184 547.716 234.557 547.674 234.898C547.631 235.218 547.492 235.474 547.258 235.666C547.023 235.837 546.692 235.922 546.266 235.922C545.796 235.922 545.423 235.805 545.146 235.57C544.868 235.336 544.623 234.973 544.41 234.482L542.17 229.298L543.674 230.194H530.042L531.514 229.298L529.306 234.482C529.092 234.994 528.858 235.368 528.602 235.602C528.346 235.816 528.004 235.922 527.578 235.922ZM536.826 216.818L531.994 228.274L531.194 227.506H542.49L541.754 228.274L536.89 216.818H536.826ZM552.836 235.922C552.346 235.922 551.962 235.784 551.684 235.506C551.407 235.229 551.268 234.834 551.268 234.322V214.578C551.268 214.045 551.396 213.64 551.652 213.362C551.93 213.064 552.292 212.914 552.74 212.914C553.124 212.914 553.412 212.989 553.604 213.138C553.818 213.266 554.063 213.512 554.34 213.874L567.524 231.25H566.724V214.482C566.724 213.992 566.852 213.608 567.108 213.33C567.386 213.053 567.77 212.914 568.26 212.914C568.772 212.914 569.156 213.053 569.412 213.33C569.668 213.608 569.796 213.992 569.796 214.482V234.354C569.796 234.845 569.668 235.229 569.412 235.506C569.178 235.784 568.858 235.922 568.452 235.922C568.068 235.922 567.748 235.848 567.492 235.698C567.258 235.549 567.002 235.293 566.724 234.93L553.604 217.586H554.34V234.322C554.34 234.834 554.212 235.229 553.956 235.506C553.7 235.784 553.327 235.922 552.836 235.922ZM582.217 235.922C581.684 235.922 581.268 235.773 580.969 235.474C580.692 235.176 580.553 234.76 580.553 234.226V215.922H573.769C573.321 215.922 572.969 215.805 572.713 215.57C572.457 215.314 572.329 214.962 572.329 214.514C572.329 214.066 572.457 213.725 572.713 213.49C572.969 213.256 573.321 213.138 573.769 213.138H590.633C591.103 213.138 591.465 213.256 591.721 213.49C591.977 213.725 592.105 214.066 592.105 214.514C592.105 214.962 591.977 215.314 591.721 215.57C591.465 215.805 591.103 215.922 590.633 215.922H583.849V234.226C583.849 234.76 583.711 235.176 583.433 235.474C583.177 235.773 582.772 235.922 582.217 235.922ZM601.351 235.986C600.369 235.986 599.409 235.912 598.471 235.762C597.532 235.613 596.647 235.389 595.815 235.09C594.983 234.77 594.236 234.386 593.575 233.938C593.255 233.704 593.031 233.437 592.903 233.138C592.796 232.84 592.764 232.552 592.807 232.274C592.871 231.976 592.999 231.72 593.191 231.506C593.383 231.293 593.617 231.165 593.895 231.122C594.172 231.058 594.481 231.144 594.823 231.378C595.783 231.997 596.796 232.456 597.863 232.754C598.929 233.032 600.092 233.17 601.351 233.17C603.164 233.17 604.497 232.85 605.351 232.21C606.225 231.549 606.663 230.696 606.663 229.65C606.663 228.797 606.353 228.125 605.735 227.634C605.116 227.122 604.081 226.717 602.631 226.418L599.207 225.714C597.18 225.288 595.665 224.584 594.663 223.602C593.681 222.621 593.191 221.298 593.191 219.634C593.191 218.632 593.393 217.714 593.799 216.882C594.225 216.05 594.812 215.336 595.559 214.738C596.305 214.12 597.201 213.65 598.247 213.33C599.292 213.01 600.433 212.85 601.671 212.85C602.993 212.85 604.231 213.021 605.383 213.362C606.556 213.704 607.601 214.226 608.519 214.93C608.796 215.122 608.977 215.368 609.063 215.666C609.169 215.944 609.191 216.221 609.127 216.498C609.084 216.776 608.967 217.01 608.775 217.202C608.583 217.394 608.337 217.512 608.039 217.554C607.74 217.576 607.409 217.469 607.047 217.234C606.215 216.68 605.361 216.285 604.487 216.05C603.633 215.794 602.684 215.666 601.639 215.666C600.593 215.666 599.676 215.826 598.887 216.146C598.119 216.466 597.521 216.914 597.095 217.49C596.689 218.066 596.487 218.749 596.487 219.538C596.487 220.434 596.775 221.149 597.351 221.682C597.927 222.216 598.887 222.621 600.231 222.898L603.623 223.602C605.756 224.05 607.345 224.744 608.391 225.682C609.436 226.621 609.959 227.869 609.959 229.426C609.959 230.429 609.756 231.336 609.351 232.146C608.945 232.936 608.369 233.618 607.623 234.194C606.876 234.77 605.969 235.218 604.903 235.538C603.857 235.837 602.673 235.986 601.351 235.986Z" fill="#134380"/>
<path d="M754.071 148.138C752.925 148.138 751.765 147.978 750.591 147.658C749.418 147.338 748.325 146.858 747.311 146.218C746.778 145.952 746.405 145.578 746.191 145.098C746.005 144.592 745.951 144.085 746.031 143.578C746.111 143.072 746.311 142.632 746.631 142.258C746.951 141.858 747.351 141.605 747.831 141.498C748.338 141.365 748.911 141.445 749.551 141.738C750.378 142.192 751.165 142.512 751.911 142.698C752.685 142.885 753.431 142.978 754.151 142.978C755.565 142.978 756.765 142.658 757.751 142.018C758.738 141.378 759.471 140.418 759.951 139.138C760.458 137.832 760.711 136.245 760.711 134.378V131.778H761.271C761.058 133.032 760.618 134.112 759.951 135.018C759.285 135.925 758.445 136.618 757.431 137.098C756.418 137.578 755.298 137.818 754.071 137.818C752.498 137.818 751.085 137.432 749.831 136.658C748.578 135.858 747.591 134.765 746.871 133.378C746.151 131.992 745.791 130.432 745.791 128.698C745.791 126.832 746.191 125.178 746.991 123.738C747.791 122.272 748.911 121.125 750.351 120.298C751.791 119.472 753.445 119.058 755.311 119.058C757.738 119.058 759.778 119.618 761.431 120.738C763.111 121.832 764.391 123.445 765.271 125.578C766.151 127.685 766.591 130.232 766.591 133.218C766.591 135.592 766.298 137.698 765.711 139.538C765.151 141.378 764.338 142.938 763.271 144.218C762.205 145.498 760.885 146.472 759.311 147.138C757.765 147.805 756.018 148.138 754.071 148.138ZM755.671 132.978C756.498 132.978 757.218 132.792 757.831 132.418C758.471 132.018 758.965 131.472 759.311 130.778C759.658 130.085 759.831 129.298 759.831 128.418C759.831 127.512 759.658 126.712 759.311 126.018C758.965 125.325 758.471 124.792 757.831 124.418C757.218 124.045 756.498 123.858 755.671 123.858C754.845 123.858 754.125 124.045 753.511 124.418C752.898 124.792 752.405 125.325 752.031 126.018C751.685 126.712 751.511 127.512 751.511 128.418C751.511 129.298 751.685 130.085 752.031 130.778C752.405 131.472 752.898 132.018 753.511 132.418C754.125 132.792 754.845 132.978 755.671 132.978ZM778.056 148.138C776.909 148.138 775.749 147.978 774.576 147.658C773.402 147.338 772.309 146.858 771.296 146.218C770.762 145.952 770.389 145.578 770.176 145.098C769.989 144.592 769.936 144.085 770.016 143.578C770.096 143.072 770.296 142.632 770.616 142.258C770.936 141.858 771.336 141.605 771.816 141.498C772.322 141.365 772.896 141.445 773.536 141.738C774.362 142.192 775.149 142.512 775.896 142.698C776.669 142.885 777.416 142.978 778.136 142.978C779.549 142.978 780.749 142.658 781.736 142.018C782.722 141.378 783.456 140.418 783.936 139.138C784.442 137.832 784.696 136.245 784.696 134.378V131.778H785.256C785.042 133.032 784.602 134.112 783.936 135.018C783.269 135.925 782.429 136.618 781.416 137.098C780.402 137.578 779.282 137.818 778.056 137.818C776.482 137.818 775.069 137.432 773.816 136.658C772.562 135.858 771.576 134.765 770.856 133.378C770.136 131.992 769.776 130.432 769.776 128.698C769.776 126.832 770.176 125.178 770.976 123.738C771.776 122.272 772.896 121.125 774.336 120.298C775.776 119.472 777.429 119.058 779.296 119.058C781.722 119.058 783.762 119.618 785.416 120.738C787.096 121.832 788.376 123.445 789.256 125.578C790.136 127.685 790.576 130.232 790.576 133.218C790.576 135.592 790.282 137.698 789.696 139.538C789.136 141.378 788.322 142.938 787.256 144.218C786.189 145.498 784.869 146.472 783.296 147.138C781.749 147.805 780.002 148.138 778.056 148.138ZM779.656 132.978C780.482 132.978 781.202 132.792 781.816 132.418C782.456 132.018 782.949 131.472 783.296 130.778C783.642 130.085 783.816 129.298 783.816 128.418C783.816 127.512 783.642 126.712 783.296 126.018C782.949 125.325 782.456 124.792 781.816 124.418C781.202 124.045 780.482 123.858 779.656 123.858C778.829 123.858 778.109 124.045 777.496 124.418C776.882 124.792 776.389 125.325 776.016 126.018C775.669 126.712 775.496 127.512 775.496 128.418C775.496 129.298 775.669 130.085 776.016 130.778C776.389 131.472 776.882 132.018 777.496 132.418C778.109 132.792 778.829 132.978 779.656 132.978ZM804.36 148.138C800.947 148.138 798.333 146.872 796.52 144.338C794.733 141.778 793.84 138.165 793.84 133.498C793.84 130.378 794.24 127.752 795.04 125.618C795.867 123.458 797.053 121.832 798.6 120.738C800.173 119.618 802.093 119.058 804.36 119.058C807.8 119.058 810.413 120.298 812.2 122.778C813.987 125.232 814.88 128.805 814.88 133.498C814.88 136.618 814.467 139.272 813.64 141.458C812.84 143.618 811.667 145.272 810.12 146.418C808.573 147.565 806.653 148.138 804.36 148.138ZM804.36 143.098C805.907 143.098 807.053 142.338 807.8 140.818C808.547 139.272 808.92 136.832 808.92 133.498C808.92 130.165 808.547 127.765 807.8 126.298C807.053 124.832 805.907 124.098 804.36 124.098C802.813 124.098 801.667 124.832 800.92 126.298C800.173 127.765 799.8 130.165 799.8 133.498C799.8 136.832 800.173 139.272 800.92 140.818C801.667 142.338 802.813 143.098 804.36 143.098ZM822.384 152.258C821.984 152.738 821.558 153.005 821.104 153.058C820.651 153.138 820.264 153.058 819.944 152.818C819.624 152.578 819.438 152.232 819.384 151.778C819.358 151.352 819.558 150.885 819.984 150.378C820.571 149.632 820.971 148.898 821.184 148.178C821.398 147.458 821.504 146.818 821.504 146.258L821.704 147.898C820.638 147.898 819.771 147.592 819.104 146.978C818.438 146.365 818.104 145.525 818.104 144.458C818.104 143.472 818.411 142.672 819.024 142.058C819.638 141.418 820.478 141.098 821.544 141.098C822.638 141.098 823.491 141.472 824.104 142.218C824.718 142.938 825.024 143.965 825.024 145.298C825.024 145.992 824.958 146.698 824.824 147.418C824.691 148.138 824.438 148.898 824.064 149.698C823.691 150.498 823.131 151.352 822.384 152.258ZM838.735 148.138C835.322 148.138 832.708 146.872 830.895 144.338C829.108 141.778 828.215 138.165 828.215 133.498C828.215 130.378 828.615 127.752 829.415 125.618C830.242 123.458 831.428 121.832 832.975 120.738C834.548 119.618 836.468 119.058 838.735 119.058C842.175 119.058 844.788 120.298 846.575 122.778C848.362 125.232 849.255 128.805 849.255 133.498C849.255 136.618 848.842 139.272 848.015 141.458C847.215 143.618 846.042 145.272 844.495 146.418C842.948 147.565 841.028 148.138 838.735 148.138ZM838.735 143.098C840.282 143.098 841.428 142.338 842.175 140.818C842.922 139.272 843.295 136.832 843.295 133.498C843.295 130.165 842.922 127.765 842.175 126.298C841.428 124.832 840.282 124.098 838.735 124.098C837.188 124.098 836.042 124.832 835.295 126.298C834.548 127.765 834.175 130.165 834.175 133.498C834.175 136.832 834.548 139.272 835.295 140.818C836.042 142.338 837.188 143.098 838.735 143.098ZM862.719 148.138C859.306 148.138 856.693 146.872 854.879 144.338C853.093 141.778 852.199 138.165 852.199 133.498C852.199 130.378 852.599 127.752 853.399 125.618C854.226 123.458 855.413 121.832 856.959 120.738C858.533 119.618 860.453 119.058 862.719 119.058C866.159 119.058 868.773 120.298 870.559 122.778C872.346 125.232 873.239 128.805 873.239 133.498C873.239 136.618 872.826 139.272 871.999 141.458C871.199 143.618 870.026 145.272 868.479 146.418C866.933 147.565 865.013 148.138 862.719 148.138ZM862.719 143.098C864.266 143.098 865.413 142.338 866.159 140.818C866.906 139.272 867.279 136.832 867.279 133.498C867.279 130.165 866.906 127.765 866.159 126.298C865.413 124.832 864.266 124.098 862.719 124.098C861.173 124.098 860.026 124.832 859.279 126.298C858.533 127.765 858.159 130.165 858.159 133.498C858.159 136.832 858.533 139.272 859.279 140.818C860.026 142.338 861.173 143.098 862.719 143.098ZM886.704 148.138C883.29 148.138 880.677 146.872 878.864 144.338C877.077 141.778 876.184 138.165 876.184 133.498C876.184 130.378 876.584 127.752 877.384 125.618C878.21 123.458 879.397 121.832 880.944 120.738C882.517 119.618 884.437 119.058 886.704 119.058C890.144 119.058 892.757 120.298 894.544 122.778C896.33 125.232 897.224 128.805 897.224 133.498C897.224 136.618 896.81 139.272 895.984 141.458C895.184 143.618 894.01 145.272 892.464 146.418C890.917 147.565 888.997 148.138 886.704 148.138ZM886.704 143.098C888.25 143.098 889.397 142.338 890.144 140.818C890.89 139.272 891.264 136.832 891.264 133.498C891.264 130.165 890.89 127.765 890.144 126.298C889.397 124.832 888.25 124.098 886.704 124.098C885.157 124.098 884.01 124.832 883.264 126.298C882.517 127.765 882.144 130.165 882.144 133.498C882.144 136.832 882.517 139.272 883.264 140.818C884.01 142.338 885.157 143.098 886.704 143.098ZM692.263 191.986C689.809 191.986 687.74 191.528 686.055 190.61C684.369 189.672 683.089 188.338 682.215 186.61C681.361 184.882 680.935 182.824 680.935 180.434C680.935 178.642 681.18 177.042 681.671 175.634C682.183 174.205 682.908 172.989 683.847 171.986C684.807 170.962 685.969 170.184 687.335 169.65C688.721 169.117 690.289 168.85 692.039 168.85C693.319 168.85 694.577 169.021 695.815 169.362C697.052 169.682 698.183 170.216 699.207 170.962C699.505 171.176 699.697 171.421 699.783 171.698C699.868 171.976 699.868 172.264 699.783 172.562C699.719 172.84 699.58 173.085 699.367 173.298C699.175 173.512 698.929 173.64 698.631 173.682C698.353 173.725 698.044 173.64 697.703 173.426C696.871 172.85 695.996 172.434 695.079 172.178C694.161 171.901 693.148 171.762 692.039 171.762C690.375 171.762 688.967 172.104 687.815 172.786C686.684 173.469 685.831 174.461 685.255 175.762C684.679 177.042 684.391 178.6 684.391 180.434C684.391 183.272 685.063 185.426 686.407 186.898C687.751 188.37 689.745 189.106 692.391 189.106C693.351 189.106 694.289 189.021 695.207 188.85C696.145 188.658 697.041 188.392 697.895 188.05L697.223 189.714V182.258H693.095C692.668 182.258 692.327 182.152 692.071 181.938C691.836 181.704 691.719 181.384 691.719 180.978C691.719 180.573 691.836 180.274 692.071 180.082C692.327 179.869 692.668 179.762 693.095 179.762H698.631C699.079 179.762 699.42 179.88 699.655 180.114C699.889 180.349 700.007 180.69 700.007 181.138V189.202C700.007 189.586 699.932 189.917 699.783 190.194C699.655 190.45 699.431 190.642 699.111 190.77C698.193 191.133 697.116 191.432 695.879 191.666C694.641 191.88 693.436 191.986 692.263 191.986ZM706.805 191.698C706.272 191.698 705.856 191.549 705.557 191.25C705.258 190.952 705.109 190.536 705.109 190.002V170.706C705.109 170.152 705.248 169.736 705.525 169.458C705.824 169.16 706.24 169.01 706.773 169.01C707.306 169.01 707.712 169.16 707.989 169.458C708.288 169.736 708.437 170.152 708.437 170.706V188.85H718.357C718.826 188.85 719.189 188.978 719.445 189.234C719.701 189.469 719.829 189.81 719.829 190.258C719.829 190.706 719.701 191.058 719.445 191.314C719.189 191.57 718.826 191.698 718.357 191.698H706.805ZM731.37 191.986C729.236 191.986 727.37 191.517 725.77 190.578C724.191 189.618 722.964 188.274 722.09 186.546C721.236 184.797 720.81 182.749 720.81 180.402C720.81 178.632 721.055 177.042 721.546 175.634C722.036 174.205 722.74 172.989 723.658 171.986C724.575 170.962 725.684 170.184 726.986 169.65C728.287 169.117 729.748 168.85 731.37 168.85C733.524 168.85 735.391 169.32 736.97 170.258C738.548 171.197 739.764 172.53 740.618 174.258C741.492 175.986 741.93 178.024 741.93 180.37C741.93 182.141 741.684 183.741 741.194 185.17C740.703 186.6 739.988 187.826 739.05 188.85C738.132 189.874 737.023 190.653 735.722 191.186C734.42 191.72 732.97 191.986 731.37 191.986ZM731.37 189.106C732.863 189.106 734.132 188.765 735.178 188.082C736.244 187.4 737.055 186.408 737.61 185.106C738.186 183.805 738.474 182.237 738.474 180.402C738.474 177.65 737.855 175.517 736.618 174.002C735.38 172.488 733.631 171.73 731.37 171.73C729.876 171.73 728.596 172.072 727.53 172.754C726.484 173.416 725.674 174.397 725.098 175.698C724.543 177 724.266 178.568 724.266 180.402C724.266 183.133 724.884 185.266 726.122 186.802C727.38 188.338 729.13 189.106 731.37 189.106ZM748.182 191.698C747.606 191.698 747.158 191.549 746.838 191.25C746.54 190.93 746.39 190.482 746.39 189.906V170.93C746.39 170.354 746.54 169.917 746.838 169.618C747.158 169.298 747.606 169.138 748.182 169.138H755.798C757.356 169.138 758.678 169.373 759.766 169.842C760.876 170.312 761.718 170.984 762.294 171.858C762.892 172.733 763.19 173.789 763.19 175.026C763.19 176.392 762.785 177.544 761.974 178.482C761.164 179.421 760.065 180.05 758.678 180.37V179.89C760.257 180.104 761.494 180.701 762.39 181.682C763.286 182.642 763.734 183.901 763.734 185.458C763.734 187.464 763.073 189.01 761.75 190.098C760.428 191.165 758.572 191.698 756.182 191.698H748.182ZM749.59 189.138H755.798C757.398 189.138 758.582 188.829 759.35 188.21C760.118 187.57 760.502 186.61 760.502 185.33C760.502 184.05 760.118 183.101 759.35 182.482C758.582 181.864 757.398 181.554 755.798 181.554H749.59V189.138ZM749.59 178.994H755.286C756.822 178.994 757.985 178.685 758.774 178.066C759.564 177.448 759.958 176.541 759.958 175.346C759.958 174.152 759.564 173.245 758.774 172.626C757.985 172.008 756.822 171.698 755.286 171.698H749.59V178.994ZM767.887 191.922C767.461 191.922 767.119 191.826 766.863 191.634C766.607 191.442 766.458 191.186 766.415 190.866C766.373 190.546 766.437 190.184 766.607 189.778L775.279 170.322C775.493 169.81 775.759 169.448 776.079 169.234C776.421 169.021 776.794 168.914 777.199 168.914C777.583 168.914 777.935 169.021 778.255 169.234C778.597 169.448 778.874 169.81 779.087 170.322L787.759 189.778C787.951 190.184 788.026 190.557 787.983 190.898C787.941 191.218 787.802 191.474 787.567 191.666C787.333 191.837 787.002 191.922 786.575 191.922C786.106 191.922 785.733 191.805 785.455 191.57C785.178 191.336 784.933 190.973 784.719 190.482L782.479 185.298L783.983 186.194H770.351L771.823 185.298L769.615 190.482C769.402 190.994 769.167 191.368 768.911 191.602C768.655 191.816 768.314 191.922 767.887 191.922ZM777.135 172.818L772.303 184.274L771.503 183.506H782.799L782.063 184.274L777.199 172.818H777.135ZM793.274 191.698C792.74 191.698 792.324 191.549 792.026 191.25C791.727 190.952 791.578 190.536 791.578 190.002V170.706C791.578 170.152 791.716 169.736 791.994 169.458C792.292 169.16 792.708 169.01 793.242 169.01C793.775 169.01 794.18 169.16 794.458 169.458C794.756 169.736 794.906 170.152 794.906 170.706V188.85H804.826C805.295 188.85 805.658 188.978 805.914 189.234C806.17 189.469 806.298 189.81 806.298 190.258C806.298 190.706 806.17 191.058 805.914 191.314C805.658 191.57 805.295 191.698 804.826 191.698H793.274ZM827.784 191.986C825.501 191.986 823.549 191.517 821.928 190.578C820.306 189.64 819.058 188.306 818.184 186.578C817.33 184.829 816.904 182.77 816.904 180.402C816.904 178.632 817.149 177.042 817.64 175.634C818.13 174.205 818.834 172.989 819.752 171.986C820.69 170.962 821.832 170.184 823.176 169.65C824.541 169.117 826.077 168.85 827.784 168.85C829.042 168.85 830.248 169.021 831.4 169.362C832.573 169.704 833.586 170.194 834.44 170.834C834.802 171.069 835.037 171.357 835.144 171.698C835.272 172.018 835.293 172.328 835.208 172.626C835.144 172.925 835.005 173.181 834.792 173.394C834.578 173.586 834.301 173.693 833.96 173.714C833.64 173.736 833.288 173.618 832.904 173.362C832.2 172.829 831.421 172.434 830.568 172.178C829.714 171.922 828.818 171.794 827.88 171.794C826.258 171.794 824.893 172.136 823.784 172.818C822.674 173.48 821.832 174.45 821.256 175.73C820.68 177.01 820.392 178.568 820.392 180.402C820.392 182.237 820.68 183.805 821.256 185.106C821.832 186.386 822.674 187.368 823.784 188.05C824.893 188.712 826.258 189.042 827.88 189.042C828.818 189.042 829.714 188.914 830.568 188.658C831.442 188.381 832.264 187.976 833.032 187.442C833.416 187.208 833.757 187.101 834.056 187.122C834.376 187.144 834.642 187.25 834.856 187.442C835.069 187.634 835.208 187.88 835.272 188.178C835.357 188.456 835.346 188.754 835.24 189.074C835.154 189.373 834.952 189.629 834.632 189.842C833.757 190.546 832.722 191.08 831.528 191.442C830.333 191.805 829.085 191.986 827.784 191.986ZM840.961 191.922C840.427 191.922 840.011 191.773 839.713 191.474C839.435 191.176 839.297 190.76 839.297 190.226V170.61C839.297 170.056 839.435 169.64 839.713 169.362C840.011 169.064 840.427 168.914 840.961 168.914C841.494 168.914 841.899 169.064 842.177 169.362C842.475 169.64 842.625 170.056 842.625 170.61V178.866H855.265V170.61C855.265 170.056 855.403 169.64 855.681 169.362C855.979 169.064 856.395 168.914 856.929 168.914C857.462 168.914 857.867 169.064 858.145 169.362C858.422 169.64 858.561 170.056 858.561 170.61V190.226C858.561 190.76 858.422 191.176 858.145 191.474C857.867 191.773 857.462 191.922 856.929 191.922C856.395 191.922 855.979 191.773 855.681 191.474C855.403 191.176 855.265 190.76 855.265 190.226V181.65H842.625V190.226C842.625 190.76 842.486 191.176 842.209 191.474C841.931 191.773 841.515 191.922 840.961 191.922ZM865.492 191.922C864.958 191.922 864.542 191.773 864.244 191.474C863.966 191.176 863.828 190.76 863.828 190.226V170.61C863.828 170.056 863.966 169.64 864.244 169.362C864.542 169.064 864.958 168.914 865.492 168.914C866.025 168.914 866.43 169.064 866.708 169.362C867.006 169.64 867.156 170.056 867.156 170.61V190.226C867.156 190.76 867.017 191.176 866.74 191.474C866.462 191.773 866.046 191.922 865.492 191.922ZM874.086 191.698C873.553 191.698 873.137 191.549 872.838 191.25C872.54 190.952 872.39 190.536 872.39 190.002V170.706C872.39 170.152 872.529 169.736 872.806 169.458C873.105 169.16 873.521 169.01 874.054 169.01C874.588 169.01 874.993 169.16 875.27 169.458C875.569 169.736 875.718 170.152 875.718 170.706V188.85H885.638C886.108 188.85 886.47 188.978 886.726 189.234C886.982 189.469 887.11 189.81 887.11 190.258C887.11 190.706 886.982 191.058 886.726 191.314C886.47 191.57 886.108 191.698 885.638 191.698H874.086ZM891.839 191.698C891.263 191.698 890.815 191.549 890.495 191.25C890.196 190.93 890.047 190.482 890.047 189.906V170.93C890.047 170.354 890.196 169.917 890.495 169.618C890.815 169.298 891.263 169.138 891.839 169.138H898.015C901.727 169.138 904.585 170.109 906.591 172.05C908.617 173.97 909.631 176.754 909.631 180.402C909.631 182.216 909.375 183.826 908.863 185.234C908.351 186.642 907.593 187.826 906.591 188.786C905.609 189.725 904.404 190.45 902.975 190.962C901.545 191.453 899.892 191.698 898.015 191.698H891.839ZM893.375 188.914H897.823C899.231 188.914 900.447 188.744 901.471 188.402C902.516 188.04 903.391 187.506 904.095 186.802C904.799 186.098 905.321 185.213 905.663 184.146C906.004 183.08 906.175 181.832 906.175 180.402C906.175 177.565 905.471 175.442 904.063 174.034C902.676 172.626 900.596 171.922 897.823 171.922H893.375V188.914ZM913.512 191.922C913.086 191.922 912.744 191.826 912.488 191.634C912.232 191.442 912.083 191.186 912.04 190.866C911.998 190.546 912.062 190.184 912.232 189.778L920.904 170.322C921.118 169.81 921.384 169.448 921.704 169.234C922.046 169.021 922.419 168.914 922.824 168.914C923.208 168.914 923.56 169.021 923.88 169.234C924.222 169.448 924.499 169.81 924.712 170.322L933.384 189.778C933.576 190.184 933.651 190.557 933.608 190.898C933.566 191.218 933.427 191.474 933.192 191.666C932.958 191.837 932.627 191.922 932.2 191.922C931.731 191.922 931.358 191.805 931.08 191.57C930.803 191.336 930.558 190.973 930.344 190.482L928.104 185.298L929.608 186.194H915.976L917.448 185.298L915.24 190.482C915.027 190.994 914.792 191.368 914.536 191.602C914.28 191.816 913.939 191.922 913.512 191.922ZM922.76 172.818L917.928 184.274L917.128 183.506H928.424L927.688 184.274L922.824 172.818H922.76ZM938.867 191.922C938.333 191.922 937.917 191.773 937.619 191.474C937.341 191.176 937.203 190.76 937.203 190.226V170.834C937.203 170.28 937.352 169.864 937.651 169.586C937.949 169.288 938.365 169.138 938.899 169.138H946.547C948.979 169.138 950.856 169.714 952.179 170.866C953.501 172.018 954.163 173.65 954.163 175.762C954.163 177.128 953.864 178.301 953.267 179.282C952.669 180.264 951.795 181.01 950.643 181.522C949.512 182.034 948.147 182.29 946.547 182.29L946.835 181.842H947.667C948.52 181.842 949.256 182.056 949.875 182.482C950.515 182.909 951.091 183.592 951.603 184.53L954.355 189.65C954.568 190.034 954.664 190.408 954.643 190.77C954.643 191.112 954.515 191.389 954.259 191.602C954.024 191.816 953.683 191.922 953.235 191.922C952.765 191.922 952.381 191.826 952.083 191.634C951.805 191.421 951.549 191.112 951.315 190.706L947.955 184.498C947.507 183.666 946.995 183.112 946.419 182.834C945.843 182.536 945.085 182.386 944.147 182.386H940.531V190.226C940.531 190.76 940.392 191.176 940.115 191.474C939.837 191.773 939.421 191.922 938.867 191.922ZM940.531 179.89H946.003C947.624 179.89 948.851 179.549 949.683 178.866C950.515 178.184 950.931 177.17 950.931 175.826C950.931 174.504 950.515 173.501 949.683 172.818C948.851 172.136 947.624 171.794 946.003 171.794H940.531V179.89ZM965.402 191.922C964.869 191.922 964.453 191.773 964.154 191.474C963.877 191.176 963.738 190.76 963.738 190.226V171.922H956.954C956.506 171.922 956.154 171.805 955.898 171.57C955.642 171.314 955.514 170.962 955.514 170.514C955.514 170.066 955.642 169.725 955.898 169.49C956.154 169.256 956.506 169.138 956.954 169.138H973.818C974.287 169.138 974.65 169.256 974.906 169.49C975.162 169.725 975.29 170.066 975.29 170.514C975.29 170.962 975.162 171.314 974.906 171.57C974.65 171.805 974.287 171.922 973.818 171.922H967.034V190.226C967.034 190.76 966.895 191.176 966.618 191.474C966.362 191.773 965.957 191.922 965.402 191.922ZM757.398 235.922C756.865 235.922 756.449 235.773 756.15 235.474C755.873 235.176 755.734 234.76 755.734 234.226V214.834C755.734 214.28 755.883 213.864 756.182 213.586C756.481 213.288 756.897 213.138 757.43 213.138H765.078C767.51 213.138 769.387 213.714 770.71 214.866C772.033 216.018 772.694 217.65 772.694 219.762C772.694 221.128 772.395 222.301 771.798 223.282C771.201 224.264 770.326 225.01 769.174 225.522C768.043 226.034 766.678 226.29 765.078 226.29L765.366 225.842H766.198C767.051 225.842 767.787 226.056 768.406 226.482C769.046 226.909 769.622 227.592 770.134 228.53L772.886 233.65C773.099 234.034 773.195 234.408 773.174 234.77C773.174 235.112 773.046 235.389 772.79 235.602C772.555 235.816 772.214 235.922 771.766 235.922C771.297 235.922 770.913 235.826 770.614 235.634C770.337 235.421 770.081 235.112 769.846 234.706L766.486 228.498C766.038 227.666 765.526 227.112 764.95 226.834C764.374 226.536 763.617 226.386 762.678 226.386H759.062V234.226C759.062 234.76 758.923 235.176 758.646 235.474C758.369 235.773 757.953 235.922 757.398 235.922ZM759.062 223.89H764.534C766.155 223.89 767.382 223.549 768.214 222.866C769.046 222.184 769.462 221.17 769.462 219.826C769.462 218.504 769.046 217.501 768.214 216.818C767.382 216.136 766.155 215.794 764.534 215.794H759.062V223.89ZM779.182 235.698C778.606 235.698 778.158 235.549 777.838 235.25C777.54 234.93 777.39 234.482 777.39 233.906V214.93C777.39 214.354 777.54 213.917 777.838 213.618C778.158 213.298 778.606 213.138 779.182 213.138H790.862C791.31 213.138 791.652 213.256 791.886 213.49C792.121 213.704 792.238 214.024 792.238 214.45C792.238 214.898 792.121 215.24 791.886 215.474C791.652 215.709 791.31 215.826 790.862 215.826H780.59V222.898H790.158C790.628 222.898 790.969 223.016 791.182 223.25C791.417 223.485 791.534 223.816 791.534 224.242C791.534 224.69 791.417 225.032 791.182 225.266C790.969 225.48 790.628 225.586 790.158 225.586H780.59V233.01H790.862C791.31 233.01 791.652 233.128 791.886 233.362C792.121 233.597 792.238 233.928 792.238 234.354C792.238 234.802 792.121 235.144 791.886 235.378C791.652 235.592 791.31 235.698 790.862 235.698H779.182ZM795.669 235.922C795.242 235.922 794.901 235.826 794.645 235.634C794.389 235.442 794.239 235.186 794.197 234.866C794.154 234.546 794.218 234.184 794.389 233.778L803.061 214.322C803.274 213.81 803.541 213.448 803.861 213.234C804.202 213.021 804.575 212.914 804.981 212.914C805.365 212.914 805.717 213.021 806.037 213.234C806.378 213.448 806.655 213.81 806.869 214.322L815.541 233.778C815.733 234.184 815.807 234.557 815.765 234.898C815.722 235.218 815.583 235.474 815.349 235.666C815.114 235.837 814.783 235.922 814.357 235.922C813.887 235.922 813.514 235.805 813.237 235.57C812.959 235.336 812.714 234.973 812.501 234.482L810.261 229.298L811.765 230.194H798.133L799.605 229.298L797.397 234.482C797.183 234.994 796.949 235.368 796.693 235.602C796.437 235.816 796.095 235.922 795.669 235.922ZM804.917 216.818L800.085 228.274L799.285 227.506H810.581L809.845 228.274L804.981 216.818H804.917ZM821.151 235.698C820.575 235.698 820.127 235.549 819.807 235.25C819.508 234.93 819.359 234.482 819.359 233.906V214.93C819.359 214.354 819.508 213.917 819.807 213.618C820.127 213.298 820.575 213.138 821.151 213.138H827.327C831.039 213.138 833.898 214.109 835.903 216.05C837.93 217.97 838.943 220.754 838.943 224.402C838.943 226.216 838.687 227.826 838.175 229.234C837.663 230.642 836.906 231.826 835.903 232.786C834.922 233.725 833.716 234.45 832.287 234.962C830.858 235.453 829.204 235.698 827.327 235.698H821.151ZM822.687 232.914H827.135C828.543 232.914 829.759 232.744 830.783 232.402C831.828 232.04 832.703 231.506 833.407 230.802C834.111 230.098 834.634 229.213 834.975 228.146C835.316 227.08 835.487 225.832 835.487 224.402C835.487 221.565 834.783 219.442 833.375 218.034C831.988 216.626 829.908 215.922 827.135 215.922H822.687V232.914ZM845.182 235.698C844.606 235.698 844.158 235.549 843.838 235.25C843.54 234.93 843.39 234.482 843.39 233.906V214.93C843.39 214.354 843.54 213.917 843.838 213.618C844.158 213.298 844.606 213.138 845.182 213.138H856.862C857.31 213.138 857.652 213.256 857.886 213.49C858.121 213.704 858.238 214.024 858.238 214.45C858.238 214.898 858.121 215.24 857.886 215.474C857.652 215.709 857.31 215.826 856.862 215.826H846.59V222.898H856.158C856.628 222.898 856.969 223.016 857.182 223.25C857.417 223.485 857.534 223.816 857.534 224.242C857.534 224.69 857.417 225.032 857.182 225.266C856.969 225.48 856.628 225.586 856.158 225.586H846.59V233.01H856.862C857.31 233.01 857.652 233.128 857.886 233.362C858.121 233.597 858.238 233.928 858.238 234.354C858.238 234.802 858.121 235.144 857.886 235.378C857.652 235.592 857.31 235.698 856.862 235.698H845.182ZM863.898 235.922C863.365 235.922 862.949 235.773 862.65 235.474C862.373 235.176 862.234 234.76 862.234 234.226V214.834C862.234 214.28 862.383 213.864 862.682 213.586C862.981 213.288 863.397 213.138 863.93 213.138H871.578C874.01 213.138 875.887 213.714 877.21 214.866C878.533 216.018 879.194 217.65 879.194 219.762C879.194 221.128 878.895 222.301 878.298 223.282C877.701 224.264 876.826 225.01 875.674 225.522C874.543 226.034 873.178 226.29 871.578 226.29L871.866 225.842H872.698C873.551 225.842 874.287 226.056 874.906 226.482C875.546 226.909 876.122 227.592 876.634 228.53L879.386 233.65C879.599 234.034 879.695 234.408 879.674 234.77C879.674 235.112 879.546 235.389 879.29 235.602C879.055 235.816 878.714 235.922 878.266 235.922C877.797 235.922 877.413 235.826 877.114 235.634C876.837 235.421 876.581 235.112 876.346 234.706L872.986 228.498C872.538 227.666 872.026 227.112 871.45 226.834C870.874 226.536 870.117 226.386 869.178 226.386H865.562V234.226C865.562 234.76 865.423 235.176 865.146 235.474C864.869 235.773 864.453 235.922 863.898 235.922ZM865.562 223.89H871.034C872.655 223.89 873.882 223.549 874.714 222.866C875.546 222.184 875.962 221.17 875.962 219.826C875.962 218.504 875.546 217.501 874.714 216.818C873.882 216.136 872.655 215.794 871.034 215.794H865.562V223.89ZM891.379 235.986C890.398 235.986 889.438 235.912 888.499 235.762C887.56 235.613 886.675 235.389 885.843 235.09C885.011 234.77 884.264 234.386 883.603 233.938C883.283 233.704 883.059 233.437 882.931 233.138C882.824 232.84 882.792 232.552 882.835 232.274C882.899 231.976 883.027 231.72 883.219 231.506C883.411 231.293 883.646 231.165 883.923 231.122C884.2 231.058 884.51 231.144 884.851 231.378C885.811 231.997 886.824 232.456 887.891 232.754C888.958 233.032 890.12 233.17 891.379 233.17C893.192 233.17 894.526 232.85 895.379 232.21C896.254 231.549 896.691 230.696 896.691 229.65C896.691 228.797 896.382 228.125 895.763 227.634C895.144 227.122 894.11 226.717 892.659 226.418L889.235 225.714C887.208 225.288 885.694 224.584 884.691 223.602C883.71 222.621 883.219 221.298 883.219 219.634C883.219 218.632 883.422 217.714 883.827 216.882C884.254 216.05 884.84 215.336 885.587 214.738C886.334 214.12 887.23 213.65 888.275 213.33C889.32 213.01 890.462 212.85 891.699 212.85C893.022 212.85 894.259 213.021 895.411 213.362C896.584 213.704 897.63 214.226 898.547 214.93C898.824 215.122 899.006 215.368 899.091 215.666C899.198 215.944 899.219 216.221 899.155 216.498C899.112 216.776 898.995 217.01 898.803 217.202C898.611 217.394 898.366 217.512 898.067 217.554C897.768 217.576 897.438 217.469 897.075 217.234C896.243 216.68 895.39 216.285 894.515 216.05C893.662 215.794 892.712 215.666 891.667 215.666C890.622 215.666 889.704 215.826 888.915 216.146C888.147 216.466 887.55 216.914 887.123 217.49C886.718 218.066 886.515 218.749 886.515 219.538C886.515 220.434 886.803 221.149 887.379 221.682C887.955 222.216 888.915 222.621 890.259 222.898L893.651 223.602C895.784 224.05 897.374 224.744 898.419 225.682C899.464 226.621 899.987 227.869 899.987 229.426C899.987 230.429 899.784 231.336 899.379 232.146C898.974 232.936 898.398 233.618 897.651 234.194C896.904 234.77 895.998 235.218 894.931 235.538C893.886 235.837 892.702 235.986 891.379 235.986Z" fill="#134380"/>
<g clip-path="url(#clip0_2860_5912)">
<path d="M108.79 63.0497C109.364 60.9517 109.972 58.8614 110.505 56.7504C111.979 50.8934 113.411 45.0235 114.88 39.164C116.264 33.6511 121.066 29.6386 126.743 29.5067C132.437 29.3747 138.14 29.3696 143.834 29.5041C149.697 29.6412 154.267 33.457 155.759 39.1691C156.576 42.2994 157.375 45.4323 158.244 48.7954C158.474 48.221 158.642 47.8433 158.782 47.4553C159.946 44.2422 161.092 41.024 162.268 37.8187C164.166 32.6447 168.868 29.3334 174.371 29.3023C178.049 29.2816 181.729 29.2764 185.406 29.3049C190.726 29.3489 195.476 32.6732 197.292 37.6609C200.344 46.0428 203.362 54.4376 206.38 62.8298C207.096 64.8218 206.211 67.0932 204.362 68.1384C202.394 69.2508 199.831 68.8782 198.458 67.1889C197.923 66.5292 197.457 65.7661 197.152 64.977C194.879 59.0709 192.655 53.1441 190.415 47.225C190.328 46.9896 190.312 46.6507 190.144 46.5343C189.772 46.2782 189.314 45.9781 188.913 46.0092C188.706 46.0247 188.453 46.6973 188.403 47.0983C188.365 47.4217 188.584 47.7812 188.711 48.1176C191.401 55.1775 194.093 62.2348 196.782 69.2922C197.646 71.5584 196.873 72.7148 194.47 72.7148C184.698 72.7199 174.925 72.7199 165.149 72.7148C162.77 72.7148 161.992 71.5998 162.824 69.4086C165.553 62.2115 168.281 55.0145 171.009 47.8175C171.11 47.5484 171.338 47.2432 171.278 47.0155C171.18 46.643 170.968 46.1773 170.665 46.0221C170.43 45.9031 169.882 46.0997 169.657 46.3325C169.375 46.6249 169.264 47.0905 169.111 47.4941C166.877 53.3795 164.653 59.2675 162.418 65.153C161.456 67.6882 159.405 68.9895 156.887 68.6816C154.885 68.4359 153.548 67.2433 153 65.1633C151.538 59.5987 150.09 54.0314 148.637 48.4642C148.549 48.1279 148.453 47.7942 148.166 47.4786V54.9912H122.665V47.2871C122.595 47.2794 122.525 47.2742 122.458 47.2664C121.671 50.2803 120.883 53.2916 120.102 56.3054C119.354 59.1951 118.61 62.0874 117.872 64.9796C117.267 67.3519 115.765 68.6635 113.51 68.7696C111.464 68.8653 109.845 67.6753 108.981 65.453C108.945 65.3599 108.855 65.2901 108.79 65.2099C108.79 64.4881 108.79 63.7663 108.79 63.0445V63.0497Z" fill="#134380"/>
<path d="M142.12 98.1156C139.197 97.055 138.191 94.9052 138.243 91.8887C138.349 85.8351 138.287 79.7764 138.259 73.7202C138.253 72.9027 138.434 72.5871 139.329 72.6052C142.208 72.6621 145.086 72.6259 148.145 72.6259V73.9505C148.145 79.9342 148.068 85.9205 148.176 91.9042C148.231 94.9259 147.212 97.0679 144.282 98.1156H142.117H142.12Z" fill="#134380"/>
<path d="M126.538 98.1158C123.652 97.1146 122.563 95.0709 122.62 92.0545C122.734 86.0061 122.654 79.9525 122.654 73.9015C122.654 73.516 122.654 73.1331 122.654 72.6934H132.471C132.471 73.1797 132.471 73.6014 132.471 74.0231C132.471 79.9654 132.38 85.9129 132.51 91.8527C132.574 94.8717 131.594 97.0137 128.703 98.1158H126.538Z" fill="#134380"/>
<path d="M183.676 98.1157C181.408 97.1792 180.645 95.4433 180.681 93.0529C180.766 87.2839 180.725 81.5123 180.691 75.7433C180.686 74.8715 180.89 74.5429 181.821 74.5688C184.045 74.6335 186.272 74.5895 188.623 74.5895V75.8804C188.623 81.6132 188.561 87.3486 188.651 93.0814C188.69 95.4847 187.909 97.2024 185.623 98.1131H183.676V98.1157Z" fill="#134380"/>
<path d="M173.937 98.1158C171.64 97.2155 170.867 95.4926 170.906 93.0919C170.994 87.3591 170.934 81.6263 170.934 75.8909C170.934 75.5054 170.934 75.12 170.934 74.5974C173.456 74.5974 175.861 74.5922 178.266 74.6C179.036 74.6026 178.835 75.2079 178.835 75.6322C178.848 79.5618 178.842 83.4941 178.842 87.4237C178.842 89.2993 178.767 91.1775 178.861 93.0479C178.982 95.4331 178.144 97.1716 175.884 98.1158H173.937Z" fill="#134380"/>
<path d="M194.479 13.9299C194.492 21.4736 188.267 27.7187 180.744 27.7109C173.262 27.7031 167.045 21.4943 167.032 14.0153C167.019 6.48456 173.161 0.293872 180.658 0.27835C188.275 0.262828 194.466 6.3785 194.479 13.9299Z" fill="#134380"/>
<path d="M136.381 0.27832C143.904 0.27832 150.08 6.42762 150.098 13.9325C150.116 21.4581 143.863 27.7212 136.348 27.7109C128.807 27.6979 122.641 21.4814 122.654 13.9015C122.67 6.39399 128.833 0.27832 136.381 0.27832Z" fill="#134380"/>
<path d="M122.703 70.6863V57.0605H148.07V70.6863H122.703Z" fill="#134380"/>
<path d="M166.186 7.89996C165.873 9.34609 165.452 10.7896 165.266 12.2642C164.728 16.481 165.91 20.2503 168.521 23.5668C169.07 24.2627 168.948 24.8086 168.34 25.1863C167.823 25.5097 167.153 25.7218 166.543 25.7399C164.309 25.8046 162.074 25.7735 159.837 25.7632C157.944 25.7528 157.158 24.9767 157.303 23.1141C157.779 17.0243 160.093 11.9124 165.294 8.37856C165.532 8.21557 165.778 8.06812 166.028 7.92066C166.083 7.88961 166.16 7.90255 166.189 7.89996H166.186Z" fill="#134380"/>
<path d="M195.254 7.77539C199.66 10.409 202.355 14.1679 203.542 19.0004C203.902 20.4595 204.08 21.9754 204.207 23.4759C204.326 24.8858 203.607 25.7007 202.213 25.7369C199.655 25.8016 197.095 25.8016 194.54 25.7214C194.005 25.7033 193.399 25.3127 192.993 24.9194C192.789 24.7228 192.792 24.0088 192.991 23.7449C196.557 18.9409 197.343 13.7591 195.241 8.14792C195.22 8.091 195.243 8.01598 195.256 7.77798L195.254 7.77539Z" fill="#134380"/>
</g>
<g clip-path="url(#clip1_2860_5912)">
<path d="M479.721 89.3344C480.213 85.247 480.695 81.2105 481.185 77.1762C481.84 71.7618 482.572 66.3566 483.137 60.933C483.573 56.7349 483.993 52.5183 484.083 48.304C484.199 42.8804 482.983 37.6391 481.18 32.5293C480.993 32.0008 481.102 31.2876 481.282 30.7268C481.935 28.6889 482.812 26.7133 483.356 24.65C484.289 21.1281 483.34 17.8832 481.473 14.8644C480.707 13.625 479.885 12.4203 478.974 11.024C480.827 10.3639 482.625 9.63233 484.476 9.08073C491.52 6.98513 498.695 6.35738 506.011 7.16053C515.464 8.20141 524.073 11.3725 531.553 17.2993C540.101 24.073 545.373 32.8016 546.917 43.6974C547.598 48.4979 547.316 53.2984 547.067 58.0919C546.776 63.6979 546.102 69.2669 544.553 74.6859C543.319 79.0064 541.627 83.1122 538.497 86.4518C534.772 90.4283 530.129 92.03 524.761 91.5061C521.594 91.1992 519.464 89.2236 517.802 86.6964C515.517 83.2207 514.363 79.2718 513.149 75.3437C511.746 70.804 510.355 66.2574 508.774 61.78C508.208 60.1829 507.25 58.662 506.212 57.3072C502.96 53.0583 497.303 53.0445 493.924 57.1803C491.64 59.9775 490.483 63.3217 489.417 66.6936C487.848 71.6649 486.401 76.6754 484.762 81.6236C483.915 84.1831 482.632 86.5625 480.755 88.5612C480.545 88.7851 480.321 88.9974 480.088 89.1959C480.012 89.2628 479.888 89.2744 479.721 89.3321V89.3344ZM535.839 41.1148C535.862 35.7096 531.585 31.3592 526.178 31.2876C520.844 31.2184 516.411 35.6011 516.378 40.9763C516.346 46.4069 520.627 50.8058 525.982 50.8404C531.458 50.8773 535.816 46.5777 535.839 41.1125V41.1148ZM509.757 24.8231C509.789 19.3903 505.522 15.0606 500.112 15.0329C494.668 15.0052 490.333 19.2541 490.296 24.65C490.259 30.1521 494.527 34.4841 499.999 34.5003C505.427 34.5141 509.727 30.2514 509.757 24.8231ZM531.137 60.6814C526.78 60.5753 522.997 64.1249 522.87 68.4338C522.734 73.0358 526.268 76.8508 530.743 76.9362C535.338 77.0239 538.996 73.5297 539.116 68.9392C539.234 64.4641 535.684 60.7899 531.135 60.6791L531.137 60.6814Z" fill="#134380"/>
<path d="M472.332 34.5259C474.1 34.5259 475.872 34.4843 477.638 34.5605C478.005 34.5766 478.568 34.9597 478.679 35.2921C480.677 41.3596 481.377 47.5934 480.705 53.9379C479.985 60.7347 479.119 67.5177 478.302 74.3053C477.545 80.5967 476.777 86.8859 475.999 93.175C475.759 95.1206 474.222 96.5215 472.359 96.5492C470.481 96.5792 468.87 95.1229 468.63 93.1427C467.534 84.0679 466.421 74.9954 465.369 65.916C464.766 60.7301 464.113 55.5419 463.767 50.3352C463.435 45.3108 464.337 40.3903 465.823 35.5783C466.066 34.7959 466.4 34.4658 467.259 34.5028C468.948 34.5743 470.642 34.5236 472.334 34.5236L472.332 34.5259Z" fill="#134380"/>
<path d="M449.536 13.4062H459.199V86.6415H449.536V13.4062Z" fill="#134380"/>
<path d="M472.32 8.43652C475.007 11.2753 477.372 14.1256 479.221 17.3982C480.684 19.99 480.776 22.6788 479.865 25.4021C479.283 27.1377 478.438 28.7832 477.714 30.4703C477.462 31.0589 477.07 31.3081 476.384 31.2989C473.656 31.2573 470.928 31.2989 468.203 31.2619C467.847 31.2573 467.335 31.0727 467.166 30.8027C465.659 28.3655 464.607 25.7483 464.24 22.8842C464.014 21.114 464.376 19.4569 465.189 17.876C466.996 14.3541 469.532 11.3976 472.32 8.43652Z" fill="#134380"/>
<path d="M459.247 90.0986V98.0956H449.54V90.0986H459.247Z" fill="#134380"/>
<path d="M459.282 10.0709H449.506C451.14 6.78899 452.707 3.64328 454.383 0.27832C456.056 3.6202 457.621 6.74976 459.282 10.0709Z" fill="#134380"/>
<path d="M462.79 71.8036C463.485 77.5365 464.177 83.2694 464.876 89.0346C463.025 88.2799 462.543 87.6014 462.543 85.8104C462.543 81.5477 462.543 77.2873 462.543 73.0245C462.543 72.6114 462.543 72.1983 462.543 71.7852C462.626 71.7921 462.707 71.7967 462.79 71.8036Z" fill="#134380"/>
<path d="M462.592 34.4587V29.5312C463.949 31.0937 463.963 31.7192 462.592 34.4587Z" fill="#134380"/>
</g>
<g clip-path="url(#clip2_2860_5912)">
<path d="M836.786 18.401C845.028 16.0342 850.688 17.6459 854.783 23.476C858.786 29.1702 859.143 37.4391 853.884 44.0111C854.164 44.2006 854.429 44.4087 854.717 44.5714C862.577 48.9794 867.017 55.941 869.232 64.4261C870.454 69.1116 866.831 73.565 862.001 73.677C859.786 73.7277 857.569 73.685 855.184 73.685C855.184 73.1167 855.184 72.6444 855.184 72.1721C855.184 68.3912 855.197 64.6129 855.181 60.8319C855.154 54.5375 850.245 50.3323 844.004 51.2341C837.73 52.1414 831.716 53.8917 825.955 56.5574C825.416 56.8055 824.552 56.7735 824.005 56.5173C818.007 53.7023 811.701 51.9733 805.159 51.0874C799.956 50.383 794.979 54.8336 794.897 60.2769C794.83 64.6769 794.883 69.0769 794.883 73.4636C789.541 74.4882 785.472 72.3722 784.41 67.9696C784.071 66.5661 784.231 64.9598 784.496 63.5056C785.814 56.2799 788.338 49.5051 793.237 43.9391C795.468 41.4042 798.36 39.4537 800.967 37.2497C801.332 36.9402 801.767 36.716 802.168 36.4545C802.104 36.3345 802.082 36.2197 802.018 36.1877C797.72 33.9811 796.351 30.7551 797.738 26.163C798.955 22.1339 800.07 18.0728 801.362 14.065C803.721 6.74327 808.329 1.66554 816.2 0.480824C822.868 -0.522448 828.141 2.24456 832.226 7.45037C834.36 10.1693 835.369 13.3793 836.226 16.6586C836.38 17.2509 836.599 17.8246 836.786 18.401ZM808.305 18.7212C807.648 22.1206 808.998 26.3791 811.499 29.0287C815.461 33.2233 821.497 33.2286 825.382 28.9567C828.29 25.7628 829.259 21.9471 828.549 17.7179C828.002 14.4653 825.758 12.9444 822.585 13.8863C820.395 14.5373 818.305 15.5539 816.203 16.4798C813.687 17.5872 811.221 18.8332 808.307 18.7238L808.305 18.7212ZM850.231 33.1245C850.346 33.0818 850.458 33.0392 850.573 32.9991C849.956 31.3234 849.594 29.4877 848.673 27.9988C846.053 23.7642 840.724 23.5508 837.573 27.3984C834.579 31.054 835.097 36.9962 838.71 40.006C840.201 41.2494 841.928 41.8658 843.894 41.5003C847.651 40.8065 850.234 37.3804 850.234 33.1245H850.231Z" fill="#134380"/>
<path d="M800.486 73.1407C800.486 69.0956 800.475 65.0478 800.489 61.0027C800.497 57.9449 802.359 56.3653 805.398 56.8215C812.029 57.8195 818.364 59.7193 824.258 62.9906C824.682 63.2254 825.472 63.2041 825.901 62.9612C831.945 59.5645 838.482 57.7261 845.284 56.7015C847.49 56.3679 849.532 58.0943 849.545 60.437C849.596 68.9302 849.585 77.4233 849.55 85.9138C849.542 87.9256 848.35 89.2598 846.29 89.7187C840.86 90.9301 835.566 92.5231 830.672 95.2421C829.472 95.9091 828.34 96.7016 827.172 97.4247C825.757 98.2999 824.279 98.3853 822.916 97.4247C817.179 93.3796 810.676 91.2637 803.928 89.7427C801.609 89.2198 800.502 87.9043 800.491 85.5429C800.473 81.407 800.486 77.2739 800.486 73.1381V73.1407Z" fill="#134380"/>
</g>
<defs>
<clipPath id="clip0_2860_5912">
<rect width="97.8378" height="97.8378" fill="white" transform="translate(108.79 0.27832)"/>
</clipPath>
<clipPath id="clip1_2860_5912">
<rect width="97.8378" height="97.817" fill="white" transform="translate(449.506 0.27832)"/>
</clipPath>
<clipPath id="clip2_2860_5912">
<rect width="85.2542" height="97.8378" fill="white" transform="translate(784.215 0.27832)"/>
</clipPath>
</defs>
</svg>
