<svg width="99" height="99" viewBox="0 0 99 99" fill="none" xmlns="http://www.w3.org/2000/svg">
<g clip-path="url(#clip0_2593_4631)">
<path d="M0.790039 63.0497C1.36416 60.9517 1.97189 58.8614 2.50463 56.7504C3.97871 50.8934 5.41142 45.0235 6.88033 39.164C8.2639 33.6511 13.0663 29.6386 18.7428 29.5067C24.4374 29.3747 30.1398 29.3696 35.8344 29.5041C41.6971 29.6412 46.2668 33.457 47.759 39.1691C48.5762 42.2994 49.3753 45.4323 50.2442 48.7954C50.4744 48.221 50.6425 47.8433 50.7821 47.4553C51.9459 44.2422 53.0915 41.024 54.2682 37.8187C56.1664 32.6447 60.868 29.3334 66.3712 29.3023C70.0487 29.2816 73.7287 29.2764 77.4062 29.3049C82.7258 29.3489 87.4765 32.6732 89.2919 37.6609C92.3435 46.0428 95.3615 54.4376 98.3795 62.8298C99.0959 64.8218 98.2114 67.0932 96.3624 68.1384C94.3943 69.2508 91.8315 68.8782 90.4583 67.1889C89.9229 66.5292 89.4574 65.7661 89.1523 64.977C86.8791 59.0709 84.655 53.1441 82.4155 47.225C82.3275 46.9896 82.312 46.6507 82.1439 46.5343C81.7715 46.2782 81.3138 45.9781 80.9129 46.0092C80.706 46.0247 80.4526 46.6973 80.4035 47.0983C80.3647 47.4217 80.5845 47.7812 80.7112 48.1176C83.4008 55.1775 86.0929 62.2348 88.7825 69.2922C89.6462 71.5584 88.873 72.7148 86.4705 72.7148C76.6976 72.7199 66.9247 72.7199 57.1492 72.7148C54.7699 72.7148 53.9915 71.5998 54.8242 69.4086C57.5526 62.2115 60.2809 55.0145 63.0093 47.8175C63.1101 47.5484 63.3377 47.2432 63.2782 47.0155C63.18 46.643 62.9679 46.1773 62.6653 46.0221C62.43 45.9031 61.8817 46.0997 61.6567 46.3325C61.3749 46.6249 61.2637 47.0905 61.1111 47.4941C58.8767 53.3795 56.6526 59.2675 54.4182 65.153C53.4562 67.6882 51.4054 68.9895 48.8865 68.6816C46.8849 68.4359 45.5479 67.2433 44.9996 65.1633C43.5385 59.5987 42.0902 54.0314 40.6368 48.4642C40.5489 48.1279 40.4532 47.7942 40.1662 47.4786V54.9912H14.6645V47.2871C14.5947 47.2794 14.5249 47.2742 14.4576 47.2664C13.6715 50.2803 12.8827 53.2916 12.1017 56.3054C11.3543 59.1951 10.6095 62.0874 9.87246 64.9796C9.26731 67.3519 7.76478 68.6635 5.50969 68.7696C3.46408 68.8653 1.84517 67.6753 0.981411 65.453C0.945206 65.3599 0.854692 65.2901 0.790039 65.2099C0.790039 64.4881 0.790039 63.7663 0.790039 63.0445L0.790039 63.0497Z" fill="#134380"/>
<path d="M34.1197 98.1156C31.1974 97.055 30.1914 94.9052 30.2431 91.8887C30.3491 85.8351 30.2871 79.7764 30.2586 73.7202C30.2534 72.9027 30.4345 72.5871 31.3293 72.6052C34.2076 72.6621 37.0859 72.6259 40.1453 72.6259V73.9505C40.1453 79.9342 40.0677 85.9205 40.1763 91.9042C40.2307 94.9259 39.2117 97.0679 36.2817 98.1156H34.1171H34.1197Z" fill="#134380"/>
<path d="M18.5382 98.1158C15.6521 97.1146 14.5634 95.0709 14.6203 92.0545C14.7341 86.0061 14.6539 79.9525 14.6539 73.9015C14.6539 73.516 14.6539 73.1331 14.6539 72.6934H24.4708C24.4708 73.1797 24.4708 73.6014 24.4708 74.0231C24.4708 79.9654 24.3803 85.9129 24.5096 91.8527C24.5742 94.8717 23.5941 97.0137 20.7028 98.1158H18.5382Z" fill="#134380"/>
<path d="M75.6756 98.1157C73.4076 97.1792 72.6447 95.4433 72.6809 93.0529C72.7663 87.2839 72.7249 81.5123 72.6913 75.7433C72.6861 74.8715 72.8904 74.5429 73.8214 74.5688C76.0454 74.6335 78.2721 74.5895 80.6229 74.5895V75.8804C80.6229 81.6132 80.5608 87.3486 80.6513 93.0814C80.6901 95.4847 79.9091 97.2024 77.623 98.1131H75.6756V98.1157Z" fill="#134380"/>
<path d="M65.9366 98.1158C63.6401 97.2155 62.8669 95.4926 62.9057 93.0919C62.9936 87.3591 62.9341 81.6263 62.9341 75.8909C62.9341 75.5054 62.9341 75.12 62.9341 74.5974C65.4556 74.5974 67.8607 74.5922 70.2657 74.6C71.0364 74.6026 70.8347 75.2079 70.8347 75.6322C70.8476 79.5618 70.8425 83.4941 70.8425 87.4237C70.8425 89.2993 70.7675 91.1775 70.8606 93.0479C70.9821 95.4331 70.1442 97.1716 67.8839 98.1158H65.9366Z" fill="#134380"/>
<path d="M86.4786 13.9299C86.4916 21.4736 80.2668 27.7187 72.7438 27.7109C65.2622 27.7031 59.0452 21.4943 59.0322 14.0153C59.0193 6.48456 65.1613 0.293872 72.6585 0.27835C80.2746 0.262828 86.4657 6.3785 86.4786 13.9299Z" fill="#134380"/>
<path d="M28.3814 0.27832C35.9044 0.27832 42.08 6.42762 42.0981 13.9325C42.1162 21.4581 35.863 27.7212 28.3478 27.7109C20.8067 27.6979 14.6414 21.4814 14.6543 13.9015C14.6698 6.39399 20.8325 0.27832 28.3814 0.27832Z" fill="#134380"/>
<path d="M14.7031 70.6863V57.0605H40.0703V70.6863H14.7031Z" fill="#134380"/>
<path d="M58.1862 7.89996C57.8733 9.34609 57.4518 10.7896 57.2656 12.2642C56.7277 16.481 57.9095 20.2503 60.5215 23.5668C61.0698 24.2627 60.9482 24.8086 60.3405 25.1863C59.8232 25.5097 59.1534 25.7218 58.5431 25.7399C56.3087 25.8046 54.0743 25.7735 51.8373 25.7632C49.9443 25.7528 49.1581 24.9767 49.3029 23.1141C49.7788 17.0243 52.0934 11.9124 57.294 8.37856C57.532 8.21557 57.7776 8.06812 58.0285 7.92066C58.0828 7.88961 58.1604 7.90255 58.1888 7.89996H58.1862Z" fill="#134380"/>
<path d="M87.2537 7.77539C91.6604 10.409 94.3551 14.1679 95.5422 19.0004C95.9016 20.4595 96.0801 21.9754 96.2068 23.4759C96.3257 24.8858 95.6068 25.7007 94.2129 25.7369C91.6552 25.8016 89.095 25.8016 86.5399 25.7214C86.0046 25.7033 85.3994 25.3127 84.9934 24.9194C84.7891 24.7228 84.7917 24.0088 84.9908 23.7449C88.5571 18.9409 89.3432 13.7591 87.2407 8.14792C87.22 8.091 87.2433 8.01598 87.2562 7.77798L87.2537 7.77539Z" fill="#134380"/>
</g>
<defs>
<clipPath id="clip0_2593_4631">
<rect width="97.8378" height="97.8378" fill="white" transform="translate(0.790039 0.27832)"/>
</clipPath>
</defs>
</svg>
