<?xml version="1.0" encoding="UTF-8" standalone="no"?>
<svg
   width="221.597"
   height="235.70769"
   viewBox="0 0 221.597 235.70769"
   fill="none"
   version="1.1"
   id="svg11"
   sodipodi:docname="participants.svg"
   inkscape:version="1.3 (0e150ed6c4, 2023-07-21)"
   xmlns:inkscape="http://www.inkscape.org/namespaces/inkscape"
   xmlns:sodipodi="http://sodipodi.sourceforge.net/DTD/sodipodi-0.dtd"
   xmlns="http://www.w3.org/2000/svg"
   xmlns:svg="http://www.w3.org/2000/svg">
  <sodipodi:namedview
     id="namedview11"
     pagecolor="#ffffff"
     bordercolor="#000000"
     borderopacity="0.25"
     inkscape:showpageshadow="2"
     inkscape:pageopacity="0.0"
     inkscape:pagecheckerboard="0"
     inkscape:deskcolor="#d1d1d1"
     inkscape:zoom="1.9015228"
     inkscape:cx="104.39002"
     inkscape:cy="117.53737"
     inkscape:window-width="2560"
     inkscape:window-height="1387"
     inkscape:window-x="2552"
     inkscape:window-y="-8"
     inkscape:window-maximized="1"
     inkscape:current-layer="svg11" />
  <path
     d="m 15.662,147.41968 c -0.987,0 -1.72,-0.226 -2.2,-0.68 -0.454,-0.48 -0.68,-1.173 -0.68,-2.08 0,-0.586 0.146,-1.133 0.44,-1.64 0.293,-0.506 0.693,-1.026 1.2,-1.56 l 7.52,-7.92 c 1.12,-1.2 1.92,-2.266 2.4,-3.2 0.506,-0.933 0.76,-1.866 0.76,-2.8 0,-1.173 -0.387,-2.066 -1.16,-2.68 -0.747,-0.613 -1.84,-0.92 -3.28,-0.92 -0.774,0 -1.574,0.12 -2.4,0.36 -0.8,0.214 -1.64,0.574 -2.52,1.08 -0.587,0.32 -1.134,0.44 -1.64,0.36 -0.48,-0.106 -0.894,-0.333 -1.24,-0.68 -0.347,-0.373 -0.574,-0.813 -0.68,-1.32 -0.107,-0.506 -0.054,-1.013 0.16,-1.52 0.213,-0.506 0.613,-0.933 1.2,-1.28 1.173,-0.72 2.453,-1.253 3.84,-1.6 1.386,-0.373 2.76,-0.56 4.12,-0.56 2.106,0 3.88,0.32 5.32,0.96 1.44,0.614 2.533,1.52 3.28,2.72 0.746,1.2 1.12,2.667 1.12,4.4 0,1.12 -0.174,2.214 -0.52,3.28 -0.347,1.067 -0.894,2.147 -1.64,3.24 -0.72,1.067 -1.68,2.214 -2.88,3.44 l -7,7.12 v -1.6 h 10.84 c 0.853,0 1.493,0.214 1.92,0.64 0.453,0.427 0.68,1.054 0.68,1.88 0,0.827 -0.227,1.467 -0.68,1.92 -0.427,0.427 -1.067,0.64 -1.92,0.64 z m 24.504,4.56 c -0.4,0.48 -0.827,0.747 -1.28,0.8 -0.453,0.08 -0.84,0 -1.16,-0.24 -0.32,-0.24 -0.507,-0.586 -0.56,-1.04 -0.027,-0.426 0.173,-0.893 0.6,-1.4 0.587,-0.746 0.987,-1.48 1.2,-2.2 0.213,-0.72 0.32,-1.36 0.32,-1.92 l 0.2,1.64 c -1.067,0 -1.933,-0.306 -2.6,-0.92 -0.667,-0.613 -1,-1.453 -1,-2.52 0,-0.986 0.307,-1.786 0.92,-2.4 0.613,-0.64 1.453,-0.96 2.52,-0.96 1.093,0 1.947,0.374 2.56,1.12 0.613,0.72 0.92,1.747 0.92,3.08 0,0.694 -0.067,1.4 -0.2,2.12 -0.133,0.72 -0.387,1.48 -0.76,2.28 -0.373,0.8 -0.933,1.654 -1.68,2.56 z m 20.751,-4.2 c -0.96,0 -1.72,-0.266 -2.28,-0.8 -0.534,-0.533 -0.8,-1.306 -0.8,-2.32 v -2.28 h -8.96 c -0.987,0 -1.774,-0.213 -2.36,-0.64 -0.587,-0.453 -0.88,-1.133 -0.88,-2.04 0,-0.533 0.12,-1.08 0.36,-1.64 0.24,-0.56 0.666,-1.253 1.28,-2.08 l 10.36,-15.08 c 0.453,-0.666 0.96,-1.173 1.52,-1.52 0.56,-0.346 1.2,-0.52 1.92,-0.52 0.853,0 1.533,0.267 2.04,0.8 0.533,0.507 0.8,1.28 0.8,2.32 v 15.52 h 1.48 c 0.88,0 1.546,0.214 2,0.64 0.453,0.4 0.68,1 0.68,1.8 0,0.774 -0.227,1.374 -0.68,1.8 -0.427,0.427 -1.094,0.64 -2,0.64 h -1.48 v 2.28 c 0,1.014 -0.267,1.787 -0.8,2.32 -0.507,0.534 -1.24,0.8 -2.2,0.8 z m -3.08,-10.28 v -11 h 1.16 l -8.52,12.52 v -1.52 z m 22.704,10.36 c -1.36,0 -2.76,-0.173 -4.2,-0.52 -1.44,-0.346 -2.76,-0.866 -3.96,-1.56 -0.613,-0.346 -1.04,-0.773 -1.28,-1.28 -0.213,-0.506 -0.28,-1.026 -0.2,-1.56 0.107,-0.533 0.32,-0.986 0.64,-1.36 0.347,-0.4 0.773,-0.653 1.28,-0.76 0.533,-0.106 1.12,0.014 1.76,0.36 0.933,0.48 1.88,0.854 2.84,1.12 0.987,0.267 1.987,0.4 3,0.4 1.013,0 1.88,-0.173 2.6,-0.52 0.72,-0.346 1.267,-0.826 1.64,-1.44 0.373,-0.613 0.56,-1.333 0.56,-2.16 0,-1.28 -0.413,-2.306 -1.24,-3.08 -0.8,-0.773 -1.893,-1.16 -3.28,-1.16 -0.693,0 -1.4,0.12 -2.12,0.36 -0.693,0.214 -1.413,0.6 -2.16,1.16 -0.267,0.214 -0.613,0.414 -1.04,0.6 -0.427,0.187 -0.88,0.28 -1.36,0.28 -0.827,0 -1.44,-0.186 -1.84,-0.56 -0.4,-0.4 -0.6,-0.973 -0.6,-1.72 v -12.56 c 0,-0.88 0.227,-1.546 0.68,-2 0.48,-0.453 1.147,-0.68 2,-0.68 h 12.84 c 0.88,0 1.547,0.227 2,0.68 0.453,0.427 0.68,1.054 0.68,1.88 0,0.8 -0.227,1.427 -0.68,1.88 -0.453,0.427 -1.12,0.64 -2,0.64 h -9.56 v 7.64 h -1.52 c 0.667,-0.826 1.547,-1.466 2.64,-1.92 1.093,-0.453 2.293,-0.68 3.6,-0.68 1.787,0 3.347,0.387 4.68,1.16 1.333,0.747 2.373,1.8 3.12,3.16 0.747,1.36 1.12,2.934 1.12,4.72 0,1.867 -0.427,3.52 -1.28,4.96 -0.853,1.414 -2.08,2.52 -3.68,3.32 -1.6,0.8 -3.493,1.2 -5.68,1.2 z m 23.944,0 c -3.413,0 -6.026,-1.266 -7.84,-3.8 -1.786,-2.56 -2.68,-6.173 -2.68,-10.84 0,-3.12 0.4,-5.746 1.2,-7.88 0.827,-2.16 2.014,-3.786 3.56,-4.88 1.574,-1.12 3.494,-1.68 5.76,-1.68 3.44,0 6.054,1.24 7.84,3.72 1.787,2.454 2.68,6.027 2.68,10.72 0,3.12 -0.413,5.774 -1.24,7.96 -0.8,2.16 -1.973,3.814 -3.52,4.96 -1.546,1.147 -3.466,1.72 -5.76,1.72 z m 0,-5.04 c 1.547,0 2.694,-0.76 3.44,-2.28 0.747,-1.546 1.12,-3.986 1.12,-7.32 0,-3.333 -0.373,-5.733 -1.12,-7.2 -0.746,-1.466 -1.893,-2.2 -3.44,-2.2 -1.546,0 -2.693,0.734 -3.44,2.2 -0.746,1.467 -1.12,3.867 -1.12,7.2 0,3.334 0.374,5.774 1.12,7.32 0.747,1.52 1.894,2.28 3.44,2.28 z m 18.025,9.16 c -0.4,0.48 -0.827,0.747 -1.28,0.8 -0.454,0.08 -0.84,0 -1.16,-0.24 -0.32,-0.24 -0.507,-0.586 -0.56,-1.04 -0.027,-0.426 0.173,-0.893 0.6,-1.4 0.586,-0.746 0.986,-1.48 1.2,-2.2 0.213,-0.72 0.32,-1.36 0.32,-1.92 l 0.2,1.64 c -1.067,0 -1.934,-0.306 -2.6,-0.92 -0.667,-0.613 -1,-1.453 -1,-2.52 0,-0.986 0.306,-1.786 0.92,-2.4 0.613,-0.64 1.453,-0.96 2.52,-0.96 1.093,0 1.946,0.374 2.56,1.12 0.613,0.72 0.92,1.747 0.92,3.08 0,0.694 -0.067,1.4 -0.2,2.12 -0.134,0.72 -0.387,1.48 -0.76,2.28 -0.374,0.8 -0.934,1.654 -1.68,2.56 z m 16.35,-4.12 c -3.413,0 -6.026,-1.266 -7.84,-3.8 -1.786,-2.56 -2.68,-6.173 -2.68,-10.84 0,-3.12 0.4,-5.746 1.2,-7.88 0.827,-2.16 2.014,-3.786 3.56,-4.88 1.574,-1.12 3.494,-1.68 5.76,-1.68 3.44,0 6.054,1.24 7.84,3.72 1.787,2.454 2.68,6.027 2.68,10.72 0,3.12 -0.413,5.774 -1.24,7.96 -0.8,2.16 -1.973,3.814 -3.52,4.96 -1.546,1.147 -3.466,1.72 -5.76,1.72 z m 0,-5.04 c 1.547,0 2.694,-0.76 3.44,-2.28 0.747,-1.546 1.12,-3.986 1.12,-7.32 0,-3.333 -0.373,-5.733 -1.12,-7.2 -0.746,-1.466 -1.893,-2.2 -3.44,-2.2 -1.546,0 -2.693,0.734 -3.44,2.2 -0.746,1.467 -1.12,3.867 -1.12,7.2 0,3.334 0.374,5.774 1.12,7.32 0.747,1.52 1.894,2.28 3.44,2.28 z m 23.985,5.04 c -3.414,0 -6.027,-1.266 -7.84,-3.8 -1.787,-2.56 -2.68,-6.173 -2.68,-10.84 0,-3.12 0.4,-5.746 1.2,-7.88 0.826,-2.16 2.013,-3.786 3.56,-4.88 1.573,-1.12 3.493,-1.68 5.76,-1.68 3.44,0 6.053,1.24 7.84,3.72 1.786,2.454 2.68,6.027 2.68,10.72 0,3.12 -0.414,5.774 -1.24,7.96 -0.8,2.16 -1.974,3.814 -3.52,4.96 -1.547,1.147 -3.467,1.72 -5.76,1.72 z m 0,-5.04 c 1.546,0 2.693,-0.76 3.44,-2.28 0.746,-1.546 1.12,-3.986 1.12,-7.32 0,-3.333 -0.374,-5.733 -1.12,-7.2 -0.747,-1.466 -1.894,-2.2 -3.44,-2.2 -1.547,0 -2.694,0.734 -3.44,2.2 -0.747,1.467 -1.12,3.867 -1.12,7.2 0,3.334 0.373,5.774 1.12,7.32 0.746,1.52 1.893,2.28 3.44,2.28 z m 23.984,5.04 c -3.413,0 -6.027,-1.266 -7.84,-3.8 -1.787,-2.56 -2.68,-6.173 -2.68,-10.84 0,-3.12 0.4,-5.746 1.2,-7.88 0.827,-2.16 2.013,-3.786 3.56,-4.88 1.573,-1.12 3.493,-1.68 5.76,-1.68 3.44,0 6.053,1.24 7.84,3.72 1.787,2.454 2.68,6.027 2.68,10.72 0,3.12 -0.413,5.774 -1.24,7.96 -0.8,2.16 -1.973,3.814 -3.52,4.96 -1.547,1.147 -3.467,1.72 -5.76,1.72 z m 0,-5.04 c 1.547,0 2.693,-0.76 3.44,-2.28 0.747,-1.546 1.12,-3.986 1.12,-7.32 0,-3.333 -0.373,-5.733 -1.12,-7.2 -0.747,-1.466 -1.893,-2.2 -3.44,-2.2 -1.547,0 -2.693,0.734 -3.44,2.2 -0.747,1.467 -1.12,3.867 -1.12,7.2 0,3.334 0.373,5.774 1.12,7.32 0.747,1.52 1.893,2.28 3.44,2.28 z m -123.99,48.6 c -0.576,0 -1.024,-0.149 -1.344,-0.448 -0.299,-0.32 -0.448,-0.768 -0.448,-1.344 v -18.976 c 0,-0.576 0.149,-1.013 0.448,-1.312 0.32,-0.32 0.768,-0.48 1.344,-0.48 h 11.68 c 0.448,0 0.789,0.118 1.024,0.352 0.235,0.214 0.352,0.534 0.352,0.96 0,0.448 -0.117,0.79 -0.352,1.024 -0.235,0.235 -0.576,0.352 -1.024,0.352 H 64.247 v 7.072 h 9.568 c 0.469,0 0.811,0.118 1.024,0.352 0.235,0.235 0.352,0.566 0.352,0.992 0,0.448 -0.117,0.79 -0.352,1.024 -0.213,0.214 -0.555,0.32 -1.024,0.32 h -9.568 v 7.424 h 10.272 c 0.448,0 0.789,0.118 1.024,0.352 0.235,0.235 0.352,0.566 0.352,0.992 0,0.448 -0.117,0.79 -0.352,1.024 -0.235,0.214 -0.576,0.32 -1.024,0.32 z m 25.471,0.224 c -0.469,0 -0.864,-0.106 -1.184,-0.32 -0.298,-0.234 -0.544,-0.576 -0.736,-1.024 l -8.608,-19.488 c -0.17,-0.448 -0.213,-0.832 -0.128,-1.152 0.086,-0.32 0.256,-0.565 0.512,-0.736 0.278,-0.192 0.608,-0.288 0.992,-0.288 0.491,0 0.864,0.107 1.12,0.32 0.256,0.214 0.47,0.534 0.64,0.96 l 8.064,18.688 h -1.184 l 8,-18.72 c 0.192,-0.405 0.416,-0.714 0.672,-0.928 0.278,-0.213 0.651,-0.32 1.12,-0.32 0.384,0 0.694,0.096 0.928,0.288 0.256,0.171 0.416,0.416 0.48,0.736 0.064,0.32 0,0.704 -0.192,1.152 l -8.576,19.488 c -0.192,0.448 -0.437,0.79 -0.736,1.024 -0.298,0.214 -0.693,0.32 -1.184,0.32 z m 15.623,-0.224 c -0.576,0 -1.024,-0.149 -1.344,-0.448 -0.299,-0.32 -0.448,-0.768 -0.448,-1.344 v -18.976 c 0,-0.576 0.149,-1.013 0.448,-1.312 0.32,-0.32 0.768,-0.48 1.344,-0.48 h 11.68 c 0.448,0 0.789,0.118 1.024,0.352 0.234,0.214 0.352,0.534 0.352,0.96 0,0.448 -0.118,0.79 -0.352,1.024 -0.235,0.235 -0.576,0.352 -1.024,0.352 h -10.272 v 7.072 h 9.568 c 0.469,0 0.81,0.118 1.024,0.352 0.234,0.235 0.352,0.566 0.352,0.992 0,0.448 -0.118,0.79 -0.352,1.024 -0.214,0.214 -0.555,0.32 -1.024,0.32 h -9.568 v 7.424 h 10.272 c 0.448,0 0.789,0.118 1.024,0.352 0.234,0.235 0.352,0.566 0.352,0.992 0,0.448 -0.118,0.79 -0.352,1.024 -0.235,0.214 -0.576,0.32 -1.024,0.32 z m 18.619,0.224 c -0.49,0 -0.874,-0.138 -1.152,-0.416 -0.277,-0.277 -0.416,-0.672 -0.416,-1.184 v -19.744 c 0,-0.533 0.128,-0.938 0.384,-1.216 0.278,-0.298 0.64,-0.448 1.088,-0.448 0.384,0 0.672,0.075 0.864,0.224 0.214,0.128 0.459,0.374 0.736,0.736 l 13.184,17.376 h -0.8 v -16.768 c 0,-0.49 0.128,-0.874 0.384,-1.152 0.278,-0.277 0.662,-0.416 1.152,-0.416 0.512,0 0.896,0.139 1.152,0.416 0.256,0.278 0.384,0.662 0.384,1.152 v 19.872 c 0,0.491 -0.128,0.875 -0.384,1.152 -0.234,0.278 -0.554,0.416 -0.96,0.416 -0.384,0 -0.704,-0.074 -0.96,-0.224 -0.234,-0.149 -0.49,-0.405 -0.768,-0.768 l -13.12,-17.344 h 0.736 v 16.736 c 0,0.512 -0.128,0.907 -0.384,1.184 -0.256,0.278 -0.629,0.416 -1.12,0.416 z m 29.382,0 c -0.534,0 -0.95,-0.149 -1.248,-0.448 -0.278,-0.298 -0.416,-0.714 -0.416,-1.248 v -18.304 h -6.784 c -0.448,0 -0.8,-0.117 -1.056,-0.352 -0.256,-0.256 -0.384,-0.608 -0.384,-1.056 0,-0.448 0.128,-0.789 0.384,-1.024 0.256,-0.234 0.608,-0.352 1.056,-0.352 h 16.864 c 0.469,0 0.832,0.118 1.088,0.352 0.256,0.235 0.384,0.576 0.384,1.024 0,0.448 -0.128,0.8 -0.384,1.056 -0.256,0.235 -0.619,0.352 -1.088,0.352 h -6.784 v 18.304 c 0,0.534 -0.139,0.95 -0.416,1.248 -0.256,0.299 -0.662,0.448 -1.216,0.448 z m -150.27,44 c -0.533,0 -0.949,-0.149 -1.248,-0.448 -0.277,-0.298 -0.416,-0.714 -0.416,-1.248 v -19.392 c 0,-0.554 0.149,-0.97 0.448,-1.248 0.299,-0.298 0.715,-0.448 1.248,-0.448 h 7.648 c 2.432,0 4.309,0.608 5.632,1.824 1.323,1.195 1.984,2.88 1.984,5.056 0,2.198 -0.661,3.904 -1.984,5.12 -1.323,1.195 -3.2,1.792 -5.632,1.792 H 3.328 v 7.296 c 0,0.534 -0.139,0.95 -0.416,1.248 -0.277,0.299 -0.693,0.448 -1.248,0.448 z m 1.664,-11.648 h 5.536 c 1.6,0 2.805,-0.352 3.616,-1.056 0.832,-0.725 1.248,-1.792 1.248,-3.2 0,-1.386 -0.416,-2.432 -1.248,-3.136 -0.811,-0.725 -2.016,-1.088 -3.616,-1.088 H 3.328 Z m 14.763,11.648 c -0.427,0 -0.768,-0.096 -1.024,-0.288 -0.256,-0.192 -0.406,-0.448 -0.448,-0.768 -0.043,-0.32 0.021,-0.682 0.192,-1.088 l 8.672,-19.456 c 0.213,-0.512 0.48,-0.874 0.8,-1.088 0.341,-0.213 0.714,-0.32 1.12,-0.32 0.384,0 0.736,0.107 1.056,0.32 0.341,0.214 0.618,0.576 0.832,1.088 l 8.672,19.456 c 0.192,0.406 0.266,0.779 0.224,1.12 -0.043,0.32 -0.182,0.576 -0.416,0.768 -0.235,0.171 -0.566,0.256 -0.992,0.256 -0.47,0 -0.843,-0.117 -1.12,-0.352 -0.278,-0.234 -0.523,-0.597 -0.736,-1.088 l -2.24,-5.184 1.504,0.896 H 20.555 l 1.472,-0.896 -2.208,5.184 c -0.214,0.512 -0.448,0.886 -0.704,1.12 -0.256,0.214 -0.598,0.32 -1.024,0.32 z m 9.248,-19.104 -4.832,11.456 -0.8,-0.768 h 11.296 l -0.736,0.768 -4.864,-11.456 z m 16.106,19.104 c -0.533,0 -0.949,-0.149 -1.248,-0.448 -0.277,-0.298 -0.416,-0.714 -0.416,-1.248 v -19.392 c 0,-0.554 0.15,-0.97 0.448,-1.248 0.299,-0.298 0.715,-0.448 1.248,-0.448 h 7.648 c 2.432,0 4.31,0.576 5.632,1.728 1.323,1.152 1.984,2.784 1.984,4.896 0,1.366 -0.298,2.539 -0.896,3.52 -0.597,0.982 -1.472,1.728 -2.624,2.24 -1.13,0.512 -2.496,0.768 -4.096,0.768 l 0.288,-0.448 h 0.832 c 0.854,0 1.59,0.214 2.208,0.64 0.64,0.427 1.216,1.11 1.728,2.048 l 2.752,5.12 c 0.214,0.384 0.31,0.758 0.288,1.12 0,0.342 -0.128,0.619 -0.384,0.832 -0.234,0.214 -0.576,0.32 -1.024,0.32 -0.469,0 -0.853,-0.096 -1.152,-0.288 -0.277,-0.213 -0.533,-0.522 -0.768,-0.928 l -3.36,-6.208 c -0.448,-0.832 -0.96,-1.386 -1.536,-1.664 -0.576,-0.298 -1.333,-0.448 -2.272,-0.448 h -3.616 v 7.84 c 0,0.534 -0.138,0.95 -0.416,1.248 -0.277,0.299 -0.693,0.448 -1.248,0.448 z m 1.664,-12.032 h 5.472 c 1.622,0 2.848,-0.341 3.68,-1.024 0.832,-0.682 1.248,-1.696 1.248,-3.04 0,-1.322 -0.416,-2.325 -1.248,-3.008 -0.832,-0.682 -2.058,-1.024 -3.68,-1.024 h -5.472 z m 24.871,12.032 c -0.533,0 -0.949,-0.149 -1.248,-0.448 -0.277,-0.298 -0.416,-0.714 -0.416,-1.248 v -18.304 h -6.784 c -0.448,0 -0.8,-0.117 -1.056,-0.352 -0.256,-0.256 -0.384,-0.608 -0.384,-1.056 0,-0.448 0.128,-0.789 0.384,-1.024 0.256,-0.234 0.608,-0.352 1.056,-0.352 h 16.864 c 0.47,0 0.832,0.118 1.088,0.352 0.256,0.235 0.384,0.576 0.384,1.024 0,0.448 -0.128,0.8 -0.384,1.056 -0.256,0.235 -0.618,0.352 -1.088,0.352 h -6.784 v 18.304 c 0,0.534 -0.138,0.95 -0.416,1.248 -0.256,0.299 -0.661,0.448 -1.216,0.448 z m 14.059,0 c -0.533,0 -0.949,-0.149 -1.248,-0.448 -0.277,-0.298 -0.416,-0.714 -0.416,-1.248 v -19.616 c 0,-0.554 0.139,-0.97 0.416,-1.248 0.299,-0.298 0.715,-0.448 1.248,-0.448 0.533,0 0.939,0.15 1.216,0.448 0.299,0.278 0.448,0.694 0.448,1.248 v 19.616 c 0,0.534 -0.139,0.95 -0.416,1.248 -0.277,0.299 -0.693,0.448 -1.248,0.448 z m 17.01,0.064 c -2.282,0 -4.234,-0.469 -5.856,-1.408 -1.621,-0.938 -2.869,-2.272 -3.744,-4 -0.853,-1.749 -1.28,-3.808 -1.28,-6.176 0,-1.77 0.246,-3.36 0.736,-4.768 0.491,-1.429 1.195,-2.645 2.112,-3.648 0.939,-1.024 2.08,-1.802 3.424,-2.336 1.366,-0.533 2.902,-0.8 4.608,-0.8 1.259,0 2.464,0.171 3.616,0.512 1.174,0.342 2.187,0.832 3.04,1.472 0.363,0.235 0.598,0.523 0.704,0.864 0.128,0.32 0.15,0.63 0.064,0.928 -0.064,0.299 -0.202,0.555 -0.416,0.768 -0.213,0.192 -0.49,0.299 -0.832,0.32 -0.32,0.022 -0.672,-0.096 -1.056,-0.352 -0.704,-0.533 -1.482,-0.928 -2.336,-1.184 -0.853,-0.256 -1.749,-0.384 -2.688,-0.384 -1.621,0 -2.986,0.342 -4.096,1.024 -1.109,0.662 -1.952,1.632 -2.528,2.912 -0.576,1.28 -0.864,2.838 -0.864,4.672 0,1.835 0.288,3.403 0.864,4.704 0.576,1.28 1.419,2.262 2.528,2.944 1.11,0.662 2.475,0.992 4.096,0.992 0.939,0 1.835,-0.128 2.688,-0.384 0.875,-0.277 1.696,-0.682 2.464,-1.216 0.384,-0.234 0.726,-0.341 1.024,-0.32 0.32,0.022 0.587,0.128 0.8,0.32 0.214,0.192 0.352,0.438 0.416,0.736 0.086,0.278 0.075,0.576 -0.032,0.896 -0.085,0.299 -0.288,0.555 -0.608,0.768 -0.874,0.704 -1.909,1.238 -3.104,1.6 -1.194,0.363 -2.442,0.544 -3.744,0.544 z m 13.177,-0.064 c -0.533,0 -0.949,-0.149 -1.248,-0.448 -0.277,-0.298 -0.416,-0.714 -0.416,-1.248 v -19.616 c 0,-0.554 0.139,-0.97 0.416,-1.248 0.299,-0.298 0.715,-0.448 1.248,-0.448 0.534,0 0.939,0.15 1.216,0.448 0.299,0.278 0.448,0.694 0.448,1.248 v 19.616 c 0,0.534 -0.138,0.95 -0.416,1.248 -0.277,0.299 -0.693,0.448 -1.248,0.448 z m 8.563,0 c -0.533,0 -0.949,-0.149 -1.248,-0.448 -0.277,-0.298 -0.416,-0.714 -0.416,-1.248 v -19.392 c 0,-0.554 0.149,-0.97 0.448,-1.248 0.299,-0.298 0.715,-0.448 1.248,-0.448 h 7.648 c 2.432,0 4.309,0.608 5.632,1.824 1.323,1.195 1.984,2.88 1.984,5.056 0,2.198 -0.661,3.904 -1.984,5.12 -1.323,1.195 -3.2,1.792 -5.632,1.792 h -6.016 v 7.296 c 0,0.534 -0.139,0.95 -0.416,1.248 -0.277,0.299 -0.693,0.448 -1.248,0.448 z m 1.664,-11.648 h 5.536 c 1.6,0 2.805,-0.352 3.616,-1.056 0.832,-0.725 1.248,-1.792 1.248,-3.2 0,-1.386 -0.416,-2.432 -1.248,-3.136 -0.811,-0.725 -2.016,-1.088 -3.616,-1.088 h -5.536 z m 14.763,11.648 c -0.427,0 -0.768,-0.096 -1.024,-0.288 -0.256,-0.192 -0.406,-0.448 -0.448,-0.768 -0.043,-0.32 0.021,-0.682 0.192,-1.088 l 8.672,-19.456 c 0.213,-0.512 0.48,-0.874 0.8,-1.088 0.341,-0.213 0.714,-0.32 1.12,-0.32 0.384,0 0.736,0.107 1.056,0.32 0.341,0.214 0.618,0.576 0.832,1.088 l 8.672,19.456 c 0.192,0.406 0.266,0.779 0.224,1.12 -0.043,0.32 -0.182,0.576 -0.416,0.768 -0.235,0.171 -0.566,0.256 -0.992,0.256 -0.47,0 -0.843,-0.117 -1.12,-0.352 -0.278,-0.234 -0.523,-0.597 -0.736,-1.088 l -2.24,-5.184 1.504,0.896 H 141.68 l 1.472,-0.896 -2.208,5.184 c -0.214,0.512 -0.448,0.886 -0.704,1.12 -0.256,0.214 -0.598,0.32 -1.024,0.32 z m 9.248,-19.104 -4.832,11.456 -0.8,-0.768 h 11.296 l -0.736,0.768 -4.864,-11.456 z m 16.01,19.104 c -0.49,0 -0.874,-0.138 -1.152,-0.416 -0.277,-0.277 -0.416,-0.672 -0.416,-1.184 v -19.744 c 0,-0.533 0.128,-0.938 0.384,-1.216 0.278,-0.298 0.64,-0.448 1.088,-0.448 0.384,0 0.672,0.075 0.864,0.224 0.214,0.128 0.459,0.374 0.736,0.736 l 13.184,17.376 h -0.8 v -16.768 c 0,-0.49 0.128,-0.874 0.384,-1.152 0.278,-0.277 0.662,-0.416 1.152,-0.416 0.512,0 0.896,0.139 1.152,0.416 0.256,0.278 0.384,0.662 0.384,1.152 v 19.872 c 0,0.491 -0.128,0.875 -0.384,1.152 -0.234,0.278 -0.554,0.416 -0.96,0.416 -0.384,0 -0.704,-0.074 -0.96,-0.224 -0.234,-0.149 -0.49,-0.405 -0.768,-0.768 l -13.12,-17.344 h 0.736 v 16.736 c 0,0.512 -0.128,0.907 -0.384,1.184 -0.256,0.278 -0.629,0.416 -1.12,0.416 z m 29.381,0 c -0.533,0 -0.949,-0.149 -1.248,-0.448 -0.277,-0.298 -0.416,-0.714 -0.416,-1.248 v -18.304 h -6.784 c -0.448,0 -0.8,-0.117 -1.056,-0.352 -0.256,-0.256 -0.384,-0.608 -0.384,-1.056 0,-0.448 0.128,-0.789 0.384,-1.024 0.256,-0.234 0.608,-0.352 1.056,-0.352 h 16.864 c 0.47,0 0.832,0.118 1.088,0.352 0.256,0.235 0.384,0.576 0.384,1.024 0,0.448 -0.128,0.8 -0.384,1.056 -0.256,0.235 -0.618,0.352 -1.088,0.352 h -6.784 v 18.304 c 0,0.534 -0.138,0.95 -0.416,1.248 -0.256,0.299 -0.661,0.448 -1.216,0.448 z m 19.134,0.064 c -0.982,0 -1.942,-0.074 -2.88,-0.224 -0.939,-0.149 -1.824,-0.373 -2.656,-0.672 -0.832,-0.32 -1.579,-0.704 -2.24,-1.152 -0.32,-0.234 -0.544,-0.501 -0.672,-0.8 -0.107,-0.298 -0.139,-0.586 -0.096,-0.864 0.064,-0.298 0.192,-0.554 0.384,-0.768 0.192,-0.213 0.426,-0.341 0.704,-0.384 0.277,-0.064 0.586,0.022 0.928,0.256 0.96,0.619 1.973,1.078 3.04,1.376 1.066,0.278 2.229,0.416 3.488,0.416 1.813,0 3.146,-0.32 4,-0.96 0.874,-0.661 1.312,-1.514 1.312,-2.56 0,-0.853 -0.31,-1.525 -0.928,-2.016 -0.619,-0.512 -1.654,-0.917 -3.104,-1.216 l -3.424,-0.704 c -2.027,-0.426 -3.542,-1.13 -4.544,-2.112 -0.982,-0.981 -1.472,-2.304 -1.472,-3.968 0,-1.002 0.202,-1.92 0.608,-2.752 0.426,-0.832 1.013,-1.546 1.76,-2.144 0.746,-0.618 1.642,-1.088 2.688,-1.408 1.045,-0.32 2.186,-0.48 3.424,-0.48 1.322,0 2.56,0.171 3.712,0.512 1.173,0.342 2.218,0.864 3.136,1.568 0.277,0.192 0.458,0.438 0.544,0.736 0.106,0.278 0.128,0.555 0.064,0.832 -0.043,0.278 -0.16,0.512 -0.352,0.704 -0.192,0.192 -0.438,0.31 -0.736,0.352 -0.299,0.022 -0.63,-0.085 -0.992,-0.32 -0.832,-0.554 -1.686,-0.949 -2.56,-1.184 -0.854,-0.256 -1.803,-0.384 -2.848,-0.384 -1.046,0 -1.963,0.16 -2.752,0.48 -0.768,0.32 -1.366,0.768 -1.792,1.344 -0.406,0.576 -0.608,1.259 -0.608,2.048 0,0.896 0.288,1.611 0.864,2.144 0.576,0.534 1.536,0.939 2.88,1.216 l 3.392,0.704 c 2.133,0.448 3.722,1.142 4.768,2.08 1.045,0.939 1.568,2.187 1.568,3.744 0,1.003 -0.203,1.91 -0.608,2.72 -0.406,0.79 -0.982,1.472 -1.728,2.048 -0.747,0.576 -1.654,1.024 -2.72,1.344 -1.046,0.299 -2.23,0.448 -3.552,0.448 z"
     fill="#134380"
     id="path1" />
  <g
     clip-path="url(#clip1_2860_5912)"
     id="g9"
     transform="translate(-388.362,-0.27832)">
    <path
       d="m 479.721,89.3344 c 0.492,-4.0874 0.974,-8.1239 1.464,-12.1582 0.655,-5.4144 1.387,-10.8196 1.952,-16.2432 0.436,-4.1981 0.856,-8.4147 0.946,-12.629 0.116,-5.4236 -1.1,-10.6649 -2.903,-15.7747 -0.187,-0.5285 -0.078,-1.2417 0.102,-1.8025 0.653,-2.0379 1.53,-4.0135 2.074,-6.0768 0.933,-3.5219 -0.016,-6.7668 -1.883,-9.7856 -0.766,-1.2394 -1.588,-2.4441 -2.499,-3.8404 1.853,-0.6601 3.651,-1.39167 5.502,-1.94327 7.044,-2.0956 14.219,-2.72335 21.535,-1.9202 9.453,1.04088 18.062,4.21197 25.542,10.13877 8.548,6.7737 13.82,15.5023 15.364,26.3981 0.681,4.8005 0.399,9.601 0.15,14.3945 -0.291,5.606 -0.965,11.175 -2.514,16.594 -1.234,4.3205 -2.926,8.4263 -6.056,11.7659 -3.725,3.9765 -8.368,5.5782 -13.736,5.0543 -3.167,-0.3069 -5.297,-2.2825 -6.959,-4.8097 -2.285,-3.4757 -3.439,-7.4246 -4.653,-11.3527 -1.403,-4.5397 -2.794,-9.0863 -4.375,-13.5637 -0.566,-1.5971 -1.524,-3.118 -2.562,-4.4728 -3.252,-4.2489 -8.909,-4.2627 -12.288,-0.1269 -2.284,2.7972 -3.441,6.1414 -4.507,9.5133 -1.569,4.9713 -3.016,9.9818 -4.655,14.93 -0.847,2.5595 -2.13,4.9389 -4.007,6.9376 -0.21,0.2239 -0.434,0.4362 -0.667,0.6347 -0.076,0.0669 -0.2,0.0785 -0.367,0.1362 z m 56.118,-48.2196 c 0.023,-5.4052 -4.254,-9.7556 -9.661,-9.8272 -5.334,-0.0692 -9.767,4.3135 -9.8,9.6887 -0.032,5.4306 4.249,9.8295 9.604,9.8641 5.476,0.0369 9.834,-4.2627 9.857,-9.7279 z M 509.757,24.8231 c 0.032,-5.4328 -4.235,-9.7625 -9.645,-9.7902 -5.444,-0.0277 -9.779,4.2212 -9.816,9.6171 -0.037,5.5021 4.231,9.8341 9.703,9.8503 5.428,0.0138 9.728,-4.2489 9.758,-9.6772 z m 21.38,35.8583 c -4.357,-0.1061 -8.14,3.4435 -8.267,7.7524 -0.136,4.602 3.398,8.417 7.873,8.5024 4.595,0.0877 8.253,-3.4065 8.373,-7.997 0.118,-4.4751 -3.432,-8.1493 -7.981,-8.2601 z"
       fill="#134380"
       id="path2" />
    <path
       d="m 472.332,34.5259 c 1.768,0 3.54,-0.0416 5.306,0.0346 0.367,0.0161 0.93,0.3992 1.041,0.7316 1.998,6.0675 2.698,12.3013 2.026,18.6458 -0.72,6.7968 -1.586,13.5798 -2.403,20.3674 -0.757,6.2914 -1.525,12.5806 -2.303,18.8697 -0.24,1.9456 -1.777,3.3465 -3.64,3.3742 -1.878,0.03 -3.489,-1.4263 -3.729,-3.4065 -1.096,-9.0748 -2.209,-18.1473 -3.261,-27.2267 -0.603,-5.1859 -1.256,-10.3741 -1.602,-15.5808 -0.332,-5.0244 0.57,-9.9449 2.056,-14.7569 0.243,-0.7824 0.577,-1.1125 1.436,-1.0755 1.689,0.0715 3.383,0.0208 5.075,0.0208 z"
       fill="#134380"
       id="path3" />
    <path
       d="m 449.536,13.4062 h 9.663 v 73.2353 h -9.663 z"
       fill="#134380"
       id="path4" />
    <path
       d="m 472.32,8.43652 c 2.687,2.83878 5.052,5.68908 6.901,8.96168 1.463,2.5918 1.555,5.2806 0.644,8.0039 -0.582,1.7356 -1.427,3.3811 -2.151,5.0682 -0.252,0.5886 -0.644,0.8378 -1.33,0.8286 -2.728,-0.0416 -5.456,0 -8.181,-0.037 -0.356,-0.0046 -0.868,-0.1892 -1.037,-0.4592 -1.507,-2.4372 -2.559,-5.0544 -2.926,-7.9185 -0.226,-1.7702 0.136,-3.4273 0.949,-5.0082 1.807,-3.5219 4.343,-6.4784 7.131,-9.43948 z"
       fill="#134380"
       id="path5" />
    <path
       d="m 459.247,90.0986 v 7.997 h -9.707 v -7.997 z"
       fill="#134380"
       id="path6" />
    <path
       d="m 459.282,10.0709 h -9.776 c 1.634,-3.28191 3.201,-6.42762 4.877,-9.79258 1.673,3.34188 3.238,6.47144 4.899,9.79258 z"
       fill="#134380"
       id="path7" />
    <path
       d="m 462.79,71.8036 c 0.695,5.7329 1.387,11.4658 2.086,17.231 -1.851,-0.7547 -2.333,-1.4332 -2.333,-3.2242 0,-4.2627 0,-8.5231 0,-12.7859 0,-0.4131 0,-0.8262 0,-1.2393 0.083,0.0069 0.164,0.0115 0.247,0.0184 z"
       fill="#134380"
       id="path8" />
    <path
       d="m 462.592,34.4587 v -4.9275 c 1.357,1.5625 1.371,2.188 0,4.9275 z"
       fill="#134380"
       id="path9" />
  </g>
  <defs
     id="defs11">
    <clipPath
       id="clip0_2860_5912">
      <rect
         width="97.837799"
         height="97.837799"
         fill="#ffffff"
         transform="translate(108.79,0.27832)"
         id="rect9"
         x="0"
         y="0" />
    </clipPath>
    <clipPath
       id="clip1_2860_5912">
      <rect
         width="97.837799"
         height="97.817001"
         fill="#ffffff"
         transform="translate(449.506,0.27832)"
         id="rect10"
         x="0"
         y="0" />
    </clipPath>
    <clipPath
       id="clip2_2860_5912">
      <rect
         width="85.254204"
         height="97.837799"
         fill="#ffffff"
         transform="translate(784.215,0.27832)"
         id="rect11"
         x="0"
         y="0" />
    </clipPath>
  </defs>
</svg>
