<?xml version="1.0" encoding="UTF-8" standalone="no"?>
<svg
   width="294.35501"
   height="235.70769"
   viewBox="0 0 294.35501 235.70769"
   fill="none"
   version="1.1"
   id="svg5"
   sodipodi:docname="readers.svg"
   inkscape:version="1.3 (0e150ed6c4, 2023-07-21)"
   xmlns:inkscape="http://www.inkscape.org/namespaces/inkscape"
   xmlns:sodipodi="http://sodipodi.sourceforge.net/DTD/sodipodi-0.dtd"
   xmlns="http://www.w3.org/2000/svg"
   xmlns:svg="http://www.w3.org/2000/svg">
  <sodipodi:namedview
     id="namedview5"
     pagecolor="#ffffff"
     bordercolor="#000000"
     borderopacity="0.25"
     inkscape:showpageshadow="2"
     inkscape:pageopacity="0.0"
     inkscape:pagecheckerboard="0"
     inkscape:deskcolor="#d1d1d1"
     inkscape:zoom="1.9015228"
     inkscape:cx="-188.5331"
     inkscape:cy="117.53737"
     inkscape:window-width="2560"
     inkscape:window-height="1387"
     inkscape:window-x="2552"
     inkscape:window-y="-8"
     inkscape:window-maximized="1"
     inkscape:current-layer="svg5" />
  <path
     d="m 73.136,147.85968 c -1.146,0 -2.306,-0.16 -3.48,-0.48 -1.173,-0.32 -2.266,-0.8 -3.28,-1.44 -0.533,-0.266 -0.906,-0.64 -1.12,-1.12 -0.186,-0.506 -0.24,-1.013 -0.16,-1.52 0.08,-0.506 0.28,-0.946 0.6,-1.32 0.32,-0.4 0.72,-0.653 1.2,-0.76 0.507,-0.133 1.08,-0.053 1.72,0.24 0.827,0.454 1.614,0.774 2.36,0.96 0.774,0.187 1.52,0.28 2.24,0.28 1.414,0 2.614,-0.32 3.6,-0.96 0.987,-0.64 1.72,-1.6 2.2,-2.88 0.507,-1.306 0.76,-2.893 0.76,-4.76 v -2.6 h 0.56 c -0.213,1.254 -0.653,2.334 -1.32,3.24 -0.666,0.907 -1.506,1.6 -2.52,2.08 -1.013,0.48 -2.133,0.72 -3.36,0.72 -1.573,0 -2.986,-0.386 -4.24,-1.16 -1.253,-0.8 -2.24,-1.893 -2.96,-3.28 -0.72,-1.386 -1.08,-2.946 -1.08,-4.68 0,-1.866 0.4,-3.52 1.2,-4.96 0.8,-1.466 1.92,-2.613 3.36,-3.44 1.44,-0.826 3.094,-1.24 4.96,-1.24 2.427,0 4.467,0.56 6.12,1.68 1.68,1.094 2.96,2.707 3.84,4.84 0.88,2.107 1.32,4.654 1.32,7.64 0,2.374 -0.293,4.48 -0.88,6.32 -0.56,1.84 -1.373,3.4 -2.44,4.68 -1.066,1.28 -2.386,2.254 -3.96,2.92 -1.546,0.667 -3.293,1 -5.24,1 z m 1.6,-15.16 c 0.827,0 1.547,-0.186 2.16,-0.56 0.64,-0.4 1.134,-0.946 1.48,-1.64 0.347,-0.693 0.52,-1.48 0.52,-2.36 0,-0.906 -0.173,-1.706 -0.52,-2.4 -0.346,-0.693 -0.84,-1.226 -1.48,-1.6 -0.613,-0.373 -1.333,-0.56 -2.16,-0.56 -0.826,0 -1.546,0.187 -2.16,0.56 -0.613,0.374 -1.106,0.907 -1.48,1.6 -0.346,0.694 -0.52,1.494 -0.52,2.4 0,0.88 0.174,1.667 0.52,2.36 0.374,0.694 0.867,1.24 1.48,1.64 0.614,0.374 1.334,0.56 2.16,0.56 z m 22.385,15.16 c -1.147,0 -2.307,-0.16 -3.48,-0.48 -1.174,-0.32 -2.267,-0.8 -3.28,-1.44 -0.534,-0.266 -0.907,-0.64 -1.12,-1.12 -0.187,-0.506 -0.24,-1.013 -0.16,-1.52 0.08,-0.506 0.28,-0.946 0.6,-1.32 0.32,-0.4 0.72,-0.653 1.2,-0.76 0.506,-0.133 1.08,-0.053 1.72,0.24 0.826,0.454 1.613,0.774 2.36,0.96 0.773,0.187 1.52,0.28 2.24,0.28 1.413,0 2.613,-0.32 3.6,-0.96 0.986,-0.64 1.72,-1.6 2.2,-2.88 0.506,-1.306 0.76,-2.893 0.76,-4.76 v -2.6 h 0.56 c -0.214,1.254 -0.654,2.334 -1.32,3.24 -0.667,0.907 -1.507,1.6 -2.52,2.08 -1.014,0.48 -2.134,0.72 -3.36,0.72 -1.574,0 -2.987,-0.386 -4.24,-1.16 -1.254,-0.8 -2.24,-1.893 -2.96,-3.28 -0.72,-1.386 -1.08,-2.946 -1.08,-4.68 0,-1.866 0.4,-3.52 1.2,-4.96 0.8,-1.466 1.92,-2.613 3.36,-3.44 1.44,-0.826 3.093,-1.24 4.96,-1.24 2.426,0 4.466,0.56 6.12,1.68 1.68,1.094 2.96,2.707 3.84,4.84 0.88,2.107 1.32,4.654 1.32,7.64 0,2.374 -0.294,4.48 -0.88,6.32 -0.56,1.84 -1.374,3.4 -2.44,4.68 -1.067,1.28 -2.387,2.254 -3.96,2.92 -1.547,0.667 -3.294,1 -5.24,1 z m 1.6,-15.16 c 0.826,0 1.546,-0.186 2.16,-0.56 0.64,-0.4 1.133,-0.946 1.48,-1.64 0.346,-0.693 0.52,-1.48 0.52,-2.36 0,-0.906 -0.174,-1.706 -0.52,-2.4 -0.347,-0.693 -0.84,-1.226 -1.48,-1.6 -0.614,-0.373 -1.334,-0.56 -2.16,-0.56 -0.827,0 -1.547,0.187 -2.16,0.56 -0.614,0.374 -1.107,0.907 -1.48,1.6 -0.347,0.694 -0.52,1.494 -0.52,2.4 0,0.88 0.173,1.667 0.52,2.36 0.373,0.694 0.866,1.24 1.48,1.64 0.613,0.374 1.333,0.56 2.16,0.56 z m 24.704,15.16 c -3.413,0 -6.027,-1.266 -7.84,-3.8 -1.787,-2.56 -2.68,-6.173 -2.68,-10.84 0,-3.12 0.4,-5.746 1.2,-7.88 0.827,-2.16 2.013,-3.786 3.56,-4.88 1.573,-1.12 3.493,-1.68 5.76,-1.68 3.44,0 6.053,1.24 7.84,3.72 1.787,2.454 2.68,6.027 2.68,10.72 0,3.12 -0.413,5.774 -1.24,7.96 -0.8,2.16 -1.973,3.814 -3.52,4.96 -1.547,1.147 -3.467,1.72 -5.76,1.72 z m 0,-5.04 c 1.547,0 2.693,-0.76 3.44,-2.28 0.747,-1.546 1.12,-3.986 1.12,-7.32 0,-3.333 -0.373,-5.733 -1.12,-7.2 -0.747,-1.466 -1.893,-2.2 -3.44,-2.2 -1.547,0 -2.693,0.734 -3.44,2.2 -0.747,1.467 -1.12,3.867 -1.12,7.2 0,3.334 0.373,5.774 1.12,7.32 0.747,1.52 1.893,2.28 3.44,2.28 z m 18.024,9.16 c -0.4,0.48 -0.826,0.747 -1.28,0.8 -0.453,0.08 -0.84,0 -1.16,-0.24 -0.32,-0.24 -0.506,-0.586 -0.56,-1.04 -0.026,-0.426 0.174,-0.893 0.6,-1.4 0.587,-0.746 0.987,-1.48 1.2,-2.2 0.214,-0.72 0.32,-1.36 0.32,-1.92 l 0.2,1.64 c -1.066,0 -1.933,-0.306 -2.6,-0.92 -0.666,-0.613 -1,-1.453 -1,-2.52 0,-0.986 0.307,-1.786 0.92,-2.4 0.614,-0.64 1.454,-0.96 2.52,-0.96 1.094,0 1.947,0.374 2.56,1.12 0.614,0.72 0.92,1.747 0.92,3.08 0,0.694 -0.066,1.4 -0.2,2.12 -0.133,0.72 -0.386,1.48 -0.76,2.28 -0.373,0.8 -0.933,1.654 -1.68,2.56 z m 16.351,-4.12 c -3.413,0 -6.027,-1.266 -7.84,-3.8 -1.787,-2.56 -2.68,-6.173 -2.68,-10.84 0,-3.12 0.4,-5.746 1.2,-7.88 0.827,-2.16 2.013,-3.786 3.56,-4.88 1.573,-1.12 3.493,-1.68 5.76,-1.68 3.44,0 6.053,1.24 7.84,3.72 1.787,2.454 2.68,6.027 2.68,10.72 0,3.12 -0.413,5.774 -1.24,7.96 -0.8,2.16 -1.973,3.814 -3.52,4.96 -1.547,1.147 -3.467,1.72 -5.76,1.72 z m 0,-5.04 c 1.547,0 2.693,-0.76 3.44,-2.28 0.747,-1.546 1.12,-3.986 1.12,-7.32 0,-3.333 -0.373,-5.733 -1.12,-7.2 -0.747,-1.466 -1.893,-2.2 -3.44,-2.2 -1.547,0 -2.693,0.734 -3.44,2.2 -0.747,1.467 -1.12,3.867 -1.12,7.2 0,3.334 0.373,5.774 1.12,7.32 0.747,1.52 1.893,2.28 3.44,2.28 z m 23.984,5.04 c -3.413,0 -6.026,-1.266 -7.84,-3.8 -1.786,-2.56 -2.68,-6.173 -2.68,-10.84 0,-3.12 0.4,-5.746 1.2,-7.88 0.827,-2.16 2.014,-3.786 3.56,-4.88 1.574,-1.12 3.494,-1.68 5.76,-1.68 3.44,0 6.054,1.24 7.84,3.72 1.787,2.454 2.68,6.027 2.68,10.72 0,3.12 -0.413,5.774 -1.24,7.96 -0.8,2.16 -1.973,3.814 -3.52,4.96 -1.546,1.147 -3.466,1.72 -5.76,1.72 z m 0,-5.04 c 1.547,0 2.694,-0.76 3.44,-2.28 0.747,-1.546 1.12,-3.986 1.12,-7.32 0,-3.333 -0.373,-5.733 -1.12,-7.2 -0.746,-1.466 -1.893,-2.2 -3.44,-2.2 -1.546,0 -2.693,0.734 -3.44,2.2 -0.746,1.467 -1.12,3.867 -1.12,7.2 0,3.334 0.374,5.774 1.12,7.32 0.747,1.52 1.894,2.28 3.44,2.28 z m 23.985,5.04 c -3.414,0 -6.027,-1.266 -7.84,-3.8 -1.787,-2.56 -2.68,-6.173 -2.68,-10.84 0,-3.12 0.4,-5.746 1.2,-7.88 0.826,-2.16 2.013,-3.786 3.56,-4.88 1.573,-1.12 3.493,-1.68 5.76,-1.68 3.44,0 6.053,1.24 7.84,3.72 1.786,2.454 2.68,6.027 2.68,10.72 0,3.12 -0.414,5.774 -1.24,7.96 -0.8,2.16 -1.974,3.814 -3.52,4.96 -1.547,1.147 -3.467,1.72 -5.76,1.72 z m 0,-5.04 c 1.546,0 2.693,-0.76 3.44,-2.28 0.746,-1.546 1.12,-3.986 1.12,-7.32 0,-3.333 -0.374,-5.733 -1.12,-7.2 -0.747,-1.466 -1.894,-2.2 -3.44,-2.2 -1.547,0 -2.694,0.734 -3.44,2.2 -0.747,1.467 -1.12,3.867 -1.12,7.2 0,3.334 0.373,5.774 1.12,7.32 0.746,1.52 1.893,2.28 3.44,2.28 z m -194.441,48.888 c -2.454,0 -4.523,-0.458 -6.208,-1.376 -1.686,-0.938 -2.966,-2.272 -3.84,-4 -0.854,-1.728 -1.28,-3.786 -1.28,-6.176 0,-1.792 0.245,-3.392 0.736,-4.8 0.512,-1.429 1.237,-2.645 2.176,-3.648 0.96,-1.024 2.122,-1.802 3.488,-2.336 1.386,-0.533 2.954,-0.8 4.704,-0.8 1.28,0 2.538,0.171 3.776,0.512 1.237,0.32 2.368,0.854 3.392,1.6 0.298,0.214 0.49,0.459 0.576,0.736 0.085,0.278 0.085,0.566 0,0.864 -0.064,0.278 -0.203,0.523 -0.416,0.736 -0.192,0.214 -0.438,0.342 -0.736,0.384 -0.278,0.043 -0.587,-0.042 -0.928,-0.256 -0.832,-0.576 -1.707,-0.992 -2.624,-1.248 -0.918,-0.277 -1.931,-0.416 -3.04,-0.416 -1.664,0 -3.072,0.342 -4.224,1.024 -1.131,0.683 -1.984,1.675 -2.56,2.976 -0.576,1.28 -0.864,2.838 -0.864,4.672 0,2.838 0.672,4.992 2.016,6.464 1.344,1.472 3.338,2.208 5.984,2.208 0.96,0 1.898,-0.085 2.816,-0.256 0.938,-0.192 1.834,-0.458 2.688,-0.8 l -0.672,1.664 v -7.456 H 12.16 c -0.427,0 -0.768,-0.106 -1.024,-0.32 -0.235,-0.234 -0.352,-0.554 -0.352,-0.96 0,-0.405 0.117,-0.704 0.352,-0.896 0.256,-0.213 0.597,-0.32 1.024,-0.32 h 5.536 c 0.448,0 0.789,0.118 1.024,0.352 0.234,0.235 0.352,0.576 0.352,1.024 v 8.064 c 0,0.384 -0.075,0.715 -0.224,0.992 -0.128,0.256 -0.352,0.448 -0.672,0.576 -0.918,0.363 -1.995,0.662 -3.232,0.896 -1.238,0.214 -2.443,0.32 -3.616,0.32 z m 14.542,-0.288 c -0.533,0 -0.949,-0.149 -1.248,-0.448 -0.299,-0.298 -0.448,-0.714 -0.448,-1.248 v -19.296 c 0,-0.554 0.139,-0.97 0.416,-1.248 0.299,-0.298 0.715,-0.448 1.248,-0.448 0.533,0 0.939,0.15 1.216,0.448 0.299,0.278 0.448,0.694 0.448,1.248 v 18.144 h 9.92 c 0.469,0 0.832,0.128 1.088,0.384 0.256,0.235 0.384,0.576 0.384,1.024 0,0.448 -0.128,0.8 -0.384,1.056 -0.256,0.256 -0.619,0.384 -1.088,0.384 z m 24.565,0.288 c -2.134,0 -4,-0.469 -5.6,-1.408 -1.579,-0.96 -2.806,-2.304 -3.68,-4.032 -0.854,-1.749 -1.28,-3.797 -1.28,-6.144 0,-1.77 0.245,-3.36 0.736,-4.768 0.49,-1.429 1.194,-2.645 2.112,-3.648 0.917,-1.024 2.026,-1.802 3.328,-2.336 1.301,-0.533 2.762,-0.8 4.384,-0.8 2.154,0 4.021,0.47 5.6,1.408 1.578,0.939 2.794,2.272 3.648,4 0.874,1.728 1.312,3.766 1.312,6.112 0,1.771 -0.246,3.371 -0.736,4.8 -0.491,1.43 -1.206,2.656 -2.144,3.68 -0.918,1.024 -2.027,1.803 -3.328,2.336 -1.302,0.534 -2.752,0.8 -4.352,0.8 z m 0,-2.88 c 1.493,0 2.762,-0.341 3.808,-1.024 1.066,-0.682 1.877,-1.674 2.432,-2.976 0.576,-1.301 0.864,-2.869 0.864,-4.704 0,-2.752 -0.619,-4.885 -1.856,-6.4 -1.238,-1.514 -2.987,-2.272 -5.248,-2.272 -1.494,0 -2.774,0.342 -3.84,1.024 -1.046,0.662 -1.856,1.643 -2.432,2.944 -0.555,1.302 -0.832,2.87 -0.832,4.704 0,2.731 0.618,4.864 1.856,6.4 1.258,1.536 3.008,2.304 5.248,2.304 z m 16.812,2.592 c -0.576,0 -1.024,-0.149 -1.344,-0.448 -0.298,-0.32 -0.448,-0.768 -0.448,-1.344 v -18.976 c 0,-0.576 0.15,-1.013 0.448,-1.312 0.32,-0.32 0.768,-0.48 1.344,-0.48 h 7.616 c 1.558,0 2.88,0.235 3.968,0.704 1.11,0.47 1.952,1.142 2.528,2.016 0.598,0.875 0.896,1.931 0.896,3.168 0,1.366 -0.405,2.518 -1.216,3.456 -0.81,0.939 -1.909,1.568 -3.296,1.888 v -0.48 c 1.579,0.214 2.816,0.811 3.712,1.792 0.896,0.96 1.344,2.219 1.344,3.776 0,2.006 -0.661,3.552 -1.984,4.64 -1.322,1.067 -3.178,1.6 -5.568,1.6 z m 1.408,-2.56 h 6.208 c 1.6,0 2.784,-0.309 3.552,-0.928 0.768,-0.64 1.152,-1.6 1.152,-2.88 0,-1.28 -0.384,-2.229 -1.152,-2.848 -0.768,-0.618 -1.952,-0.928 -3.552,-0.928 h -6.208 z m 0,-10.144 h 5.696 c 1.536,0 2.699,-0.309 3.488,-0.928 0.79,-0.618 1.184,-1.525 1.184,-2.72 0,-1.194 -0.394,-2.101 -1.184,-2.72 -0.789,-0.618 -1.952,-0.928 -3.488,-0.928 h -5.696 z m 18.297,12.928 c -0.426,0 -0.768,-0.096 -1.024,-0.288 -0.256,-0.192 -0.405,-0.448 -0.448,-0.768 -0.042,-0.32 0.022,-0.682 0.192,-1.088 l 8.672,-19.456 c 0.214,-0.512 0.48,-0.874 0.8,-1.088 0.342,-0.213 0.715,-0.32 1.12,-0.32 0.384,0 0.736,0.107 1.056,0.32 0.342,0.214 0.619,0.576 0.832,1.088 l 8.672,19.456 c 0.192,0.406 0.267,0.779 0.224,1.12 -0.042,0.32 -0.181,0.576 -0.416,0.768 -0.234,0.171 -0.565,0.256 -0.992,0.256 -0.469,0 -0.842,-0.117 -1.12,-0.352 -0.277,-0.234 -0.522,-0.597 -0.736,-1.088 l -2.24,-5.184 1.504,0.896 H 89.416 l 1.472,-0.896 -2.208,5.184 c -0.213,0.512 -0.448,0.886 -0.704,1.12 -0.256,0.214 -0.597,0.32 -1.024,0.32 z m 9.248,-19.104 -4.832,11.456 -0.8,-0.768 h 11.296 l -0.736,0.768 -4.864,-11.456 z m 16.139,18.88 c -0.534,0 -0.95,-0.149 -1.248,-0.448 -0.299,-0.298 -0.448,-0.714 -0.448,-1.248 v -19.296 c 0,-0.554 0.138,-0.97 0.416,-1.248 0.298,-0.298 0.714,-0.448 1.248,-0.448 0.533,0 0.938,0.15 1.216,0.448 0.298,0.278 0.448,0.694 0.448,1.248 v 18.144 h 9.92 c 0.469,0 0.832,0.128 1.088,0.384 0.256,0.235 0.384,0.576 0.384,1.024 0,0.448 -0.128,0.8 -0.384,1.056 -0.256,0.256 -0.619,0.384 -1.088,0.384 z m 34.51,0.288 c -2.283,0 -4.235,-0.469 -5.856,-1.408 -1.622,-0.938 -2.87,-2.272 -3.744,-4 -0.854,-1.749 -1.28,-3.808 -1.28,-6.176 0,-1.77 0.245,-3.36 0.736,-4.768 0.49,-1.429 1.194,-2.645 2.112,-3.648 0.938,-1.024 2.08,-1.802 3.424,-2.336 1.365,-0.533 2.901,-0.8 4.608,-0.8 1.258,0 2.464,0.171 3.616,0.512 1.173,0.342 2.186,0.832 3.04,1.472 0.362,0.235 0.597,0.523 0.704,0.864 0.128,0.32 0.149,0.63 0.064,0.928 -0.064,0.299 -0.203,0.555 -0.416,0.768 -0.214,0.192 -0.491,0.299 -0.832,0.32 -0.32,0.022 -0.672,-0.096 -1.056,-0.352 -0.704,-0.533 -1.483,-0.928 -2.336,-1.184 -0.854,-0.256 -1.75,-0.384 -2.688,-0.384 -1.622,0 -2.987,0.342 -4.096,1.024 -1.11,0.662 -1.952,1.632 -2.528,2.912 -0.576,1.28 -0.864,2.838 -0.864,4.672 0,1.835 0.288,3.403 0.864,4.704 0.576,1.28 1.418,2.262 2.528,2.944 1.109,0.662 2.474,0.992 4.096,0.992 0.938,0 1.834,-0.128 2.688,-0.384 0.874,-0.277 1.696,-0.682 2.464,-1.216 0.384,-0.234 0.725,-0.341 1.024,-0.32 0.32,0.022 0.586,0.128 0.8,0.32 0.213,0.192 0.352,0.438 0.416,0.736 0.085,0.278 0.074,0.576 -0.032,0.896 -0.086,0.299 -0.288,0.555 -0.608,0.768 -0.875,0.704 -1.91,1.238 -3.104,1.6 -1.195,0.363 -2.443,0.544 -3.744,0.544 z m 13.177,-0.064 c -0.534,0 -0.95,-0.149 -1.248,-0.448 -0.278,-0.298 -0.416,-0.714 -0.416,-1.248 v -19.616 c 0,-0.554 0.138,-0.97 0.416,-1.248 0.298,-0.298 0.714,-0.448 1.248,-0.448 0.533,0 0.938,0.15 1.216,0.448 0.298,0.278 0.448,0.694 0.448,1.248 v 8.256 h 12.64 v -8.256 c 0,-0.554 0.138,-0.97 0.416,-1.248 0.298,-0.298 0.714,-0.448 1.248,-0.448 0.533,0 0.938,0.15 1.216,0.448 0.277,0.278 0.416,0.694 0.416,1.248 v 19.616 c 0,0.534 -0.139,0.95 -0.416,1.248 -0.278,0.299 -0.683,0.448 -1.216,0.448 -0.534,0 -0.95,-0.149 -1.248,-0.448 -0.278,-0.298 -0.416,-0.714 -0.416,-1.248 v -8.576 h -12.64 v 8.576 c 0,0.534 -0.139,0.95 -0.416,1.248 -0.278,0.299 -0.694,0.448 -1.248,0.448 z m 24.531,0 c -0.534,0 -0.95,-0.149 -1.248,-0.448 -0.278,-0.298 -0.416,-0.714 -0.416,-1.248 v -19.616 c 0,-0.554 0.138,-0.97 0.416,-1.248 0.298,-0.298 0.714,-0.448 1.248,-0.448 0.533,0 0.938,0.15 1.216,0.448 0.298,0.278 0.448,0.694 0.448,1.248 v 19.616 c 0,0.534 -0.139,0.95 -0.416,1.248 -0.278,0.299 -0.694,0.448 -1.248,0.448 z m 8.594,-0.224 c -0.533,0 -0.949,-0.149 -1.248,-0.448 -0.298,-0.298 -0.448,-0.714 -0.448,-1.248 v -19.296 c 0,-0.554 0.139,-0.97 0.416,-1.248 0.299,-0.298 0.715,-0.448 1.248,-0.448 0.534,0 0.939,0.15 1.216,0.448 0.299,0.278 0.448,0.694 0.448,1.248 v 18.144 h 9.92 c 0.47,0 0.832,0.128 1.088,0.384 0.256,0.235 0.384,0.576 0.384,1.024 0,0.448 -0.128,0.8 -0.384,1.056 -0.256,0.256 -0.618,0.384 -1.088,0.384 z m 17.753,0 c -0.576,0 -1.024,-0.149 -1.344,-0.448 -0.299,-0.32 -0.448,-0.768 -0.448,-1.344 v -18.976 c 0,-0.576 0.149,-1.013 0.448,-1.312 0.32,-0.32 0.768,-0.48 1.344,-0.48 h 6.176 c 3.712,0 6.57,0.971 8.576,2.912 2.026,1.92 3.04,4.704 3.04,8.352 0,1.814 -0.256,3.424 -0.768,4.832 -0.512,1.408 -1.27,2.592 -2.272,3.552 -0.982,0.939 -2.187,1.664 -3.616,2.176 -1.43,0.491 -3.083,0.736 -4.96,0.736 z m 1.536,-2.784 h 4.448 c 1.408,0 2.624,-0.17 3.648,-0.512 1.045,-0.362 1.92,-0.896 2.624,-1.6 0.704,-0.704 1.226,-1.589 1.568,-2.656 0.341,-1.066 0.512,-2.314 0.512,-3.744 0,-2.837 -0.704,-4.96 -2.112,-6.368 -1.387,-1.408 -3.467,-2.112 -6.24,-2.112 h -4.448 z m 20.137,3.008 c -0.426,0 -0.768,-0.096 -1.024,-0.288 -0.256,-0.192 -0.405,-0.448 -0.448,-0.768 -0.042,-0.32 0.022,-0.682 0.192,-1.088 l 8.672,-19.456 c 0.214,-0.512 0.48,-0.874 0.8,-1.088 0.342,-0.213 0.715,-0.32 1.12,-0.32 0.384,0 0.736,0.107 1.056,0.32 0.342,0.214 0.619,0.576 0.832,1.088 l 8.672,19.456 c 0.192,0.406 0.267,0.779 0.224,1.12 -0.042,0.32 -0.181,0.576 -0.416,0.768 -0.234,0.171 -0.565,0.256 -0.992,0.256 -0.469,0 -0.842,-0.117 -1.12,-0.352 -0.277,-0.234 -0.522,-0.597 -0.736,-1.088 l -2.24,-5.184 1.504,0.896 h -13.632 l 1.472,-0.896 -2.208,5.184 c -0.213,0.512 -0.448,0.886 -0.704,1.12 -0.256,0.214 -0.597,0.32 -1.024,0.32 z m 9.248,-19.104 -4.832,11.456 -0.8,-0.768 h 11.296 l -0.736,0.768 -4.864,-11.456 z m 16.107,19.104 c -0.534,0 -0.95,-0.149 -1.248,-0.448 -0.278,-0.298 -0.416,-0.714 -0.416,-1.248 v -19.392 c 0,-0.554 0.149,-0.97 0.448,-1.248 0.298,-0.298 0.714,-0.448 1.248,-0.448 h 7.648 c 2.432,0 4.309,0.576 5.632,1.728 1.322,1.152 1.984,2.784 1.984,4.896 0,1.366 -0.299,2.539 -0.896,3.52 -0.598,0.982 -1.472,1.728 -2.624,2.24 -1.131,0.512 -2.496,0.768 -4.096,0.768 l 0.288,-0.448 h 0.832 c 0.853,0 1.589,0.214 2.208,0.64 0.64,0.427 1.216,1.11 1.728,2.048 l 2.752,5.12 c 0.213,0.384 0.309,0.758 0.288,1.12 0,0.342 -0.128,0.619 -0.384,0.832 -0.235,0.214 -0.576,0.32 -1.024,0.32 -0.47,0 -0.854,-0.096 -1.152,-0.288 -0.278,-0.213 -0.534,-0.522 -0.768,-0.928 l -3.36,-6.208 c -0.448,-0.832 -0.96,-1.386 -1.536,-1.664 -0.576,-0.298 -1.334,-0.448 -2.272,-0.448 h -3.616 v 7.84 c 0,0.534 -0.139,0.95 -0.416,1.248 -0.278,0.299 -0.694,0.448 -1.248,0.448 z m 1.664,-12.032 h 5.472 c 1.621,0 2.848,-0.341 3.68,-1.024 0.832,-0.682 1.248,-1.696 1.248,-3.04 0,-1.322 -0.416,-2.325 -1.248,-3.008 -0.832,-0.682 -2.059,-1.024 -3.68,-1.024 h -5.472 z m 24.871,12.032 c -0.533,0 -0.949,-0.149 -1.248,-0.448 -0.277,-0.298 -0.416,-0.714 -0.416,-1.248 v -18.304 h -6.784 c -0.448,0 -0.8,-0.117 -1.056,-0.352 -0.256,-0.256 -0.384,-0.608 -0.384,-1.056 0,-0.448 0.128,-0.789 0.384,-1.024 0.256,-0.234 0.608,-0.352 1.056,-0.352 h 16.864 c 0.469,0 0.832,0.118 1.088,0.352 0.256,0.235 0.384,0.576 0.384,1.024 0,0.448 -0.128,0.8 -0.384,1.056 -0.256,0.235 -0.619,0.352 -1.088,0.352 h -6.784 v 18.304 c 0,0.534 -0.139,0.95 -0.416,1.248 -0.256,0.299 -0.661,0.448 -1.216,0.448 z m -208.004,44 c -0.533,0 -0.949,-0.149 -1.248,-0.448 -0.277,-0.298 -0.416,-0.714 -0.416,-1.248 v -19.392 c 0,-0.554 0.149,-0.97 0.448,-1.248 0.299,-0.298 0.715,-0.448 1.248,-0.448 h 7.648 c 2.432,0 4.309,0.576 5.632,1.728 1.323,1.152 1.984,2.784 1.984,4.896 0,1.366 -0.299,2.539 -0.896,3.52 -0.597,0.982 -1.472,1.728 -2.624,2.24 -1.131,0.512 -2.496,0.768 -4.096,0.768 l 0.288,-0.448 h 0.832 c 0.853,0 1.589,0.214 2.208,0.64 0.64,0.427 1.216,1.11 1.728,2.048 l 2.752,5.12 c 0.213,0.384 0.309,0.758 0.288,1.12 0,0.342 -0.128,0.619 -0.384,0.832 -0.235,0.214 -0.576,0.32 -1.024,0.32 -0.469,0 -0.853,-0.096 -1.152,-0.288 -0.277,-0.213 -0.533,-0.522 -0.768,-0.928 l -3.36,-6.208 c -0.448,-0.832 -0.96,-1.386 -1.536,-1.664 -0.576,-0.298 -1.333,-0.448 -2.272,-0.448 h -3.616 v 7.84 c 0,0.534 -0.139,0.95 -0.416,1.248 -0.277,0.299 -0.693,0.448 -1.248,0.448 z m 1.664,-12.032 h 5.472 c 1.621,0 2.848,-0.341 3.68,-1.024 0.832,-0.682 1.248,-1.696 1.248,-3.04 0,-1.322 -0.416,-2.325 -1.248,-3.008 -0.832,-0.682 -2.059,-1.024 -3.68,-1.024 h -5.472 z m 20.12,11.808 c -0.576,0 -1.024,-0.149 -1.344,-0.448 -0.298,-0.32 -0.448,-0.768 -0.448,-1.344 v -18.976 c 0,-0.576 0.15,-1.013 0.448,-1.312 0.32,-0.32 0.768,-0.48 1.344,-0.48 h 11.68 c 0.448,0 0.79,0.118 1.024,0.352 0.235,0.214 0.352,0.534 0.352,0.96 0,0.448 -0.117,0.79 -0.352,1.024 -0.234,0.235 -0.576,0.352 -1.024,0.352 H 99.655 v 7.072 h 9.568 c 0.47,0 0.811,0.118 1.024,0.352 0.235,0.235 0.352,0.566 0.352,0.992 0,0.448 -0.117,0.79 -0.352,1.024 -0.213,0.214 -0.554,0.32 -1.024,0.32 h -9.568 v 7.424 h 10.272 c 0.448,0 0.79,0.118 1.024,0.352 0.235,0.235 0.352,0.566 0.352,0.992 0,0.448 -0.117,0.79 -0.352,1.024 -0.234,0.214 -0.576,0.32 -1.024,0.32 z m 16.487,0.224 c -0.427,0 -0.768,-0.096 -1.024,-0.288 -0.256,-0.192 -0.406,-0.448 -0.448,-0.768 -0.043,-0.32 0.021,-0.682 0.192,-1.088 l 8.672,-19.456 c 0.213,-0.512 0.48,-0.874 0.8,-1.088 0.341,-0.213 0.714,-0.32 1.12,-0.32 0.384,0 0.736,0.107 1.056,0.32 0.341,0.214 0.618,0.576 0.832,1.088 l 8.672,19.456 c 0.192,0.406 0.266,0.779 0.224,1.12 -0.043,0.32 -0.182,0.576 -0.416,0.768 -0.235,0.171 -0.566,0.256 -0.992,0.256 -0.47,0 -0.843,-0.117 -1.12,-0.352 -0.278,-0.234 -0.523,-0.597 -0.736,-1.088 l -2.24,-5.184 1.504,0.896 h -13.632 l 1.472,-0.896 -2.208,5.184 c -0.214,0.512 -0.448,0.886 -0.704,1.12 -0.256,0.214 -0.598,0.32 -1.024,0.32 z m 9.248,-19.104 -4.832,11.456 -0.8,-0.768 h 11.296 l -0.736,0.768 -4.864,-11.456 z m 16.234,18.88 c -0.576,0 -1.024,-0.149 -1.344,-0.448 -0.299,-0.32 -0.448,-0.768 -0.448,-1.344 v -18.976 c 0,-0.576 0.149,-1.013 0.448,-1.312 0.32,-0.32 0.768,-0.48 1.344,-0.48 h 6.176 c 3.712,0 6.571,0.971 8.576,2.912 2.027,1.92 3.04,4.704 3.04,8.352 0,1.814 -0.256,3.424 -0.768,4.832 -0.512,1.408 -1.269,2.592 -2.272,3.552 -0.981,0.939 -2.187,1.664 -3.616,2.176 -1.429,0.491 -3.083,0.736 -4.96,0.736 z m 1.536,-2.784 h 4.448 c 1.408,0 2.624,-0.17 3.648,-0.512 1.045,-0.362 1.92,-0.896 2.624,-1.6 0.704,-0.704 1.227,-1.589 1.568,-2.656 0.341,-1.066 0.512,-2.314 0.512,-3.744 0,-2.837 -0.704,-4.96 -2.112,-6.368 -1.387,-1.408 -3.467,-2.112 -6.24,-2.112 h -4.448 z m 22.495,2.784 c -0.576,0 -1.024,-0.149 -1.344,-0.448 -0.298,-0.32 -0.448,-0.768 -0.448,-1.344 v -18.976 c 0,-0.576 0.15,-1.013 0.448,-1.312 0.32,-0.32 0.768,-0.48 1.344,-0.48 h 11.68 c 0.448,0 0.79,0.118 1.024,0.352 0.235,0.214 0.352,0.534 0.352,0.96 0,0.448 -0.117,0.79 -0.352,1.024 -0.234,0.235 -0.576,0.352 -1.024,0.352 h -10.272 v 7.072 h 9.568 c 0.47,0 0.811,0.118 1.024,0.352 0.235,0.235 0.352,0.566 0.352,0.992 0,0.448 -0.117,0.79 -0.352,1.024 -0.213,0.214 -0.554,0.32 -1.024,0.32 h -9.568 v 7.424 h 10.272 c 0.448,0 0.79,0.118 1.024,0.352 0.235,0.235 0.352,0.566 0.352,0.992 0,0.448 -0.117,0.79 -0.352,1.024 -0.234,0.214 -0.576,0.32 -1.024,0.32 z m 18.716,0.224 c -0.533,0 -0.949,-0.149 -1.248,-0.448 -0.277,-0.298 -0.416,-0.714 -0.416,-1.248 v -19.392 c 0,-0.554 0.149,-0.97 0.448,-1.248 0.299,-0.298 0.715,-0.448 1.248,-0.448 h 7.648 c 2.432,0 4.309,0.576 5.632,1.728 1.323,1.152 1.984,2.784 1.984,4.896 0,1.366 -0.299,2.539 -0.896,3.52 -0.597,0.982 -1.472,1.728 -2.624,2.24 -1.131,0.512 -2.496,0.768 -4.096,0.768 l 0.288,-0.448 h 0.832 c 0.853,0 1.589,0.214 2.208,0.64 0.64,0.427 1.216,1.11 1.728,2.048 l 2.752,5.12 c 0.213,0.384 0.309,0.758 0.288,1.12 0,0.342 -0.128,0.619 -0.384,0.832 -0.235,0.214 -0.576,0.32 -1.024,0.32 -0.469,0 -0.853,-0.096 -1.152,-0.288 -0.277,-0.213 -0.533,-0.522 -0.768,-0.928 l -3.36,-6.208 c -0.448,-0.832 -0.96,-1.386 -1.536,-1.664 -0.576,-0.298 -1.333,-0.448 -2.272,-0.448 h -3.616 v 7.84 c 0,0.534 -0.139,0.95 -0.416,1.248 -0.277,0.299 -0.693,0.448 -1.248,0.448 z m 1.664,-12.032 h 5.472 c 1.621,0 2.848,-0.341 3.68,-1.024 0.832,-0.682 1.248,-1.696 1.248,-3.04 0,-1.322 -0.416,-2.325 -1.248,-3.008 -0.832,-0.682 -2.059,-1.024 -3.68,-1.024 h -5.472 z m 25.817,12.096 c -0.981,0 -1.941,-0.074 -2.88,-0.224 -0.939,-0.149 -1.824,-0.373 -2.656,-0.672 -0.832,-0.32 -1.579,-0.704 -2.24,-1.152 -0.32,-0.234 -0.544,-0.501 -0.672,-0.8 -0.107,-0.298 -0.139,-0.586 -0.096,-0.864 0.064,-0.298 0.192,-0.554 0.384,-0.768 0.192,-0.213 0.427,-0.341 0.704,-0.384 0.277,-0.064 0.587,0.022 0.928,0.256 0.96,0.619 1.973,1.078 3.04,1.376 1.067,0.278 2.229,0.416 3.488,0.416 1.813,0 3.147,-0.32 4,-0.96 0.875,-0.661 1.312,-1.514 1.312,-2.56 0,-0.853 -0.309,-1.525 -0.928,-2.016 -0.619,-0.512 -1.653,-0.917 -3.104,-1.216 l -3.424,-0.704 c -2.027,-0.426 -3.541,-1.13 -4.544,-2.112 -0.981,-0.981 -1.472,-2.304 -1.472,-3.968 0,-1.002 0.203,-1.92 0.608,-2.752 0.427,-0.832 1.013,-1.546 1.76,-2.144 0.747,-0.618 1.643,-1.088 2.688,-1.408 1.045,-0.32 2.187,-0.48 3.424,-0.48 1.323,0 2.56,0.171 3.712,0.512 1.173,0.342 2.219,0.864 3.136,1.568 0.277,0.192 0.459,0.438 0.544,0.736 0.107,0.278 0.128,0.555 0.064,0.832 -0.043,0.278 -0.16,0.512 -0.352,0.704 -0.192,0.192 -0.437,0.31 -0.736,0.352 -0.299,0.022 -0.629,-0.085 -0.992,-0.32 -0.832,-0.554 -1.685,-0.949 -2.56,-1.184 -0.853,-0.256 -1.803,-0.384 -2.848,-0.384 -1.045,0 -1.963,0.16 -2.752,0.48 -0.768,0.32 -1.365,0.768 -1.792,1.344 -0.405,0.576 -0.608,1.259 -0.608,2.048 0,0.896 0.288,1.611 0.864,2.144 0.576,0.534 1.536,0.939 2.88,1.216 l 3.392,0.704 c 2.133,0.448 3.723,1.142 4.768,2.08 1.045,0.939 1.568,2.187 1.568,3.744 0,1.003 -0.203,1.91 -0.608,2.72 -0.405,0.79 -0.981,1.472 -1.728,2.048 -0.747,0.576 -1.653,1.024 -2.72,1.344 -1.045,0.299 -2.229,0.448 -3.552,0.448 z"
     fill="#134380"
     id="path1" />
  <g
     clip-path="url(#clip2_2860_5912)"
     id="g3"
     transform="translate(-680.935,-0.27832)">
    <path
       d="m 836.786,18.401 c 8.242,-2.3668 13.902,-0.7551 17.997,5.075 4.003,5.6942 4.36,13.9631 -0.899,20.5351 0.28,0.1895 0.545,0.3976 0.833,0.5603 7.86,4.408 12.3,11.3696 14.515,19.8547 1.222,4.6855 -2.401,9.1389 -7.231,9.2509 -2.215,0.0507 -4.432,0.008 -6.817,0.008 0,-0.5683 0,-1.0406 0,-1.5129 0,-3.7809 0.013,-7.5592 -0.003,-11.3402 -0.027,-6.2944 -4.936,-10.4996 -11.177,-9.5978 -6.274,0.9073 -12.288,2.6576 -18.049,5.3233 -0.539,0.2481 -1.403,0.2161 -1.95,-0.0401 -5.998,-2.815 -12.304,-4.544 -18.846,-5.4299 -5.203,-0.7044 -10.18,3.7462 -10.262,9.1895 -0.067,4.4 -0.014,8.8 -0.014,13.1867 -5.342,1.0246 -9.411,-1.0914 -10.473,-5.494 -0.339,-1.4035 -0.179,-3.0098 0.086,-4.464 1.318,-7.2257 3.842,-14.0005 8.741,-19.5665 2.231,-2.5349 5.123,-4.4854 7.73,-6.6894 0.365,-0.3095 0.8,-0.5337 1.201,-0.7952 -0.064,-0.12 -0.086,-0.2348 -0.15,-0.2668 -4.298,-2.2066 -5.667,-5.4326 -4.28,-10.0247 1.217,-4.0291 2.332,-8.0902 3.624,-12.098 2.359,-7.32173 6.967,-12.39946 14.838,-13.584176 6.668,-1.003272 11.941,1.763736 16.026,6.969546 2.134,2.71893 3.143,5.92893 4,9.20823 0.154,0.5923 0.373,1.166 0.56,1.7424 z m -28.481,0.3202 c -0.657,3.3994 0.693,7.6579 3.194,10.3075 3.962,4.1946 9.998,4.1999 13.883,-0.072 2.908,-3.1939 3.877,-7.0096 3.167,-11.2388 -0.547,-3.2526 -2.791,-4.7735 -5.964,-3.8316 -2.19,0.651 -4.28,1.6676 -6.382,2.5935 -2.516,1.1074 -4.982,2.3534 -7.896,2.244 z m 41.926,14.4033 c 0.115,-0.0427 0.227,-0.0853 0.342,-0.1254 -0.617,-1.6757 -0.979,-3.5114 -1.9,-5.0003 -2.62,-4.2346 -7.949,-4.448 -11.1,-0.6004 -2.994,3.6556 -2.476,9.5978 1.137,12.6076 1.491,1.2434 3.218,1.8598 5.184,1.4943 3.757,-0.6938 6.34,-4.1199 6.34,-8.3758 z"
       fill="#134380"
       id="path2" />
    <path
       d="m 800.486,73.1407 c 0,-4.0451 -0.011,-8.0929 0.003,-12.138 0.008,-3.0578 1.87,-4.6374 4.909,-4.1812 6.631,0.998 12.966,2.8978 18.86,6.1691 0.424,0.2348 1.214,0.2135 1.643,-0.0294 6.044,-3.3967 12.581,-5.2351 19.383,-6.2597 2.206,-0.3336 4.248,1.3928 4.261,3.7355 0.051,8.4932 0.04,16.9863 0.005,25.4768 -0.008,2.0118 -1.2,3.346 -3.26,3.8049 -5.43,1.2114 -10.724,2.8044 -15.618,5.5234 -1.2,0.667 -2.332,1.4595 -3.5,2.1826 -1.415,0.8752 -2.893,0.9606 -4.256,0 -5.737,-4.0451 -12.24,-6.161 -18.988,-7.682 -2.319,-0.5229 -3.426,-1.8384 -3.437,-4.1998 -0.018,-4.1359 -0.005,-8.269 -0.005,-12.4048 z"
       fill="#134380"
       id="path3" />
  </g>
  <defs
     id="defs5">
    <clipPath
       id="clip0_2860_5912">
      <rect
         width="97.837799"
         height="97.837799"
         fill="#ffffff"
         transform="translate(108.79,0.27832)"
         id="rect3"
         x="0"
         y="0" />
    </clipPath>
    <clipPath
       id="clip1_2860_5912">
      <rect
         width="97.837799"
         height="97.817001"
         fill="#ffffff"
         transform="translate(449.506,0.27832)"
         id="rect4"
         x="0"
         y="0" />
    </clipPath>
    <clipPath
       id="clip2_2860_5912">
      <rect
         width="85.254204"
         height="97.837799"
         fill="#ffffff"
         transform="translate(784.215,0.27832)"
         id="rect5"
         x="0"
         y="0" />
    </clipPath>
  </defs>
</svg>
