<svg width="86" height="99" viewBox="0 0 86 99" fill="none" xmlns="http://www.w3.org/2000/svg">
<g clip-path="url(#clip0_2593_4699)">
<path d="M52.7859 18.401C61.0282 16.0342 66.6876 17.6459 70.7834 23.476C74.7858 29.1702 75.1433 37.4391 69.8842 44.0111C70.1643 44.2006 70.4285 44.4087 70.7167 44.5714C78.5774 48.9794 83.0174 55.941 85.2321 64.4261C86.4542 69.1116 82.8307 73.565 78.0011 73.677C75.7864 73.7277 73.5691 73.685 71.1836 73.685C71.1836 73.1167 71.1836 72.6444 71.1836 72.1721C71.1836 68.3912 71.197 64.6129 71.181 60.8319C71.1543 54.5375 66.2446 50.3323 60.0035 51.2341C53.7304 52.1414 47.7161 53.8917 41.9553 56.5574C41.4163 56.8055 40.5518 56.7735 40.0048 56.5173C34.0065 53.7023 27.7014 51.9733 21.1587 51.0874C15.9556 50.383 10.9793 54.8336 10.8965 60.2769C10.8298 64.6769 10.8832 69.0769 10.8832 73.4636C5.54131 74.4882 1.47218 72.3722 0.410207 67.9696C0.0713353 66.5661 0.231432 64.9598 0.495592 63.5056C1.81372 56.2799 4.33791 49.5051 9.23687 43.9391C11.4676 41.4042 14.36 39.4537 16.9669 37.2497C17.3324 36.9402 17.7674 36.716 18.1676 36.4545C18.1036 36.3345 18.0822 36.2197 18.0182 36.1877C13.7196 33.9811 12.3508 30.7551 13.7383 26.163C14.955 22.1339 16.0703 18.0728 17.3618 14.065C19.7205 6.74327 24.3287 1.66554 32.2001 0.480824C38.8681 -0.522448 44.1406 2.24456 48.2258 7.45037C50.3604 10.1693 51.369 13.3793 52.2255 16.6586C52.3803 17.2509 52.5991 17.8246 52.7859 18.401ZM24.3046 18.7212C23.6482 22.1206 24.9984 26.3791 27.4986 29.0287C31.461 33.2233 37.4966 33.2286 41.3816 28.9567C44.29 25.7628 45.2586 21.9471 44.5489 17.7179C44.0019 14.4653 41.7579 12.9444 38.5853 13.8863C36.3946 14.5373 34.3053 15.5539 32.2027 16.4798C29.6866 17.5872 27.2211 18.8332 24.3073 18.7238L24.3046 18.7212ZM66.2313 33.1245C66.346 33.0818 66.4581 33.0392 66.5728 32.9991C65.9565 31.3234 65.5936 29.4877 64.673 27.9988C62.0528 23.7642 56.7242 23.5508 53.573 27.3984C50.5792 31.054 51.0968 36.9962 54.7097 40.006C56.2012 41.2494 57.9276 41.8658 59.8941 41.5003C63.6511 40.8065 66.234 37.3804 66.234 33.1245H66.2313Z" fill="#134380"/>
<path d="M16.4861 73.1407C16.4861 69.0956 16.4754 65.0478 16.4887 61.0027C16.4967 57.9449 18.3592 56.3653 21.3984 56.8215C28.029 57.8195 34.3635 59.7193 40.2578 62.9906C40.682 63.2254 41.4718 63.2041 41.9014 62.9612C47.9451 59.5645 54.4823 57.7261 61.2838 56.7015C63.4905 56.3679 65.5317 58.0943 65.545 60.437C65.5957 68.9302 65.5851 77.4233 65.5504 85.9138C65.5424 87.9256 64.3496 89.2598 62.2897 89.7187C56.8598 90.9301 51.5659 92.5231 46.6723 95.2421C45.4716 95.9091 44.3402 96.7016 43.1715 97.4247C41.7573 98.2999 40.2791 98.3853 38.9156 97.4247C33.1788 93.3796 26.6762 91.2637 19.9281 89.7427C17.6094 89.2198 16.5021 87.9043 16.4914 85.5429C16.4727 81.407 16.4861 77.2739 16.4861 73.1381V73.1407Z" fill="#134380"/>
</g>
<defs>
<clipPath id="clip0_2593_4699">
<rect width="85.2542" height="97.8378" fill="white" transform="translate(0.214844 0.27832)"/>
</clipPath>
</defs>
</svg>
